<?xml version="1.0" standalone="no"?>
<!DOCTYPE svg PUBLIC "-//W3C//DTD SVG 1.1//EN" "http://www.w3.org/Graphics/SVG/1.1/DTD/svg11.dtd" >
<svg xmlns="http://www.w3.org/2000/svg">
<metadata>
Created by FontPrep 20130207 at Sun May 10 19:02:31 2015
 By caleb
Typeface and data copyright 1999 Microsoft Corporation. All Rights Reserved.
</metadata>
<defs>
<font id="b5bdee2c4cb2dea56a18be017796d76a" horiz-adv-x='1024' >
  <font-face 
    font-family="Sylfaen"
    font-weight="400"
    font-stretch="normal"
    units-per-em="2048"
    panose-1="1 10 5 2 5 3 6 3 3 3"
    ascent="1638"
    descent="-410"
    x-height="889"
    cap-height="1378"
    bbox="-335.556 -604 2907 2062"
    underline-thickness="95"
    underline-position="-137"
    unicode-range="U+0020-FFFC"
  />
<missing-glyph horiz-adv-x="748" 
d="M136 68h408v1229h-408v-1229zM68 0v1365h544v-1365h-544z" />
    <glyph glyph-name="IJ" unicode="IJ" horiz-adv-x="1319" 
d="M637 1378q10 0 10 -10v-53q0 -10 -10 -10l-174 -17q-10 0 -10 -10v-1178q0 -10 10 -10l174 -16q10 0 10 -11v-53q0 -10 -10 -10h-551q-10 0 -10 10v53q0 11 10 11l174 16q10 0 10 10v1178q0 10 -10 10l-174 17q-10 0 -10 10v53q0 10 10 10h551zM1279 1380q5 0 5 -12v-53
q0 -10 -11 -10l-174 -17q-10 0 -10 -10v-1051q0 -216 -59 -344q-80 -173 -316 -264q-7 0 -10 8l-24 41q-7 15 0 19q102 64 142 112q74 89 88 268q5 64 5 150v1061q0 10 -10 10l-174 17q-11 0 -11 10v53q0 10 11 10h542q1 2 6 2z" />
    <glyph glyph-name="ij" unicode="ij" horiz-adv-x="1071" 
d="M66 0q-11 0 -11 10v51q0 11 11 11l143 14q10 0 10 10v676q0 10 -10 10l-148 17q-10 0 -10 10v47q0 10 8 10l246 41q4 1 12 2h58q10 0 10 -10v-803q0 -10 10 -10l133 -14q11 0 11 -11v-51q0 -10 -11 -10h-462zM291 1389q48 -1 79 -31t31 -78t-31 -78t-79 -31q-47 1 -79 31
t-32 78t32 78t79 31zM898 909q11 0 11 -10v-838q0 -214 -55 -331q-78 -165 -302 -254q-7 0 -10 8l-25 43q-6 10 0 16q98 62 147 122t64 152t15 234v721q0 10 -11 10l-147 17q-10 0 -10 10v47q3 10 8 10l246 41q4 1 12 2h57zM814 1389q48 0 80 -30q31 -31 31 -79
q1 -48 -31 -78t-80 -31q-48 1 -79 31t-31 78t31 78t79 31z" />
    <glyph glyph-name="fi" unicode="fi" horiz-adv-x="1161" 
d="M952 901q11 0 11 -10v-795q0 -10 10 -10l133 -14q10 0 10 -11v-51q0 -10 -10 -10h-453q-10 0 -10 10v51q0 11 10 11l133 14q11 0 11 10v680q0 10 -11 10h-393q-10 0 -10 -10v-680q0 -10 10 -10l139 -14q11 0 11 -11v-51q0 -10 -11 -10h-485q-10 0 -10 10v51q0 11 10 11
l160 14q10 0 10 10v684q-3 6 -10 6h-152q-10 0 -10 11v51q0 10 10 10l152 19q10 0 10 10v92q0 214 79 340.5t331 126.5q125 0 268 -51q10 -4 10 -13v-227q0 -8 -10 -8h-76q-10 0 -10 8l-29 143q-6 34 -76 43t-113 9q-104 0 -156 -67.5t-52 -215.5v-176q0 -10 10 -10h244
q38 0 82 4l164 14l20 2h49z" />
    <glyph glyph-name="fl" unicode="fl" horiz-adv-x="1161" 
d="M602 1446q86 0 178 -23l103 21q6 2 7 2h62q11 0 11 -10v-1340q0 -10 10 -10l133 -14q10 0 10 -11v-51q0 -10 -10 -10h-453q-10 0 -10 10v51q0 11 10 11l133 14q11 0 11 10v690h-404q-10 0 -10 -10v-680q0 -10 10 -10l139 -14q11 0 11 -11v-51q0 -10 -11 -10h-485
q-10 0 -10 10v51q0 11 10 11l160 14q10 0 10 10v684q-3 6 -10 6h-152q-10 0 -10 11v51q0 10 10 10l152 19q10 0 10 10v92q0 146 23.5 226t73.5 131t126 80.5t162 29.5zM393 881h404v409q-3 7 -13 17q-60 43 -148 43t-170.5 -32t-82.5 -251v-176q0 -10 10 -10z" />
    <glyph glyph-name="uniFB13" unicode="&#x574;&#x576;" horiz-adv-x="2185" 
d="M1828 0v88q-27 -17 -127 -67t-196 -50t-173 75.5t-77 184.5v556q0 10 -10 10l-297 1v-700l10 -12l131 -14q10 0 10 -11v-51l-10 -10h-307v98q-27 -17 -135 -71t-205 -56t-174.5 74.5t-77.5 185.5v541q0 10 -10 10l-129 17q-10 0 -10 10v47q0 10 8 10l225 41q11 2 21 2h51
q10 0 10 -10v-602q0 -209 181 -209q70 0 243 78v632h-38q-147 0 -222 41q-101 55 -101 201q0 84 41 156t120 72q40 0 73 -3l8 -12l-17 -129l-14 -8q-28 27 -78 27q-61 0 -61 -99t78 -135q52 -24 173 -24h38v327q0 96 71 165t185 69q40 0 94 -21l4 -10l21 -180l-7 -10h-32
l-15 4q-29 80 -106 80q-109 0 -109 -120t62 -280v-24h463q10 0 10 -10v-578q0 -209 181 -209q70 0 224 68v614q-12 12 -9 12l-151 17q-11 0 -11 10v47q0 10 9 10l245 41q12 2 21 2h49q3 0 13 -10l1 -801l10 -12l131 -14q10 0 10 -11v-51l-10 -10h-306z" />
    <glyph glyph-name="uniFB14" unicode="&#x574;&#x565;" horiz-adv-x="2168" 
d="M2117 10q0 1 -11 -10h-307v92q-65 -38 -130 -75q-91 -46 -175 -46q-84 1 -148 61q-63 60 -63 173v942q0 78 -47 133t-124 55q-176 0 -176 -272v-965q0 -10 10 -10l140 -16q10 0 10 -11v-52q0 -10 -8 -10l-302 -1q-10 0 -10 10l1 80q-206 -117 -309 -117t-181.5 77
t-78.5 189v535q0 10 -10 10l-147 17q-10 0 -10 10v47q0 10 8 10l246 41q12 2 21 2h48q10 0 10 -10v-602q1 -106 45.5 -157.5t145.5 -51.5q54 0 205 69v857q0 189 88 300t271 111q121 -1 219 -75t101 -187v-280q9 -9 12 -9h559q11 0 11 -10v-67q0 -11 -11 -11h-561l-10 -10
v-528q-2 -158 115 -158q52 0 235 72v338l10 12h142l14 -12v-408q6 -6 10 -6l131 -14q11 0 11 -11v-51z" />
    <glyph glyph-name="uniFB15" unicode="&#x574;&#x56b;" horiz-adv-x="2199" 
d="M2158 10q0 -10 -10 -10h-449q-10 0 -10 10v51q0 11 10 11l129 14q10 0 10 10v469q0 100 -46 170t-144 70t-207 -62v-1206l169 -14q10 -1 10 -10v-52l-20 -10h-491q-10 0 -10 10v52q0 10 10 10l153 14l13 17v1594q0 80 -42 139q-43 59 -127 59t-121 -68t-37 -215v-969
q4 -10 10 -10l148 -16q10 0 10 -11v-47q0 -10 -8 -10h-315q-11 0 -11 10v82q-25 -19 -123 -69q-97 -55 -203 -52t-176.5 77.5t-70.5 197.5v526q0 10 -10 10l-148 17q-10 0 -10 10v47q0 10 8 10l246 41q12 2 20 2h50q10 0 10 -10v-600q2 -211 182 -211q86 0 225 76v850
q0 411 349 411q309 0 310 -303v-304q29 20 117 60t182 40t179 -79t85 -214v-529q0 -10 11 -10l133 -14q10 0 10 -11v-51z" />
    <glyph glyph-name="uniFB16" unicode="&#x57e;&#x576;" horiz-adv-x="2180" 
d="M2139 10q0 -10 -8 -10h-315q-11 0 -11 10v82q-25 -19 -123 -69q-96 -55 -202 -52t-176 77.5t-72 197.5v552l-284 2v-1246q6 -11 12 -11h220q10 0 10 -10v-72q0 -6 -10 -10h-389l-9 10v637q-25 -19 -110 -73t-196 -54t-188 72t-79 182v547q0 10 -10 10l-150 17
q-10 0 -10 10v47q0 10 8 10l248 41q12 2 20 2h50q10 0 10 -10v-602q0 -209 184 -209q94 0 223 86v625h-37q-145 -2 -225 41q-104 55 -104 200q0 84 42 156t120 72q40 0 71 -2l8 -13l-16 -129l-14 -8q-28 27 -78 27q-62 0 -62 -94q0 -166 258 -166h37v426q0 10 -10 10
l-149 16q-11 0 -11 11v47q0 10 9 10l245 41q12 2 21 2h51q10 0 10 -10v-553h450v-584q2 -211 182 -211q86 0 225 76v608q0 10 -10 10l-147 17q-11 0 -11 10v47q0 10 9 10l245 41q12 2 21 2h49q10 0 10 -10v-805q0 -10 10 -10l148 -16q10 0 10 -11v-47z" />
    <glyph glyph-name="uniFB17" unicode="&#x574;&#x56d;" horiz-adv-x="2664" 
d="M2623 10q0 1 -11 -10h-303v92q-25 -19 -118 -69q-93 -55 -201 -52t-180 78t-72 197v321q0 228 -152 228q-72 0 -145 -29v-1229l169 -14q10 -1 10 -10v-52l-20 -10h-491q-10 0 -10 10v52q0 10 10 10l153 14l13 17v1594q0 80 -42 139q-43 59 -127 59t-121 -68t-37 -215
v-969q0 -10 10 -10l148 -16q10 0 10 -11v-47q0 -10 -8 -10h-315q-11 0 -11 10v82q-25 -19 -123 -69q-97 -55 -203 -52t-176.5 77.5t-68.5 197.5v526q0 10 -10 10l-148 17q-10 0 -10 10v47q0 10 8 10l244 41q12 2 20 2h52q10 0 10 -10v-600q0 -211 180 -211q86 0 225 76v850
q0 411 349 411q309 0 310 -303v-271l111 50q38 17 116 17q127 0 189 -103q47 -77 47 -186v-330q0 -95 47 -153t135 -58t223 76v608q0 10 -10 10l-147 17q-11 0 -11 10v47q0 10 9 10l245 41q12 2 21 2h49q10 0 10 -10v-813l137 -14q11 0 11 -11v-51z" />
    <glyph glyph-name="glyph624" unicode="&#x548;&#x552;" horiz-adv-x="2928" 
d="M1521 10q0 -10 -11 -10h-555q-10 4 -10 10v53q0 11 10 11l174 16q11 0 11 10v920q-2 144 -113 220t-255 77q-144 -1 -236 -87t-93 -231v-899q0 -10 11 -10l184 -16q10 0 10 -11v-53q0 -10 -10 -10h-555q-10 0 -10 10v53q0 11 10 11l172 16q10 0 10 10v904q0 194 180 308
q151 97 340 97q239 0 386 -121t147 -289v-899q0 -10 10 -10l182 -16q11 0 11 -11v-53zM2907 430q0 -10 -10 -10h-350l-11 10v119q0 168 -39 247q-60 122 -227 122q-127 0 -207 -59t-80 -138v-619l10 -12l181 -16q10 0 10 -11v-53q0 -10 -10 -10h-551q-10 0 -10 10v53
q0 11 10 11l172 16q10 0 10 10v1178q0 10 -10 10l-172 17q-10 0 -10 10v53q0 10 10 10h547q10 0 10 -10v-53q0 -10 -10 -10l-177 -17l-10 -10v-360q143 92 309 92t283 -84q140 -99 140 -295v-111q0 -10 10 -10l172 -16q10 0 10 -11v-53z" />
    <glyph glyph-name="glyph673" unicode="&#x578;&#x582;" horiz-adv-x="1898" 
d="M1108 10q0 -10 -10 -10h-449q-10 0 -10 10v51q0 11 10 11l129 14q10 0 10 10v469q0 103 -50 169t-148 65q-98 0 -215 -68v-635q0 -10 10 -10l129 -14q10 0 10 -11v-51q0 -10 -10 -10h-459q-10 0 -10 10v51q0 11 10 11l144 14q10 0 10 10v676q0 10 -10 10l-148 17
q-10 0 -10 10v47q0 10 8 10l246 41q12 2 20 2h50q10 0 10 -10v-88q29 19 119 63t176 44q122 0 203 -86t81 -207v-529q0 -10 11 -10l133 -14q10 0 10 -11v-51zM1871 10q0 -10 -11 -10h-571v772q0 10 -10 10l-148 17q-10 0 -10 10v47q0 10 8 10l246 41q12 2 20 2h50
q10 0 10 -10v-813h401l15 -10v-66z" />
    <glyph glyph-name=".notdef" horiz-adv-x="748" 
d="M136 68h408v1229h-408v-1229zM68 0v1365h544v-1365h-544z" />
    <glyph glyph-name=".null" horiz-adv-x="0" 
 />
    <glyph glyph-name="nonmarkingreturn" horiz-adv-x="512" 
 />
    <glyph glyph-name="space" unicode=" " horiz-adv-x="512" 
 />
    <glyph glyph-name="space" unicode="&#xa0;" horiz-adv-x="512" 
 />
    <glyph glyph-name="exclam" unicode="!" horiz-adv-x="543" 
d="M281 195q45 0 78.5 -34.5t33.5 -78.5t-34.5 -77.5t-78.5 -33.5t-77 33.5t-33 77.5t33 78.5t78 34.5zM254 332q-9 0 -10 10l-80 1026q-1 10 10 10h215q11 0 10 -10l-80 -1026q-1 -10 -10 -10h-55z" />
    <glyph glyph-name="quotedbl" unicode="&#x22;" horiz-adv-x="713" 
d="M295 1409q10 0 10 -10l-45 -477q0 -11 -10 -11h-53q-11 0 -11 11l-43 477q0 10 9 10h143zM559 1409q10 0 10 -10l-45 -477q0 -11 -10 -11h-53q-10 0 -10 11l-43 477q0 10 8 10h143z" />
    <glyph glyph-name="numbersign" unicode="#" 
d="M438 1278h68q14 0 10 -12l-74 -377h232l74 381q0 8 10 8h67q4 0 8.5 -3t2.5 -9l-74 -377h219q14 0 10 -12l-18 -89q0 -8 -10 -8h-222l-53 -282h213q4 0 8 -4.5t2 -8.5l-18 -88q0 -8 -10 -8h-215l-72 -381q0 -8 -10 -8h-68q-14 0 -10 12l72 377h-232l-72 -381q0 -8 -10 -8
h-67q-4 0 -8.5 3t-2.5 9l72 377h-217q-14 0 -10 12l18 93v-5q0 9 10 9h220l53 282h-211q-4 0 -8 4t-2 9l18 88q0 8 10 8h213l74 381q0 8 10 8zM369 498h231l53 282h-231z" />
    <glyph glyph-name="dollar" unicode="$" 
d="M769 977q-10 0 -10 12l-41 219q-4 2 -37 17t-133 24v-477l75 -33q151 -64 232.5 -145.5t81.5 -230.5t-107.5 -253.5t-281.5 -129.5v-164q0 -11 -11 -11h-73q-10 0 -10 11v155h-25q-148 0 -320 49q-4 3 -7 5t-3 10v295q0 14 10 14h80q2 0 6.5 -3t4.5 -9l36 -217
q0 -1 14 -9q23 -12 83.5 -23t115.5 -11h5v522l-54 24q-152 65 -207 120t-80.5 107t-25.5 127q0 146 102.5 243.5t264.5 123.5v164q0 10 10 10h73q11 0 11 -10v-157q67 0 167.5 -18t118.5 -24t20.5 -8t2.5 -10v-295q0 -14 -10 -14h-78zM755 302q0 88 -56 145.5t-151 103.5
v-469q141 26 174 100t33 120zM261 1024q0 -59 49 -112t144 -99v430q-132 -27 -162.5 -93.5t-30.5 -125.5z" />
    <glyph glyph-name="percent" unicode="%" horiz-adv-x="1720" 
d="M131 1285q96 124 253 124t248 -114.5t91 -307t-96 -314.5t-253.5 -122t-248 116t-90.5 305t96 313zM567 1011q0 112 -51 212t-138 100t-137.5 -91t-50.5 -244t52 -252t142 -99q132 0 157.5 131t25.5 243zM1092 704.5q96 124.5 254 124.5t248.5 -116.5t90.5 -305.5
t-97 -312.5t-256 -123.5q-157 0 -246.5 115t-89.5 304.5t96 314zM1529 432q0 113 -52.5 212t-138.5 99t-136 -92.5t-50 -244.5t53.5 -250.5t140.5 -98.5q129 0 156 131t27 244zM1241 1421l53 -32q9 -9 2 -15l-798 -1403q-2 -6 -7.5 -7t-7.5 1l-55 33q-8 6 -2 16l799 1403
q8 10 16 4z" />
    <glyph glyph-name="ampersand" unicode="&#x26;" horiz-adv-x="1497" 
d="M798 1332.5q87 -76.5 87 -189.5q0 -158 -97.5 -233.5t-185.5 -116.5l365 -385q81 127 108 234.5t31 145.5q0 15 -14 15l-150 12q-10 0 -10 10v54q0 10 10 10h438q11 0 11 -10v-54q0 -10 -11 -10l-166 -12q-16 -3 -16 -15q-12 -128 -71.5 -263.5t-92.5 -188.5l232 -242
q4 -4 10 -4l170 -16q10 0 10 -11v-53q0 -10 -10 -10h-330q-6 0 -10 4l-176 182q-91 -105 -159.5 -143.5t-135 -55t-195 -16.5t-248.5 106t-120 251t73.5 251.5t227.5 192.5q-84 96 -115 164t-31 145q0 78 26 136.5t98.5 125t216.5 66.5q143 0 230 -76.5zM731 1122
q0 92 -50 142.5t-127 50.5t-123 -44t-46 -118t42 -144.5t118 -150.5q186 93 186 264zM256 404q0 -56 24.5 -114.5t93.5 -122t201 -63.5q173 0 285 152l-428 451q-118 -70 -147 -158.5t-29 -144.5z" />
    <glyph glyph-name="quotesingle" unicode="'" horiz-adv-x="449" 
d="M295 1409q10 0 10 -10l-45 -477q0 -11 -10 -11h-53q-11 0 -11 11l-43 477q0 10 9 10h143z" />
    <glyph glyph-name="parenleft" unicode="(" horiz-adv-x="670" 
d="M607 1408q0 -4 -3 -9q-189 -193 -270 -451q-64 -204 -64 -424q0 -394 177 -673q69 -109 157 -201q4 -5 4 -10t-4 -9l-47 -32q-7 -9 -16 0q-179 154 -285 368q-133 268 -133 557q0 218 80 434q51 139 125 249q74 109 143 177q68 68 75 68t11 -2l47 -33q3 -5 3 -9z" />
    <glyph glyph-name="parenright" unicode=")" horiz-adv-x="670" 
d="M62 -360q0 6 5 10q190 200 261 425t71 449q0 394 -175 674q-69 109 -158 201q-9 10 0 18l47 33q6 2 10 2t6 -2q341 -302 408 -776q10 -76 10 -150q0 -284 -133 -557q-104 -213 -285 -368q-9 -6 -16 0l-46 32q-5 3 -5 9z" />
    <glyph glyph-name="asterisk" unicode="*" horiz-adv-x="639" 
d="M268 1378h103q10 0 10 -12l-33 -213l168 135q8 6 16 -2l52 -90q8 -10 -4 -14l-203 -78l203 -78q12 -4 4 -14l-52 -90q-12 -12 -16 -2l-168 135l33 -213q0 -13 -10 -13h-103q-10 0 -10 13l33 213l-168 -135q-4 -9 -17 2l-51 90q-8 10 4 14l203 78l-203 78q-12 4 -4 14
l51 90q9 10 17 2l168 -135l-33 213q0 12 10 12z" />
    <glyph glyph-name="plus" unicode="+" 
d="M61 508q0 10 11 10h389v414q0 10 10 10h82q10 0 10 -10v-414h389q11 0 11 -10v-74q0 -10 -11 -10h-389v-414q0 -10 -10 -10h-82q-10 0 -10 10v414h-389q-11 0 -11 10v74z" />
    <glyph glyph-name="comma" unicode="," horiz-adv-x="512" 
d="M273 -27q0 113 -117 113q-29 29 -29 66q0 90 97 90q66 0 120 -52t54 -147q0 -193 -242 -295q-6 -4 -10 4l-19 41q-4 6 2 10q144 68 144 170z" />
    <glyph glyph-name="hyphen" unicode="-" horiz-adv-x="776" 
d="M113 475q-11 0 -11 10v86q0 11 11 11h551q10 0 10 -11v-86q0 -10 -10 -10h-551z" />
    <glyph glyph-name="hyphen" unicode="&#xad;" horiz-adv-x="776" 
d="M113 475q-11 0 -11 10v86q0 11 11 11h551q10 0 10 -11v-86q0 -10 -10 -10h-551z" />
    <glyph glyph-name="period" unicode="." horiz-adv-x="512" 
d="M255 207q79 0 109 -72q9 -23 9 -59q-1 -36 -37 -70t-82 -35q-46 0 -81 34.5t-35 83.5t34 83.5t83 34.5z" />
    <glyph glyph-name="slash" unicode="/" horiz-adv-x="635" 
d="M627 1419q10 -3 6 -14l-553 -1526q-2 -10 -14 -6l-76 25q-10 3 -6 14l553 1526q3 9 14 6z" />
    <glyph glyph-name="zero" unicode="0" 
d="M967 706q-1 -341 -123 -539t-350 -198t-332 178q-105 178 -105 522t122 542q123 198 351 198t332.5 -181t104.5 -522zM500 1317q-248 0 -248 -612q0 -293 72 -469t200 -175q248 0 248 453t-72 628t-200 175z" />
    <glyph glyph-name="one" unicode="1" 
d="M444 98v1098q0 12 -10 12l-217 -28q-5 1 -8 8l-14 53q0 2 6 8l344 140q8 2 10 2h55q8 0 8 -9v-1284q0 -11 13 -12l174 -14q8 -1 8 -9v-55q0 -8 -8 -8h-557q-8 0 -8 8v55q0 8 8 9l184 14q12 0 12 12z" />
    <glyph glyph-name="two" unicode="2" 
d="M924 166q8 0 8 -8v-150q0 -8 -8 -8h-840q-2 0 -6 4l-31 51q-2 3 -2 7t4 6q292 251 475 505q57 80 103.5 200.5t46.5 238.5t-68 205q-68 88 -186 88q-86 0 -160 -37q-9 -2 -12 -19l-33 -207q0 -6 -8 -6h-84q-8 0 -8 8v273q0 8 8 14q58 35 157 57t199 21q177 0 293 -91
t117 -247q0 -121 -56 -252t-137 -239q-131 -174 -395 -414h623z" />
    <glyph glyph-name="three" unicode="3" 
d="M303 768q0 6 8 6q156 0 251 82t95 206t-63 185.5t-152 61.5t-204 -41q-10 -4 -15 -19l-28 -209q0 -8 -11 -8h-73q-9 0 -9 8v295q0 6 9 11q187 63 349 63t269 -66q129 -81 129 -235q0 -101 -67 -188.5t-175 -131.5q155 -28 247.5 -130t92.5 -238q0 -211 -161 -330
t-369 -119q-162 0 -334 54q-8 4 -8 8v311q0 8 8 8h82q8 -2 8 -6l41 -233q0 -10 10 -13q71 -34 201 -34t215 80q84 80 84 228.5t-93 229t-251 80.5q-44 0 -78 -4q-8 0 -8 8v80z" />
    <glyph glyph-name="four" unicode="4" 
d="M600 524q12 0 12 13v571l-395 -584h383zM612 365q0 12 -12 12h-537q-4 0 -4 1t-2 3l-16 41q-2 6 0 10l670 963q4 4 6 4l61 -8q8 0 8 -9v-845q0 -13 13 -13h182q8 0 8 -8v-131q0 -8 -8 -8h-182q-13 0 -13 -12v-267q0 -12 13 -12l135 -14q8 0 8 -9v-55q0 -8 -8 -8h-481
q-9 0 -9 8v55q0 9 9 9l147 14q12 0 12 12v267z" />
    <glyph glyph-name="five" unicode="5" 
d="M422 922q211 0 347 -121t136 -331t-158 -354.5t-391 -144.5q-72 0 -162 24t-143 71q-10 10 -6 14l41 59q5 5 14 0q72 -47 185 -64q32 -5 63 -5q153 0 253.5 99t100.5 247t-96.5 238.5t-251.5 90.5q-95 0 -215 -32q-16 -4 -16 8v649q0 8 10 8h674q8 0 8 -8v-158
q0 -8 -8 -8h-559q-15 0 -15 -14v-291l5 4q86 19 184 19z" />
    <glyph glyph-name="six" unicode="6" 
d="M553 862q195 0 313.5 -118.5t118.5 -313.5t-128 -327q-129 -132 -341 -132q-212 -1 -334 153t-121 370q0 373 244 649q209 237 551 272q12 0 12 -8l13 -66q0 -9 -15 -12q-296 -56 -424 -237q-87 -126 -137 -297q127 67 248 67zM776 389q0 348 -295 348q-117 0 -192 -47
q-25 -133 -25 -216t29 -174q50 -157 162 -210q41 -20 90 -20q119 0 181 100q50 80 50 219z" />
    <glyph glyph-name="seven" unicode="7" 
d="M391 -10h-196q-9 0 -9 6t2 8l623 1217h-602q-14 0 -14 -13l-27 -147q0 -6 -12 -6h-76q-8 0 -8 6v309q0 8 8 8h844q5 -1 8 -4l29 -43q1 -3 3 -5t-1 -7l-564 -1323q-6 -6 -8 -6z" />
    <glyph glyph-name="eight" unicode="8" 
d="M104 1055q0 166 118 260t288 94q171 0 279 -86t108 -229q0 -222 -248 -351q164 -81 238 -171t74 -220q-1 -130 -81 -223q-80 -92 -187 -125t-199 -33q-178 -1 -304 95t-127 242q1 146 77 237q76 92 218 160q-128 69 -191 149t-63 201zM506 1311q-94 0 -144.5 -62.5
t-50.5 -162.5q-1 -100 55 -164q56 -62 183 -125h14q150 85 150 282q0 104 -56.5 168t-150.5 64zM512 74q161 0 216 148q17 46 17 102q0 162 -172 266q-55 33 -118 63q-89 -40 -139 -127t-50 -190q0 -178 138 -240q47 -22 108 -22z" />
    <glyph glyph-name="nine" unicode="9" 
d="M477 518q-191 0 -307.5 118.5t-116.5 307.5q0 143 70 258.5t197 170.5q83 36 186 36q216 0 334 -152t118 -370q0 -368 -237 -649q-197 -233 -541 -271q-12 0 -12 8l-10 66q0 5 14 12q293 63 412 236q82 117 133 295q-113 -66 -240 -66zM756 939q0 79 -39 177t-101 147
q-62 48 -131 48q-114 0 -173 -101q-50 -84 -50 -232t68 -241q68 -94 217 -94q111 0 186 47l16 114q7 56 7 135z" />
    <glyph glyph-name="colon" unicode=":" horiz-adv-x="512" 
d="M255 207q79 0 109 -72q9 -23 9 -59q-1 -36 -37 -70t-82 -35q-46 0 -81 34.5t-35 83.5t34 83.5t83 34.5zM255 889q79 0 109 -72q9 -23 9 -59q-1 -36 -37 -70t-82 -35q-46 0 -81 34.5t-35 83.5t34 83.5t83 34.5z" />
    <glyph glyph-name="semicolon" unicode=";" horiz-adv-x="512" 
d="M271 889q79 0 109 -72q9 -23 9 -59q-1 -36 -37 -70t-82 -35q-46 0 -81 34.5t-35 83.5t34 83.5t83 34.5zM281 -27q0 113 -117 113q-29 29 -29 66q0 90 97 90q66 0 120 -54t54 -145q0 -193 -242 -295q-6 -4 -10 4l-19 41q-4 6 2 10q144 68 144 170z" />
    <glyph glyph-name="semicolon" unicode="&#x37e;" horiz-adv-x="512" 
d="M271 889q79 0 109 -72q9 -23 9 -59q-1 -36 -37 -70t-82 -35q-46 0 -81 34.5t-35 83.5t34 83.5t83 34.5zM281 -27q0 113 -117 113q-29 29 -29 66q0 90 97 90q66 0 120 -54t54 -145q0 -193 -242 -295q-6 -4 -10 4l-19 41q-4 6 2 10q144 68 144 170z" />
    <glyph glyph-name="less" unicode="&#x3c;" 
d="M866 127v-82q0 -6 -5 -8t-9 0l-739 393q-7 2 -7 8v66q0 4 7 8l739 393q4 2 9 0t5 -8v-82q0 -4 -6 -8l-641 -336l641 -336q6 -4 6 -8z" />
    <glyph glyph-name="equal" unicode="=" 
d="M72 682h880q11 0 11 -10v-74q0 -10 -11 -10h-880q-11 0 -11 10v74q0 10 11 10zM72 365h880q11 0 11 -11v-73q0 -11 -11 -11h-880q-11 0 -11 11v73q0 11 11 11z" />
    <glyph glyph-name="greater" unicode="&#x3e;" 
d="M158 815v82q0 6 5 8t9 0l739 -393q7 -4 7 -8v-66q0 -6 -7 -8l-739 -393q-4 -2 -9 0t-5 8v82q0 4 6 8l641 336l-641 336q-6 4 -6 8z" />
    <glyph glyph-name="question" unicode="?" horiz-adv-x="801" 
d="M297 332q-16 0 -18 20t-2 92q1 72 31 169t107 201t99 160t23 97q0 120 -60 182t-157 62q-59 0 -115 -27q-8 -4 -10 -16l-29 -152q0 -8 -10 -8h-63q-11 0 -11 8v228q0 8 11 10q115 41 175 46t101 5q155 0 257 -77t102 -226q0 -81 -40 -150t-122 -158q-81 -89 -111 -134
q-90 -136 -90 -320q0 -12 -16 -12h-52zM324 195q44 0 78.5 -34.5t34.5 -78.5t-34.5 -77.5t-78.5 -33.5q-68 0 -101 69q-10 19 -10 52t33.5 68t77.5 35z" />
    <glyph glyph-name="at" unicode="@" horiz-adv-x="1731" 
d="M1223 901v-6l-74 -657q-13 -113 46 -151q17 -11 39 -11t50 12t45 29q38 24 75 76q107 148 107 378q0 283 -163 447t-426 164q-222 0 -374 -118t-226 -296q-74 -179 -74 -365q0 -343 197 -530q179 -171 446 -174t405 94q8 5 15 -2l26 -41q4 -10 -2 -16q-77 -70 -219 -102
t-250 -31q-277 1 -481 141t-273 398q-30 108 -30 239q0 253 116 456t312 320t407 117t365 -73q259 -123 339 -398q28 -96 28 -215q0 -247 -147 -430q-95 -119 -213 -163q-61 -22 -127 -22q-66 1 -110 45t-59 131q-176 -176 -291 -176q-87 0 -148 58q-97 92 -97 251
q0 158 68 307t188 242t245 93q61 0 138 -37l71 28l7 2l43 -10q6 -2 6 -4zM946 840q-86 0 -160 -78t-113 -200q-40 -124 -40 -228t26 -161q36 -79 99 -79q33 0 84 33t155 127l64 520q-29 66 -115 66z" />
    <glyph glyph-name="A" unicode="A" horiz-adv-x="1454" 
d="M897 0q-10 0 -10 10v53q0 11 10 11l160 16q13 0 8 14l-152 402q-4 6 -8 6h-446q-5 -1 -8 -6l-162 -406q-5 -13 10 -14l154 -12q10 -1 10 -11v-53q0 -10 -10 -10h-443q-10 0 -10 10v53q0 11 10 11l168 16q5 1 8 6l521 1311q4 6 8 6h51q5 -1 8 -6l479 -1309q2 -6 9 -6
l163 -18q9 0 9 -11v-53q0 -10 -11 -10h-526zM689 1108q-5 0 -7 -6l-193 -490q-6 -14 9 -14h370q16 0 11 14l-181 490q-4 6 -9 6z" />
    <glyph glyph-name="B" unicode="B" horiz-adv-x="1233" 
d="M563 1378q253 0 359 -57q151 -81 151 -258q0 -216 -250 -305q143 -31 241 -130q98 -100 97 -226q0 -126 -65 -222q-122 -180 -486 -180h-524q-10 0 -10 10v53q0 11 10 11l174 16q10 0 10 10v1178q0 10 -10 10l-174 17q-10 0 -10 10v53q0 10 10 10h477zM449 104
q0 -10 10 -10h129q368 0 368 277q0 327 -407 327h-90q-10 0 -10 -10v-584zM522 776q365 0 365 264q0 120 -78 178t-194 63l-78 3h-78q-10 0 -10 -10v-488q0 -10 10 -10h63z" />
    <glyph glyph-name="C" unicode="C" horiz-adv-x="1325" 
d="M1133 354h79q11 0 11 -10v-309q0 -16 -337 -71.5t-572.5 180.5t-235.5 550q0 216 106 379.5t282.5 249.5t391.5 86q98 0 209 -21.5t133 -25.5t23 -12v-310q0 -10 -11 -10h-79q-11 0 -11 8l-41 230q0 10 -88.5 29.5t-144.5 19.5q-270 0 -421 -159t-151 -430t156.5 -465.5
t407.5 -194.5q87 0 164 15t77 32l41 231q0 8 11 8z" />
    <glyph glyph-name="D" unicode="D" horiz-adv-x="1483" 
d="M270 1270q0 10 -10 10l-174 16q-10 0 -10 11v61q0 10 10 10h551q354 0 552 -161q216 -175 216 -521q0 -696 -799 -696h-520q-10 0 -10 10v62q0 10 10 10l174 16q10 0 10 11v1161zM449 104q0 -10 10 -10h145q310 0 458 116t148 417q0 657 -573 657h-178q-10 0 -10 -10
v-1170z" />
    <glyph glyph-name="E" unicode="E" horiz-adv-x="1196" 
d="M1065 1378q10 0 10 -10v-321q0 -11 -10 -11h-76q-10 0 -10 8l-41 232q0 8 -10 8h-469q-10 0 -10 -10v-506q0 -10 10 -10h282q11 0 11 8l20 166q0 8 10 8h56q10 0 10 -10v-445q0 -10 -10 -10h-56q-10 0 -10 8l-20 176q0 9 -11 9h-282q-10 0 -10 -11v-553q0 -10 10 -10h497
q11 0 11 8l41 228q0 8 10 8h76q10 0 10 -10v-318q0 -10 -10 -10h-1008q-10 0 -10 10v53q0 11 10 11l174 16q10 0 10 10v1182q-4 6 -10 6l-174 17q-10 0 -10 10v53q0 10 10 10h979z" />
    <glyph glyph-name="F" unicode="F" horiz-adv-x="1096" 
d="M1044 1378q11 0 11 -10v-321q0 -11 -11 -11h-75q-11 0 -11 8l-40 232q0 8 -11 8h-448q-10 0 -10 -10v-537q0 -8 10 -8h270q10 0 10 8l21 166q0 8 10 8h55q11 0 11 -10v-436q0 -10 -11 -10h-55q-10 0 -10 8l-21 168q0 8 -10 8h-270q-10 0 -10 -8v-531q0 -10 10 -10
l174 -16q10 0 10 -11v-53q0 -10 -10 -10h-547q-10 0 -10 10v53q0 11 10 11l174 16q10 0 10 10v1182q-2 6 -6 6h-4l-174 17q-10 0 -10 10v53q0 10 8 10h960z" />
    <glyph glyph-name="G" unicode="G" horiz-adv-x="1450" 
d="M868 1409q106 1 204 -19t153 -30q10 -2 10 -10v-310q0 -10 -10 -10h-80q-10 0 -10 8l-41 230q0 6 -9 10q-176 39 -231 39q-269 0 -423.5 -156.5t-154.5 -426.5t156 -471q156 -200 420 -200q75 0 205 27v414q0 10 -10 10l-175 16q-10 0 -10 13v49q0 12 12 12h523
q12 0 12 -12v-49q0 -13 -10 -13l-154 -16q-8 0 -10 -6v-477q0 -6 -10 -11q-214 -49 -400 -49q-323 0 -535 198t-212 517q0 215 107 383.5t293 254.5t390 85z" />
    <glyph glyph-name="H" unicode="H" horiz-adv-x="1561" 
d="M76 1368q0 10 10 10h537q10 0 10 -10v-53q0 -10 -10 -10l-164 -17q-10 0 -10 -10v-496q0 -6 3 -6h658q2 2 2 6v496q0 10 -10 10l-164 17q-10 0 -10 10v53q0 10 10 10h537q10 0 10 -10v-53q0 -10 -10 -10l-175 -17q-10 0 -10 -10v-1178q0 -10 10 -10l175 -16q10 0 10 -11
v-53q0 -10 -10 -10h-537q-10 0 -10 10v53q0 11 10 11l164 16q10 0 10 10v572q0 10 -10 10h-643q-10 0 -10 -10v-572q0 -10 10 -10l164 -16q10 0 10 -11v-53q0 -10 -10 -10h-537q-10 0 -10 10v53q0 11 10 11l174 16q10 0 10 10v1178q0 10 -10 10l-174 17q-10 0 -10 10v53z
" />
    <glyph glyph-name="I" unicode="I" horiz-adv-x="723" 
d="M637 1378q10 0 10 -10v-53q0 -10 -10 -10l-174 -17q-10 0 -10 -10v-1178q0 -10 10 -10l174 -16q10 0 10 -11v-53q0 -10 -10 -10h-551q-10 0 -10 10v53q0 11 10 11l174 16q10 0 10 10v1178q0 10 -10 10l-174 17q-10 0 -10 10v53q0 10 10 10h551z" />
    <glyph glyph-name="J" unicode="J" horiz-adv-x="662" 
d="M622 1380q5 0 5 -12v-53q0 -10 -11 -10l-174 -17q-10 0 -10 -10v-1051q0 -216 -59 -344q-80 -173 -316 -264q-7 0 -10 8l-24 41q-7 15 0 19q102 64 142 112q74 89 88 268q5 64 5 150v1061q0 10 -10 10l-174 17q-11 0 -11 10v53q0 10 11 10h542q1 2 6 2z" />
    <glyph glyph-name="K" unicode="K" horiz-adv-x="1366" 
d="M86 1368q0 10 10 10h498q10 0 10 -10v-55q0 -8 -8 -8l-139 -17q-8 0 -8 -10v-555l495 557q4 4 2 10t-8 6l-84 9q-10 0 -10 10v53q0 10 10 10h414q10 0 10 -10v-53q0 -10 -10 -10l-191 -19q-4 0 -6 -2l-422 -475q-3 -2 -4 -6l2 -6l516 -701q4 -4 6 -4l187 -18q10 0 10 -11
v-53q0 -10 -10 -10h-512q-10 0 -10 10v53q0 11 10 11l90 8q13 0 8 16l-416 559q-9 11 -14 0l-61 -69q-2 -3 -2 -6v-484q0 -10 8 -10l133 -14q8 0 8 -8v-56q0 -10 -10 -10h-492q-10 0 -10 10v53q0 11 10 11l164 16q10 0 10 10v1178q0 10 -10 10l-164 17q-10 0 -10 10v53z" />
    <glyph glyph-name="L" unicode="L" horiz-adv-x="1130" 
d="M78 1368q0 10 10 10h555q10 0 10 -10v-53q0 -10 -10 -10l-184 -17q-10 0 -10 -10v-1174q0 -10 10 -10h475q10 0 10 8l41 228q0 8 10 8h76q10 0 10 -10v-318q0 -10 -10 -10h-983q-10 0 -10 10v53q0 11 10 11l172 16q10 0 10 10v1178q0 10 -10 10l-172 17q-10 0 -10 10v53z
" />
    <glyph glyph-name="M" unicode="M" horiz-adv-x="1849" 
d="M1372 1378h408q10 0 10 -10v-53q0 -10 -10 -10l-174 -17q-11 0 -11 -10v-1178q0 -9 11 -10l184 -16q10 -1 10 -11v-53q0 -10 -10 -10h-576q-10 0 -10 10v53q0 10 10 11l193 16q10 1 10 10v1137h-8l-506 -1251q-2 -4 -10 -4h-21q-8 0 -10 4l-506 1237h-8v-1123
q0 -10 10 -10l170 -16q11 0 11 -11v-53q0 -10 -11 -10h-469q-10 0 -10 10v53q0 10 10 11l183 16q10 1 10 10v1178q0 10 -10 10l-174 17q-11 0 -11 10v53q0 10 11 10h413q5 -1 8 -6l437 -1077l438 1077q2 6 8 6z" />
    <glyph glyph-name="N" unicode="N" horiz-adv-x="1487" 
d="M41 1368q0 10 10 10h361q5 -1 8 -4l760 -1005v901q0 10 -9 10l-151 16q-10 0 -10 11v61q0 10 10 10h426q10 0 10 -10v-61q0 -11 -10 -11l-154 -16q-10 0 -10 -10v-1276q0 -10 -12 -10h-39q-5 1 -10 6l-883 1169v-1050q0 -11 8 -11l150 -16q10 0 10 -10v-62q0 -10 -10 -10
h-426q-11 0 -11 10v62q0 10 11 10l155 16q11 0 11 11v1161q0 10 -11 10l-174 16q-10 0 -10 11v61z" />
    <glyph glyph-name="O" unicode="O" horiz-adv-x="1548" 
d="M1272 668q0 258 -140 453q-140 196 -372 196t-358 -172t-126 -410q0 -171 62 -325t186.5 -250.5t284.5 -96.5q231 0 356 186q107 161 107 419zM782 1410q310 0 499 -202t189 -513t-190 -517t-498 -207q-308 0 -506 203.5t-198 513.5t197 516t507 206z" />
    <glyph glyph-name="P" unicode="P" horiz-adv-x="1208" 
d="M598 1378q196 0 296 -34q253 -86 253 -357q0 -181 -153 -289t-343 -112l-198 35v-521q0 -9 10 -10l194 -16q11 -1 11 -11v-53q0 -10 -11 -10h-571q-10 0 -10 10v53q0 11 10 11l174 16q10 0 10 10v1178q0 10 -10 10l-174 17q-10 0 -10 10v53q0 10 10 10h512zM944 999
q0 285 -381 285h-100q-10 0 -10 -10v-582q0 -10 10 -10h119q362 0 362 317z" />
    <glyph glyph-name="Q" unicode="Q" horiz-adv-x="1548" 
d="M1272 668q0 258 -140 453q-140 196 -372 196t-358 -172t-126 -410q0 -171 62 -325t186.5 -250.5t284.5 -96.5q231 0 356 186q107 161 107 419zM782 1410q310 0 499 -202t189 -514q0 -352 -237 -559q-77 -67 -170 -108q-6 -1 -6 -7t2 -8q126 -90 301 -166t299 -77
q74 0 184 20q8 0 8 -6l25 -64q2 -4 -6 -10l-262 -127q-88 8 -252 82t-345 218q-61 48 -85 73t-28 25h-9q-45 -9 -107 -9q-308 0 -506 203.5t-198 513.5t197 516t507 206z" />
    <glyph glyph-name="R" unicode="R" horiz-adv-x="1337" 
d="M569 1378q278 0 400 -86q143 -101 143 -274q0 -199 -195 -302q-60 -32 -129 -50q106 -51 199 -230l176 -338q4 -8 15 -8l149 -16q10 0 10 -11v-53q0 -10 -10 -10h-321q-11 0 -15 8l-176 369q-127 266 -328 266h-24q-10 0 -10 -8v-535q0 -9 10 -10l194 -16q11 -1 11 -11
v-53q0 -10 -11 -10h-571q-10 0 -10 10v53q0 11 10 11l174 16q10 0 10 10v1178q0 10 -10 10l-174 17q-10 0 -10 10v53q0 10 10 10h483zM453 737q0 -10 8 -10q142 0 199 5q146 13 213 115q38 58 38 142q0 295 -376 295h-72q-10 0 -10 -10v-537z" />
    <glyph glyph-name="S" unicode="S" horiz-adv-x="985" 
d="M762 1030q-10 0 -10 8l-41 230q0 6 -9 10q-88 39 -192 39t-182 -59t-78 -160t73 -170q49 -46 160 -97l133 -61q156 -72 236 -156t80 -221q0 -206 -150 -314t-362 -108q-110 0 -222 25t-112 39v309q0 10 10 10h84q10 -3 10 -8l41 -231l9 -11q72 -36 199 -36t218 63t91 184
q0 168 -224 273l-135 63q-148 69 -220 141q-95 95 -95 224.5t78 227.5q131 166 372 165q155 0 318 -49q10 -2 10 -10v-310q0 -10 -10 -10h-80z" />
    <glyph glyph-name="T" unicode="T" horiz-adv-x="1235" 
d="M1184 1378q10 0 10 -10v-321q0 -11 -10 -11h-76q-10 0 -10 8l-41 232q0 8 -10 8h-332q-8 0 -8 -10v-1174q0 -9 10 -10l194 -16q11 -1 11 -11v-53q0 -10 -11 -10h-587q-11 0 -11 10v53q0 10 11 11l194 16q10 1 10 10v1174q0 10 -8 10h-332q-10 0 -10 -8l-41 -232
q0 -8 -10 -8h-76q-10 0 -10 11v321q0 10 10 10h1133z" />
    <glyph glyph-name="U" unicode="U" horiz-adv-x="1470" 
d="M223 1278q0 10 -10 10l-172 17q-10 0 -10 10v53q0 10 10 10h555q10 0 10 -10v-53q0 -10 -10 -10l-184 -17q-11 0 -11 -10v-739q0 -153 15 -227t55 -119q107 -123 317 -123t316 172q51 81 51 319v717q0 10 -10 10l-174 17q-10 0 -10 10v53q0 10 10 10h475q10 0 10 -10v-53
q0 -10 -10 -10l-168 -17q-10 0 -10 -10v-709q0 -336 -136 -467t-396 -131t-398 138q-61 61 -88 139t-27 217v813z" />
    <glyph glyph-name="V" unicode="V" horiz-adv-x="1458" 
d="M557 1378q10 0 10 -10v-53q0 -10 -10 -10l-160 -17q-13 0 -8 -14l379 -1014l391 1018q5 13 -10 14l-154 13q-10 1 -10 10v53q0 10 10 10h445q10 0 10 -10v-53q0 -10 -10 -10l-168 -17q-5 -1 -8 -6l-510 -1305q-2 -6 -9 -6h-53q-6 0 -8 6l-483 1303q-2 6 -8 6l-164 19
q-9 0 -9 10v53q0 10 11 10h526z" />
    <glyph glyph-name="W" unicode="W" horiz-adv-x="2122" 
d="M557 1378q10 0 10 -10v-53q0 -10 -10 -10l-156 -17q-13 0 -8 -14l369 -1014l260 715l-107 305q-4 6 -8 6l-168 19q-8 0 -8 10v53q0 10 10 10h527q10 0 10 -10v-53q0 -10 -10 -10l-156 -17q-13 0 -8 -14l348 -1016l365 1020q6 12 -11 14l-149 13q-10 1 -10 10v53
q0 10 10 10h446q11 0 11 -10v-53q0 -10 -11 -10l-172 -17q-6 0 -8 -6l-483 -1305q-2 -6 -8 -6h-56q-6 0 -8 6l-301 863l-322 -863q-4 -6 -8 -6h-51q-5 1 -8 6l-473 1303q-2 6 -8 6l-168 19q-9 0 -9 10v53q0 10 11 10h526z" />
    <glyph glyph-name="X" unicode="X" horiz-adv-x="1335" 
d="M584 1378q10 0 10 -10v-53q0 -10 -10 -10l-148 -13q-6 0 -8 -6t0 -10l274 -447l312 447q2 2 2 5q0 11 -10 11l-142 13q-10 0 -10 10v53q0 10 10 10h436q11 0 11 -10v-53q0 -10 -11 -10l-153 -15q-5 -1 -8 -4l-381 -547l397 -645q4 -4 8 -4l174 -16q11 0 11 -11v-53
q0 -10 -11 -10h-553q-10 0 -10 10v53q0 10 10 11l148 12q13 0 8 16l-301 486l-336 -486q-4 -6 -1 -11t9 -5l142 -12q10 -1 10 -11v-53q0 -10 -10 -10h-437q-10 0 -10 10v53q0 11 10 11l154 14q5 1 8 4l406 586l-371 606q-4 4 -8 4l-174 17q-11 0 -11 10v53q0 10 11 10h553z
" />
    <glyph glyph-name="Y" unicode="Y" horiz-adv-x="1382" 
d="M1092 1281q0 11 -11 11l-141 13q-10 0 -10 10v53q0 10 10 10h424q10 0 10 -10v-53q0 -10 -10 -10l-154 -15q-5 -1 -8 -4l-407 -698q-2 -3 -2 -10v-478q0 -10 10 -10l174 -16q10 0 10 -11v-53q0 -10 -10 -10h-547q-10 0 -10 10v53q0 11 10 11l174 16q10 0 10 10v467
q0 8 -2 13l-399 704q-4 4 -8 4l-174 17q-11 0 -11 10v53q0 10 11 10h544q11 0 11 -10v-53q0 -10 -11 -10l-147 -13q-6 0 -8 -6t0 -10l328 -594l342 594q2 2 2 5z" />
    <glyph glyph-name="Z" unicode="Z" horiz-adv-x="1278" 
d="M264 1284q-10 0 -10 -8l-41 -232q0 -8 -10 -8h-76q-10 0 -10 11v321q0 10 10 10h1001q7 0 9 -6l32 -55q2 -2 -2 -10l-866 -1213h723q10 0 10 8l41 232q0 8 10 8h76q10 0 10 -10v-322q0 -10 -10 -10h-1052q-7 0 -9 6l-32 55q-3 6 2 11l860 1212h-666z" />
    <glyph glyph-name="bracketleft" unicode="[" horiz-adv-x="674" 
d="M184 1434q0 12 13 12h340q12 0 12 -12v-68q0 -12 -10 -12h-244q-10 0 -10 -13v-1636q0 -10 10 -10h244q12 0 10 -12v-68q2 -12 -12 -12h-340q-13 0 -13 12v1819z" />
    <glyph glyph-name="backslash" unicode="\" horiz-adv-x="635" 
d="M84 1444q11 3 14 -6l553 -1526q4 -11 -6 -14l-76 -25q-12 -4 -14 6l-553 1526q-4 11 6 14z" />
    <glyph glyph-name="bracketright" unicode="]" horiz-adv-x="674" 
d="M489 -385q0 -12 -12 -12h-341q-11 0 -12 12v68q1 12 10 12h245q10 0 10 12v1636q0 11 -10 11h-245q-11 0 -10 12v68q-1 12 12 12h341q12 0 12 -12v-1819z" />
    <glyph glyph-name="asciicircum" unicode="^" 
d="M545 1409q6 0 8 -6l360 -772q3 -2 3 -5q0 -10 -11 -10h-90q-5 1 -8 7l-295 632l-295 -632q-3 -7 -8 -7h-90q-11 0 -11 10q0 3 3 5l360 772q2 6 8 6h66z" />
    <glyph glyph-name="underscore" unicode="_" 
d="M0 -184h1024v-95h-1024v95z" />
    <glyph glyph-name="grave" unicode="`" 
d="M569 1004h-55q-5 1 -8 4l-266 354q-1 2 -1 4q0 12 9 12h168q11 0 16 -12l148 -348q6 -14 -11 -14z" />
    <glyph glyph-name="a" unicode="a" horiz-adv-x="907" 
d="M440 918q289 0 289 -240v-553q0 -8 8 -12l129 -37q10 -6 11 -10v-35q-4 -11 -9 -11l-270 -36q-10 0 -10 10l-17 96q-129 -119 -283 -119t-209 129q-18 42 -18 90q0 169 172 248q109 50 324 68v158q0 159 -156 159q-89 0 -155 -32q-6 -5 -10 -17l-29 -151q0 -9 -10 -9h-64
q-10 0 -10 9v227q0 6 10 10q162 58 307 58zM244 229q0 -131 131 -131q62 0 172 56q10 7 10 12v260q-105 -6 -139 -16t-68 -23q-106 -36 -106 -158z" />
    <glyph glyph-name="b" unicode="b" horiz-adv-x="1075" 
d="M293 1446h59q10 0 10 -10v-633q131 115 294 115q162 0 258 -124t96 -296q0 -225 -138 -376t-360 -151q-81 0 -174 24t-141 62v1252q0 10 -11 10l-159 16q-11 0 -11 11v47q0 10 9 10l258 41q6 2 10 2zM528 63q214 0 278 228q19 68 19 149q0 144 -55 233q-66 109 -201 109
q-100 0 -203 -59q-4 -2 -4 -8v-606q46 -46 166 -46z" />
    <glyph glyph-name="c" unicode="c" horiz-adv-x="913" 
d="M535 918q142 0 268 -48q10 -4 10 -10v-237q0 -9 -10 -9h-64q-10 0 -10 9l-33 155q0 6 -8 13q-86 40 -160 40q-132 -1 -206 -103t-74 -256t80 -270t245 -116q122 0 232 74q8 5 12 -4l29 -50q4 -7 -6 -14q-175 -121 -358 -121q-184 1 -300 123t-116 327t130 351t339 146z
" />
    <glyph glyph-name="d" unicode="d" horiz-adv-x="1081" 
d="M809 1446h59q11 0 11 -10v-1338q0 -10 10 -10l147 -16q11 0 11 -11v-47q0 -9 -9 -10l-305 -20q-9 -1 -10 10l-6 96q-147 -119 -305 -119t-252 127t-94 293q0 223 138 375t359 152q62 0 150 -19v410q0 10 -11 10l-159 16q-11 0 -11 11v47q0 10 9 10l258 41q6 2 10 2z
M547 825q-149 -1 -223 -111t-74 -259t55 -239q66 -110 201 -110q107 0 196 56q10 9 11 12v606q-23 22 -73 34t-93 11z" />
    <glyph glyph-name="e" unicode="e" horiz-adv-x="940" 
d="M854 541q0 -76 -14 -76h-590q4 -167 84 -273t223 -106q144 0 256 70q4 4 12 -4l29 -50q2 -9 -6 -14q-174 -117 -364 -117t-304 122q-114 121 -114 325t115 352t303 148t280 -100q90 -100 90 -277zM477 827q-202 0 -225 -282h418q9 282 -193 282z" />
    <glyph glyph-name="f" unicode="f" horiz-adv-x="651" 
d="M47 0q-10 0 -10 10v51q0 11 10 11l160 14q10 0 10 10v684q-4 6 -10 6h-152q-10 0 -10 11v51q0 10 10 10l152 19q10 0 10 10v92q0 259 98 363t269 104q71 0 192 -31q10 -5 10 -12v-232q0 -8 -10 -8h-63q-11 0 -11 8l-26 140q-4 21 -44 31t-69 10q-180 0 -180 -285v-176
q0 -10 10 -10h246q10 0 10 -11v-73q0 -11 -10 -11h-246q-10 0 -10 -10v-680q0 -9 10 -10l162 -14q10 -1 10 -11v-51q0 -10 -10 -10h-508z" />
    <glyph glyph-name="g" unicode="g" horiz-adv-x="975" 
d="M264 188q0 -76 62 -85q20 -3 47 -3h159q134 0 199 -14q187 -38 213 -205q4 -25 4 -45q0 -130 -88 -216q-149 -148 -414 -148q-155 0 -261 48q-142 64 -142 201q0 72 59 142t131 98q-52 14 -84 58.5t-32 99.5q0 103 151 194q-145 91 -145 269q1 146 105 241t251 95
q78 0 146 -29h299q10 0 10 -10v-52q0 -9 -10 -10l-181 -14q78 -86 78 -220t-102.5 -228.5t-247.5 -94.5q-76 0 -135 21q-72 -42 -72 -93zM479 346q107 0 146 121q14 44 14 113q0 251 -168 251q-116 0 -155 -125q-15 -48 -15 -114q-1 -126 51 -186t127 -60zM203 -252
q0 -192 270 -192q125 0 217 52t92 169q0 166 -260 166h-172q-59 -10 -103 -71.5t-44 -123.5z" />
    <glyph glyph-name="h" unicode="h" horiz-adv-x="1169" 
d="M313 1446h60q10 0 10 -10v-625q161 111 315 111q265 0 265 -297v-529q0 -10 10 -10l133 -14q10 0 10 -11v-51q0 -10 -10 -10h-449q-10 0 -10 10v51q0 11 10 11l129 14q11 0 11 10v469q0 221 -191 221q-72 0 -132 -18q-90 -27 -91 -41v-631q0 -10 10 -10l129 -14
q10 0 10 -11v-51q0 -10 -10 -10h-459q-10 0 -10 10v51q0 11 10 11l144 14q10 0 10 10v1213q0 10 -10 10l-160 16q-10 0 -10 11v47q0 10 8 10l258 41q6 2 10 2z" />
    <glyph glyph-name="i" unicode="i" horiz-adv-x="584" 
d="M66 0q-11 0 -11 10v51q0 11 11 11l143 14q10 0 10 10v676q0 10 -10 10l-148 17q-10 0 -10 10v47q0 10 8 10l246 41q4 1 12 2h58q10 0 10 -10v-803q0 -10 10 -10l133 -14q11 0 11 -11v-51q0 -10 -11 -10h-462zM291 1389q48 0 79 -30.5t31 -78.5t-31 -78.5t-79 -30.5
t-79.5 30.5t-31.5 78.5t31.5 78.5t79.5 30.5z" />
    <glyph glyph-name="j" unicode="j" horiz-adv-x="528" 
d="M356 909q11 0 11 -10v-838q0 -214 -55 -331q-78 -165 -302 -254q-7 0 -10 8l-25 43q-6 10 0 16q98 62 147 122t64 152t15 234v721q0 10 -11 10l-147 17q-10 0 -10 10v47q3 10 8 10l246 41q4 1 12 2h57zM272 1389q48 0 79.5 -30.5t31.5 -78.5t-31.5 -78.5t-79.5 -30.5
t-79 30.5t-31 78.5t31 78.5t79 30.5z" />
    <glyph glyph-name="k" unicode="k" horiz-adv-x="1085" 
d="M217 1309q0 10 -10 10l-160 16q-10 0 -10 11v47q0 10 8 10l258 41q6 2 10 2h60q10 0 10 -10v-912q0 -6 4 -8t10 4l301 277q6 12 -6 12l-104 8q-10 1 -10 10v52q0 10 10 10h385q10 0 10 -10v-52q0 -10 -10 -10l-137 -12q-3 -1 -7 -4l-270 -250q-4 -3 -4 -7t2 -7l389 -449
q3 -4 6 -4l119 -12q10 0 10 -11v-51q0 -10 -10 -10h-432q-10 0 -10 10v51q0 10 10 11l82 6q6 0 6 4t-2 8l-324 373q-4 4 -11 1t-7 -9v-359q0 -10 10 -10l107 -14q10 0 10 -11v-51q0 -10 -10 -10h-432q-11 0 -11 10v51q0 11 11 11l139 14q10 0 10 10v1213z" />
    <glyph glyph-name="l" unicode="l" horiz-adv-x="586" 
d="M217 1309q0 10 -10 10l-160 17q-10 0 -10 10v47q3 10 8 10l258 41q6 2 10 2h60q10 0 10 -10v-1340q0 -9 10 -10l162 -14q10 -1 10 -11v-51q0 -10 -10 -10h-508q-10 0 -10 10v51q0 11 10 11l160 14q10 0 10 10v1213z" />
    <glyph glyph-name="m" unicode="m" horiz-adv-x="1681" 
d="M330 909h49q10 0 10 -10v-88q148 111 298 111t222 -131q148 122 320 122q262 0 262 -297v-520q0 -10 10 -10l133 -14q11 0 11 -11v-51q0 -10 -11 -10h-438q-10 0 -10 10v51q0 11 10 11l119 14q10 0 10 10v459q0 221 -188 221q-118 0 -205 -55q8 -32 8 -92v-533
q0 -10 10 -10l119 -14q10 0 10 -11v-51q0 -10 -10 -10h-424q-10 0 -10 10v51q0 11 10 11l119 14q10 0 10 10v469q0 221 -180 221q-101 0 -195 -47q-4 -2 -10 -8v-635q0 -10 10 -10l119 -14q10 0 10 -11v-51q0 -10 -10 -10h-448q-11 0 -11 10v51q0 11 11 11l143 14
q10 0 10 10v676q0 10 -10 10l-147 17q-11 0 -11 10v47q0 10 8 10l246 41q12 2 21 2z" />
    <glyph glyph-name="n" unicode="n" horiz-adv-x="1159" 
d="M322 909h57q10 0 10 -10v-88q92 73 226 102q41 9 90 9q264 0 264 -297v-529q0 -10 10 -10l133 -14q10 0 10 -11v-51q0 -10 -10 -10h-448q-11 0 -11 10v51q0 11 11 11l129 14q10 0 10 10v469q0 109 -42 165t-156 56t-206 -47q-8 -4 -10 -8v-635q0 -10 10 -10l129 -14
q11 0 11 -11v-51q0 -10 -11 -10h-458q-11 0 -11 10v51q0 11 11 11l143 14q10 0 10 10v676q0 10 -10 10l-147 17q-11 0 -11 10v47q0 10 8 10l246 41q11 2 13 2z" />
    <glyph glyph-name="o" unicode="o" horiz-adv-x="1040" 
d="M529 918q213 0 329 -124t117 -338q0 -214 -126 -350q-127 -136 -337 -135q-210 0 -328 126q-118 125 -118 339t125 348t338 134zM512 829q-144 0 -209 -112q-51 -89 -51 -232q0 -287 154 -389q56 -37 135 -37q247 0 247 347q0 171 -58 281q-74 142 -218 142z" />
    <glyph glyph-name="p" unicode="p" horiz-adv-x="1069" 
d="M346 909q10 0 10 -10v-96q141 115 300 115q160 0 254 -126t94 -294q0 -227 -136 -377t-362 -150q-62 0 -150 19v-396q0 -10 11 -10l157 -14q11 0 11 -10v-52q0 -10 -11 -10h-487q-10 0 -10 10v52q0 10 10 10l143 14q10 0 10 10v1178q0 10 -10 10l-147 17q-10 0 -10 10v47
q3 10 8 10l245 41q4 1 13 2h57zM522 63q214 0 278 228q19 68 19 149q0 144 -55 233q-66 109 -188 109t-209 -55q-11 -4 -11 -12v-606q46 -46 166 -46z" />
    <glyph glyph-name="q" unicode="q" horiz-adv-x="1055" 
d="M417 -29q-163 0 -257 127t-94 293q0 225 138 376t359 151q109 0 211 -48l31 33q4 6 10 6h53q11 0 11 -10v-1305q0 -10 10 -10l137 -14q10 0 10 -10v-52q0 -10 -10 -10h-467q-10 0 -10 10v52q0 10 10 10l143 14q11 0 11 10v492q-134 -115 -296 -115zM250 455
q0 -149 55 -239q66 -110 201 -110q107 0 196 56q10 9 11 12v604q-47 47 -181 47q-134 -1 -208 -111t-74 -259z" />
    <glyph glyph-name="r" unicode="r" horiz-adv-x="784" 
d="M643 918q31 0 77 -19t63 -35t8 -24l-101 -144q-6 -10 -10 -10t-6 2q-46 45 -106 45t-111 -59l-60 -70q-8 -9 -8 -22v-486q0 -9 10 -10l174 -14q11 -1 11 -11v-51q0 -10 -11 -10h-503q-11 0 -11 10v51q0 11 11 11l143 14q10 0 10 10v676q0 10 -10 10l-147 17q-11 0 -11 10
v47q0 10 8 10l246 41q11 2 13 2h57q10 0 10 -10v-190l109 127q70 82 145 82z" />
    <glyph glyph-name="s" unicode="s" horiz-adv-x="735" 
d="M389 834q-108 0 -149 -73q-15 -27 -15 -59q0 -93 148 -153l86 -35q225 -92 225 -250q0 -137 -108 -215t-230 -78t-262 47q-10 2 -10 11v237q0 8 10 8h63q11 0 11 -8l32 -164q1 -4 9 -12q70 -33 145 -33q176 0 176 148q0 87 -90 130q-15 7 -55 25l-92 37q-217 87 -217 256
q0 121 100 193t219 72q118 0 231 -37q11 -2 11 -11v-231q0 -8 -11 -8h-63q-10 3 -10 8l-33 160q0 8 -8 12q-50 23 -113 23z" />
    <glyph glyph-name="t" unicode="t" horiz-adv-x="676" 
d="M158 776q0 10 -11 10h-118q-9 0 -9 9v10q0 6 7 12l262 264q9 9 16 9h10q9 0 9 -11v-188q0 -10 10 -10h272q10 0 10 -11v-73q0 -11 -10 -11h-272q-10 0 -10 -10v-545q0 -147 131 -147q96 0 155 49q7 7 17 0l26 -51q2 -9 -6 -14q-79 -53 -145 -75t-148 -22t-139 52t-57 135
v618z" />
    <glyph glyph-name="u" unicode="u" horiz-adv-x="1108" 
d="M436 -29q-116 0 -192 69t-76 185v547q0 10 -10 10l-148 17q-10 0 -10 10v47q0 10 8 10l246 41q3 1 10 2h60q10 0 10 -10v-602q0 -191 192 -191q99 0 203 64q10 6 10 12v590q0 10 -10 10l-147 17q-11 0 -11 10v47q0 10 9 10l245 41q4 1 13 2h57q10 0 10 -10v-801
q0 -10 10 -10l148 -16q10 0 10 -11v-47q0 -9 -8 -10l-305 -20q-9 -1 -10 10l-7 102q-146 -125 -307 -125z" />
    <glyph glyph-name="v" unicode="v" horiz-adv-x="1040" 
d="M678 827v52q0 10 10 10h330q10 0 10 -10v-50q0 -10 -10 -10l-113 -12q-5 0 -8 -6l-344 -815q-3 -6 -8 -6h-47q-5 1 -9 6l-346 813q-4 6 -8 6l-119 14q-8 0 -8 8v52q0 10 10 10h426q11 0 11 -10v-52q0 -8 -9 -8l-106 -12q-14 0 -8 -14l235 -562l234 562q6 14 -8 14
l-107 12q-8 0 -8 8z" />
    <glyph glyph-name="w" unicode="w" horiz-adv-x="1579" 
d="M578 827v52q0 10 10 10h411q11 0 11 -10v-52q0 -8 -9 -8l-106 -12q-14 0 -8 -14l227 -557l225 557q6 14 -8 14l-106 12q-8 0 -8 8v52q0 10 10 10h329q11 0 11 -10v-50q0 -10 -11 -10l-112 -12q-5 -1 -8 -6l-334 -815q-2 -6 -8 -6h-52q-6 0 -8 6l-237 579l-256 -579
q-2 -6 -9 -6h-47q-6 0 -8 6l-334 813q-4 6 -8 6l-119 14q-8 0 -8 8v52q0 10 10 10h426q-1 1 -1 2q12 0 12 -12v-52q0 -8 -9 -8l-106 -12q-14 0 -8 -14l229 -557l189 419q6 13 0 25l-48 119q-4 6 -8 6l-108 14q-8 0 -8 8z" />
    <glyph glyph-name="x" unicode="x" horiz-adv-x="999" 
d="M391 61v-51q0 -10 -10 -10h-350q-11 0 -11 10v51q0 11 11 11l137 14q3 1 6 4l262 328q2 6 0 12l-258 369q-4 4 -6 4l-135 14q-10 0 -10 10v52q0 10 10 10h436q10 0 10 -10v-52q0 -9 -10 -10l-76 -6q-6 0 -9 -5t1 -11l160 -232l180 230q5 16 -6 16l-68 8q-10 0 -10 10v52
q0 10 10 10h310q10 0 10 -10v-52q0 -10 -10 -10l-115 -12q-3 -1 -6 -4l-242 -303q-5 -6 0 -13l275 -397q4 -4 6 -4l121 -12q10 0 10 -11v-51q0 -10 -10 -10h-424q-11 0 -11 10v51q0 10 11 11l77 6q16 2 7 16l-175 258l-200 -256q-5 -16 6 -16l86 -8q10 0 10 -11z" />
    <glyph glyph-name="y" unicode="y" horiz-adv-x="1061" 
d="M444 889q11 0 11 -10v-52q0 -8 -9 -8l-106 -12q-14 0 -8 -14l241 -584l248 584q6 14 -8 14l-106 12q-9 0 -9 8v52q0 10 11 10h329q11 0 11 -10v-50q0 -10 -11 -10l-112 -12q-5 -1 -8 -6l-367 -864q-198 -465 -344 -465q-6 0 -14 4l-97 96q-7 7 -2 14l25 41q4 4 10 4
q97 1 151 41t100 116t97 194q4 9 0 26l-334 791q-4 6 -8 6l-119 14q-8 0 -8 8v52q0 10 10 10h426z" />
    <glyph glyph-name="z" unicode="z" horiz-adv-x="920" 
d="M700 86q7 0 11 8l37 172q4 8 10 8h59q10 0 10 -10v-254q0 -10 -10 -10h-735q-6 0 -10 8l-11 43v4q0 2 2 4l537 744h-379q-10 0 -10 -8l-35 -172q0 -9 -10 -9h-60q-10 0 -10 11v254q0 10 10 10h705q6 0 10 -6l13 -39v-4q0 -2 -3 -4l-546 -750h415z" />
    <glyph glyph-name="braceleft" unicode="{" horiz-adv-x="662" 
d="M322 1124l32 -356q0 -74 -41 -134t-88 -85v-8q129 -77 129 -240q0 -48 -16 -180.5t-16 -218.5t40 -138t100 -66q8 -2 118 -17q10 0 10 -11v-55q0 -12 -10 -12q-424 0 -424 305q0 66 21 152t37 151t15 111q0 128 -63 167q-23 14 -74 19q-10 0 -10 10v53q0 11 10 11
q49 5 74 18q63 43 63 148q0 64 -36.5 192t-36.5 201q0 137 71 201t159 84t194 20q10 0 10 -12v-56q0 -9 -10 -10q-115 -6 -186.5 -47t-71.5 -197z" />
    <glyph glyph-name="bar" unicode="|" horiz-adv-x="510" 
d="M205 1538q0 10 10 10h80q10 0 10 -10v-2132q0 -10 -10 -10h-80q-10 0 -10 10v2132z" />
    <glyph glyph-name="braceright" unicode="}" horiz-adv-x="662" 
d="M340 -76l-33 377q0 158 129 240v8q-46 27 -88 84t-41 120q0 63 16.5 187t16.5 206t-35 134t-93 68t-130 20q-10 1 -10 10v56q0 12 10 12q161 0 264 -44q160 -70 160 -261q0 -66 -37 -200.5t-37 -198.5t24 -98t44.5 -45.5t68.5 -16.5q11 0 11 -11v-53q0 -10 -18 -11
t-66 -18q-64 -40 -64 -167q0 -61 37 -201t37 -213q0 -305 -424 -305q-10 0 -10 12v55q0 11 10 11q44 6 92 13t90 32q76 44 76 198z" />
    <glyph glyph-name="asciitilde" unicode="~" 
d="M346 1386q65 0 176 -62t168 -62q103 0 223 116q9 6 15 -4l41 -61q6 -8 -4 -15q-154 -137 -287 -137q-62 0 -176 62.5t-168 62.5q-103 0 -223 -117q-9 -9 -15 5l-41 61q-6 8 4 14q148 137 287 137z" />
    <glyph glyph-name="exclamdown" unicode="&#xa1;" horiz-adv-x="543" 
d="M204.5 727q-34.5 33 -34.5 68q0 55 34 89t68 34q57 0 89 -35.5t32 -67.5q0 -31 -9.5 -51.5t-32.5 -45t-68 -24.5q-44 0 -78.5 33zM309 557q10 0 10 -10l80 -1039q0 -10 -10 -10h-215q-11 0 -11 10l80 1039q0 10 10 10h56z" />
    <glyph glyph-name="cent" unicode="&#xa2;" 
d="M817 614q-10 0 -10 9l-33 155q0 6 -8 13q-57 29 -141 38v-743h6q142 0 252 74q8 5 12 -4l29 -50q4 -8 -6 -14q-137 -97 -293 -117v-159q0 -11 -11 -11h-73q-11 0 -11 11v155q-199 8 -310 128.5t-111 320.5t117.5 334.5t303.5 158.5v162q0 10 11 10h73q11 0 11 -10v-157
q162 -12 256 -48q10 -4 10 -10v-237q0 -9 -10 -9h-64zM291 488q0 -147 58 -252.5t181 -137.5v729q-169 -30 -204 -150.5t-35 -188.5z" />
    <glyph glyph-name="sterling" unicode="&#xa3;" 
d="M407 162q43 0 174 -25.5t191 -25.5t64 24l36 189q0 8 9 8h75q11 0 11 -10v-332q0 -7 -11 -10q-60 -23 -151 -23t-270 43t-240 43t-238 -68q-7 -2 -10 7l-31 55q-4 7 4 12q220 126 236 506h-164q-10 0 -10 10v66q0 10 10 10h166q0 70 -29.5 219t-29.5 217q1 159 127 245
t294 85q168 0 316 -64l6 -14v-291q0 -10 -10 -10h-72q-10 0 -10 8l-29 209q-4 17 -12 21q-89 43 -194 43q-105 -1 -171 -57t-67 -158q0 -40 22.5 -198t22.5 -253v-2h352q10 0 10 -10v-66q0 -10 -10 -10h-358q-34 -251 -191 -436q139 43 182 43z" />
    <glyph glyph-name="currency" unicode="&#xa4;" 
d="M858 662q0 -114 -70 -209l197 -197q6 -6 0 -14l-51 -52q-6 -8 -14 0l-197 197q-94 -74 -212 -74t-210 72l-197 -195q-8 -8 -14 0l-51 52q-6 8 0 14l197 197q-72 101 -72 213t69 208l-196 197q-6 8 0 14l53 54q6 6 14 0l197 -197q98 72 214 72t208 -72l197 197q8 6 14 0
l53 -54q6 -6 0 -14l-199 -197q70 -98 70 -212zM342 837.5q-68 -71.5 -68 -174.5t71.5 -173t169.5 -70t166.5 70t68.5 172q0 103 -70.5 175t-170 72t-167.5 -71.5z" />
    <glyph glyph-name="yen" unicode="&#xa5;" 
d="M686 1314v54q0 10 10 10h357q10 0 10 -10v-54q0 -10 -10 -10l-133 -14q-5 0 -9 -4l-305 -650h307q11 0 11 -10v-66q0 -10 -11 -10h-309v-113h309q11 0 11 -10v-66q0 -10 -11 -10h-309v-251q0 -10 10 -10l174 -16q11 0 11 -11v-53q0 -10 -11 -10h-546q-11 0 -11 10v53
q0 11 11 11l174 16q10 0 10 10v251h-305q-10 0 -10 10v66q0 10 10 10h305v113h-305q-10 0 -10 10v66q0 10 10 10h303l-293 648q-4 4 -8 4l-154 16q-10 0 -10 10v54q0 10 10 10h469q11 0 11 -10v-54q0 -10 -11 -10l-106 -12q-6 0 -9.5 -6t1.5 -11l235 -531l246 531q4 5 1 11
t-9 6l-101 12q-10 0 -10 10z" />
    <glyph glyph-name="brokenbar" unicode="&#xa6;" horiz-adv-x="510" 
d="M299 1409q10 0 10 -10v-629q0 -10 -10 -10h-88q-10 0 -10 10v629q0 10 10 10h88zM201 -18v628q0 11 10 11h88q10 0 10 -11v-628q0 -11 -10 -11h-88q-10 0 -10 11z" />
    <glyph glyph-name="section" unicode="&#xa7;" 
d="M83 397q0 255 273 351q-106 59 -147.5 108t-57.5 91.5t-16 112.5t35.5 138t126 139.5t258.5 71.5t307 -45q8 -4 8 -12v-303q0 -13 -12 -13h-80q-15 0 -15 11l-34 229q-2 8 -39 24t-113 17q-126 0 -193 -52t-67 -143q0 -124 82 -172.5t125 -68.5l125 -58
q143 -66 195.5 -121t75 -107.5t22.5 -120.5q0 -134 -77 -223t-196 -126q110 -63 165.5 -129.5t55.5 -160.5q0 -171 -125 -271.5t-299 -100.5q-97 0 -184.5 17.5t-118.5 27.5q-8 7 -8 13v303q0 12 12 12h80q15 0 15 -10l34 -229q5 -11 43 -26t112 -15q126 0 191.5 50.5
t65.5 143.5q0 124 -82 172.5t-125 69.5l-125 57q-148 70 -220.5 147.5t-72.5 200.5zM270 446.5q0 -69.5 59 -131.5t213 -129q150 23 181.5 96.5t31.5 123.5q0 93 -60 154t-212 126q-150 -20 -181.5 -95t-31.5 -144.5z" />
    <glyph glyph-name="dieresis" unicode="&#xa8;" 
d="M407 1263q29 -31 29 -62q0 -50 -29.5 -79.5t-62.5 -29.5q-55 0 -84 30.5t-29 59.5q0 30 8.5 48.5t28.5 41t65 22.5t74 -31zM764.5 1262q28.5 -32 28.5 -61q0 -48 -29 -78.5t-62 -30.5q-55 0 -84.5 30t-29.5 60t8 48.5t29 41t66 22.5t73.5 -32z" />
    <glyph glyph-name="copyright" unicode="&#xa9;" horiz-adv-x="1550" 
d="M1010 485h53q10 0 10 -8v-192q0 -9 -6 -11q-104 -47 -250 -47q-145 0 -228 32t-175 122.5t-92 302.5t140 340.5t331 128.5q149 0 262 -37q8 -3 8 -12v-201q0 -8 -8 -8h-54q-10 0 -10 6l-26 133q0 18 -59.5 31.5t-127.5 13.5t-182.5 -59t-114.5 -309q0 -165 84 -287.5
t238 -122.5q80 0 160 33q14 9 14 18l24 127q0 6 9 6zM776 1327q-131 0 -243.5 -50t-195.5 -137t-131 -203t-48 -247t48 -246.5t131 -202.5t195.5 -137.5t243.5 -50.5t244 50.5t196.5 137.5t131 202.5t47.5 246.5t-47.5 247t-131 203t-196.5 137t-244 50zM776 1409
q150 0 280 -56.5t225 -153.5t150.5 -228t55.5 -281t-55.5 -280.5t-150.5 -228t-225 -154t-280 -56.5t-278.5 56.5t-225 154t-151.5 228t-55 280.5t55 281t151.5 228t225 153.5t278.5 56.5z" />
    <glyph glyph-name="ordfeminine" unicode="&#xaa;" horiz-adv-x="549" 
d="M336 633q-80 -66 -156 -66q-77 0 -118.5 37.5t-41.5 95.5t30 91t60 47q79 36 216 49v92q0 80 -36 87t-71 7t-57 -11t-22.5 -12t-2.5 -6l-18 -90q0 -6 -10 -6h-39q-11 0 -11 6v136q0 7 61 25t140 18q178 0 178 -146v-332l84 -22q6 -2 8 -2t2 -6v-21q0 -8 -10 -8l-168 -23
q-10 0 -10 9zM141 723q0 -76 78 -76q44 0 107 35v156q-185 -11 -185 -115zM31 467q0 6 4 6h436q6 0 6 -6v-49q0 -6 -6 -6h-436q-4 0 -4 6v49z" />
    <glyph glyph-name="guillemotleft" unicode="&#xab;" horiz-adv-x="823" 
d="M235 449l191 -297q4 -9 -4 -15l-39 -31q-6 -8 -14 0l-310 326q2 2 -2 6v33q4 4 2 6l310 326q8 8 14 0l39 -31q8 -6 4 -14l-191 -297q-4 -6 0 -12zM547 449l190 -297q2 -9 -4 -15l-39 -31q-8 -8 -14 0l-310 326q7 2 -2 6v33q9 4 2 6l310 326q6 8 14 0l39 -31q6 -6 4 -14
l-190 -297q-2 -6 0 -12z" />
    <glyph glyph-name="logicalnot" unicode="&#xac;" 
d="M809 424h-696q-11 0 -11 10v74q0 10 11 10h798q11 0 11 -10v-498q0 -10 -11 -10h-82q-10 0 -10 10v404q0 10 -10 10z" />
    <glyph glyph-name="registered" unicode="&#xae;" horiz-adv-x="1550" 
d="M649 336q0 -8 13 -8l112 -13q4 0 4 -8v-45q0 -8 -4 -8h-393q-4 0 -4 8v45q0 8 4 8l123 13q12 0 12 8v706q0 9 -12 9l-123 12q-4 0 -4 8v45q0 8 4 8h356q188 0 252 -45q92 -60 92 -176q0 -187 -227 -235q79 -31 131 -133l102 -203q8 -4 11 -4l98 -13q4 0 4 -8v-45
q0 -8 -4 -8h-223q0 2 -2 6l-105 242q-35 80 -73.5 114.5t-108.5 34.5h-20q-7 0 -11 -4t-4 -6v-305zM662 1053q-13 0 -13 -11v-317q0 -10 13 -10h53q100 0 158.5 44t58.5 133t-64 125t-157 36h-49zM776 1327q-131 0 -243.5 -50t-195.5 -137t-131 -203t-48 -247t48 -246.5
t131 -202.5t195.5 -137.5t243.5 -50.5t244 50.5t196.5 137.5t131 202.5t47.5 246.5t-47.5 247t-131 203t-196.5 137t-244 50zM776 1409q150 0 280 -56.5t225 -153.5t150.5 -228t55.5 -281t-55.5 -280.5t-150.5 -228t-225 -154t-280 -56.5t-278.5 56.5t-225 154t-151.5 228
t-55 280.5t55 281t151.5 228t225 153.5t278.5 56.5z" />
    <glyph glyph-name="macron" unicode="&#xaf;" 
d="M209 1098v90q0 10 10 10h586q10 0 10 -10v-90q0 -11 -10 -11h-586q-10 0 -10 11z" />
    <glyph glyph-name="macron" unicode="&#x2c9;" 
d="M209 1098v90q0 10 10 10h586q10 0 10 -10v-90q0 -11 -10 -11h-586q-10 0 -10 11z" />
    <glyph glyph-name="degree" unicode="&#xb0;" horiz-adv-x="627" 
d="M492 1271.5q73 -74.5 73 -178.5t-73.5 -177.5t-177.5 -73.5t-178.5 73t-74.5 178t74 179t179 74t178 -74.5zM314 1262q-70 0 -115 -49t-45 -102q0 -88 44.5 -136.5t114.5 -48.5q109 0 134.5 67t25.5 101t-12 65t-44.5 67t-102.5 36z" />
    <glyph glyph-name="plusminus" unicode="&#xb1;" 
d="M72 612h389v320q0 10 10 10h82q10 0 10 -10v-320h389q11 0 11 -10v-74q0 -10 -11 -10h-389v-319q0 -11 -10 -11h-82q-10 0 -10 11v319h-389q-11 0 -11 10v74q0 10 11 10zM72 94h880q11 0 11 -10v-74q0 -10 -11 -10h-880q-11 0 -11 10v74q0 10 11 10z" />
    <glyph glyph-name="twosuperior" unicode="&#xb2;" horiz-adv-x="758" 
d="M113 1141q-11 0 -11 12v190q0 15 11 17q98 49 236 49t220 -57t82 -150q0 -171 -149.5 -312t-206.5 -181h371q10 0 10 -11v-108q0 -10 -10 -10h-568q-6 0 -10 4l-20 39q-7 9 4 16q200 148 305 271q106 123 106 243t-59 145t-86 25q-94 0 -127 -23l-29 -149q-2 -2 -5 -6
t-5 -4h-59z" />
    <glyph glyph-name="threesuperior" unicode="&#xb3;" horiz-adv-x="758" 
d="M325 631q205 0 205 168q0 157 -219 157h-22q-17 0 -31 -1t-14 8v51q0 10 12 10q113 0 171 37.5t58 134.5q0 129 -155 129q-73 0 -121 -20l-27 -142q-4 -10 -14 -10h-53q-13 0 -13 10v193q0 21 92.5 37t145.5 16q129 0 217 -45t88 -138t-56.5 -141.5t-84.5 -60.5
q80 -11 139 -66.5t59 -128.5q0 -135 -118.5 -206.5t-247.5 -71.5t-230 35q-14 4 -14 12v201q0 10 12 10h56q10 0 14 -10l29 -148q70 -20 122 -20z" />
    <glyph glyph-name="acute" unicode="&#xb4;" 
d="M608 1378h168q6 0 8 -6t0 -10l-266 -354q-4 -4 -8 -4h-55q-4 0 -8.5 5t-2.5 9l148 348q6 12 16 12z" />
    <glyph glyph-name="mu" unicode="&#xb5;" horiz-adv-x="1044" 
d="M143 -530v1421q0 10 11 10h133q10 0 10 -10v-481q0 -306 167.5 -306t250.5 107v680q0 10 10 10h145q11 0 11 -10v-612q0 -112 16 -141t44 -41.5t77 -20.5q10 -2 10 -10v-35q0 -6 -8 -11l-182 -34q-8 -2 -21 6q-63 37 -84 123q-68 -98 -145.5 -121t-115.5 -23
q-68 0 -121.5 33t-69.5 70q0 -41 3 -95.5t10 -191.5t24 -218q16 -81 12 -89t-13 -8l-157 -17q-17 0 -17 15z" />
    <glyph glyph-name="paragraph" unicode="&#xb6;" horiz-adv-x="1161" 
d="M627 420q0 10 -11 10q-241 0 -382.5 137.5t-141.5 335.5t142 336.5t387 138.5h477q10 0 10 -10v-53q0 -10 -8 -10l-144 -15q-10 0 -10 -10v-1667q0 -10 -10 -10h-74q-10 0 -10 10v1663q0 10 -10 10h-111q-10 0 -10 -10v-1663q0 -10 -10 -10h-74q-10 0 -10 10v807z" />
    <glyph glyph-name="uni00B7" unicode="&#xb7;" horiz-adv-x="512" 
d="M341 570.5q34 -35.5 34 -71.5t-9.5 -56.5t-25.5 -37t-37.5 -25.5t-58.5 -9t-71 35.5t-34 70.5t9.5 56.5t34 47t74.5 25.5t84 -35.5z" />
    <glyph glyph-name="cedilla" unicode="&#xb8;" 
d="M517 -353q48 24 48 74t-35.5 73.5t-80.5 19.5q-13 0 -7 12l86 180h58l-15 -104q66 -13 98.5 -56t32.5 -93q0 -93 -89 -148.5t-185 -55.5h-22q-21 0 -26 6.5t-3 10.5l10 49q0 8 41 8t89 24z" />
    <glyph glyph-name="onesuperior" unicode="&#xb9;" horiz-adv-x="758" 
d="M403 1389q9 2 13 2h40q17 0 17 -11v-704q0 -10 10 -10l144 -15q10 0 10 -10v-51q0 -10 -10 -10h-453q-10 0 -10 10v51q0 10 10 10l150 15q10 0 10 10v561q0 10 -8 10l-189 -35q-10 0 -10 11l-14 49q0 10 8 10z" />
    <glyph glyph-name="ordmasculine" unicode="&#xba;" horiz-adv-x="635" 
d="M551 473q4 0 4 -6v-49q0 -6 -4 -6h-465q-4 0 -4 6v49q0 6 4 6h465zM530 1055.5q72 -77.5 72 -201.5q0 -125 -81 -206t-208 -81q-201 0 -240.5 109.5t-39.5 171.5t21.5 114t79.5 111.5t191 59.5t205 -77.5zM194.5 1016.5q-36.5 -54.5 -36.5 -121.5q0 -266 172 -266
q75 0 111 56.5t36 121.5t-9 109.5t-42.5 99.5t-114.5 55q-80 0 -116.5 -54.5z" />
    <glyph glyph-name="guillemotright" unicode="&#xbb;" horiz-adv-x="823" 
d="M448 102q-6 0 -8 4l-39 31q-8 6 -4 15l191 297q4 6 0 12l-191 297q-4 8 4 14l39 31q6 8 15 0l309 -326q-2 -2 2 -6v-33q-4 -4 -2 -6l-309 -326q-1 -4 -7 -4zM276 461l-190 297q-2 8 4 14l39 31q6 8 14 0l310 -326q-7 -2 2 -6v-33q-9 -4 -2 -6l-310 -326q-8 -8 -14 0
l-39 31q-6 6 -4 15l190 297q5 6 0 12z" />
    <glyph glyph-name="onequarter" unicode="&#xbc;" horiz-adv-x="1720" 
d="M403 1389q9 2 23 2h30q17 0 17 -11v-704q0 -10 10 -10l144 -15q10 0 10 -10v-51q0 -10 -10 -10h-453q-10 0 -10 10v51q0 10 10 10l150 15q10 0 10 10v561q0 10 -8 10l-189 -35q-10 0 -10 11l-14 49q0 10 8 10zM1241 1421l54 -32q10 -9 2 -15l-799 -1403q-4 -11 -14 -6
l-56 33q-10 6 -2 16l799 1403q6 10 16 4zM1352 276q10 0 10 11v315l-270 -326h260zM1501 285q0 -9 6 -9h135q7 0 7 -4v-104q0 -4 -7 -4h-135q-6 0 -6 -8v-174q0 -11 -10 -11h-119q-10 0 -10 11v174q0 8 -8 8h-391q-7 0 -9 6l-16 35q-3 5 2 10l496 598q8 4 12 4l45 -6
q8 -4 8 -10v-516z" />
    <glyph glyph-name="onehalf" unicode="&#xbd;" horiz-adv-x="1720" 
d="M403 1389q9 2 23 2h30q17 0 17 -11v-704q0 -10 10 -10l144 -15q10 0 10 -10v-51q0 -10 -10 -10h-453q-10 0 -10 10v51q0 10 10 10l150 15q10 0 10 10v561q0 10 -8 10l-189 -35q-10 0 -10 11l-14 49q0 10 8 10zM1241 1421l54 -32q10 -9 2 -15l-799 -1403q-4 -11 -14 -6
l-56 33q-10 6 -2 16l799 1403q6 10 16 4zM1075 561q-11 0 -11 12v190q0 15 11 17q98 49 236 49t220 -57t82 -150q0 -172 -223 -382q-76 -72 -133 -111h371q10 0 10 -11v-108q0 -10 -10 -10h-568q-6 0 -10 4l-20 39q-7 9 4 16q200 148 305 271q106 123 106 243
q-1 119 -89 157q-30 12 -56 13q-94 0 -127 -23l-29 -149q-2 -2 -5 -6t-5 -4h-59z" />
    <glyph glyph-name="threequarters" unicode="&#xbe;" horiz-adv-x="1720" 
d="M325 631q205 0 205 168q0 157 -219 157h-22q-17 0 -31 -1t-14 8v51q0 10 12 10q113 0 154 26q75 49 75 146q0 129 -155 129q-73 0 -121 -20l-27 -142q-4 -10 -14 -10h-53q-13 0 -13 10v193q0 21 92 37t146 16q129 -1 204 -39q101 -52 101 -144q0 -94 -87 -168
q-26 -22 -54 -34q80 -11 139 -67t59 -128q0 -135 -118 -207q-118 -71 -248 -71q-129 0 -230 35q-14 4 -14 12v201q0 10 12 10h56q10 0 14 -10l29 -148q70 -20 122 -20zM1241 1421l54 -32q10 -9 2 -15l-799 -1403q-4 -11 -14 -6l-56 33q-10 6 -2 16l799 1403q6 10 16 4z
M1352 276q10 0 10 11v315l-270 -326h260zM1501 285q0 -9 6 -9h135q7 0 7 -4v-104q0 -4 -7 -4h-135q-6 0 -6 -8v-174q0 -11 -10 -11h-119q-10 0 -10 11v174q0 8 -8 8h-391q-7 0 -9 6l-16 35q-3 5 2 10l496 598q8 4 12 4l45 -6q8 -4 8 -10v-516z" />
    <glyph glyph-name="questiondown" unicode="&#xbf;" horiz-adv-x="801" 
d="M436 545q0 12 17 12h51q16 0 18 -21q2 -20 2 -62t-6 -90t-19.5 -91t-31.5 -82t-41 -77t-92.5 -130.5t-69.5 -170.5q0 -135 60 -197t140 -62t132 27q6 4 10 16l29 152q0 8 10 8h64q10 0 10 -8v-228q0 -8 -10 -10q-151 -51 -250 -51q-181 0 -283 76t-102 227
q0 112 69.5 199.5t181 203.5t111.5 359zM399.5 727q-34.5 33 -34.5 68q0 55 33.5 89t67.5 34q57 0 89.5 -35.5t32.5 -67.5q0 -31 -9.5 -51.5t-32.5 -45t-68 -24.5q-44 0 -78.5 33z" />
    <glyph glyph-name="Agrave" unicode="&#xc0;" horiz-adv-x="1454" 
d="M897 0q-10 0 -10 10v53q0 11 10 11l160 16q13 0 8 14l-152 402q-4 6 -8 6h-446q-5 -1 -8 -6l-162 -406q-5 -13 10 -14l154 -12q10 -1 10 -11v-53q0 -10 -10 -10h-443q-10 0 -10 10v53q0 11 10 11l168 16q5 1 8 6l521 1311q4 6 8 6h51q5 -1 8 -6l479 -1309q2 -6 9 -6
l163 -18q9 0 9 -11v-53q0 -10 -11 -10h-526zM689 1108q-5 0 -7 -6l-193 -490q-6 -14 9 -14h370q16 0 11 14l-181 490q-4 6 -9 6zM615 1772q12 0 20 -11l145 -272q4 -4 2 -9t-8 -5h-61q-4 0 -10 3t-11 5l-262 272q-6 5 -3 11t9 6h179z" />
    <glyph glyph-name="Aacute" unicode="&#xc1;" horiz-adv-x="1454" 
d="M897 0q-10 0 -10 10v53q0 11 10 11l160 16q13 0 8 14l-152 402q-4 6 -8 6h-446q-5 -1 -8 -6l-162 -406q-5 -13 10 -14l154 -12q10 -1 10 -11v-53q0 -10 -10 -10h-443q-10 0 -10 10v53q0 11 10 11l168 16q5 1 8 6l521 1311q4 6 8 6h51q5 -1 8 -6l479 -1309q2 -6 9 -6
l163 -18q9 0 9 -11v-53q0 -10 -11 -10h-526zM689 1108q-5 0 -7 -6l-193 -490q-6 -14 9 -14h370q16 0 11 14l-181 490q-4 6 -9 6zM1038 1772q6 0 9 -6t-3 -11l-262 -272q-5 -2 -11 -5t-10 -3h-61q-6 0 -8 5t2 9l145 272q8 11 20 11h179z" />
    <glyph glyph-name="Acircumflex" unicode="&#xc2;" horiz-adv-x="1454" 
d="M897 0q-10 0 -10 10v53q0 11 10 11l160 16q13 0 8 14l-152 402q-4 6 -8 6h-446q-5 -1 -8 -6l-162 -406q-5 -13 10 -14l154 -12q10 -1 10 -11v-53q0 -10 -10 -10h-443q-10 0 -10 10v53q0 11 10 11l168 16q5 1 8 6l521 1311q4 6 8 6h51q5 -1 8 -6l479 -1309q2 -6 9 -6
l163 -18q9 0 9 -11v-53q0 -10 -11 -10h-526zM689 1108q-5 0 -7 -6l-193 -490q-6 -14 9 -14h370q16 0 11 14l-181 490q-4 6 -9 6zM807 1772q14 0 20 -11l166 -272q7 -14 -6 -14h-62q-6 0 -11 3t-9 5l-168 168l-168 -168q-8 -8 -20 -8h-62q-13 0 -6 14l166 272q8 11 20 11h140
z" />
    <glyph glyph-name="Atilde" unicode="&#xc3;" horiz-adv-x="1454" 
d="M897 0q-10 0 -10 10v53q0 11 10 11l160 16q13 0 8 14l-152 402q-4 6 -8 6h-446q-5 -1 -8 -6l-162 -406q-5 -13 10 -14l154 -12q10 -1 10 -11v-53q0 -10 -10 -10h-443q-10 0 -10 10v53q0 11 10 11l168 16q5 1 8 6l521 1311q4 6 8 6h51q5 -1 8 -6l479 -1309q2 -6 9 -6
l163 -18q9 0 9 -11v-53q0 -10 -11 -10h-526zM689 1108q-5 0 -7 -6l-193 -490q-6 -14 9 -14h370q16 0 11 14l-181 490q-4 6 -9 6zM1067 1661q-143 -152 -220 -152q-40 0 -111 38q-70 38 -98 38q-63 0 -137 -69q-12 -15 -16 -3l-35 41q-6 11 2 17q142 149 218 149
q55 0 115 -38q59 -38 93 -37q60 0 140 71q10 6 14 0l35 -41q6 -8 0 -14z" />
    <glyph glyph-name="Adieresis" unicode="&#xc4;" horiz-adv-x="1454" 
d="M897 0q-10 0 -10 10v53q0 11 10 11l160 16q13 0 8 14l-152 402q-4 6 -8 6h-446q-5 -1 -8 -6l-162 -406q-5 -13 10 -14l154 -12q10 -1 10 -11v-53q0 -10 -10 -10h-443q-10 0 -10 10v53q0 11 10 11l168 16q5 1 8 6l521 1311q4 6 8 6h51q5 -1 8 -6l479 -1309q2 -6 9 -6
l163 -18q9 0 9 -11v-53q0 -10 -11 -10h-526zM689 1108q-5 0 -7 -6l-193 -490q-6 -14 9 -14h370q16 0 11 14l-181 490q-4 6 -9 6zM615 1674q29 -30 29 -62q0 -51 -30 -81t-62 -30q-53 0 -83 29t-30 61q0 31 8 51q7 20 21 32q30 30 74 30t73 -30zM1008 1674q30 -30 29 -61
q0 -54 -30 -83t-63 -29q-52 0 -82 30q-30 31 -30 61t8 50t22 32q28 30 72 30t74 -30z" />
    <glyph glyph-name="Aring" unicode="&#xc5;" horiz-adv-x="1454" 
d="M897 0q-10 0 -10 10v53q0 11 10 11l160 16q13 0 8 14l-152 402q-4 6 -8 6h-446q-5 -1 -8 -6l-162 -406q-5 -13 10 -14l154 -12q10 -1 10 -11v-53q0 -10 -10 -10h-443q-10 0 -10 10v53q0 11 10 11l168 16q5 1 8 6l521 1311q4 6 8 6h51q5 -1 8 -6l479 -1309q2 -6 9 -6
l163 -18q9 0 9 -11v-53q0 -10 -11 -10h-526zM689 1108q-5 0 -7 -6l-193 -490q-6 -14 9 -14h370q16 0 11 14l-181 490q-4 6 -9 6zM737 1772q43 0 81 -14t66 -36t44 -52q18 -30 18 -64t-18 -64t-44 -52q-28 -22 -66 -36q-38 -12 -81 -12t-80 12t-65 36q-28 22 -46 52
q-16 30 -16 64t16 64t46 52q28 22 65 36t80 14zM737 1709q-45 0 -71 -30t-27 -73q1 -44 27 -72t71 -28t73 28t27 72q1 43 -27 73t-73 30z" />
    <glyph glyph-name="AE" unicode="&#xc6;" horiz-adv-x="1939" 
d="M12 0q-12 0 -12 10v53q0 11 8 11l168 16q4 0 8 6l785 1198l-109 11q-10 0 -10 10v53q0 10 10 10h948q11 0 11 -10v-321q0 -11 -11 -11h-75q-11 0 -11 8l-41 232q0 8 -10 8h-448q-11 0 -11 -10v-547q0 -10 11 -10h273q10 0 10 8l20 166q0 8 10 8h55q11 0 11 -10v-445
q0 -10 -11 -10h-55q-10 0 -10 8l-20 176q0 9 -10 9h-273q-11 0 -11 -11v-512q0 -10 11 -10h477q10 0 10 8l41 228q0 8 10 8h76q10 0 10 -10v-318q0 -10 -10 -10h-987q-10 0 -10 10v53q0 11 10 11l174 16q10 0 10 10v516q0 11 -10 11h-377q-4 0 -10 -6l-344 -521q-2 -6 2 -10
t8 -4l152 -12q12 0 12 -11v-53q0 -10 -10 -10h-445zM711 717h313q10 0 10 10v496q0 6 -5 7t-11 -9l-313 -490q-3 -6 -0.5 -10t6.5 -4z" />
    <glyph glyph-name="Ccedilla" unicode="&#xc7;" horiz-adv-x="1325" 
d="M629 -385q-1 8 19 8q63 0 111 24.5t48 73.5t-35.5 73t-81.5 20q-9 0 -6 12l70 147q-306 22 -491 220.5t-185 492.5q0 334 226.5 528.5t553.5 194.5q98 0 209 -21.5t133 -25.5t23 -12v-310q0 -10 -11 -10h-79q-11 0 -11 8l-41 230q0 10 -88.5 29.5t-144.5 19.5
q-270 0 -421 -159t-151 -430t156.5 -465.5t407.5 -194.5q87 0 164 15t77 32l41 231q0 8 11 8h79q11 0 11 -10v-309q0 -16 -144.5 -40t-255.5 -24l-10 -69q66 -13 98.5 -56t32.5 -93q0 -93 -89 -148.5t-185 -55.5h-22q-21 0 -26.5 6.5t-3.5 10.5z" />
    <glyph glyph-name="Egrave" unicode="&#xc8;" horiz-adv-x="1196" 
d="M1065 1378q10 0 10 -10v-321q0 -11 -10 -11h-76q-10 0 -10 8l-41 232q0 8 -10 8h-469q-10 0 -10 -10v-506q0 -10 10 -10h282q11 0 11 8l20 166q0 8 10 8h56q10 0 10 -10v-445q0 -10 -10 -10h-56q-10 0 -10 8l-20 176q0 9 -11 9h-282q-10 0 -10 -11v-553q0 -10 10 -10h497
q11 0 11 8l41 228q0 8 10 8h76q10 0 10 -10v-318q0 -10 -10 -10h-1008q-10 0 -10 10v53q0 11 10 11l174 16q10 0 10 10v1182q-4 6 -10 6l-174 17q-10 0 -10 10v53q0 10 10 10h979zM574 1772q12 0 20 -11l145 -272q5 -4 3 -9t-9 -5h-61q-4 0 -10 3t-11 5l-262 272q-6 5 -3 11
t9 6h179z" />
    <glyph glyph-name="Eacute" unicode="&#xc9;" horiz-adv-x="1196" 
d="M1065 1378q10 0 10 -10v-321q0 -11 -10 -11h-76q-10 0 -10 8l-41 232q0 8 -10 8h-469q-10 0 -10 -10v-506q0 -10 10 -10h282q11 0 11 8l20 166q0 8 10 8h56q10 0 10 -10v-445q0 -10 -10 -10h-56q-10 0 -10 8l-20 176q0 9 -11 9h-282q-10 0 -10 -11v-553q0 -10 10 -10h497
q11 0 11 8l41 228q0 8 10 8h76q10 0 10 -10v-318q0 -10 -10 -10h-1008q-10 0 -10 10v53q0 11 10 11l174 16q10 0 10 10v1182q-4 6 -10 6l-174 17q-10 0 -10 10v53q0 10 10 10h979zM875 1772q6 0 9 -6t-3 -11l-262 -272q-5 -2 -11 -5t-10 -3h-61q-7 0 -9 5t3 9l145 272
q8 11 20 11h179z" />
    <glyph glyph-name="Ecircumflex" unicode="&#xca;" horiz-adv-x="1196" 
d="M1065 1378q10 0 10 -10v-321q0 -11 -10 -11h-76q-10 0 -10 8l-41 232q0 8 -10 8h-469q-10 0 -10 -10v-506q0 -10 10 -10h282q11 0 11 8l20 166q0 8 10 8h56q10 0 10 -10v-445q0 -10 -10 -10h-56q-10 0 -10 8l-20 176q0 9 -11 9h-282q-10 0 -10 -11v-553q0 -10 10 -10h497
q11 0 11 8l41 228q0 8 10 8h76q10 0 10 -10v-318q0 -10 -10 -10h-1008q-10 0 -10 10v53q0 11 10 11l174 16q10 0 10 10v1182q-4 6 -10 6l-174 17q-10 0 -10 10v53q0 10 10 10h979zM705 1772q14 0 20 -11l166 -272q7 -14 -6 -14h-62q-6 0 -11 3t-9 5l-168 168l-168 -168
q-8 -8 -20 -8h-62q-13 0 -6 14l166 272q8 11 20 11h140z" />
    <glyph glyph-name="Edieresis" unicode="&#xcb;" horiz-adv-x="1196" 
d="M1065 1378q10 0 10 -10v-321q0 -11 -10 -11h-76q-10 0 -10 8l-41 232q0 8 -10 8h-469q-10 0 -10 -10v-506q0 -10 10 -10h282q11 0 11 8l20 166q0 8 10 8h56q10 0 10 -10v-445q0 -10 -10 -10h-56q-10 0 -10 8l-20 176q0 9 -11 9h-282q-10 0 -10 -11v-553q0 -10 10 -10h497
q11 0 11 8l41 228q0 8 10 8h76q10 0 10 -10v-318q0 -10 -10 -10h-1008q-10 0 -10 10v53q0 11 10 11l174 16q10 0 10 10v1182q-4 6 -10 6l-174 17q-10 0 -10 10v53q0 10 10 10h979zM512 1674q29 -30 29 -62q0 -51 -30 -81q-29 -30 -61 -30q-53 0 -84 29q-30 29 -30 61
q0 31 8 51t22 32q30 30 73 30q44 0 73 -30zM904 1674q30 -30 30 -61q0 -54 -30 -83t-63 -29q-52 0 -82 30q-30 31 -30 61q1 30 9 50t21 32q28 30 72 30q43 0 73 -30z" />
    <glyph glyph-name="Igrave" unicode="&#xcc;" horiz-adv-x="723" 
d="M637 1378q10 0 10 -10v-53q0 -10 -10 -10l-174 -17q-10 0 -10 -10v-1178q0 -10 10 -10l174 -16q10 0 10 -11v-53q0 -10 -10 -10h-551q-10 0 -10 10v53q0 11 10 11l174 16q10 0 10 10v1178q0 10 -10 10l-174 17q-10 0 -10 10v53q0 10 10 10h551zM258 1772q12 0 20 -11
l145 -272q5 -4 3 -9t-9 -5h-61q-4 0 -10 3t-11 5l-262 272q-6 5 -3 11t9 6h179z" />
    <glyph glyph-name="Iacute" unicode="&#xcd;" horiz-adv-x="723" 
d="M637 1378q10 0 10 -10v-53q0 -10 -10 -10l-174 -17q-10 0 -10 -10v-1178q0 -10 10 -10l174 -16q10 0 10 -11v-53q0 -10 -10 -10h-551q-10 0 -10 10v53q0 11 10 11l174 16q10 0 10 10v1178q0 10 -10 10l-174 17q-10 0 -10 10v53q0 10 10 10h551zM642 1772q6 0 9 -6t-3 -11
l-262 -272q-5 -2 -11 -5t-10 -3h-61q-6 0 -8 5t2 9l145 272q8 11 20 11h179z" />
    <glyph glyph-name="Icircumflex" unicode="&#xce;" horiz-adv-x="723" 
d="M637 1378q10 0 10 -10v-53q0 -10 -10 -10l-174 -17q-10 0 -10 -10v-1178q0 -10 10 -10l174 -16q10 0 10 -11v-53q0 -10 -10 -10h-551q-10 0 -10 10v53q0 11 10 11l174 16q10 0 10 10v1178q0 10 -10 10l-174 17q-10 0 -10 10v53q0 10 10 10h551zM431 1772q14 0 20 -11
l166 -272q7 -14 -6 -14h-62q-6 0 -11 3t-9 5l-168 168l-168 -168q-8 -8 -20 -8h-62q-13 0 -6 14l166 272q8 11 20 11h140z" />
    <glyph glyph-name="Idieresis" unicode="&#xcf;" horiz-adv-x="723" 
d="M637 1378q10 0 10 -10v-53q0 -10 -10 -10l-174 -17q-10 0 -10 -10v-1178q0 -10 10 -10l174 -16q10 0 10 -11v-53q0 -10 -10 -10h-551q-10 0 -10 10v53q0 11 10 11l174 16q10 0 10 10v1178q0 10 -10 10l-174 17q-10 0 -10 10v53q0 10 10 10h551zM238 1674q29 -30 29 -62
q0 -51 -30 -81q-29 -30 -61 -30q-53 0 -84 29q-30 29 -30 61q0 31 8 51t22 32q30 30 73 30q44 0 73 -30zM630 1674q30 -30 30 -61q0 -54 -30 -83t-63 -29q-52 0 -82 30q-30 31 -30 61q1 30 9 50t21 32q28 30 72 30q43 0 73 -30z" />
    <glyph glyph-name="Eth" unicode="&#xd0;" horiz-adv-x="1483" 
d="M260 776q10 0 10 10v484q0 10 -10 10l-174 16q-10 0 -10 11v61q0 10 10 10h551q552 0 660 -254t108 -436q0 -357 -213 -522.5t-586 -165.5h-520q-10 0 -10 10v62q0 10 10 10l174 16q10 0 10 11v563q0 10 -10 10h-174q-10 0 -10 10v74q0 10 10 10h174zM459 682
q-10 0 -10 -10v-568q0 -10 10 -10h141q321 0 465.5 119t144.5 414q0 479 -211 568t-362 89h-178q-10 0 -10 -10v-488q0 -10 10 -10h319q10 0 10 -10v-74q0 -10 -10 -10h-319z" />
    <glyph glyph-name="Ntilde" unicode="&#xd1;" horiz-adv-x="1487" 
d="M41 1368q0 10 10 10h361q5 -1 8 -4l760 -1005v901q0 10 -9 10l-151 16q-10 0 -10 11v61q0 10 10 10h426q10 0 10 -10v-61q0 -11 -10 -11l-154 -16q-10 0 -10 -10v-1276q0 -10 -12 -10h-39q-5 1 -10 6l-883 1169v-1050q0 -11 8 -11l150 -16q10 0 10 -10v-62q0 -10 -10 -10
h-426q-11 0 -11 10v62q0 10 11 10l155 16q11 0 11 11v1161q0 10 -11 10l-174 16q-10 0 -10 11v61zM680 1720q56 0 114 -38q59 -38 93 -37q60 0 140 71q10 6 14 0l35 -41q6 -8 0 -14q-64 -68 -122 -110t-98 -42t-111 38q-70 38 -98 38q-63 0 -137 -69q-12 -15 -16 -3l-35 41
q-6 11 2 17q143 149 219 149z" />
    <glyph glyph-name="Ograve" unicode="&#xd2;" horiz-adv-x="1548" 
d="M1272 668q0 258 -140 453q-140 196 -372 196t-358 -172t-126 -410q0 -171 62 -325t186 -250q125 -96 285 -97q231 0 356 186q107 161 107 419zM782 1409q310 1 499 -201t189 -513t-190 -517t-498 -207q-308 0 -506 203q-198 204 -198 514t197 516t507 205zM672 1772
q12 0 20 -11l145 -272q5 -4 3 -9t-9 -5h-61q-4 0 -10 3t-11 5l-262 272q-6 5 -3 11t9 6h179z" />
    <glyph glyph-name="Oacute" unicode="&#xd3;" horiz-adv-x="1548" 
d="M1272 668q0 258 -140 453q-140 196 -372 196t-358 -172t-126 -410q0 -171 62 -325t186 -250q125 -96 285 -97q231 0 356 186q107 161 107 419zM782 1409q310 1 499 -201t189 -513t-190 -517t-498 -207q-308 0 -506 203q-198 204 -198 514t197 516t507 205zM1055 1772
q6 0 9 -6t-3 -11l-262 -272q-5 -2 -11 -5t-10 -3h-61q-7 0 -9 5t3 9l145 272q8 11 20 11h179z" />
    <glyph glyph-name="Ocircumflex" unicode="&#xd4;" horiz-adv-x="1548" 
d="M1272 668q0 258 -140 453q-140 196 -372 196t-358 -172t-126 -410q0 -171 62 -325t186 -250q125 -96 285 -97q231 0 356 186q107 161 107 419zM782 1409q310 1 499 -201t189 -513t-190 -517t-498 -207q-308 0 -506 203q-198 204 -198 514t197 516t507 205zM844 1772
q14 0 20 -11l166 -272q7 -14 -6 -14h-62q-6 0 -11 3t-9 5l-168 168l-168 -168q-8 -8 -20 -8h-62q-13 0 -6 14l166 272q8 11 20 11h140z" />
    <glyph glyph-name="Otilde" unicode="&#xd5;" horiz-adv-x="1548" 
d="M1272 668q0 258 -140 453q-140 196 -372 196t-358 -172t-126 -410q0 -171 62 -325t186 -250q125 -96 285 -97q231 0 356 186q107 161 107 419zM782 1409q310 1 499 -201t189 -513t-190 -517t-498 -207q-308 0 -506 203q-198 204 -198 514t197 516t507 205zM696 1720
q55 0 113 -38q59 -37 94 -37q60 0 140 71q10 6 14 0l35 -41q6 -8 0 -14q-64 -68 -122 -110t-98 -42t-111 38q-70 38 -98 38q-63 0 -137 -69q-12 -15 -16 -3l-35 41q-6 11 2 17q143 149 219 149z" />
    <glyph glyph-name="Odieresis" unicode="&#xd6;" horiz-adv-x="1548" 
d="M1272 668q0 258 -140 453q-140 196 -372 196t-358 -172t-126 -410q0 -171 62 -325t186 -250q125 -96 285 -97q231 0 356 186q107 161 107 419zM782 1409q310 1 499 -201t189 -513t-190 -517t-498 -207q-308 0 -506 203q-198 204 -198 514t197 516t507 205zM652 1674
q29 -30 29 -62q0 -51 -30 -81q-29 -30 -61 -30q-53 0 -84 29q-30 29 -30 61q0 31 8 51t22 32q30 30 73 30q44 0 73 -30zM1044 1674q30 -30 30 -61q0 -54 -30 -83t-63 -29q-52 0 -82 30q-30 31 -30 61q1 30 9 50t21 32q28 30 72 30q43 0 73 -30z" />
    <glyph glyph-name="multiply" unicode="&#xd7;" 
d="M864 49q-4 0 -6 2l-346 348l-346 -348q-10 -6 -19 0l-51 51q-2 -2 -3 1t-2 7.5t-1 8.5t2 6l348 346l-348 346q-6 10 0 19l55 55q9 4 19 0l346 -348l346 348q10 4 19 0l55 -55q6 -9 0 -19l-348 -346l348 -346q6 -10 0 -19l-53 -51q2 -2 0 -3t-6.5 -2t-8.5 -1z" />
    <glyph glyph-name="Oslash" unicode="&#xd8;" horiz-adv-x="1548" 
d="M1122 1133q-139 184 -362 184t-353.5 -167.5t-130.5 -414t115 -428.5zM446 231q148 -168 368 -168q219 0 338.5 169t119.5 412t-96 411zM276 174q-198 202 -198 513t144.5 461t274.5 205.5t285 55.5q268 0 449 -156l108 125q8 8 15 2l55 -47q6 -8 0 -14l-113 -129
q174 -199 174 -502t-191 -510t-497 -207q-252 0 -438 144l-115 -131q-6 -7 -14 -2l-55 47q-6 8 0 14z" />
    <glyph glyph-name="Ugrave" unicode="&#xd9;" horiz-adv-x="1470" 
d="M223 1278q0 10 -10 10l-172 17q-10 0 -10 10v53q0 10 10 10h555q10 0 10 -10v-53q0 -10 -10 -10l-184 -17q-11 0 -11 -10v-739q0 -153 15 -227t55 -119q107 -123 317 -123t316 172q51 81 51 319v717q0 10 -10 10l-174 17q-10 0 -10 10v53q0 10 10 10h475q10 0 10 -10v-53
q0 -10 -10 -10l-168 -17q-10 0 -10 -10v-709q0 -336 -136 -467t-396 -131t-398 138q-61 61 -88 139t-27 217v813zM664 1772q12 0 20 -11l145 -272q5 -4 3 -9t-9 -5h-61q-4 0 -10 3t-11 5l-262 272q-6 5 -3 11t9 6h179z" />
    <glyph glyph-name="Uacute" unicode="&#xda;" horiz-adv-x="1470" 
d="M223 1278q0 10 -10 10l-172 17q-10 0 -10 10v53q0 10 10 10h555q10 0 10 -10v-53q0 -10 -10 -10l-184 -17q-11 0 -11 -10v-739q0 -153 15 -227t55 -119q107 -123 317 -123t316 172q51 81 51 319v717q0 10 -10 10l-174 17q-10 0 -10 10v53q0 10 10 10h475q10 0 10 -10v-53
q0 -10 -10 -10l-168 -17q-10 0 -10 -10v-709q0 -336 -136 -467t-396 -131t-398 138q-61 61 -88 139t-27 217v813zM1047 1772q6 0 9 -6t-3 -11l-262 -272q-5 -2 -11 -5t-10 -3h-61q-7 0 -9 5t3 9l145 272q8 11 20 11h179z" />
    <glyph glyph-name="Ucircumflex" unicode="&#xdb;" horiz-adv-x="1470" 
d="M223 1278q0 10 -10 10l-172 17q-10 0 -10 10v53q0 10 10 10h555q10 0 10 -10v-53q0 -10 -10 -10l-184 -17q-11 0 -11 -10v-739q0 -153 15 -227t55 -119q107 -123 317 -123t316 172q51 81 51 319v717q0 10 -10 10l-174 17q-10 0 -10 10v53q0 10 10 10h475q10 0 10 -10v-53
q0 -10 -10 -10l-168 -17q-10 0 -10 -10v-709q0 -336 -136 -467t-396 -131t-398 138q-61 61 -88 139t-27 217v813zM826 1772q14 0 20 -11l166 -272q7 -14 -6 -14h-62q-6 0 -11 3t-9 5l-168 168l-168 -168q-8 -8 -20 -8h-62q-13 0 -6 14l166 272q8 11 20 11h140z" />
    <glyph glyph-name="Udieresis" unicode="&#xdc;" horiz-adv-x="1470" 
d="M223 1278q0 10 -10 10l-172 17q-10 0 -10 10v53q0 10 10 10h555q10 0 10 -10v-53q0 -10 -10 -10l-184 -17q-11 0 -11 -10v-739q0 -153 15 -227t55 -119q107 -123 317 -123t316 172q51 81 51 319v717q0 10 -10 10l-174 17q-10 0 -10 10v53q0 10 10 10h475q10 0 10 -10v-53
q0 -10 -10 -10l-168 -17q-10 0 -10 -10v-709q0 -336 -136 -467t-396 -131t-398 138q-61 61 -88 139t-27 217v813zM643 1674q29 -30 29 -62q0 -51 -30 -81t-62 -30q-53 0 -83 29t-30 61q0 31 8 51q7 20 21 32q30 30 74 30t73 -30zM1036 1674q30 -30 29 -61q0 -54 -30 -83
t-63 -29q-52 0 -82 30q-30 31 -30 61t8 50t22 32q28 30 72 30t74 -30z" />
    <glyph glyph-name="Yacute" unicode="&#xdd;" horiz-adv-x="1382" 
d="M1092 1281q0 11 -11 11l-141 13q-10 0 -10 10v53q0 10 10 10h424q10 0 10 -10v-53q0 -10 -10 -10l-154 -15q-5 -1 -8 -4l-407 -698q-2 -3 -2 -10v-478q0 -10 10 -10l174 -16q10 0 10 -11v-53q0 -10 -10 -10h-547q-10 0 -10 10v53q0 11 10 11l174 16q10 0 10 10v467
q0 8 -2 13l-399 704q-4 4 -8 4l-174 17q-11 0 -11 10v53q0 10 11 10h544q11 0 11 -10v-53q0 -10 -11 -10l-147 -13q-6 0 -8 -6t0 -10l328 -594l342 594q2 2 2 5zM1006 1772q6 0 9 -6t-3 -11l-262 -272q-5 -2 -11 -5t-10 -3h-61q-6 0 -8 5t2 9l145 272q8 11 20 11h179z" />
    <glyph glyph-name="Thorn" unicode="&#xde;" horiz-adv-x="1208" 
d="M637 1378q10 0 10 -10v-53q0 -10 -10 -10l-174 -17q-10 0 -10 -10v-127q0 -10 10 -10h135q190 0 273 -27t130 -60.5t81 -83.5q64 -96 65 -199q0 -186 -146 -304.5t-350 -118.5l-198 35v-283q0 -10 10 -10l174 -16q10 0 10 -11v-53q0 -10 -10 -10h-551q-10 0 -10 10v53
q0 11 10 11l174 16q10 0 10 10v1178q0 10 -10 10l-174 17q-10 0 -10 10v53q0 10 10 10h551zM582 444q362 0 362 318q0 152 -106 218.5t-275 66.5h-100q-10 0 -10 -11v-581q0 -11 10 -11h119z" />
    <glyph glyph-name="germandbls" unicode="&#xdf;" horiz-adv-x="1282" 
d="M217 778q0 8 -10 8h-152q-10 0 -10 11v51q0 10 10 10l152 19q10 0 10 10v74q0 152 22.5 229.5t76.5 135.5q53 58 136.5 89t163.5 31q167 0 276 -88t109 -291q0 -104 -40 -240q-5 -7 -28 1t-56 8q-66 0 -108 -34t-42 -95q0 -111 127 -158l86 -35q213 -89 213 -261
q0 -56 -27.5 -110.5t-97 -113t-181.5 -58.5t-251 47q-10 2 -10 11v237q0 8 10 8h63q11 0 11 -8l32 -164q0 -6 38 -27q38 -20 86 -20q79 0 121 42t42 106q0 89 -53 117t-80 40l-92 37q-91 38 -144 101t-53 159q0 157 102.5 203.5t151.5 54.5q17 83 17 142q0 139 -65.5 215
t-178.5 76q-172 0 -191.5 -118t-19.5 -181v-953q0 -10 10 -10l109 -14q10 0 10 -11v-51q0 -10 -10 -10h-455q-10 0 -10 10v51q0 11 10 11l160 14q10 0 10 10v682z" />
    <glyph glyph-name="agrave" unicode="&#xe0;" horiz-adv-x="907" 
d="M440 918q289 0 289 -240v-553q0 -8 8 -12l129 -37q10 -6 11 -10v-35q-4 -11 -9 -11l-270 -36q-10 0 -10 10l-17 96q-129 -119 -283 -119t-209 129q-18 42 -18 90q0 169 172 248q109 50 324 68v158q0 159 -156 159q-89 0 -155 -32q-6 -5 -10 -17l-29 -151q0 -9 -10 -9h-64
q-10 0 -10 9v227q0 6 10 10q162 58 307 58zM244 229q0 -131 131 -131q62 0 172 56q10 7 10 12v260q-105 -6 -139 -16t-68 -23q-106 -36 -106 -158zM481 1004h-55q-5 1 -8 4l-266 354q-1 2 -1 4q0 12 9 12h168q11 0 16 -12l148 -348q6 -14 -11 -14z" />
    <glyph glyph-name="aacute" unicode="&#xe1;" horiz-adv-x="907" 
d="M440 918q289 0 289 -240v-553q0 -8 8 -12l129 -37q10 -6 11 -10v-35q-4 -11 -9 -11l-270 -36q-10 0 -10 10l-17 96q-129 -119 -283 -119t-209 129q-18 42 -18 90q0 169 172 248q109 50 324 68v158q0 159 -156 159q-89 0 -155 -32q-6 -5 -10 -17l-29 -151q0 -9 -10 -9h-64
q-10 0 -10 9v227q0 6 10 10q162 58 307 58zM244 229q0 -131 131 -131q62 0 172 56q10 7 10 12v260q-105 -6 -139 -16t-68 -23q-106 -36 -106 -158zM520 1378h168q6 0 8 -6t0 -10l-266 -354q-4 -4 -8 -4h-55q-5 0 -9 5t-2 9l148 348q6 12 16 12z" />
    <glyph glyph-name="acircumflex" unicode="&#xe2;" horiz-adv-x="907" 
d="M440 918q289 0 289 -240v-553q0 -8 8 -12l129 -37q10 -6 11 -10v-35q-4 -11 -9 -11l-270 -36q-10 0 -10 10l-17 96q-129 -119 -283 -119t-209 129q-18 42 -18 90q0 169 172 248q109 50 324 68v158q0 159 -156 159q-89 0 -155 -32q-6 -5 -10 -17l-29 -151q0 -9 -10 -9h-64
q-10 0 -10 9v227q0 6 10 10q162 58 307 58zM244 229q0 -131 131 -131q62 0 172 56q10 7 10 12v260q-105 -6 -139 -16t-68 -23q-106 -36 -106 -158zM616 1004q-2 0 -6 4l-182 219h-4l-182 -219q-4 -4 -6 -4h-58q-6 0 -8 5t0 9l174 354q2 6 8 6h148q6 0 8 -6l174 -354
q2 -4 0 -9t-8 -5h-58z" />
    <glyph glyph-name="atilde" unicode="&#xe3;" horiz-adv-x="907" 
d="M440 918q289 0 289 -240v-553q0 -8 8 -12l129 -37q10 -6 11 -10v-35q-4 -11 -9 -11l-270 -36q-10 0 -10 10l-17 96q-129 -119 -283 -119t-209 129q-18 42 -18 90q0 169 172 248q109 50 324 68v158q0 159 -156 159q-89 0 -155 -32q-6 -5 -10 -17l-29 -151q0 -9 -10 -9h-64
q-10 0 -10 9v227q0 6 10 10q162 58 307 58zM244 229q0 -131 131 -131q62 0 172 56q10 7 10 12v260q-105 -6 -139 -16t-68 -23q-106 -36 -106 -158zM414 1123q-75 46 -116 46q-42 0 -130 -73q-6 -6 -14 0l-35 41q-5 11 43 55q49 45 95 80t86 35q39 -1 67 -15t81 -46t81 -32
q52 0 141 74q8 6 14 0l35 -41q6 -12 -44 -57q-50 -44 -79 -66q-63 -46 -106 -47q-44 0 -119 46z" />
    <glyph glyph-name="adieresis" unicode="&#xe4;" horiz-adv-x="907" 
d="M440 918q289 0 289 -240v-553q0 -8 8 -12l129 -37q10 -6 11 -10v-35q-4 -11 -9 -11l-270 -36q-10 0 -10 10l-17 96q-129 -119 -283 -119t-209 129q-18 42 -18 90q0 169 172 248q109 50 324 68v158q0 159 -156 159q-89 0 -155 -32q-6 -5 -10 -17l-29 -151q0 -9 -10 -9h-64
q-10 0 -10 9v227q0 6 10 10q162 58 307 58zM244 229q0 -131 131 -131q62 0 172 56q10 7 10 12v260q-105 -6 -139 -16t-68 -23q-106 -36 -106 -158zM321 1263q29 -31 29 -62q0 -49 -30 -79t-62 -30q-55 0 -84 30t-29 60q1 30 9 48t21 34q27 30 72 30t74 -31zM678 1262
q29 -32 29 -61q0 -48 -29 -79q-29 -30 -62 -30q-54 0 -84 30t-30 60t8 48t22 34q28 30 73 30q44 0 73 -32z" />
    <glyph glyph-name="aring" unicode="&#xe5;" horiz-adv-x="907" 
d="M440 918q289 0 289 -240v-553q0 -8 8 -12l129 -37q10 -6 11 -10v-35q-4 -11 -9 -11l-270 -36q-10 0 -10 10l-17 96q-129 -119 -283 -119t-209 129q-18 42 -18 90q0 169 172 248q109 50 324 68v158q0 159 -156 159q-89 0 -155 -32q-6 -5 -10 -17l-29 -151q0 -9 -10 -9h-64
q-10 0 -10 9v227q0 6 10 10q162 58 307 58zM244 229q0 -131 131 -131q62 0 172 56q10 7 10 12v260q-105 -6 -139 -16t-68 -23q-106 -36 -106 -158zM426 1366q43 0 81 -14q37 -14 65 -36t46 -52t17 -64q1 -34 -17 -64t-46 -52t-65 -36q-38 -12 -81 -12t-80 12q-38 12 -66 36
q-28 22 -44 52t-17 64q1 34 17 64t44 52t66 36q37 14 80 14zM426 1303q-46 0 -72 -30t-26 -73q0 -44 26 -72t72 -28q44 0 72 28t28 72q0 43 -28 73t-72 30z" />
    <glyph glyph-name="ae" unicode="&#xe6;" horiz-adv-x="1360" 
d="M629 115q-181 -144 -344 -144q-95 0 -159.5 59t-64.5 160q0 142 102.5 214t205 88t176.5 24v148q0 159 -156 159q-77 0 -143 -32q-6 -5 -10 -17l-29 -151q0 -9 -10 -9h-64q-10 0 -10 9v227q0 6 96.5 37t208.5 31q195 0 258 -115q119 115 265 115q145 0 211.5 -71
t91 -141.5t24.5 -133.5t-2 -85t-12 -22l-547 -19q8 -156 86.5 -258t214.5 -102q104 0 209 66q8 6 12 -5l29 -49q4 -8 -6 -14q-171 -113 -324 -113q-88 0 -170 38t-139 106zM244 211q0 -43 33.5 -79t86.5 -36t117 25.5t64 38.5v274q-84 -5 -127 -20t-67.5 -23t-45 -25.5
t-34 -39t-20.5 -47t-7 -68.5zM773.5 741q-52.5 -86 -56.5 -215l377 19q4 122 -40 202t-136 80t-144.5 -86z" />
    <glyph glyph-name="ccedilla" unicode="&#xe7;" horiz-adv-x="913" 
d="M334 -385q0 8 20 8q63 0 110.5 24.5t47.5 73.5t-35.5 73t-81.5 20q-12 0 -6 12l70 145q-182 12 -287.5 133t-105.5 326t135.5 346.5t333.5 141.5q141 0 268 -48q10 -4 10 -10v-237q0 -9 -10 -9h-64q-10 0 -10 9l-33 155q0 6 -8 13q-86 40 -154 40q-130 0 -208 -98.5
t-78 -258.5t83 -274t242 -114q122 0 232 74q8 5 12 -4l29 -50q4 -8 -6 -14q-161 -114 -312 -121l-10 -69q66 -13 98.5 -56t32.5 -93q0 -93 -89 -148.5t-185 -55.5h-21q-22 0 -27 6.5t-3 10.5z" />
    <glyph glyph-name="egrave" unicode="&#xe8;" horiz-adv-x="940" 
d="M854 541q0 -76 -14 -76h-590q4 -167 84 -273t223 -106q144 0 256 70q4 4 12 -4l29 -50q2 -9 -6 -14q-174 -117 -364 -117t-304 122q-114 121 -114 325t115 352t303 148t280 -100q90 -100 90 -277zM477 827q-202 0 -225 -282h418q9 282 -193 282zM549 1004h-55q-5 1 -8 4
l-266 354q-1 2 -1 4q0 12 9 12h168q11 0 16 -12l148 -348q6 -14 -11 -14z" />
    <glyph glyph-name="eacute" unicode="&#xe9;" horiz-adv-x="940" 
d="M854 541q0 -76 -14 -76h-590q4 -167 84 -273t223 -106q144 0 256 70q4 4 12 -4l29 -50q2 -9 -6 -14q-174 -117 -364 -117t-304 122q-114 121 -114 325t115 352t303 148t280 -100q90 -100 90 -277zM477 827q-202 0 -225 -282h418q9 282 -193 282zM591 1378h168q6 0 8 -6
t0 -10l-266 -354q-4 -4 -8 -4h-55q-4 0 -8 5t-3 9l148 348q6 12 16 12z" />
    <glyph glyph-name="ecircumflex" unicode="&#xea;" horiz-adv-x="940" 
d="M854 541q0 -76 -14 -76h-590q4 -167 84 -273t223 -106q144 0 256 70q4 4 12 -4l29 -50q2 -9 -6 -14q-174 -117 -364 -117t-304 122q-114 121 -114 325t115 352t303 148t280 -100q90 -100 90 -277zM477 827q-202 0 -225 -282h418q9 282 -193 282zM686 1004q-2 0 -6 4
l-182 219h-4l-182 -219q-4 -4 -6 -4h-58q-6 0 -8 5t0 9l174 354q2 6 8 6h148q6 0 8 -6l174 -354q2 -4 0 -9t-8 -5h-58z" />
    <glyph glyph-name="edieresis" unicode="&#xeb;" horiz-adv-x="940" 
d="M854 541q0 -76 -14 -76h-590q4 -167 84 -273t223 -106q144 0 256 70q4 4 12 -4l29 -50q2 -9 -6 -14q-174 -117 -364 -117t-304 122q-114 121 -114 325t115 352t303 148t280 -100q90 -100 90 -277zM477 827q-202 0 -225 -282h418q9 282 -193 282zM383 1263q29 -31 29 -62
q0 -49 -30 -79t-62 -30q-55 0 -84 30t-29 60q1 30 9 48t21 34q27 30 72 30t74 -31zM740 1262q29 -32 29 -61q0 -48 -29 -79q-29 -30 -62 -30q-54 0 -84 30t-30 60t8 48t22 34q28 30 73 30q44 0 73 -32z" />
    <glyph glyph-name="igrave" unicode="&#xec;" horiz-adv-x="592" 
d="M55 856q0 10 8 10l246 41q9 2 13 2h57q10 0 10 -10v-803q0 -10 10 -10l133 -14q11 0 11 -11v-51q0 -10 -11 -10h-462q-11 0 -11 10v51q0 11 11 11l143 14q10 0 10 10v676q0 10 -10 10l-147 17q-11 0 -11 10v47zM343 1004h-55q-5 1 -8 4l-266 354q-1 2 -1 4q0 12 9 12h168
q11 0 16 -12l148 -348q6 -14 -11 -14z" />
    <glyph glyph-name="iacute" unicode="&#xed;" horiz-adv-x="592" 
d="M55 856q0 10 8 10l246 41q9 2 13 2h57q10 0 10 -10v-803q0 -10 10 -10l133 -14q11 0 11 -11v-51q0 -10 -11 -10h-462q-11 0 -11 10v51q0 11 11 11l143 14q10 0 10 10v676q0 10 -10 10l-147 17q-11 0 -11 10v47zM382 1378h168q6 0 8 -6t0 -10l-266 -354q-4 -4 -8 -4h-55
q-5 0 -9 5t-2 9l148 348q6 12 16 12z" />
    <glyph glyph-name="icircumflex" unicode="&#xee;" horiz-adv-x="592" 
d="M55 856q0 10 8 10l246 41q9 2 13 2h57q10 0 10 -10v-803q0 -10 10 -10l133 -14q11 0 11 -11v-51q0 -10 -11 -10h-462q-11 0 -11 10v51q0 11 11 11l143 14q10 0 10 10v676q0 10 -10 10l-147 17q-11 0 -11 10v47zM477 1004q-2 0 -6 4l-182 219h-4l-182 -219q-4 -4 -6 -4
h-58q-6 0 -8 5t0 9l174 354q2 6 8 6h148q6 0 8 -6l174 -354q2 -4 0 -9t-8 -5h-58z" />
    <glyph glyph-name="idieresis" unicode="&#xef;" horiz-adv-x="592" 
d="M55 856q0 10 8 10l246 41q9 2 13 2h57q10 0 10 -10v-803q0 -10 10 -10l133 -14q11 0 11 -11v-51q0 -10 -11 -10h-462q-11 0 -11 10v51q0 11 11 11l143 14q10 0 10 10v676q0 10 -10 10l-147 17q-11 0 -11 10v47zM182 1263q29 -31 29 -62q1 -49 -29 -79t-63 -30
q-55 0 -84 30t-29 60t8 48t22 34q27 30 72 30t74 -31zM539 1262q29 -32 29 -61q0 -48 -29 -79q-29 -30 -62 -30q-55 0 -85 30t-29 60q0 30 8 48q7 18 21 34q28 30 74 30q44 0 73 -32z" />
    <glyph glyph-name="eth" unicode="&#xf0;" 
d="M498 829q-127 0 -186.5 -98.5t-59.5 -259.5t69.5 -286.5t200.5 -125.5t189.5 99t58.5 248q0 282 -100 352.5t-172 70.5zM289 1397q0 4 2 6l33 47q16 16 104 -48.5t145 -115.5l193 131q6 6 14 -2l43 -59q6 -6 -2 -15l-178 -122q219 -239 267 -436t48 -303
q0 -221 -119 -365t-330 -144t-327 128t-116 341t128 345.5t324 132.5q110 0 199 -68q-47 159 -168 307l-207 -139q-3 -3 -14 2l-39 59q-6 6 2 15l194 133q-82 86 -194 164q-2 2 -2 6z" />
    <glyph glyph-name="ntilde" unicode="&#xf1;" horiz-adv-x="1159" 
d="M322 909h57q10 0 10 -10v-88q92 73 226 102q41 9 90 9q264 0 264 -297v-529q0 -10 10 -10l133 -14q10 0 10 -11v-51q0 -10 -10 -10h-448q-11 0 -11 10v51q0 11 11 11l129 14q10 0 10 10v469q0 109 -42 165t-156 56t-206 -47q-8 -4 -10 -8v-635q0 -10 10 -10l129 -14
q11 0 11 -11v-51q0 -10 -11 -10h-458q-11 0 -11 10v51q0 11 11 11l143 14q10 0 10 10v676q0 10 -10 10l-147 17q-11 0 -11 10v47q0 10 8 10l246 41q11 2 13 2zM566 1123q-75 46 -116 46q-42 0 -130 -73q-6 -6 -14 0l-35 41q-5 11 43 55q49 45 95 80t86 35q39 -1 67 -15
t81 -46t81 -32q52 0 141 74q8 6 14 0l35 -41q6 -12 -44 -57q-50 -44 -79 -66q-63 -46 -106 -47q-44 0 -119 46z" />
    <glyph glyph-name="ograve" unicode="&#xf2;" horiz-adv-x="1040" 
d="M529 918q213 0 329 -124t117 -338q0 -214 -126 -350q-127 -136 -337 -135q-210 0 -328 126q-118 125 -118 339t125 348t338 134zM512 829q-144 0 -209 -112q-51 -89 -51 -232q0 -287 154 -389q56 -37 135 -37q247 0 247 347q0 171 -58 281q-74 142 -218 142zM577 1004
h-55q-5 1 -8 4l-266 354q-1 2 -1 4q0 12 9 12h168q11 0 16 -12l148 -348q6 -14 -11 -14z" />
    <glyph glyph-name="oacute" unicode="&#xf3;" horiz-adv-x="1040" 
d="M529 918q213 0 329 -124t117 -338q0 -214 -126 -350q-127 -136 -337 -135q-210 0 -328 126q-118 125 -118 339t125 348t338 134zM512 829q-144 0 -209 -112q-51 -89 -51 -232q0 -287 154 -389q56 -37 135 -37q247 0 247 347q0 171 -58 281q-74 142 -218 142zM616 1378
h168q6 0 8 -6t0 -10l-266 -354q-4 -4 -8 -4h-55q-5 0 -9 5t-2 9l148 348q6 12 16 12z" />
    <glyph glyph-name="ocircumflex" unicode="&#xf4;" horiz-adv-x="1040" 
d="M529 918q213 0 329 -124t117 -338q0 -214 -126 -350q-127 -136 -337 -135q-210 0 -328 126q-118 125 -118 339t125 348t338 134zM512 829q-144 0 -209 -112q-51 -89 -51 -232q0 -287 154 -389q56 -37 135 -37q247 0 247 347q0 171 -58 281q-74 142 -218 142zM710 1004
q-2 0 -6 4l-182 219h-4l-182 -219q-4 -4 -6 -4h-58q-6 0 -8 5t0 9l174 354q2 6 8 6h148q6 0 8 -6l174 -354q2 -4 0 -9t-8 -5h-58z" />
    <glyph glyph-name="otilde" unicode="&#xf5;" horiz-adv-x="1040" 
d="M529 918q213 0 329 -124t117 -338q0 -214 -126 -350q-127 -136 -337 -135q-210 0 -328 126q-118 125 -118 339t125 348t338 134zM512 829q-144 0 -209 -112q-51 -89 -51 -232q0 -287 154 -389q56 -37 135 -37q247 0 247 347q0 171 -58 281q-74 142 -218 142zM504 1123
q-75 46 -116 46q-42 0 -130 -73q-6 -6 -14 0l-35 41q-5 11 43 55q49 45 95 80t86 35q39 -1 67 -15t81 -46t81 -32q52 0 141 74q8 6 14 0l35 -41q6 -12 -44 -57q-50 -44 -79 -66q-63 -46 -106 -47q-44 0 -119 46z" />
    <glyph glyph-name="odieresis" unicode="&#xf6;" horiz-adv-x="1040" 
d="M529 918q213 0 329 -124t117 -338q0 -214 -126 -350q-127 -136 -337 -135q-210 0 -328 126q-118 125 -118 339t125 348t338 134zM512 829q-144 0 -209 -112q-51 -89 -51 -232q0 -287 154 -389q56 -37 135 -37q247 0 247 347q0 171 -58 281q-74 142 -218 142zM415 1263
q29 -31 29 -62q0 -49 -30 -79t-62 -30q-55 0 -84 30t-29 60q1 30 9 48t21 34q27 30 72 30t74 -31zM772 1262q29 -32 29 -61q0 -48 -29 -79q-29 -30 -62 -30q-54 0 -84 30t-30 60t8 48t22 34q28 30 73 30q44 0 73 -32z" />
    <glyph glyph-name="divide" unicode="&#xf7;" 
d="M72 518h880q11 0 11 -10v-74q0 -10 -11 -10h-880q-11 0 -11 10v74q-4 -2 1.5 4t9.5 6zM512 250q41 0 73.5 -31t32.5 -64q0 -32 -9 -51.5t-23.5 -34t-34 -22.5t-51 -8t-62 30.5t-30.5 63.5t8 52.5t31.5 42t64.5 22.5zM512 903q44 0 75 -33t31 -65q0 -31 -9 -49.5
t-23.5 -32.5t-34 -22.5t-50 -8.5t-62 30t-31.5 63q0 32 8 51.5t30 43t66 23.5z" />
    <glyph glyph-name="oslash" unicode="&#xf8;" horiz-adv-x="1040" 
d="M885 760q90 -120 90 -322t-130 -334.5t-323 -132.5t-303 90l-88 -92q-6 -8 -14 0l-56 47q-4 2 -4 8t4 7l95 98q-90 118 -90 321t128 335.5t322 132.5t307 -93l90 97q9 8 15 2l51 -50q6 -8 0 -14zM311.5 730.5q-59.5 -98.5 -59.5 -232.5q0 -135 33 -234l430 449
q-72 116 -208 116t-195.5 -98.5zM729.5 157q58.5 98 58.5 231t-32 237l-428 -451q74 -115 209 -115q134 0 192.5 98z" />
    <glyph glyph-name="ugrave" unicode="&#xf9;" horiz-adv-x="1108" 
d="M436 -29q-116 0 -192 69t-76 185v547q0 10 -10 10l-148 17q-10 0 -10 10v47q0 10 8 10l246 41q3 1 10 2h60q10 0 10 -10v-602q0 -191 192 -191q99 0 203 64q10 6 10 12v590q0 10 -10 10l-147 17q-11 0 -11 10v47q0 10 9 10l245 41q4 1 13 2h57q10 0 10 -10v-801
q0 -10 10 -10l148 -16q10 0 10 -11v-47q0 -9 -8 -10l-305 -20q-9 -1 -10 10l-7 102q-146 -125 -307 -125zM579 1004h-55q-5 1 -8 4l-266 354q-1 2 -1 4q0 12 9 12h168q11 0 16 -12l148 -348q6 -14 -11 -14z" />
    <glyph glyph-name="uacute" unicode="&#xfa;" horiz-adv-x="1108" 
d="M436 -29q-116 0 -192 69t-76 185v547q0 10 -10 10l-148 17q-10 0 -10 10v47q0 10 8 10l246 41q3 1 10 2h60q10 0 10 -10v-602q0 -191 192 -191q99 0 203 64q10 6 10 12v590q0 10 -10 10l-147 17q-11 0 -11 10v47q0 10 9 10l245 41q4 1 13 2h57q10 0 10 -10v-801
q0 -10 10 -10l148 -16q10 0 10 -11v-47q0 -9 -8 -10l-305 -20q-9 -1 -10 10l-7 102q-146 -125 -307 -125zM619 1378h168q6 0 8 -6t0 -10l-266 -354q-4 -4 -8 -4h-55q-4 0 -8 5t-3 9l148 348q6 12 16 12z" />
    <glyph glyph-name="ucircumflex" unicode="&#xfb;" horiz-adv-x="1108" 
d="M436 -29q-116 0 -192 69t-76 185v547q0 10 -10 10l-148 17q-10 0 -10 10v47q0 10 8 10l246 41q3 1 10 2h60q10 0 10 -10v-602q0 -191 192 -191q99 0 203 64q10 6 10 12v590q0 10 -10 10l-147 17q-11 0 -11 10v47q0 10 9 10l245 41q4 1 13 2h57q10 0 10 -10v-801
q0 -10 10 -10l148 -16q10 0 10 -11v-47q0 -9 -8 -10l-305 -20q-9 -1 -10 10l-7 102q-146 -125 -307 -125zM712 1004q-2 0 -6 4l-182 219h-4l-182 -219q-4 -4 -6 -4h-58q-6 0 -8 5t0 9l174 354q2 6 8 6h148q6 0 8 -6l174 -354q2 -4 0 -9t-8 -5h-58z" />
    <glyph glyph-name="udieresis" unicode="&#xfc;" horiz-adv-x="1108" 
d="M436 -29q-116 0 -192 69t-76 185v547q0 10 -10 10l-148 17q-10 0 -10 10v47q0 10 8 10l246 41q3 1 10 2h60q10 0 10 -10v-602q0 -191 192 -191q99 0 203 64q10 6 10 12v590q0 10 -10 10l-147 17q-11 0 -11 10v47q0 10 9 10l245 41q4 1 13 2h57q10 0 10 -10v-801
q0 -10 10 -10l148 -16q10 0 10 -11v-47q0 -9 -8 -10l-305 -20q-9 -1 -10 10l-7 102q-146 -125 -307 -125zM418 1263q29 -31 29 -62q1 -49 -29 -79t-63 -30q-55 0 -84 30t-29 60t8 48t22 34q27 30 72 30t74 -31zM775 1262q29 -32 29 -61q0 -48 -29 -79q-29 -30 -62 -30
q-55 0 -85 30t-29 60q0 30 8 48q7 18 21 34q28 30 74 30q44 0 73 -32z" />
    <glyph glyph-name="yacute" unicode="&#xfd;" horiz-adv-x="1061" 
d="M444 889q11 0 11 -10v-52q0 -8 -9 -8l-106 -12q-14 0 -8 -14l241 -584l248 584q6 14 -8 14l-106 12q-9 0 -9 8v52q0 10 11 10h329q11 0 11 -10v-50q0 -10 -11 -10l-112 -12q-5 -1 -8 -6l-367 -864q-198 -465 -344 -465q-6 0 -14 4l-97 96q-7 7 -2 14l25 41q4 4 10 4
q97 1 151 41t100 116t97 194q4 9 0 26l-334 791q-4 6 -8 6l-119 14q-8 0 -8 8v52q0 10 10 10h426zM659 1378h168q6 0 8 -6t0 -10l-266 -354q-4 -4 -8 -4h-55q-4 0 -8 5t-3 9l148 348q6 12 16 12z" />
    <glyph glyph-name="thorn" unicode="&#xfe;" horiz-adv-x="1069" 
d="M9 1393q0 10 9 10l258 41q6 2 7 2h62q10 0 10 -10v-633q131 115 294 115t258.5 -125t95.5 -295q0 -221 -137 -374t-361 -153q-74 0 -150 17v-394q0 -10 11 -10l157 -14q11 0 11 -10v-52q0 -10 -11 -10h-487q-10 0 -10 10v52q0 10 10 10l143 14q11 0 11 10v1715
q0 10 -11 10l-159 16q-11 0 -11 11v47zM544 63q49 0 104.5 29t112.5 105t57 243q0 234 -93 288t-153 54q-110 0 -163.5 -30.5t-53.5 -36.5v-606q46 -46 189 -46z" />
    <glyph glyph-name="ydieresis" unicode="&#xff;" horiz-adv-x="1061" 
d="M444 889q11 0 11 -10v-52q0 -8 -9 -8l-106 -12q-14 0 -8 -14l241 -584l248 584q6 14 -8 14l-106 12q-9 0 -9 8v52q0 10 11 10h329q11 0 11 -10v-50q0 -10 -11 -10l-112 -12q-5 -1 -8 -6l-367 -864q-198 -465 -344 -465q-6 0 -14 4l-97 96q-7 7 -2 14l25 41q4 4 10 4
q97 1 151 41t100 116t97 194q4 9 0 26l-334 791q-4 6 -8 6l-119 14q-8 0 -8 8v52q0 10 10 10h426zM458 1263q29 -31 29 -62q1 -49 -29 -79t-63 -30q-55 0 -84 30t-29 60t8 48t22 34q27 30 72 30t74 -31zM815 1262q29 -32 29 -61q0 -48 -29 -79q-29 -30 -62 -30q-55 0 -85 30
t-29 60q0 30 8 48q7 18 21 34q28 30 74 30q44 0 73 -32z" />
    <glyph glyph-name="Amacron" unicode="&#x100;" horiz-adv-x="1454" 
d="M897 0q-10 0 -10 10v53q0 11 10 11l160 16q13 0 8 14l-152 402q-4 6 -8 6h-446q-5 -1 -8 -6l-162 -406q-5 -13 10 -14l154 -12q10 -1 10 -11v-53q0 -10 -10 -10h-443q-10 0 -10 10v53q0 11 10 11l168 16q5 1 8 6l521 1311q4 6 8 6h51q5 -1 8 -6l479 -1309q2 -6 9 -6
l163 -18q9 0 9 -11v-53q0 -10 -11 -10h-526zM689 1108q-5 0 -7 -6l-193 -490q-6 -14 9 -14h370q16 0 11 14l-181 490q-4 6 -9 6zM417 1546v90q0 11 11 11h626q11 0 11 -11v-90q0 -10 -11 -10h-626q-11 0 -11 10z" />
    <glyph glyph-name="amacron" unicode="&#x101;" horiz-adv-x="907" 
d="M440 918q289 0 289 -240v-553q0 -8 8 -12l129 -37q10 -6 11 -10v-35q-4 -11 -9 -11l-270 -36q-10 0 -10 10l-17 96q-129 -119 -283 -119t-209 129q-18 42 -18 90q0 169 172 248q109 50 324 68v158q0 159 -156 159q-89 0 -155 -32q-6 -5 -10 -17l-29 -151q0 -9 -10 -9h-64
q-10 0 -10 9v227q0 6 10 10q162 58 307 58zM244 229q0 -131 131 -131q62 0 172 56q10 7 10 12v260q-105 -6 -139 -16t-68 -23q-106 -36 -106 -158zM127 1098v90q0 10 10 10h586q10 0 10 -10v-90q0 -11 -10 -11h-586q-10 0 -10 11z" />
    <glyph glyph-name="Abreve" unicode="&#x102;" horiz-adv-x="1454" 
d="M897 0q-10 0 -10 10v53q0 11 10 11l160 16q13 0 8 14l-152 402q-4 6 -8 6h-446q-5 -1 -8 -6l-162 -406q-5 -13 10 -14l154 -12q10 -1 10 -11v-53q0 -10 -10 -10h-443q-10 0 -10 10v53q0 11 10 11l168 16q5 1 8 6l521 1311q4 6 8 6h51q5 -1 8 -6l479 -1309q2 -6 9 -6
l163 -18q9 0 9 -11v-53q0 -10 -11 -10h-526zM689 1108q-5 0 -7 -6l-193 -490q-6 -14 9 -14h370q16 0 11 14l-181 490q-4 6 -9 6zM741 1475q-104 0 -177 67t-93 207q0 9 6 12l51 11q5 2 14 -7q27 -84 56 -113q28 -28 62 -40t81 -13q90 0 131 41t68 125q9 9 14 7l51 -11
q6 -3 6 -12q-29 -206 -176 -258q-45 -16 -94 -16z" />
    <glyph glyph-name="abreve" unicode="&#x103;" horiz-adv-x="907" 
d="M440 918q289 0 289 -240v-553q0 -8 8 -12l129 -37q10 -6 11 -10v-35q-4 -11 -9 -11l-270 -36q-10 0 -10 10l-17 96q-129 -119 -283 -119t-209 129q-18 42 -18 90q0 169 172 248q109 50 324 68v158q0 159 -156 159q-89 0 -155 -32q-6 -5 -10 -17l-29 -151q0 -9 -10 -9h-64
q-10 0 -10 9v227q0 6 10 10q162 58 307 58zM244 229q0 -131 131 -131q62 0 172 56q10 7 10 12v260q-105 -6 -139 -16t-68 -23q-106 -36 -106 -158zM719 1348v-7q-15 -157 -93 -245t-196 -88t-194 84t-95 249v7q0 4 6 6l52 10q14 5 14 -6q25 -124 98 -174q51 -36 99 -35
q88 -1 139 35q73 50 98 174q0 11 14 6l52 -10q6 -2 6 -6z" />
    <glyph glyph-name="Aogonek" unicode="&#x104;" horiz-adv-x="1454" 
d="M766 1413q4 0 8 -6l479 -1309q2 -6 9 -6l163 -18q9 0 9 -11v-53q0 -10 -11 -10h-161q-160 0 -229 -7.5t-120 -41.5q-51 -33 -72.5 -71t-21.5 -98t37 -100t102 -40q18 0 40 6t26 -4l18 -45q5 -14 -27 -22.5t-60 -14.5t-68 -6q-89 0 -154 61t-65 154q0 194 143 249.5
t248 67.5q10 0 8 10l-154 408q-4 6 -8 6h-446q-4 0 -8 -6l-162 -406q-2 -6 2 -10t8 -4l154 -12q10 0 10 -11v-53q0 -10 -10 -10h-443q-10 0 -10 10v53q0 11 10 11l168 16q4 0 8 6l521 1311q4 6 8 6h51zM689 1108q-5 0 -7 -6l-193 -490q-2 -6 1.5 -10t7.5 -4h370q4 0 8.5 4
t2.5 10l-181 490q-4 6 -9 6z" />
    <glyph glyph-name="aogonek" unicode="&#x105;" horiz-adv-x="907" 
d="M571 90q-129 -119 -285 -119q-91 0 -158 59.5t-67 159.5q0 140 91.5 201.5t198 84t206.5 30.5v158q0 131 -65.5 145t-122.5 14t-123 -32q-6 -5 -10 -17l-29 -151q0 -9 -10 -9h-64q-10 0 -10 9v227q0 16 115.5 42t201.5 26q289 0 289 -240v-553q0 -8 8 -12l129 -37
q4 -2 7.5 -3t3.5 -7v-35q1 -10 -45 -14q-46 -3 -104 -26.5t-116.5 -75t-58.5 -144.5q0 -62 35 -100t100 -38q20 0 40 7q21 7 26 -5l18 -45q6 -12 -48 -27.5t-100 -15.5q-95 0 -158 51.5t-63 156.5t79 167t126 84zM244 224q0 -56 33.5 -91t90.5 -35t123 27.5t66 40.5v260
q-105 -6 -143.5 -18.5t-76.5 -25.5t-65.5 -57.5t-27.5 -100.5z" />
    <glyph glyph-name="Cacute" unicode="&#x106;" horiz-adv-x="1325" 
d="M1133 354h79q11 0 11 -10v-309q1 -16 -175 -45q-498 -82 -768 188q-202 202 -202 516q0 216 110 384q103 159 279 245t391 86q98 1 209 -21t133 -26t23 -12v-310q0 -10 -11 -10h-79q-11 0 -11 8l-41 230q0 10 -89 29q-89 20 -144 20q-270 0 -421 -159t-151 -430t157 -465
q157 -195 407 -195q87 0 164 15t77 32l41 231q0 8 11 8zM1101 1772q6 0 9 -6t-3 -11l-262 -272q-5 -2 -11 -5t-10 -3h-61q-7 0 -9 5t3 9l145 272q8 11 20 11h179z" />
    <glyph glyph-name="cacute" unicode="&#x107;" horiz-adv-x="913" 
d="M535 918q142 0 268 -48q10 -4 10 -10v-237q0 -9 -10 -9h-64q-10 0 -10 9l-33 155q0 6 -8 13q-86 40 -160 40q-132 -1 -206 -103t-74 -256t80 -270t245 -116q122 0 232 74q8 5 12 -4l29 -50q4 -7 -6 -14q-175 -121 -358 -121q-184 1 -300 123t-116 327t130 351t339 146z
M633 1378h168q6 0 8 -6t0 -10l-266 -354q-4 -4 -8 -4h-55q-4 0 -8 5t-3 9l148 348q6 12 16 12z" />
    <glyph glyph-name="Ccircumflex" unicode="&#x108;" horiz-adv-x="1325" 
d="M1133 354h79q11 0 11 -10v-309q1 -16 -175 -45q-498 -82 -768 188q-202 202 -202 516q0 216 110 384q103 159 279 245t391 86q98 1 209 -21t133 -26t23 -12v-310q0 -10 -11 -10h-79q-11 0 -11 8l-41 230q0 10 -89 29q-89 20 -144 20q-270 0 -421 -159t-151 -430t157 -465
q157 -195 407 -195q87 0 164 15t77 32l41 231q0 8 11 8zM900 1772q14 0 20 -11l166 -272q7 -14 -6 -14h-62q-6 0 -11 3t-9 5l-168 168l-168 -168q-8 -8 -20 -8h-62q-13 0 -6 14l166 272q8 11 20 11h140z" />
    <glyph glyph-name="ccircumflex" unicode="&#x109;" horiz-adv-x="913" 
d="M535 918q142 0 268 -48q10 -4 10 -10v-237q0 -9 -10 -9h-64q-10 0 -10 9l-33 155q0 6 -8 13q-86 40 -160 40q-132 -1 -206 -103t-74 -256t80 -270t245 -116q122 0 232 74q8 5 12 -4l29 -50q4 -7 -6 -14q-175 -121 -358 -121q-184 1 -300 123t-116 327t130 351t339 146z
M727 1004q-2 0 -6 4l-182 219h-4l-182 -219q-4 -4 -6 -4h-58q-6 0 -8 5t0 9l174 354q2 6 8 6h148q6 0 8 -6l174 -354q2 -4 0 -9t-8 -5h-58z" />
    <glyph glyph-name="Cdotaccent" unicode="&#x10a;" horiz-adv-x="1325" 
d="M1133 354h79q11 0 11 -10v-309q1 -16 -175 -45q-498 -82 -768 188q-202 202 -202 516q0 216 110 384q103 159 279 245t391 86q98 1 209 -21t133 -26t23 -12v-310q0 -10 -11 -10h-79q-11 0 -11 8l-41 230q0 10 -89 29q-89 20 -144 20q-270 0 -421 -159t-151 -430t157 -465
q157 -195 407 -195q87 0 164 15t77 32l41 231q0 8 11 8zM830 1707q44 -1 74 -31t30 -62t-8 -51t-22 -33t-33 -21q-18 -8 -41 -8q-42 0 -73 29t-31 61q0 31 8 51t22 34q30 30 74 31z" />
    <glyph glyph-name="cdotaccent" unicode="&#x10b;" horiz-adv-x="913" 
d="M535 918q142 0 268 -48q10 -4 10 -10v-237q0 -9 -10 -9h-64q-10 0 -10 9l-33 155q0 6 -8 13q-86 40 -160 40q-132 -1 -206 -103t-74 -256t80 -270t245 -116q122 0 232 74q8 5 12 -4l29 -50q4 -7 -6 -14q-175 -121 -358 -121q-184 1 -300 123t-116 327t130 351t339 146z
M537 1255q43 -1 73 -31t31 -62q0 -32 -8 -51q-9 -19 -23 -33t-32 -21q-18 -8 -41 -8q-42 0 -73 29t-31 61q0 31 8 51q9 20 23 34q30 30 73 31z" />
    <glyph glyph-name="Ccaron" unicode="&#x10c;" horiz-adv-x="1325" 
d="M1133 354h79q11 0 11 -10v-309q1 -16 -175 -45q-498 -82 -768 188q-202 202 -202 516q0 216 110 384q103 159 279 245t391 86q98 1 209 -21t133 -26t23 -12v-310q0 -10 -11 -10h-79q-11 0 -11 8l-41 230q0 10 -89 29q-89 20 -144 20q-270 0 -421 -159t-151 -430t157 -465
q157 -195 407 -195q87 0 164 15t77 32l41 231q0 8 11 8zM756 1475q-13 0 -20 10l-166 272q-8 15 6 15h61q5 0 11 -4t10 -5l168 -168l168 168q8 9 20 9h62q6 0 8 -6t-2 -9l-166 -272q-8 -10 -20 -10h-140z" />
    <glyph glyph-name="ccaron" unicode="&#x10d;" horiz-adv-x="913" 
d="M535 918q142 0 268 -48q10 -4 10 -10v-237q0 -9 -10 -9h-64q-10 0 -10 9l-33 155q0 6 -8 13q-86 40 -160 40q-132 -1 -206 -103t-74 -256t80 -270t245 -116q122 0 232 74q8 5 12 -4l29 -50q4 -7 -6 -14q-175 -121 -358 -121q-184 1 -300 123t-116 327t130 351t339 146z
M288 1378h58q2 0 6 -4l182 -219h4l182 219q4 4 6 4h58q6 0 8 -5t0 -9l-174 -354q-2 -6 -8 -6h-148q-6 0 -8 6l-174 354q-2 4 0 9t8 5z" />
    <glyph glyph-name="Dcaron" unicode="&#x10e;" horiz-adv-x="1483" 
d="M270 1270q0 10 -10 10l-174 16q-10 0 -10 11v61q0 10 10 10h551q354 0 552 -161q216 -175 216 -521q0 -696 -799 -696h-520q-10 0 -10 10v62q0 10 10 10l174 16q10 0 10 11v1161zM449 104q0 -10 10 -10h145q310 0 458 116t148 417q0 657 -573 657h-178q-10 0 -10 -10
v-1170zM571 1475q-13 0 -20 10l-166 272q-8 15 6 15h61q5 0 11 -4t10 -5l168 -168l168 168q8 9 20 9h62q6 0 8 -6t-2 -9l-166 -272q-8 -10 -20 -10h-140z" />
    <glyph glyph-name="dcaron" unicode="&#x10f;" horiz-adv-x="1280" 
d="M809 1446h59q11 0 11 -10v-1338q0 -10 10 -10l147 -16q11 0 11 -11v-47q0 -9 -9 -10l-305 -20q-9 -1 -10 10l-6 96q-147 -119 -305 -119t-252 127t-94 293q0 223 138 375t359 152q62 0 150 -19v410q0 10 -11 10l-159 16q-11 0 -11 11v47q0 10 9 10l258 41q6 2 10 2z
M547 825q-149 -1 -223 -111t-74 -259t55 -239q66 -110 201 -110q107 0 196 56q10 9 11 12v606q-23 22 -73 34t-93 11zM1002 1354q29 24 61 24q71 0 123 -49q53 -49 53 -131q0 -144 -142 -228q-86 -52 -96 -32l-18 35q-5 10 4 14q125 61 125 147q0 48 -24 72t-87 25
q-28 28 -28 63q0 36 29 60z" />
    <glyph glyph-name="Dcroat" unicode="&#x110;" horiz-adv-x="1483" 
d="M260 776q10 0 10 10v484q0 10 -10 10l-174 16q-10 0 -10 11v61q0 10 10 10h551q551 0 713 -380q54 -128 55 -310q-1 -357 -223 -530q-203 -158 -576 -158h-520q-10 0 -10 10v62q0 10 10 10l174 16q10 0 10 11v563q0 10 -10 10h-174q-10 0 -10 10v74q0 10 10 10h174z
M459 682q-10 0 -10 -10v-568q0 -10 10 -10h141q321 0 465 119q145 119 145 414q0 479 -313 611q-109 46 -260 46h-178q-10 0 -10 -10v-488q0 -10 10 -10h319q10 0 10 -10v-74q0 -10 -10 -10h-319z" />
    <glyph glyph-name="dcroat" unicode="&#x111;" horiz-adv-x="1081" 
d="M532 1393q0 10 9 10l258 41q6 2 7 2h62q11 0 11 -10v-306q0 -10 10 -10h147q11 0 11 -10v-57q0 -11 -11 -11h-147q-10 0 -10 -10v-934q0 -10 10 -10l147 -16q11 0 11 -11v-47q0 -10 -9 -10l-305 -20q-10 0 -10 10l-6 96q-146 -119 -302 -119t-252.5 125t-96.5 295
q0 216 138.5 363t358.5 147q67 0 150 -18v149q0 10 -11 10h-235q-10 0 -10 11v57q0 10 10 10h235q11 0 11 10v179q0 10 -11 10l-159 16q-11 0 -11 11v47zM713 764q-45 45 -189 45q-49 0 -104 -27.5t-112.5 -102.5t-57.5 -230q0 -233 93 -288t153 -55q116 0 206 56q5 4 8 6
t3 6v590z" />
    <glyph glyph-name="Emacron" unicode="&#x112;" horiz-adv-x="1196" 
d="M1065 1378q10 0 10 -10v-321q0 -11 -10 -11h-76q-10 0 -10 8l-41 232q0 8 -10 8h-469q-10 0 -10 -10v-506q0 -10 10 -10h282q11 0 11 8l20 166q0 8 10 8h56q10 0 10 -10v-445q0 -10 -10 -10h-56q-10 0 -10 8l-20 176q0 9 -11 9h-282q-10 0 -10 -11v-553q0 -10 10 -10h497
q11 0 11 8l41 228q0 8 10 8h76q10 0 10 -10v-318q0 -10 -10 -10h-1008q-10 0 -10 10v53q0 11 10 11l174 16q10 0 10 10v1182q-4 6 -10 6l-174 17q-10 0 -10 10v53q0 10 10 10h979zM311 1546v90q0 11 11 11h626q11 0 11 -11v-90q0 -10 -11 -10h-626q-11 0 -11 10z" />
    <glyph glyph-name="emacron" unicode="&#x113;" horiz-adv-x="940" 
d="M854 541q0 -76 -14 -76h-590q4 -167 84 -273t223 -106q144 0 256 70q4 4 12 -4l29 -50q2 -9 -6 -14q-174 -117 -364 -117t-304 122q-114 121 -114 325t115 352t303 148t280 -100q90 -100 90 -277zM477 827q-202 0 -225 -282h418q9 282 -193 282zM199 1098v90q0 10 10 10
h586q10 0 10 -10v-90q0 -11 -10 -11h-586q-10 0 -10 11z" />
    <glyph glyph-name="Ebreve" unicode="&#x114;" horiz-adv-x="1196" 
d="M1065 1378q10 0 10 -10v-321q0 -11 -10 -11h-76q-10 0 -10 8l-41 232q0 8 -10 8h-469q-10 0 -10 -10v-506q0 -10 10 -10h282q11 0 11 8l20 166q0 8 10 8h56q10 0 10 -10v-445q0 -10 -10 -10h-56q-10 0 -10 8l-20 176q0 9 -11 9h-282q-10 0 -10 -11v-553q0 -10 10 -10h497
q11 0 11 8l41 228q0 8 10 8h76q10 0 10 -10v-318q0 -10 -10 -10h-1008q-10 0 -10 10v53q0 11 10 11l174 16q10 0 10 10v1182q-4 6 -10 6l-174 17q-10 0 -10 10v53q0 10 10 10h979zM635 1475q-104 0 -177 67t-93 207q0 9 6 12l51 11q5 2 14 -7q27 -84 56 -113q28 -28 62 -40
t81 -13q90 0 131 41t68 125q9 9 14 7l51 -11q6 -3 6 -12q-29 -206 -176 -258q-45 -16 -94 -16z" />
    <glyph glyph-name="ebreve" unicode="&#x115;" horiz-adv-x="940" 
d="M854 541q0 -76 -14 -76h-590q4 -167 84 -273t223 -106q144 0 256 70q4 4 12 -4l29 -50q2 -9 -6 -14q-174 -117 -364 -117t-304 122q-114 121 -114 325t115 352t303 148t280 -100q90 -100 90 -277zM477 827q-202 0 -225 -282h418q9 282 -193 282zM791 1348v-7
q-15 -157 -93 -245t-196 -88t-194 84t-95 249v7q0 4 6 6l52 10q14 5 14 -6q25 -124 98 -174q51 -35 99 -35q88 -1 139 35q73 50 98 174q0 11 14 6l52 -10q6 -2 6 -6z" />
    <glyph glyph-name="Edotaccent" unicode="&#x116;" horiz-adv-x="1196" 
d="M1065 1378q10 0 10 -10v-321q0 -11 -10 -11h-76q-10 0 -10 8l-41 232q0 8 -10 8h-469q-10 0 -10 -10v-506q0 -10 10 -10h282q11 0 11 8l20 166q0 8 10 8h56q10 0 10 -10v-445q0 -10 -10 -10h-56q-10 0 -10 8l-20 176q0 9 -11 9h-282q-10 0 -10 -11v-553q0 -10 10 -10h497
q11 0 11 8l41 228q0 8 10 8h76q10 0 10 -10v-318q0 -10 -10 -10h-1008q-10 0 -10 10v53q0 11 10 11l174 16q10 0 10 10v1182q-4 6 -10 6l-174 17q-10 0 -10 10v53q0 10 10 10h979zM635 1707q43 -1 73 -31t31 -62q0 -32 -8 -51q-9 -19 -23 -33t-32 -21q-18 -8 -41 -8
q-42 0 -73 29t-31 61q0 31 8 51q9 20 23 34q30 30 73 31z" />
    <glyph glyph-name="edotaccent" unicode="&#x117;" horiz-adv-x="940" 
d="M854 541q0 -76 -14 -76h-590q4 -167 84 -273t223 -106q144 0 256 70q4 4 12 -4l29 -50q2 -9 -6 -14q-174 -117 -364 -117t-304 122q-114 121 -114 325t115 352t303 148t280 -100q90 -100 90 -277zM477 827q-202 0 -225 -282h418q9 282 -193 282zM502 1255q44 -1 74 -31
t30 -62t-8 -51t-22 -33t-33 -21q-18 -8 -41 -8q-42 0 -73 29t-31 61q0 31 8 51t22 34q30 30 74 31z" />
    <glyph glyph-name="Eogonek" unicode="&#x118;" horiz-adv-x="1196" 
d="M1018 338h76q10 0 10 -10v-318q0 -10 -10 -10h-35q-175 -19 -218.5 -101.5t-43.5 -136.5t34.5 -91.5t100.5 -37.5q20 0 40 7t25 -5l19 -45q6 -12 -26 -21t-59.5 -15.5t-69.5 -6.5q-91 0 -152.5 53.5t-61.5 147.5q0 119 78 173t123 73v6h-762q-10 0 -10 10v53q0 11 10 11
l174 16q10 0 10 10v1182q-4 6 -10 6l-174 17q-10 0 -10 10v53q0 10 10 10h979q10 0 10 -10v-321q0 -11 -10 -11h-76q-10 0 -10 8l-41 232q0 8 -10 8h-469q-10 0 -10 -10v-506q0 -10 10 -10h282q11 0 11 8l20 166q0 8 10 8h56q10 0 10 -10v-445q0 -10 -10 -10h-56
q-10 0 -10 8l-20 176q0 9 -11 9h-282q-10 0 -10 -11v-553q0 -10 10 -10h497q11 0 11 8l41 228q0 8 10 8z" />
    <glyph glyph-name="eogonek" unicode="&#x119;" horiz-adv-x="940" 
d="M854 572q0 -63 -2 -85t-12 -22h-590q7 -265 123 -322t190 -57q138 0 250 70q7 7 12 -4l29 -50q2 -10 -6 -16q-167 -98 -238 -161t-71 -154q0 -62 34.5 -100t100.5 -38q20 0 40 7t25 -5l19 -45q6 -12 -26 -21t-59.5 -15.5t-69.5 -6.5q-90 0 -152 51.5t-62 145.5
q0 137 172 227v4q-32 -4 -101 -4t-149 33t-162.5 124t-82.5 299q0 209 122 350t308 141q260 0 309 -141.5t49 -204.5zM476 827q-107 0 -161 -79.5t-63 -202.5h418q7 196 -65.5 239t-128.5 43z" />
    <glyph glyph-name="Ecaron" unicode="&#x11a;" horiz-adv-x="1196" 
d="M1065 1378q10 0 10 -10v-321q0 -11 -10 -11h-76q-10 0 -10 8l-41 232q0 8 -10 8h-469q-10 0 -10 -10v-506q0 -10 10 -10h282q11 0 11 8l20 166q0 8 10 8h56q10 0 10 -10v-445q0 -10 -10 -10h-56q-10 0 -10 8l-20 176q0 9 -11 9h-282q-10 0 -10 -11v-553q0 -10 10 -10h497
q11 0 11 8l41 228q0 8 10 8h76q10 0 10 -10v-318q0 -10 -10 -10h-1008q-10 0 -10 10v53q0 11 10 11l174 16q10 0 10 10v1182q-4 6 -10 6l-174 17q-10 0 -10 10v53q0 10 10 10h979zM561 1475q-13 0 -20 10l-166 272q-8 15 6 15h61q5 0 11 -4t10 -5l168 -168l168 168q8 9 20 9
h62q6 0 8 -6t-2 -9l-166 -272q-8 -10 -20 -10h-140z" />
    <glyph glyph-name="ecaron" unicode="&#x11b;" horiz-adv-x="940" 
d="M854 541q0 -76 -14 -76h-590q4 -167 84 -273t223 -106q144 0 256 70q4 4 12 -4l29 -50q2 -9 -6 -14q-174 -117 -364 -117t-304 122q-114 121 -114 325t115 352t303 148t280 -100q90 -100 90 -277zM477 827q-202 0 -225 -282h418q9 282 -193 282zM248 1378h58q2 0 6 -4
l182 -219h4l182 219q4 4 6 4h58q6 0 8 -5t0 -9l-174 -354q-2 -6 -8 -6h-148q-6 0 -8 6l-174 354q-2 4 0 9t8 5z" />
    <glyph glyph-name="Gcircumflex" unicode="&#x11c;" horiz-adv-x="1450" 
d="M868 1409q106 1 204 -19t153 -30q10 -2 10 -10v-310q0 -10 -10 -10h-80q-10 0 -10 8l-41 230q0 6 -9 10q-176 39 -231 39q-270 -1 -424 -157t-154 -426t156 -471q156 -200 420 -200q75 0 205 27v414q0 10 -10 10l-175 16q-10 0 -10 13v49q0 12 12 12h523q12 0 12 -12v-49
q0 -13 -10 -13l-154 -16q-8 0 -10 -6v-477q0 -6 -10 -11q-214 -49 -400 -49q-323 0 -535 198t-212 517q0 216 107 384t293 254t390 85zM910 1772q14 0 20 -11l166 -272q7 -14 -6 -14h-62q-6 0 -11 3t-9 5l-168 168l-168 -168q-8 -8 -20 -8h-62q-13 0 -6 14l166 272
q8 11 20 11h140z" />
    <glyph glyph-name="gcircumflex" unicode="&#x11d;" horiz-adv-x="975" 
d="M264 188q0 -76 62 -85q20 -3 47 -3h159q134 0 199 -14q187 -38 213 -205q4 -25 4 -45q0 -130 -88 -216q-149 -148 -414 -148q-155 0 -261 48q-142 64 -142 201q0 72 59 142t131 98q-52 15 -84 59t-32 99q0 103 151 194q-145 91 -145 269q1 146 105 241t251 95
q78 0 146 -29h299q10 0 10 -10v-52q0 -9 -10 -10l-181 -14q78 -86 78 -220q-1 -135 -103 -229t-247 -94q-76 0 -135 21q-72 -42 -72 -93zM479 346q107 0 146 121q14 44 14 113q0 251 -168 251q-116 0 -155 -125q-15 -48 -15 -114q-1 -126 51 -186t127 -60zM203 -252
q0 -192 270 -192q125 0 217 52t92 169q0 166 -260 166h-172q-59 -9 -103 -71t-44 -124zM667 1004q-2 0 -6 4l-182 219h-4l-182 -219q-4 -4 -6 -4h-58q-6 0 -8 5t0 9l174 354q2 6 8 6h148q6 0 8 -6l174 -354q2 -4 0 -9t-8 -5h-58z" />
    <glyph glyph-name="Gbreve" unicode="&#x11e;" horiz-adv-x="1450" 
d="M868 1409q106 1 204 -19t153 -30q10 -2 10 -10v-310q0 -10 -10 -10h-80q-10 0 -10 8l-41 230q0 6 -9 10q-176 39 -231 39q-270 -1 -424 -157t-154 -426t156 -471q156 -200 420 -200q75 0 205 27v414q0 10 -10 10l-175 16q-10 0 -10 13v49q0 12 12 12h523q12 0 12 -12v-49
q0 -13 -10 -13l-154 -16q-8 0 -10 -6v-477q0 -6 -10 -11q-214 -49 -400 -49q-323 0 -535 198t-212 517q0 216 107 384t293 254t390 85zM840 1475q-104 0 -177 67t-93 207q0 9 6 12l51 11q5 2 14 -7q27 -84 56 -113q28 -28 62 -40t81 -13q90 0 131 41t68 125q9 9 14 7l51 -11
q6 -3 6 -12q-29 -206 -176 -258q-45 -16 -94 -16z" />
    <glyph glyph-name="gbreve" unicode="&#x11f;" horiz-adv-x="975" 
d="M264 188q0 -76 62 -85q20 -3 47 -3h159q134 0 199 -14q187 -38 213 -205q4 -25 4 -45q0 -130 -88 -216q-149 -148 -414 -148q-155 0 -261 48q-142 64 -142 201q0 72 59 142t131 98q-52 15 -84 59t-32 99q0 103 151 194q-145 91 -145 269q1 146 105 241t251 95
q78 0 146 -29h299q10 0 10 -10v-52q0 -9 -10 -10l-181 -14q78 -86 78 -220q-1 -135 -103 -229t-247 -94q-76 0 -135 21q-72 -42 -72 -93zM479 346q107 0 146 121q14 44 14 113q0 251 -168 251q-116 0 -155 -125q-15 -48 -15 -114q-1 -126 51 -186t127 -60zM203 -252
q0 -192 270 -192q125 0 217 52t92 169q0 166 -260 166h-172q-59 -9 -103 -71t-44 -124zM766 1348v-7q-15 -157 -93 -245t-196 -88q-117 0 -193 84t-96 249v7q0 4 6 6l52 10q14 5 14 -6q25 -124 98 -174q51 -36 99 -35q88 -1 139 35q73 50 98 174q0 11 14 6l52 -10q6 -2 6 -6
z" />
    <glyph glyph-name="Gdotaccent" unicode="&#x120;" horiz-adv-x="1450" 
d="M868 1409q106 1 204 -19t153 -30q10 -2 10 -10v-310q0 -10 -10 -10h-80q-10 0 -10 8l-41 230q0 6 -9 10q-176 39 -231 39q-270 -1 -424 -157t-154 -426t156 -471q156 -200 420 -200q75 0 205 27v414q0 10 -10 10l-175 16q-10 0 -10 13v49q0 12 12 12h523q12 0 12 -12v-49
q0 -13 -10 -13l-154 -16q-8 0 -10 -6v-477q0 -6 -10 -11q-214 -49 -400 -49q-323 0 -535 198t-212 517q0 216 107 384t293 254t390 85zM850 1707q44 -1 74 -31t30 -62t-8 -51t-22 -33t-33 -21q-18 -8 -41 -8q-42 0 -73 29t-31 61q0 31 8 51t22 34q30 30 74 31z" />
    <glyph glyph-name="gdotaccent" unicode="&#x121;" horiz-adv-x="975" 
d="M264 188q0 -76 62 -85q20 -3 47 -3h159q134 0 199 -14q187 -38 213 -205q4 -25 4 -45q0 -130 -88 -216q-149 -148 -414 -148q-155 0 -261 48q-142 64 -142 201q0 72 59 142t131 98q-52 15 -84 59t-32 99q0 103 151 194q-145 91 -145 269q1 146 105 241t251 95
q78 0 146 -29h299q10 0 10 -10v-52q0 -9 -10 -10l-181 -14q78 -86 78 -220q-1 -135 -103 -229t-247 -94q-76 0 -135 21q-72 -42 -72 -93zM479 346q107 0 146 121q14 44 14 113q0 251 -168 251q-116 0 -155 -125q-15 -48 -15 -114q-1 -126 51 -186t127 -60zM203 -252
q0 -192 270 -192q125 0 217 52t92 169q0 166 -260 166h-172q-59 -9 -103 -71t-44 -124zM474 1255q44 -1 74 -31t30 -62t-8 -51t-22 -33t-33 -21q-18 -8 -41 -8q-42 0 -73 29t-31 61q0 31 8 51t22 34q30 30 74 31z" />
    <glyph glyph-name="Gcommaaccent" unicode="&#x122;" horiz-adv-x="1450" 
d="M868 1409q106 1 204 -19t153 -30q10 -2 10 -10v-310q0 -10 -10 -10h-80q-10 0 -10 8l-41 230q0 6 -9 10q-176 39 -231 39q-270 -1 -424 -157t-154 -426t156 -471q156 -200 420 -200q75 0 205 27v414q0 10 -10 10l-175 16q-10 0 -10 13v49q0 12 12 12h523q12 0 12 -12v-49
q0 -13 -10 -13l-154 -16q-8 0 -10 -6v-477q0 -6 -10 -11q-214 -49 -400 -49q-323 0 -535 198t-212 517q0 216 107 384t293 254t390 85zM730 -119q51 41 115 17q101 -39 101 -149q0 -75 -61 -137t-146 -83q-7 0 -12 8l-19 37q-4 10 6 14q111 46 111 111q1 35 -21 57t-71 23
q-29 20 -29 51q0 30 26 51z" />
    <glyph glyph-name="gcommaaccent" unicode="&#x123;" horiz-adv-x="975" 
d="M264 188q0 -76 62 -85q20 -3 47 -3h159q134 0 199 -14q187 -38 213 -205q4 -25 4 -45q0 -130 -88 -216q-149 -148 -414 -148q-155 0 -261 48q-142 64 -142 201q0 72 59 142t131 98q-52 15 -84 59t-32 99q0 103 151 194q-145 91 -145 269q1 146 105 241t251 95
q78 0 146 -29h299q10 0 10 -10v-52q0 -9 -10 -10l-181 -14q78 -86 78 -220q-1 -135 -103 -229t-247 -94q-76 0 -135 21q-72 -42 -72 -93zM479 346q107 0 146 121q14 44 14 113q0 251 -168 251q-116 0 -155 -125q-15 -48 -15 -114q-1 -126 51 -186t127 -60zM203 -252
q0 -192 270 -192q125 0 217 52t92 169q0 166 -260 166h-172q-59 -9 -103 -71t-44 -124zM562 1029q-28 -23 -58 -23q-63 0 -106 41q-44 41 -44 94q0 91 60 151t141 80q7 0 12 -8l19 -35q4 -10 -6 -14q-109 -46 -109 -109q0 -78 90 -78q29 -20 29 -48t-28 -51z" />
    <glyph glyph-name="Hcircumflex" unicode="&#x124;" horiz-adv-x="1561" 
d="M76 1368q0 10 10 10h537q10 0 10 -10v-53q0 -10 -10 -10l-164 -17q-10 0 -10 -10v-496q0 -6 3 -6h658q2 2 2 6v496q0 10 -10 10l-164 17q-10 0 -10 10v53q0 10 10 10h537q10 0 10 -10v-53q0 -10 -10 -10l-175 -17q-10 0 -10 -10v-1178q0 -10 10 -10l175 -16q10 0 10 -11
v-53q0 -10 -10 -10h-537q-10 0 -10 10v53q0 11 10 11l164 16q10 0 10 10v572q0 10 -10 10h-643q-10 0 -10 -10v-572q0 -10 10 -10l164 -16q10 0 10 -11v-53q0 -10 -10 -10h-537q-10 0 -10 10v53q0 11 10 11l174 16q10 0 10 10v1178q0 10 -10 10l-174 17q-10 0 -10 10v53z
M852 1772q14 0 20 -11l166 -272q7 -14 -6 -14h-62q-6 0 -11 3t-9 5l-168 168l-168 -168q-8 -8 -20 -8h-62q-13 0 -6 14l166 272q8 11 20 11h140z" />
    <glyph glyph-name="hcircumflex" unicode="&#x125;" horiz-adv-x="1169" 
d="M691 922q147 0 209.5 -77t62.5 -220v-529q0 -6 10 -10l133 -14q10 0 10 -10v-52q0 -10 -10 -10h-449q-10 0 -10 10v52q0 10 10 10l129 14q11 4 11 10v469q0 113 -44 167t-132 54t-163 -22.5t-75 -36.5v-631q0 -10 10 -10l129 -14q10 0 10 -11v-51q0 -10 -10 -10h-459
q-10 0 -10 10v51q0 11 10 11l144 14q10 0 10 10v1192q0 10 -10 10l-160 17q-10 0 -10 10v47q0 2 3 6t5 4l258 41q6 2 7 2h63q10 0 10 -10v-604q161 111 308 111zM336 1772q14 0 20 -11l166 -272q7 -14 -6 -14h-61q-5 0 -21 8l-168 168l-168 -168q-12 -8 -20 -8h-62
q-6 0 -8 5t2 9l166 272q8 11 21 11h139z" />
    <glyph glyph-name="Hbar" unicode="&#x126;" horiz-adv-x="1561" 
d="M1102 1059q10 0 10 10v209q0 10 -10 10l-164 17q-10 0 -10 10v53q0 10 10 10h537q10 0 10 -10v-53q0 -10 -10 -10l-175 -17q-10 0 -10 -10v-1178q0 -10 10 -10l175 -16q10 0 10 -11v-53q0 -10 -10 -10h-537q-10 0 -10 10v53q0 11 10 11l164 16q10 0 10 10v551
q0 11 -10 11h-643q-10 0 -10 -11v-551q0 -10 10 -10l164 -16q10 0 10 -11v-53q0 -10 -10 -10h-537q-10 0 -10 10v53q0 11 10 11l174 16q10 0 10 10v1178q0 10 -10 10l-174 17q-10 0 -10 10v53q0 10 10 10h537q10 0 10 -10v-53q0 -10 -10 -10l-164 -17q-10 0 -10 -10v-211
q0 -8 10 -8h643zM1102 756q10 0 10 6v192q0 11 -10 11h-643q-2 0 -6 -3.5t-4 -7.5v-192q0 -6 10 -6h643z" />
    <glyph glyph-name="hbar" unicode="&#x127;" horiz-adv-x="1169" 
d="M37 1393q0 10 8 10l258 41q6 2 7 2h63q10 0 10 -10v-306q0 -10 10 -10h264q11 0 11 -10v-57q0 -11 -11 -11h-264q-10 0 -10 -10v-241q160 110 307 110q148 0 210.5 -75.5t62.5 -221.5v-508q0 -10 10 -10l133 -14q10 0 10 -10v-52q0 -10 -10 -10h-449q-10 0 -10 10v52
q0 10 10 10l129 14q11 0 11 10v449q0 112 -44 166.5t-130 54.5q-131 0 -230 -47q-10 -2 -10 -12v-611q0 -10 10 -10l129 -14q10 0 10 -11v-51q0 -10 -10 -10h-459q-10 0 -10 10v51q0 11 10 11l144 14q10 0 10 10v936q0 10 -10 10h-160q-10 0 -10 11v57q0 10 10 10h160
q10 0 10 10v179q-4 10 -10 10l-160 16q-10 0 -10 11v47z" />
    <glyph glyph-name="Itilde" unicode="&#x128;" horiz-adv-x="723" 
d="M637 1378q10 0 10 -10v-53q0 -10 -10 -10l-174 -17q-10 0 -10 -10v-1178q0 -10 10 -10l174 -16q10 0 10 -11v-53q0 -10 -10 -10h-551q-10 0 -10 10v53q0 11 10 11l174 16q10 0 10 10v1178q0 10 -10 10l-174 17q-10 0 -10 10v53q0 10 10 10h551zM274 1720q55 0 114 -38
t93 -37q60 0 140 71q10 6 14 0l35 -41q6 -8 0 -14q-64 -68 -122 -110t-98 -42t-111 38q-70 38 -98 38q-63 0 -137 -69q-12 -15 -16 -3l-35 41q-6 11 2 17q143 149 219 149z" />
    <glyph glyph-name="itilde" unicode="&#x129;" horiz-adv-x="592" 
d="M55 856q0 10 8 10l246 41q9 2 13 2h57q10 0 10 -10v-803q0 -10 10 -10l133 -14q11 0 11 -11v-51q0 -10 -11 -10h-462q-11 0 -11 10v51q0 11 11 11l143 14q10 0 10 10v676q0 10 -10 10l-147 17q-11 0 -11 10v47zM265 1123q-75 46 -116 46q-42 0 -130 -73q-6 -6 -14 0
l-35 41q-5 11 43 55q49 45 95 80t86 35q40 -1 68 -15t80 -46q53 -32 81 -32q52 0 141 74q8 6 14 0l35 -41q6 -12 -44 -57q-50 -44 -79 -66q-63 -46 -106 -47q-44 0 -119 46z" />
    <glyph glyph-name="Imacron" unicode="&#x12a;" horiz-adv-x="723" 
d="M637 1378q10 0 10 -10v-53q0 -10 -10 -10l-174 -17q-10 0 -10 -10v-1178q0 -10 10 -10l174 -16q10 0 10 -11v-53q0 -10 -10 -10h-551q-10 0 -10 10v53q0 11 10 11l174 16q10 0 10 10v1178q0 10 -10 10l-174 17q-10 0 -10 10v53q0 10 10 10h551zM40 1546v90q0 11 11 11
h626q11 0 11 -11v-90q0 -10 -11 -10h-626q-11 0 -11 10z" />
    <glyph glyph-name="imacron" unicode="&#x12b;" horiz-adv-x="592" 
d="M55 856q0 10 8 10l246 41q9 2 13 2h57q10 0 10 -10v-803q0 -10 10 -10l133 -14q11 0 11 -11v-51q0 -10 -11 -10h-462q-11 0 -11 10v51q0 11 11 11l143 14q10 0 10 10v676q0 10 -10 10l-147 17q-11 0 -11 10v47zM-12 1098v90q0 10 10 10h586q10 0 10 -10v-90
q0 -11 -10 -11h-586q-10 0 -10 11z" />
    <glyph glyph-name="Ibreve" unicode="&#x12c;" horiz-adv-x="723" 
d="M637 1378q10 0 10 -10v-53q0 -10 -10 -10l-174 -17q-10 0 -10 -10v-1178q0 -10 10 -10l174 -16q10 0 10 -11v-53q0 -10 -10 -10h-551q-10 0 -10 10v53q0 11 10 11l174 16q10 0 10 10v1178q0 10 -10 10l-174 17q-10 0 -10 10v53q0 10 10 10h551zM365 1475q-104 0 -177 67
t-93 207q0 9 6 12l51 11q5 2 14 -7q27 -84 56 -113q28 -28 62 -40t81 -13q90 0 131 41t68 125q9 9 14 7l51 -11q6 -3 6 -12q-29 -206 -176 -258q-45 -16 -94 -16z" />
    <glyph glyph-name="ibreve" unicode="&#x12d;" horiz-adv-x="592" 
d="M55 856q0 10 8 10l246 41q9 2 13 2h57q10 0 10 -10v-803q0 -10 10 -10l133 -14q11 0 11 -11v-51q0 -10 -11 -10h-462q-11 0 -11 10v51q0 11 11 11l143 14q10 0 10 10v676q0 10 -10 10l-147 17q-11 0 -11 10v47zM580 1348v-7q-15 -157 -93 -245t-196 -88q-117 0 -193 84
t-96 249v7q0 4 6 6l52 10q14 5 14 -6q25 -124 98 -174q51 -36 99 -35q88 -1 139 35q73 50 98 174q0 11 14 6l52 -10q6 -2 6 -6z" />
    <glyph glyph-name="Iogonek" unicode="&#x12e;" horiz-adv-x="723" 
d="M637 1378q10 0 10 -10v-53q0 -10 -10 -10l-174 -17q-10 0 -10 -10v-1178q0 -10 10 -10l174 -16q10 0 10 -11v-53q0 -6 -3 -9t-7 -1h-35q-166 -27 -205 -105.5t-39 -132.5t35 -91.5t101 -37.5q13 0 37 6t28 -4l19 -45q2 -4 -10 -12q-15 -9 -59 -20t-85 -11
q-92 0 -153.5 53.5t-61.5 147.5q0 119 78 173t123 73v6h-324q-10 0 -10 10v53q0 11 10 11l174 16q10 0 10 10v1178q0 10 -10 10l-174 17q-10 0 -10 10v53q0 10 10 10h551z" />
    <glyph glyph-name="iogonek" unicode="&#x12f;" horiz-adv-x="584" 
d="M51 856q0 10 8 10l246 41q9 2 13 2h57q10 0 10 -10v-803q0 -10 10 -10l133 -14q11 0 11 -11v-51q0 -10 -11 -10q-106 0 -194 -65t-88 -164q0 -62 34.5 -100t100.5 -38q20 0 40 7t25 -5l19 -45q6 -12 -25.5 -21t-59.5 -15.5t-70 -6.5q-91 0 -152.5 53.5t-61.5 147.5
q0 125 83 179.5t126 72.5h-239q-11 0 -11 10v51q0 11 11 11l143 14q10 0 10 10v676q0 10 -10 10l-148 17q-10 0 -10 10v47zM303 1389q37 0 67.5 -31t30.5 -78t-30.5 -78t-67.5 -31t-57.5 8.5t-34.5 23t-22.5 33.5t-8.5 44t8.5 44t22.5 33.5t34.5 23t57.5 8.5z" />
    <glyph glyph-name="Idotaccent" unicode="&#x130;" horiz-adv-x="723" 
d="M637 1378q10 0 10 -10v-53q0 -10 -10 -10l-174 -17q-10 0 -10 -10v-1178q0 -10 10 -10l174 -16q10 0 10 -11v-53q0 -10 -10 -10h-551q-10 0 -10 10v53q0 11 10 11l174 16q10 0 10 10v1178q0 10 -10 10l-174 17q-10 0 -10 10v53q0 10 10 10h551zM365 1707q43 -1 73 -31
t31 -62q0 -32 -8 -51q-9 -19 -23 -33t-32 -21q-18 -8 -41 -8q-42 0 -73 29t-31 61q0 31 8 51q9 20 23 34q30 30 73 31z" />
    <glyph glyph-name="dotlessi" unicode="&#x131;" horiz-adv-x="592" 
d="M55 856q0 10 8 10l246 41q9 2 13 2h57q10 0 10 -10v-803q0 -10 10 -10l133 -14q11 0 11 -11v-51q0 -10 -11 -10h-462q-11 0 -11 10v51q0 11 11 11l143 14q10 0 10 10v676q0 10 -10 10l-147 17q-11 0 -11 10v47z" />
    <glyph glyph-name="Jcircumflex" unicode="&#x134;" horiz-adv-x="662" 
d="M622 1380q5 0 5 -12v-53q0 -10 -11 -10l-174 -17q-10 0 -10 -10v-1051q0 -216 -59 -344q-80 -173 -316 -264q-7 0 -10 8l-24 41q-7 15 0 19q102 64 142 112q74 89 88 268q5 64 5 150v1061q0 10 -10 10l-174 17q-11 0 -11 10v53q0 10 11 10h542q1 2 6 2zM415 1772
q14 0 20 -11l166 -272q7 -14 -6 -14h-62q-6 0 -11 3t-9 5l-168 168l-168 -168q-8 -8 -20 -8h-62q-13 0 -6 14l166 272q8 11 20 11h140z" />
    <glyph glyph-name="jcircumflex" unicode="&#x135;" horiz-adv-x="528" 
d="M298 909h58q11 0 11 -10v-838q0 -214 -66.5 -355t-290.5 -230q-7 0 -10 8l-25 43q-6 10 0 16q97 61 141.5 115.5t64.5 137.5t20 255v721q0 10 -11 10l-147 17q-10 0 -10 10v47q0 2 3 6t5 4l246 41q8 2 11 2zM72 1004h-58q-6 0 -9 5t1 9l174 354q2 6 8 6h148q6 0 8 -6
l174 -354q2 -4 0 -9t-8 -5h-57l-7 4l-182 219h-4l-182 -219q-4 -4 -6 -4z" />
    <glyph glyph-name="Kcommaaccent" unicode="&#x136;" horiz-adv-x="1366" 
d="M86 1368q0 10 10 10h498q10 0 10 -10v-55q0 -8 -8 -8l-139 -17q-8 0 -8 -10v-555l495 557q4 4 2 10t-8 6l-84 9q-10 0 -10 10v53q0 10 10 10h414q10 0 10 -10v-53q0 -10 -10 -10l-191 -19q-4 0 -6 -2l-422 -475q-3 -2 -4 -6l2 -6l516 -701q4 -4 6 -4l187 -18q10 0 10 -11
v-53q0 -10 -10 -10h-512q-10 0 -10 10v53q0 11 10 11l90 8q13 0 8 16l-416 559q-9 11 -14 0l-61 -69q-2 -3 -2 -6v-484q0 -10 8 -10l133 -14q8 0 8 -8v-56q0 -10 -10 -10h-492q-10 0 -10 10v53q0 11 10 11l164 16q10 0 10 10v1178q0 10 -10 10l-164 17q-10 0 -10 10v53z
M631 -117q29 23 59 23q64 0 109 -43t45 -97q0 -92 -61 -154t-146 -83q-7 0 -12 8l-19 37q-4 10 6 14q111 46 111 111q1 35 -21 57t-71 23q-29 20 -29 51q0 30 29 53z" />
    <glyph glyph-name="kcommaaccent" unicode="&#x137;" horiz-adv-x="1085" 
d="M217 1309q0 10 -10 10l-160 16q-10 0 -10 11v47q0 10 8 10l258 41q6 2 10 2h60q10 0 10 -10v-912q0 -6 4 -8t10 4l301 277q6 12 -6 12l-104 8q-10 1 -10 10v52q0 10 10 10h385q10 0 10 -10v-52q0 -10 -10 -10l-137 -12q-3 -1 -7 -4l-270 -250q-4 -3 -4 -7t2 -7l389 -449
q3 -4 6 -4l119 -12q10 0 10 -11v-51q0 -10 -10 -10h-432q-10 0 -10 10v51q0 10 10 11l82 6q6 0 6 4t-2 8l-324 373q-4 4 -11 1t-7 -9v-359q0 -10 10 -10l107 -14q10 0 10 -11v-51q0 -10 -10 -10h-432q-11 0 -11 10v51q0 11 11 11l139 14q10 0 10 10v1213zM481 -118
q44 42 108 17q101 -40 101 -146q0 -70 -58 -132t-143 -82q-7 0 -12 8l-19 35q-4 10 6 15q109 44 109 108q0 78 -90 78q-29 18 -29 46q0 27 27 53z" />
    <glyph glyph-name="kgreenlandic" unicode="&#x138;" horiz-adv-x="1083" 
d="M47 856q0 10 8 10l246 41q6 2 7 2h63q10 0 10 -10v-375q0 -6 4 -8t10 4l301 277q6 12 -6 12l-104 8q-11 0 -11 10v52q0 10 11 10h385q10 0 10 -10v-52q0 -10 -10 -10l-137 -12q-3 0 -7 -4l-270 -250q-6 -6 -2 -14l389 -449q4 -4 6 -4l119 -12q10 0 10 -11v-51
q0 -10 -10 -10h-432q-10 0 -10 10v51q0 11 10 11l82 6q6 0 6 4t-2 8l-324 373q-4 4 -11 1t-7 -9v-359q0 -10 10 -10l107 -14q10 0 10 -11v-51q0 -10 -10 -10h-432q-11 0 -11 10v51q0 11 11 11l139 14q10 0 10 10v676q0 10 -10 10l-148 17q-10 0 -10 10v47z" />
    <glyph glyph-name="Lacute" unicode="&#x139;" horiz-adv-x="1130" 
d="M78 1368q0 10 10 10h555q10 0 10 -10v-53q0 -10 -10 -10l-184 -17q-10 0 -10 -10v-1174q0 -10 10 -10h475q10 0 10 8l41 228q0 8 10 8h76q10 0 10 -10v-318q0 -10 -10 -10h-983q-10 0 -10 10v53q0 11 10 11l172 16q10 0 10 10v1178q0 10 -10 10l-172 17q-10 0 -10 10v53z
M670 1772q6 0 9 -6t-3 -11l-262 -272q-5 -2 -11 -5t-10 -3h-61q-6 0 -8 5t2 9l145 272q8 11 20 11h179z" />
    <glyph glyph-name="lacute" unicode="&#x13a;" horiz-adv-x="586" 
d="M217 1288q0 10 -10 10l-160 17q-10 0 -10 10v47q0 2 3 6t5 4l258 41q6 2 7 2h63q10 0 10 -10v-1319q0 -10 10 -10l162 -14q10 0 10 -11v-51q0 -10 -10 -10h-508q-10 0 -10 10v51q0 11 10 11l160 14q10 0 10 10v1192zM598 1772q6 0 8 -6.5t-2 -10.5l-262 -272q-4 -2 -9 -5
t-11 -3h-62q-13 0 -6 14l145 272q11 11 21 11h178z" />
    <glyph glyph-name="Lcommaaccent" unicode="&#x13b;" horiz-adv-x="1130" 
d="M78 1368q0 10 10 10h555q10 0 10 -10v-53q0 -10 -10 -10l-184 -17q-10 0 -10 -10v-1174q0 -10 10 -10h475q10 0 10 8l41 228q0 8 10 8h76q10 0 10 -10v-318q0 -10 -10 -10h-983q-10 0 -10 10v53q0 11 10 11l172 16q10 0 10 10v1178q0 10 -10 10l-172 17q-10 0 -10 10v53z
M529 -117q29 23 59 23q64 0 109 -43t45 -97q0 -92 -61 -154t-146 -83q-7 0 -12 8l-19 37q-4 10 6 14q111 46 111 111q1 35 -21 57t-71 23q-29 20 -29 51q0 30 29 53z" />
    <glyph glyph-name="lcommaaccent" unicode="&#x13c;" horiz-adv-x="586" 
d="M217 1309q0 10 -10 10l-160 17q-10 0 -10 10v47q3 10 8 10l258 41q6 2 10 2h60q10 0 10 -10v-1340q0 -9 10 -10l162 -14q10 -1 10 -11v-51q0 -10 -10 -10h-508q-10 0 -10 10v51q0 11 10 11l160 14q10 0 10 10v1213zM205 -118q44 42 108 17q101 -40 101 -146
q0 -70 -58 -132t-143 -82q-7 0 -12 8l-19 35q-4 10 6 15q109 44 109 108q0 78 -90 78q-29 18 -29 46q0 27 27 53z" />
    <glyph glyph-name="Lcaron" unicode="&#x13d;" horiz-adv-x="1130" 
d="M78 1368q0 10 10 10h555q10 0 10 -10v-53q0 -10 -10 -10l-184 -17q-10 0 -10 -10v-1174q0 -10 10 -10h475q10 0 10 8l41 228q0 8 10 8h76q10 0 10 -10v-318q0 -10 -10 -10h-983q-10 0 -10 10v53q0 11 10 11l172 16q10 0 10 10v1178q0 10 -10 10l-172 17q-10 0 -10 10v53z
M777 1354q29 24 61 24q71 0 123 -49q53 -49 53 -131q0 -144 -142 -228q-86 -52 -96 -32l-18 35q-5 10 4 14q125 61 125 147q-1 48 -25 72t-86 25q-28 28 -28 63q0 36 29 60z" />
    <glyph glyph-name="lcaron" unicode="&#x13e;" horiz-adv-x="782" 
d="M217 1309q0 10 -10 10l-160 17q-10 0 -10 10v47q3 10 8 10l258 41q6 2 10 2h60q10 0 10 -10v-1340q0 -9 10 -10l162 -14q10 -1 10 -11v-51q0 -10 -10 -10h-508q-10 0 -10 10v51q0 11 10 11l160 14q10 0 10 10v1213zM504 1354q29 24 61 24q71 0 123 -49q53 -49 53 -131
q0 -144 -142 -228q-86 -52 -96 -32l-18 35q-5 10 4 14q125 61 125 147q0 48 -24 72t-87 25q-28 28 -28 63q0 36 29 60z" />
    <glyph glyph-name="Ldot" unicode="&#x13f;" horiz-adv-x="1130" 
d="M78 1368q0 10 10 10h555q10 0 10 -10v-53q0 -10 -10 -10l-184 -17q-10 0 -10 -10v-1174q0 -10 10 -10h475q10 0 10 8l41 228q0 8 10 8h76q10 0 10 -10v-318q0 -10 -10 -10h-983q-10 0 -10 10v53q0 11 10 11l172 16q10 0 10 10v1178q0 10 -10 10l-172 17q-10 0 -10 10v53z
M902 833q44 -1 74 -31t30 -62t-8 -51t-22 -33t-33 -21q-18 -8 -41 -8q-42 0 -73 29t-31 61q0 31 8 51t22 34q30 30 74 31z" />
    <glyph glyph-name="ldot" unicode="&#x140;" horiz-adv-x="694" 
d="M217 1309q0 10 -10 10l-160 17q-10 0 -10 10v47q3 10 8 10l258 41q6 2 10 2h60q10 0 10 -10v-1340q0 -9 10 -10l162 -14q10 -1 10 -11v-51q0 -10 -10 -10h-508q-10 0 -10 10v51q0 11 10 11l160 14q10 0 10 10v1213zM647 833q43 -1 73 -31t31 -62q0 -32 -8 -51
q-9 -19 -23 -33t-32 -21q-18 -8 -41 -8q-42 0 -73 29t-31 61q0 31 8 51q9 20 23 34q30 30 73 31z" />
    <glyph glyph-name="Lslash" unicode="&#x141;" horiz-adv-x="1130" 
d="M270 1278q0 10 -10 10l-172 17q-10 0 -10 10v53q0 10 10 10h555q10 0 10 -10v-53q0 -10 -10 -10l-184 -17q-10 0 -10 -10v-461l307 109q12 4 14 -6l25 -70q4 -10 -7 -14l-339 -121v-611q0 -10 10 -10h475q10 0 10 8l41 228q0 8 10 8h76q10 0 10 -10v-318q0 -10 -10 -10
h-983q-10 0 -10 10v53q0 11 10 11l172 16q10 0 10 10v551l-227 -80q-10 -4 -14 7l-25 69q-4 10 6 15l260 92v524z" />
    <glyph glyph-name="lslash" unicode="&#x142;" horiz-adv-x="610" 
d="M49 1393q0 10 8 10l258 41q7 2 8 2h62q10 0 10 -10v-598l191 80q10 4 12 -3l31 -69q4 -8 -4 -12l-230 -99v-639q0 -10 11 -10l161 -14q11 0 11 -11v-51q0 -10 -11 -10h-508q-10 0 -10 10v51q0 11 10 11l160 14q10 0 10 10v570l-186 -80q-10 0 -14 4l-29 69q-6 11 4 15
l225 94v541q0 10 -10 10l-160 16q-10 0 -10 11v47z" />
    <glyph glyph-name="Nacute" unicode="&#x143;" horiz-adv-x="1487" 
d="M41 1368q0 10 10 10h361q5 -1 8 -4l760 -1005v901q0 10 -9 10l-151 16q-10 0 -10 11v61q0 10 10 10h426q10 0 10 -10v-61q0 -11 -10 -11l-154 -16q-10 0 -10 -10v-1276q0 -10 -12 -10h-39q-5 1 -10 6l-883 1169v-1050q0 -11 8 -11l150 -16q10 0 10 -10v-62q0 -10 -10 -10
h-426q-11 0 -11 10v62q0 10 11 10l155 16q11 0 11 11v1161q0 10 -11 10l-174 16q-10 0 -10 11v61zM1018 1772q6 0 9 -6t-3 -11l-262 -272q-5 -2 -11 -5t-10 -3h-61q-6 0 -8 5t2 9l145 272q8 11 20 11h179z" />
    <glyph glyph-name="nacute" unicode="&#x144;" horiz-adv-x="1159" 
d="M322 909h57q10 0 10 -10v-88q92 73 226 102q41 9 90 9q264 0 264 -297v-529q0 -10 10 -10l133 -14q10 0 10 -11v-51q0 -10 -10 -10h-448q-11 0 -11 10v51q0 11 11 11l129 14q10 0 10 10v469q0 109 -42 165t-156 56t-206 -47q-8 -4 -10 -8v-635q0 -10 10 -10l129 -14
q11 0 11 -11v-51q0 -10 -11 -10h-458q-11 0 -11 10v51q0 11 11 11l143 14q10 0 10 10v676q0 10 -10 10l-147 17q-11 0 -11 10v47q0 10 8 10l246 41q11 2 13 2zM710 1378h168q6 0 8 -6t0 -10l-266 -354q-4 -4 -8 -4h-55q-5 0 -9 5t-2 9l148 348q6 12 16 12z" />
    <glyph glyph-name="Ncommaaccent" unicode="&#x145;" horiz-adv-x="1487" 
d="M41 1368q0 10 10 10h361q5 -1 8 -4l760 -1005v901q0 10 -9 10l-151 16q-10 0 -10 11v61q0 10 10 10h426q10 0 10 -10v-61q0 -11 -10 -11l-154 -16q-10 0 -10 -10v-1276q0 -10 -12 -10h-39q-5 1 -10 6l-883 1169v-1050q0 -11 8 -11l150 -16q10 0 10 -10v-62q0 -10 -10 -10
h-426q-11 0 -11 10v62q0 10 11 10l155 16q11 0 11 11v1161q0 10 -11 10l-174 16q-10 0 -10 11v61zM672 -117q29 23 59 23q64 0 109 -43t45 -97q0 -92 -61 -154t-146 -83q-7 0 -12 8l-19 37q-4 10 6 14q111 46 111 111q0 35 -22 57t-70 23q-29 20 -29 51q0 30 29 53z" />
    <glyph glyph-name="ncommaaccent" unicode="&#x146;" horiz-adv-x="1159" 
d="M322 909h57q10 0 10 -10v-88q92 73 226 102q41 9 90 9q264 0 264 -297v-529q0 -10 10 -10l133 -14q10 0 10 -11v-51q0 -10 -10 -10h-448q-11 0 -11 10v51q0 11 11 11l129 14q10 0 10 10v469q0 109 -42 165t-156 56t-206 -47q-8 -4 -10 -8v-635q0 -10 10 -10l129 -14
q11 0 11 -11v-51q0 -10 -11 -10h-458q-11 0 -11 10v51q0 11 11 11l143 14q10 0 10 10v676q0 10 -10 10l-147 17q-11 0 -11 10v47q0 10 8 10l246 41q11 2 13 2zM512 -118q44 42 108 17q101 -40 101 -146q0 -70 -58 -132t-143 -82q-7 0 -12 8l-19 35q-4 10 6 15
q109 44 109 108q0 78 -90 78q-29 18 -29 46q0 27 27 53z" />
    <glyph glyph-name="Ncaron" unicode="&#x147;" horiz-adv-x="1487" 
d="M41 1368q0 10 10 10h361q5 -1 8 -4l760 -1005v901q0 10 -9 10l-151 16q-10 0 -10 11v61q0 10 10 10h426q10 0 10 -10v-61q0 -11 -10 -11l-154 -16q-10 0 -10 -10v-1276q0 -10 -12 -10h-39q-5 1 -10 6l-883 1169v-1050q0 -11 8 -11l150 -16q10 0 10 -10v-62q0 -10 -10 -10
h-426q-11 0 -11 10v62q0 10 11 10l155 16q11 0 11 11v1161q0 10 -11 10l-174 16q-10 0 -10 11v61zM694 1475q-13 0 -20 10l-166 272q-8 15 6 15h61q5 0 11 -4t10 -5l168 -168l168 168q8 9 20 9h62q6 0 8 -6t-2 -9l-166 -272q-8 -10 -20 -10h-140z" />
    <glyph glyph-name="ncaron" unicode="&#x148;" horiz-adv-x="1159" 
d="M322 909h57q10 0 10 -10v-88q92 73 226 102q41 9 90 9q264 0 264 -297v-529q0 -10 10 -10l133 -14q10 0 10 -11v-51q0 -10 -10 -10h-448q-11 0 -11 10v51q0 11 11 11l129 14q10 0 10 10v469q0 109 -42 165t-156 56t-206 -47q-8 -4 -10 -8v-635q0 -10 10 -10l129 -14
q11 0 11 -11v-51q0 -10 -11 -10h-458q-11 0 -11 10v51q0 11 11 11l143 14q10 0 10 10v676q0 10 -10 10l-147 17q-11 0 -11 10v47q0 10 8 10l246 41q11 2 13 2zM356 1378h58q2 0 6 -4l182 -219h4l182 219q4 4 6 4h58q6 0 8 -5t0 -9l-174 -354q-2 -6 -8 -6h-148q-6 0 -8 6
l-174 354q-2 4 0 9t8 5z" />
    <glyph glyph-name="napostrophe" unicode="&#x149;" horiz-adv-x="1466" 
d="M677 909q19 0 19 -10v-88q91 72 181 91.5t135 19.5q139 0 201.5 -77t62.5 -220v-529q0 -10 10 -10l133 -14q11 0 11 -11v-51q0 -10 -11 -10h-448q-10 0 -10 10v51q0 11 10 11l129 14q10 0 10 10v469q0 113 -43 167t-134 54t-161 -22t-76 -33v-635q0 -10 11 -10l129 -14
q10 0 10 -11v-51q0 -10 -10 -10h-459q-10 0 -10 10v51q0 11 10 11l143 14q10 0 10 10v676q0 10 -10 10l-147 17q-11 0 -11 10v47q0 2 3.5 6t5.5 4l245 41q9 2 13 2h48zM360 1269q0 -222 -221 -304q-4 0 -8 4l-18 39q-4 8 2 10q59 33 94 70.5t35 91.5t-28 88.5t-87 34.5
q-12 14 -19.5 23t-7.5 42t28 55.5t60 22.5q66 0 118 -52t52 -125z" />
    <glyph glyph-name="Eng" unicode="&#x14a;" horiz-adv-x="1395" 
d="M86 1358q0 10 8 10l279 39q8 2 11 2h58q11 0 11 -10v-119q186 129 389 129q250 0 369.5 -185t119.5 -449q0 -263 -86 -453.5t-246 -298.5q-175 -115 -232 -39.5t-67 101.5t-10 31t6 9l56 53q4 4 10 4t12 -4l51 -39q49 -37 89 -37t74 25t71 86t61.5 189.5t24.5 264.5
q0 283 -91 434.5t-313 151.5q-149 0 -276 -55q-12 -6 -12 -14v-1084q0 -10 10 -10l133 -16q10 0 10 -11v-53q0 -10 -10 -10h-490q-10 0 -10 10v53q0 11 10 11l154 16q10 0 10 10v1172q0 10 -10 10l-164 12q-10 0 -10 11v53z" />
    <glyph glyph-name="eng" unicode="&#x14b;" horiz-adv-x="1122" 
d="M55 856q0 10 8 10l246 41q9 2 13 2h57q10 0 10 -10v-88q91 72 180.5 91.5t135.5 19.5q139 0 201.5 -77t62.5 -220v-600q0 -200 -103.5 -311t-141.5 -129.5t-68 -31t-54 -12.5q-105 0 -151 127q-7 14 2 23l47 45q6 6 11 6t11 -6l49 -37q41 -33 86 -33q86 0 116 105.5
t30 300.5v493q0 113 -43 167t-157 54t-204 -47q-8 -4 -10 -8v-635q0 -10 10 -10l129 -14q11 0 11 -11v-51q0 -10 -11 -10h-458q-11 0 -11 10v51q0 11 11 11l143 14q10 0 10 10v676q0 10 -10 10l-147 17q-11 0 -11 10v47z" />
    <glyph glyph-name="Omacron" unicode="&#x14c;" horiz-adv-x="1548" 
d="M1272 668q0 258 -140 453q-140 196 -372 196t-358 -172t-126 -410q0 -171 62 -325t186 -250q125 -96 285 -97q231 0 356 186q107 161 107 419zM782 1409q310 1 499 -201t189 -513t-190 -517t-498 -207q-308 0 -506 203q-198 204 -198 514t197 516t507 205zM450 1546v90
q0 11 11 11h626q11 0 11 -11v-90q0 -10 -11 -10h-626q-11 0 -11 10z" />
    <glyph glyph-name="omacron" unicode="&#x14d;" horiz-adv-x="1040" 
d="M529 918q213 0 329 -124t117 -338q0 -214 -126 -350q-127 -136 -337 -135q-210 0 -328 126q-118 125 -118 339t125 348t338 134zM512 829q-144 0 -209 -112q-51 -89 -51 -232q0 -287 154 -389q56 -37 135 -37q247 0 247 347q0 171 -58 281q-74 142 -218 142zM217 1098v90
q0 10 10 10h586q10 0 10 -10v-90q0 -11 -10 -11h-586q-10 0 -10 11z" />
    <glyph glyph-name="Obreve" unicode="&#x14e;" horiz-adv-x="1548" 
d="M1272 668q0 258 -140 453q-140 196 -372 196t-358 -172t-126 -410q0 -171 62 -325t186 -250q125 -96 285 -97q231 0 356 186q107 161 107 419zM782 1409q310 1 499 -201t189 -513t-190 -517t-498 -207q-308 0 -506 203q-198 204 -198 514t197 516t507 205zM774 1475
q-104 0 -177 67t-93 207q0 9 6 12l51 11q5 2 14 -7q27 -84 56 -113q28 -28 62 -40t81 -13q90 0 131 41t68 125q9 9 14 7l51 -11q6 -3 6 -12q-29 -206 -176 -258q-45 -16 -94 -16z" />
    <glyph glyph-name="obreve" unicode="&#x14f;" horiz-adv-x="1040" 
d="M529 918q213 0 329 -124t117 -338q0 -214 -126 -350q-127 -136 -337 -135q-210 0 -328 126q-118 125 -118 339t125 348t338 134zM512 829q-144 0 -209 -112q-51 -89 -51 -232q0 -287 154 -389q56 -37 135 -37q247 0 247 347q0 171 -58 281q-74 142 -218 142zM809 1348v-7
q-15 -157 -93 -245t-196 -88t-194 84t-95 249v7q0 4 6 6l52 10q14 5 14 -6q25 -124 98 -174q51 -36 99 -35q88 -1 139 35q73 50 98 174q0 11 14 6l52 -10q6 -2 6 -6z" />
    <glyph glyph-name="Ohungarumlaut" unicode="&#x150;" horiz-adv-x="1548" 
d="M1272 668q0 258 -140 453q-140 196 -372 196t-358 -172t-126 -410q0 -171 62 -325t186 -250q125 -96 285 -97q231 0 356 186q107 161 107 419zM782 1409q310 1 499 -201t189 -513t-190 -517t-498 -207q-308 0 -506 203q-198 204 -198 514t197 516t507 205zM896 1772
q6 0 9 -6t-3 -11l-252 -272q-16 -8 -21 -8h-61q-13 0 -6 14l145 272q8 11 21 11h168zM1189 1772q6 0 9 -6t-3 -11l-252 -272q-16 -8 -21 -8h-61q-13 0 -6 14l145 272q8 11 21 11h168z" />
    <glyph glyph-name="ohungarumlaut" unicode="&#x151;" horiz-adv-x="1040" 
d="M529 918q213 0 329 -124t117 -338q0 -214 -126 -350q-127 -136 -337 -135q-210 0 -328 126q-118 125 -118 339t125 348t338 134zM512 829q-144 0 -209 -112q-51 -89 -51 -232q0 -287 154 -389q56 -37 135 -37q247 0 247 347q0 171 -58 281q-74 142 -218 142zM495 1378
h168q5 0 9 -6t0 -10l-267 -354q-4 -4 -8 -4h-55q-4 0 -8 5t-2 9l147 348q3 12 16 12zM784 1378h168q6 0 8 -6t0 -10l-266 -354q-4 -4 -8 -4h-55q-5 0 -9 5t-2 9l148 348q6 12 16 12z" />
    <glyph glyph-name="OE" unicode="&#x152;" horiz-adv-x="2030" 
d="M736 1317q-93 0 -182 -46t-183.5 -167.5t-94.5 -380.5t147.5 -459.5t385.5 -200.5q119 0 183.5 25t88 45.5t23.5 44.5v977q0 66 -101.5 114t-266.5 48zM1851 338h76q10 0 10 -10v-318q0 -10 -10 -10h-758q-57 0 -187.5 -14.5t-199.5 -14.5q-155 0 -285 54.5t-274.5 201.5
t-144.5 456q0 310 144.5 461.5t274.5 208t285 56.5q41 0 97.5 -5t118 -10t124 -10.5t119.5 -5.5h657q11 0 11 -10v-321q0 -11 -11 -11h-75q-11 0 -11 8l-40 232q0 8 -11 8h-469q-10 0 -10 -10v-506q0 -10 10 -10h283q10 0 10 8l21 166q0 8 10 8h55q10 0 10 -10v-445
q0 -10 -10 -10h-55q-10 0 -10 8l-21 176q0 9 -10 9h-283q-10 0 -10 -11v-553q0 -10 10 -10h498q10 0 10 8l41 228q0 8 10 8z" />
    <glyph glyph-name="oe" unicode="&#x153;" horiz-adv-x="1542" 
d="M801 129q-116 -158 -318 -158q-201 0 -309 132t-108 337t115.5 341.5t321.5 136.5t314 -160q127 160 309 160q231 0 282.5 -142.5t51.5 -198.5t-6 -104q0 -10 -10 -10h-549q4 -166 86 -271.5t219 -105.5q104 0 209 66q8 6 12 -5l29 -49q2 -8 -6 -14
q-328 -217 -472.5 -105.5t-170.5 150.5zM1102 827q-91 0 -148 -86t-57 -198h379q7 198 -59 241t-115 43zM303.5 726q-51.5 -101 -51.5 -256t61.5 -281t198.5 -126q155 0 179 141.5t24 209.5t-12.5 143.5t-59 172.5t-167.5 97t-172.5 -101z" />
    <glyph glyph-name="Racute" unicode="&#x154;" horiz-adv-x="1337" 
d="M569 1378q278 0 400 -86q143 -101 143 -274q0 -199 -195 -302q-60 -32 -129 -50q106 -51 199 -230l176 -338q4 -8 15 -8l149 -16q10 0 10 -11v-53q0 -10 -10 -10h-321q-11 0 -15 8l-176 369q-127 266 -328 266h-24q-10 0 -10 -8v-535q0 -9 10 -10l194 -16q11 -1 11 -11
v-53q0 -10 -11 -10h-571q-10 0 -10 10v53q0 11 10 11l174 16q10 0 10 10v1178q0 10 -10 10l-174 17q-10 0 -10 10v53q0 10 10 10h483zM453 737q0 -10 8 -10q142 0 199 5q146 13 213 115q38 58 38 142q0 295 -376 295h-72q-10 0 -10 -10v-537zM865 1772q6 0 9 -6t-3 -11
l-262 -272q-5 -2 -11 -5t-10 -3h-61q-7 0 -9 5t3 9l145 272q8 11 20 11h179z" />
    <glyph glyph-name="racute" unicode="&#x155;" horiz-adv-x="784" 
d="M643 918q31 0 77 -19t63 -35t8 -24l-101 -144q-6 -10 -10 -10t-6 2q-46 45 -106 45t-111 -59l-60 -70q-8 -9 -8 -22v-486q0 -9 10 -10l174 -14q11 -1 11 -11v-51q0 -10 -11 -10h-503q-11 0 -11 10v51q0 11 11 11l143 14q10 0 10 10v676q0 10 -10 10l-147 17q-11 0 -11 10
v47q0 10 8 10l246 41q11 2 13 2h57q10 0 10 -10v-190l109 127q70 82 145 82zM505 1378h168q6 0 8 -6t0 -10l-266 -354q-4 -4 -8 -4h-55q-4 0 -8 5t-3 9l148 348q6 12 16 12z" />
    <glyph glyph-name="Rcommaaccent" unicode="&#x156;" horiz-adv-x="1337" 
d="M569 1378q278 0 400 -86q143 -101 143 -274q0 -199 -195 -302q-60 -32 -129 -50q106 -51 199 -230l176 -338q4 -8 15 -8l149 -16q10 0 10 -11v-53q0 -10 -10 -10h-321q-11 0 -15 8l-176 369q-127 266 -328 266h-24q-10 0 -10 -8v-535q0 -9 10 -10l194 -16q11 -1 11 -11
v-53q0 -10 -11 -10h-571q-10 0 -10 10v53q0 11 10 11l174 16q10 0 10 10v1178q0 10 -10 10l-174 17q-10 0 -10 10v53q0 10 10 10h483zM453 737q0 -10 8 -10q142 0 199 5q146 13 213 115q38 58 38 142q0 295 -376 295h-72q-10 0 -10 -10v-537zM600 -117q29 23 59 23
q64 0 109 -43t45 -97q0 -92 -61 -154t-146 -83q-7 0 -12 8l-19 37q-4 10 6 14q111 46 111 111q0 35 -22 57t-70 23q-29 20 -29 51q0 30 29 53z" />
    <glyph glyph-name="rcommaaccent" unicode="&#x157;" horiz-adv-x="784" 
d="M643 918q31 0 77 -19t63 -35t8 -24l-101 -144q-6 -10 -10 -10t-6 2q-46 45 -106 45t-111 -59l-60 -70q-8 -9 -8 -22v-486q0 -9 10 -10l174 -14q11 -1 11 -11v-51q0 -10 -11 -10h-503q-11 0 -11 10v51q0 11 11 11l143 14q10 0 10 10v676q0 10 -10 10l-147 17q-11 0 -11 10
v47q0 10 8 10l246 41q11 2 13 2h57q10 0 10 -10v-190l109 127q70 82 145 82zM224 -119q26 25 58 25q64 0 108 -42t44 -95q0 -86 -58 -148t-143 -82q-7 0 -12 8l-19 35q-4 10 6 15q109 44 109 108q0 78 -90 78q-29 18 -29 46q0 27 26 52z" />
    <glyph glyph-name="Rcaron" unicode="&#x158;" horiz-adv-x="1337" 
d="M569 1378q278 0 400 -86q143 -101 143 -274q0 -199 -195 -302q-60 -32 -129 -50q106 -51 199 -230l176 -338q4 -8 15 -8l149 -16q10 0 10 -11v-53q0 -10 -10 -10h-321q-11 0 -15 8l-176 369q-127 266 -328 266h-24q-10 0 -10 -8v-535q0 -9 10 -10l194 -16q11 -1 11 -11
v-53q0 -10 -11 -10h-571q-10 0 -10 10v53q0 11 10 11l174 16q10 0 10 10v1178q0 10 -10 10l-174 17q-10 0 -10 10v53q0 10 10 10h483zM453 737q0 -10 8 -10q142 0 199 5q146 13 213 115q38 58 38 142q0 295 -376 295h-72q-10 0 -10 -10v-537zM520 1475q-13 0 -20 10
l-166 272q-8 15 6 15h61q5 0 11 -4t10 -5l168 -168l168 168q8 9 20 9h62q6 0 8 -6t-2 -9l-166 -272q-8 -10 -20 -10h-140z" />
    <glyph glyph-name="rcaron" unicode="&#x159;" horiz-adv-x="784" 
d="M643 918q31 0 77 -19t63 -35t8 -24l-101 -144q-6 -10 -10 -10t-6 2q-46 45 -106 45t-111 -59l-60 -70q-8 -9 -8 -22v-486q0 -9 10 -10l174 -14q11 -1 11 -11v-51q0 -10 -11 -10h-503q-11 0 -11 10v51q0 11 11 11l143 14q10 0 10 10v676q0 10 -10 10l-147 17q-11 0 -11 10
v47q0 10 8 10l246 41q11 2 13 2h57q10 0 10 -10v-190l109 127q70 82 145 82zM158 1378h58q2 0 6 -4l182 -219h4l182 219q4 4 6 4h58q6 0 8 -5t0 -9l-174 -354q-2 -6 -8 -6h-148q-6 0 -8 6l-174 354q-2 4 0 9t8 5z" />
    <glyph glyph-name="Sacute" unicode="&#x15a;" horiz-adv-x="985" 
d="M762 1030q-10 0 -10 8l-41 230q0 6 -9 10q-88 39 -192 39t-182 -59t-78 -160t73 -170q49 -46 160 -97l133 -61q156 -72 236 -156t80 -221q0 -206 -150 -314t-362 -108q-110 0 -222 25t-112 39v309q0 10 10 10h84q10 -3 10 -8l41 -231l9 -11q72 -36 199 -36t218 63t91 184
q0 168 -224 273l-135 63q-148 69 -220 141q-95 95 -95 224q0 130 78 228q131 166 372 165q155 0 318 -49q10 -2 10 -10v-310q0 -10 -10 -10h-80zM783 1772q6 0 9 -6t-3 -11l-262 -272q-5 -2 -11 -5t-10 -3h-61q-7 0 -9 5t3 9l145 272q8 11 20 11h179z" />
    <glyph glyph-name="sacute" unicode="&#x15b;" horiz-adv-x="735" 
d="M389 834q-108 0 -149 -73q-15 -27 -15 -59q0 -93 148 -153l86 -35q225 -92 225 -250q0 -137 -108 -215t-230 -78t-262 47q-10 2 -10 11v237q0 8 10 8h63q11 0 11 -8l32 -164q1 -4 9 -12q70 -33 145 -33q176 0 176 148q0 87 -90 130q-15 7 -55 25l-92 37q-217 87 -217 256
q0 121 100 193t219 72q118 0 231 -37q11 -2 11 -11v-231q0 -8 -11 -8h-63q-10 3 -10 8l-33 160q0 8 -8 12q-50 23 -113 23zM465 1378h168q6 0 8 -6t0 -10l-266 -354q-4 -4 -8 -4h-55q-4 0 -8 5t-3 9l148 348q6 12 16 12z" />
    <glyph glyph-name="Scircumflex" unicode="&#x15c;" horiz-adv-x="985" 
d="M762 1030q-10 0 -10 8l-41 230q0 6 -9 10q-88 39 -192 39t-182 -59t-78 -160t73 -170q49 -46 160 -97l133 -61q156 -72 236 -156t80 -221q0 -206 -150 -314t-362 -108q-110 0 -222 25t-112 39v309q0 10 10 10h84q10 -3 10 -8l41 -231l9 -11q72 -36 199 -36t218 63t91 184
q0 168 -224 273l-135 63q-148 69 -220 141q-95 95 -95 224q0 130 78 228q131 166 372 165q155 0 318 -49q10 -2 10 -10v-310q0 -10 -10 -10h-80zM588 1772q14 0 20 -11l166 -272q7 -14 -6 -14h-62q-6 0 -11 3t-9 5l-168 168l-168 -168q-8 -8 -20 -8h-62q-13 0 -6 14l166 272
q8 11 20 11h140z" />
    <glyph glyph-name="scircumflex" unicode="&#x15d;" horiz-adv-x="735" 
d="M389 834q-108 0 -149 -73q-15 -27 -15 -59q0 -93 148 -153l86 -35q225 -92 225 -250q0 -137 -108 -215t-230 -78t-262 47q-10 2 -10 11v237q0 8 10 8h63q11 0 11 -8l32 -164q1 -4 9 -12q70 -33 145 -33q176 0 176 148q0 87 -90 130q-15 7 -55 25l-92 37q-217 87 -217 256
q0 121 100 193t219 72q118 0 231 -37q11 -2 11 -11v-231q0 -8 -11 -8h-63q-10 3 -10 8l-33 160q0 8 -8 12q-50 23 -113 23zM569 1004q-2 0 -6 4l-182 219h-4l-182 -219q-4 -4 -6 -4h-58q-6 0 -8 5t0 9l174 354q2 6 8 6h148q6 0 8 -6l174 -354q2 -4 0 -9t-8 -5h-58z" />
    <glyph glyph-name="Scedilla" unicode="&#x15e;" horiz-adv-x="985" 
d="M762 1030q-10 0 -10 8l-41 230q0 16 -75.5 32.5t-123.5 16.5q-104 0 -183 -58.5t-79 -162.5q0 -134 91 -188t142 -77l133 -61q163 -79 239.5 -159t76.5 -218q0 -187 -125.5 -293t-317.5 -125l-10 -73q66 -13 98.5 -56t32.5 -93q0 -93 -89 -148.5t-185 -55.5h-22
q-21 0 -26 6.5t-3 10.5l10 49q-1 8 19 8q63 0 111 24.5t48 73.5t-35.5 73t-81.5 20q-12 0 -6 12l70 145q-109 0 -221.5 25.5t-112.5 38.5v309q0 10 10 10h80q2 0 6 -3t4 -5l41 -231q0 -18 78.5 -32.5t136.5 -14.5q126 0 216 64.5t90 193.5q0 128 -90.5 184.5t-133.5 77.5
l-135 63q-146 67 -205 126t-84.5 113t-25.5 136t38 154.5t132 150.5t265 78t333 -49q10 -2 10 -10v-310q0 -10 -10 -10h-80z" />
    <glyph glyph-name="scedilla" unicode="&#x15f;" horiz-adv-x="735" 
d="M147 274q11 0 11 -8l32 -164q0 -18 59.5 -31.5t114.5 -13.5t105.5 37.5t50.5 117.5t-58.5 108t-86.5 40l-92 37q-99 42 -158 102t-59 140q0 134 100.5 206.5t218.5 72.5t231 -37q11 -2 11 -11v-231q0 -8 -11 -8h-63q-2 0 -6 3t-4 5l-33 160q0 16 -47 25.5t-77 9.5
q-62 0 -111.5 -34t-49.5 -98q0 -96 148 -153l86 -35q225 -83 225 -259q0 -116 -88.5 -191t-218.5 -91l-10 -71q65 -13 98 -56t33 -93q0 -92 -89.5 -148t-185.5 -56h-23q-24 0 -27 6.5t-1 10.5l10 49q0 8 20 8q64 0 111 24t47 83q0 58 -46 72t-59 13t-17.5 1t0.5 10l69 145
q-89 3 -223 47q-10 2 -10 11v237q0 8 10 8h63z" />
    <glyph glyph-name="Scaron" unicode="&#x160;" horiz-adv-x="985" 
d="M762 1030q-10 0 -10 8l-41 230q0 6 -9 10q-88 39 -192 39t-182 -59t-78 -160t73 -170q49 -46 160 -97l133 -61q156 -72 236 -156t80 -221q0 -206 -150 -314t-362 -108q-110 0 -222 25t-112 39v309q0 10 10 10h84q10 -3 10 -8l41 -231l9 -11q72 -36 199 -36t218 63t91 184
q0 168 -224 273l-135 63q-148 69 -220 141q-95 95 -95 224q0 130 78 228q131 166 372 165q155 0 318 -49q10 -2 10 -10v-310q0 -10 -10 -10h-80zM444 1475q-13 0 -20 10l-166 272q-8 15 6 15h61q5 0 11 -4t10 -5l168 -168l168 168q8 9 20 9h62q6 0 8 -6t-2 -9l-166 -272
q-8 -10 -20 -10h-140z" />
    <glyph glyph-name="scaron" unicode="&#x161;" horiz-adv-x="735" 
d="M389 834q-108 0 -149 -73q-15 -27 -15 -59q0 -93 148 -153l86 -35q225 -92 225 -250q0 -137 -108 -215t-230 -78t-262 47q-10 2 -10 11v237q0 8 10 8h63q11 0 11 -8l32 -164q1 -4 9 -12q70 -33 145 -33q176 0 176 148q0 87 -90 130q-15 7 -55 25l-92 37q-217 87 -217 256
q0 121 100 193t219 72q118 0 231 -37q11 -2 11 -11v-231q0 -8 -11 -8h-63q-10 3 -10 8l-33 160q0 8 -8 12q-50 23 -113 23zM141 1378h58q2 0 6 -4l182 -219h4l182 219q4 4 6 4h58q6 0 8 -5t0 -9l-174 -354q-2 -6 -8 -6h-148q-6 0 -8 6l-174 354q-2 4 0 9t8 5z" />
    <glyph glyph-name="Tcommaaccent" unicode="&#x162;" horiz-adv-x="1235" 
d="M1184 1378q10 0 10 -10v-321q0 -11 -10 -11h-76q-10 0 -10 8l-41 232q0 8 -10 8h-332q-8 0 -8 -10v-1174q0 -9 10 -10l194 -16q11 -1 11 -11v-53q0 -10 -11 -10h-587q-11 0 -11 10v53q0 10 11 11l194 16q10 1 10 10v1174q0 10 -8 10h-332q-10 0 -10 -8l-41 -232
q0 -8 -10 -8h-76q-10 0 -10 11v321q0 10 10 10h1133zM519 -117q29 23 59 23q64 0 109 -43t45 -97q0 -92 -61 -154t-146 -83q-7 0 -12 8l-19 37q-4 10 6 14q111 46 111 111q1 35 -21 57t-71 23q-29 20 -29 51q0 30 29 53z" />
    <glyph glyph-name="Tcommaaccent" unicode="&#x21a;" horiz-adv-x="1235" 
d="M1184 1378q10 0 10 -10v-321q0 -11 -10 -11h-76q-10 0 -10 8l-41 232q0 8 -10 8h-332q-8 0 -8 -10v-1174q0 -9 10 -10l194 -16q11 -1 11 -11v-53q0 -10 -11 -10h-587q-11 0 -11 10v53q0 10 11 11l194 16q10 1 10 10v1174q0 10 -8 10h-332q-10 0 -10 -8l-41 -232
q0 -8 -10 -8h-76q-10 0 -10 11v321q0 10 10 10h1133zM519 -117q29 23 59 23q64 0 109 -43t45 -97q0 -92 -61 -154t-146 -83q-7 0 -12 8l-19 37q-4 10 6 14q111 46 111 111q1 35 -21 57t-71 23q-29 20 -29 51q0 30 29 53z" />
    <glyph glyph-name="tcommaaccent" unicode="&#x163;" horiz-adv-x="676" 
d="M158 776q0 10 -11 10h-118q-9 0 -9 9v10q0 6 7 12l262 264q9 9 16 9h10q9 0 9 -11v-188q0 -10 10 -10h272q10 0 10 -11v-73q0 -11 -10 -11h-272q-10 0 -10 -10v-545q0 -147 131 -147q96 0 155 49q7 7 17 0l26 -51q2 -9 -6 -14q-79 -53 -145 -75t-148 -22t-139 52t-57 135
v618zM287 -118q44 42 108 17q101 -40 101 -146q0 -70 -58 -132t-143 -82q-7 0 -12 8l-19 35q-4 10 6 15q109 44 109 108q0 78 -90 78q-29 18 -29 46q0 27 27 53z" />
    <glyph glyph-name="tcommaaccent" unicode="&#x21b;" horiz-adv-x="676" 
d="M158 776q0 10 -11 10h-118q-9 0 -9 9v10q0 6 7 12l262 264q9 9 16 9h10q9 0 9 -11v-188q0 -10 10 -10h272q10 0 10 -11v-73q0 -11 -10 -11h-272q-10 0 -10 -10v-545q0 -147 131 -147q96 0 155 49q7 7 17 0l26 -51q2 -9 -6 -14q-79 -53 -145 -75t-148 -22t-139 52t-57 135
v618zM287 -118q44 42 108 17q101 -40 101 -146q0 -70 -58 -132t-143 -82q-7 0 -12 8l-19 35q-4 10 6 15q109 44 109 108q0 78 -90 78q-29 18 -29 46q0 27 27 53z" />
    <glyph glyph-name="Tcaron" unicode="&#x164;" horiz-adv-x="1235" 
d="M1184 1378q10 0 10 -10v-321q0 -11 -10 -11h-76q-10 0 -10 8l-41 232q0 8 -10 8h-332q-8 0 -8 -10v-1174q0 -9 10 -10l194 -16q11 -1 11 -11v-53q0 -10 -11 -10h-587q-11 0 -11 10v53q0 10 11 11l194 16q10 1 10 10v1174q0 10 -8 10h-332q-10 0 -10 -8l-41 -232
q0 -8 -10 -8h-76q-10 0 -10 11v321q0 10 10 10h1133zM548 1475q-13 0 -20 10l-166 272q-8 15 6 15h61q5 0 11 -4t10 -5l168 -168l168 168q8 9 20 9h62q6 0 8 -6t-2 -9l-166 -272q-8 -10 -20 -10h-140z" />
    <glyph glyph-name="tcaron" unicode="&#x165;" horiz-adv-x="705" 
d="M158 776q0 10 -11 10h-118q-9 0 -9 9v10q0 6 7 12l262 264q9 9 16 9h10q9 0 9 -11v-188q0 -10 10 -10h272q10 0 10 -11v-73q0 -11 -10 -11h-272q-10 0 -10 -10v-545q0 -147 131 -147q96 0 155 49q7 7 17 0l26 -51q2 -9 -6 -14q-79 -53 -145 -75t-148 -22t-139 52t-57 135
v618zM427 1354q29 24 61 24q71 0 123 -49q53 -49 53 -131q0 -144 -142 -228q-86 -52 -96 -32l-18 35q-5 10 4 14q125 61 125 147q-1 48 -25 72t-86 25q-28 28 -28 63q0 36 29 60z" />
    <glyph glyph-name="Tbar" unicode="&#x166;" horiz-adv-x="1235" 
d="M127 1036h-76q-10 0 -10 11v321q0 10 10 10h1133q10 0 10 -10v-321q0 -11 -10 -11h-76q-10 0 -10 8l-41 232q0 8 -10 8h-332q-8 0 -8 -10v-518q0 -4 4 -7.5t6 -3.5h278q11 0 11 -10v-73q0 -11 -11 -11h-278q-2 0 -6 -3t-4 -7v-541q0 -10 10 -10l194 -16q11 0 11 -11v-53
q0 -10 -11 -10h-587q-11 0 -11 10v53q0 11 11 11l194 16q10 0 10 10v541q0 10 -10 10h-278q-11 0 -11 11v73q0 10 11 10h278q2 0 6 3.5t4 7.5v518q0 10 -8 10h-332q-10 0 -10 -8l-41 -232q0 -8 -10 -8z" />
    <glyph glyph-name="tbar" unicode="&#x167;" horiz-adv-x="676" 
d="M147 653q11 0 11 11v112q0 10 -11 10h-118q-9 0 -9 9v10q0 6 2.5 7t4.5 5l262 264q10 9 16 9h10q9 0 9 -11v-188q0 -10 10 -10h272q10 0 10 -11v-73q0 -11 -10 -11h-272q-10 0 -10 -10v-112q0 -11 10 -11h272q10 0 10 -10v-74q0 -10 -10 -10h-272q-10 0 -10 -10v-318
q0 -112 52 -129.5t90 -17.5t79 14.5t57 28.5t25 6l26 -51q2 -8 -6 -14q-82 -54 -209.5 -96.5t-203.5 32t-76 154.5v391q0 10 -11 10h-116q-11 0 -11 10v74q0 10 11 10h116z" />
    <glyph glyph-name="Utilde" unicode="&#x168;" horiz-adv-x="1470" 
d="M223 1278q0 10 -10 10l-172 17q-10 0 -10 10v53q0 10 10 10h555q10 0 10 -10v-53q0 -10 -10 -10l-184 -17q-11 0 -11 -10v-739q0 -153 15 -227t55 -119q107 -123 317 -123t316 172q51 81 51 319v717q0 10 -10 10l-174 17q-10 0 -10 10v53q0 10 10 10h475q10 0 10 -10v-53
q0 -10 -10 -10l-168 -17q-10 0 -10 -10v-709q0 -336 -136 -467t-396 -131t-398 138q-61 61 -88 139t-27 217v813zM899 1645q60 0 140 71q10 6 14 0l35 -41q6 -8 0 -14q-64 -68 -122 -110t-98 -42t-111 38q-70 38 -98 38q-63 0 -137 -69q-12 -15 -16 -3l-35 41q-6 11 2 17
q143 149 219 149q56 0 114 -38t93 -37z" />
    <glyph glyph-name="utilde" unicode="&#x169;" horiz-adv-x="1108" 
d="M436 -29q-116 0 -192 69t-76 185v547q0 10 -10 10l-148 17q-10 0 -10 10v47q0 10 8 10l246 41q3 1 10 2h60q10 0 10 -10v-602q0 -191 192 -191q99 0 203 64q10 6 10 12v590q0 10 -10 10l-147 17q-11 0 -11 10v47q0 10 9 10l245 41q4 1 13 2h57q10 0 10 -10v-801
q0 -10 10 -10l148 -16q10 0 10 -11v-47q0 -9 -8 -10l-305 -20q-9 -1 -10 10l-7 102q-146 -125 -307 -125zM512 1123q-75 46 -116 46q-42 0 -130 -73q-6 -6 -14 0l-35 41q-5 11 43 55q49 45 95 80t86 35q39 -1 67 -15t81 -46t81 -32q52 0 141 74q8 6 14 0l35 -41
q6 -12 -44 -57q-50 -44 -79 -66q-63 -46 -106 -47q-44 0 -119 46z" />
    <glyph glyph-name="Umacron" unicode="&#x16a;" horiz-adv-x="1470" 
d="M223 1278q0 10 -10 10l-172 17q-10 0 -10 10v53q0 10 10 10h555q10 0 10 -10v-53q0 -10 -10 -10l-184 -17q-11 0 -11 -10v-739q0 -153 15 -227t55 -119q107 -123 317 -123t316 172q51 81 51 319v717q0 10 -10 10l-174 17q-10 0 -10 10v53q0 10 10 10h475q10 0 10 -10v-53
q0 -10 -10 -10l-168 -17q-10 0 -10 -10v-709q0 -336 -136 -467t-396 -131t-398 138q-61 61 -88 139t-27 217v813zM454 1546v90q0 11 11 11h626q11 0 11 -11v-90q0 -10 -11 -10h-626q-11 0 -11 10z" />
    <glyph glyph-name="umacron" unicode="&#x16b;" horiz-adv-x="1108" 
d="M436 -29q-116 0 -192 69t-76 185v547q0 10 -10 10l-148 17q-10 0 -10 10v47q0 10 8 10l246 41q3 1 10 2h60q10 0 10 -10v-602q0 -191 192 -191q99 0 203 64q10 6 10 12v590q0 10 -10 10l-147 17q-11 0 -11 10v47q0 10 9 10l245 41q4 1 13 2h57q10 0 10 -10v-801
q0 -10 10 -10l148 -16q10 0 10 -11v-47q0 -9 -8 -10l-305 -20q-9 -1 -10 10l-7 102q-146 -125 -307 -125zM230 1098v90q0 10 10 10h586q10 0 10 -10v-90q0 -11 -10 -11h-586q-10 0 -10 11z" />
    <glyph glyph-name="Ubreve" unicode="&#x16c;" horiz-adv-x="1470" 
d="M223 1278q0 10 -10 10l-172 17q-10 0 -10 10v53q0 10 10 10h555q10 0 10 -10v-53q0 -10 -10 -10l-184 -17q-11 0 -11 -10v-739q0 -153 15 -227t55 -119q107 -123 317 -123t316 172q51 81 51 319v717q0 10 -10 10l-174 17q-10 0 -10 10v53q0 10 10 10h475q10 0 10 -10v-53
q0 -10 -10 -10l-168 -17q-10 0 -10 -10v-709q0 -336 -136 -467t-396 -131t-398 138q-61 61 -88 139t-27 217v813zM778 1475q-104 0 -177 67t-93 207q0 9 6 12l51 11q5 2 14 -7q27 -84 56 -113q28 -28 62 -40t81 -13q90 0 131 41t68 125q9 9 14 7l51 -11q6 -3 6 -12
q-29 -206 -176 -258q-45 -16 -94 -16z" />
    <glyph glyph-name="ubreve" unicode="&#x16d;" horiz-adv-x="1108" 
d="M436 -29q-116 0 -192 69t-76 185v547q0 10 -10 10l-148 17q-10 0 -10 10v47q0 10 8 10l246 41q3 1 10 2h60q10 0 10 -10v-602q0 -191 192 -191q99 0 203 64q10 6 10 12v590q0 10 -10 10l-147 17q-11 0 -11 10v47q0 10 9 10l245 41q4 1 13 2h57q10 0 10 -10v-801
q0 -10 10 -10l148 -16q10 0 10 -11v-47q0 -9 -8 -10l-305 -20q-9 -1 -10 10l-7 102q-146 -125 -307 -125zM821 1348v-7q-15 -157 -93 -245t-196 -88t-194 84t-95 249v7q0 4 6 6l52 10q14 5 14 -6q25 -124 98 -174q51 -36 99 -35q88 -1 139 35q73 50 98 174q0 11 14 6l52 -10
q6 -2 6 -6z" />
    <glyph glyph-name="Uring" unicode="&#x16e;" horiz-adv-x="1470" 
d="M223 1278q0 10 -10 10l-172 17q-10 0 -10 10v53q0 10 10 10h555q10 0 10 -10v-53q0 -10 -10 -10l-184 -17q-11 0 -11 -10v-739q0 -153 15 -227t55 -119q107 -123 317 -123t316 172q51 81 51 319v717q0 10 -10 10l-174 17q-10 0 -10 10v53q0 10 10 10h475q10 0 10 -10v-53
q0 -10 -10 -10l-168 -17q-10 0 -10 -10v-709q0 -336 -136 -467t-396 -131t-398 138q-61 61 -88 139t-27 217v813zM778 1772q43 0 81 -14q37 -14 65 -36t46 -52t17 -64q1 -34 -17 -64t-46 -52t-65 -36q-38 -12 -81 -12t-80 12q-38 12 -66 36q-28 22 -44 52t-17 64q1 34 17 64
t44 52t66 36q37 14 80 14zM778 1709q-46 0 -72 -30t-26 -73q0 -44 26 -72t72 -28q44 0 72 28t28 72q0 43 -28 73t-72 30z" />
    <glyph glyph-name="uring" unicode="&#x16f;" horiz-adv-x="1108" 
d="M436 -29q-116 0 -192 69t-76 185v547q0 10 -10 10l-148 17q-10 0 -10 10v47q0 10 8 10l246 41q3 1 10 2h60q10 0 10 -10v-602q0 -191 192 -191q99 0 203 64q10 6 10 12v590q0 10 -10 10l-147 17q-11 0 -11 10v47q0 10 9 10l245 41q4 1 13 2h57q10 0 10 -10v-801
q0 -10 10 -10l148 -16q10 0 10 -11v-47q0 -9 -8 -10l-305 -20q-9 -1 -10 10l-7 102q-146 -125 -307 -125zM532 1366q43 0 81 -14q37 -14 65 -36t46 -52t17 -64q1 -34 -17 -64t-46 -52t-65 -36q-38 -12 -81 -12t-80 12q-38 12 -66 36q-28 22 -44 52t-17 64q1 34 17 64t44 52
t66 36q37 14 80 14zM532 1303q-46 0 -72 -30t-26 -73q0 -44 26 -72t72 -28q44 0 72 28t28 72q0 43 -28 73t-72 30z" />
    <glyph glyph-name="Uhungarumlaut" unicode="&#x170;" horiz-adv-x="1470" 
d="M223 1278q0 10 -10 10l-172 17q-10 0 -10 10v53q0 10 10 10h555q10 0 10 -10v-53q0 -10 -10 -10l-184 -17q-11 0 -11 -10v-739q0 -153 15 -227t55 -119q107 -123 317 -123t316 172q51 81 51 319v717q0 10 -10 10l-174 17q-10 0 -10 10v53q0 10 10 10h475q10 0 10 -10v-53
q0 -10 -10 -10l-168 -17q-10 0 -10 -10v-709q0 -336 -136 -467t-396 -131t-398 138q-61 61 -88 139t-27 217v813zM893 1772q6 0 9 -6t-3 -11l-252 -272q-16 -8 -21 -8h-61q-13 0 -6 14l145 272q8 11 21 11h168zM1186 1772q6 0 9 -6t-3 -11l-252 -272q-16 -8 -21 -8h-61
q-13 0 -6 14l145 272q8 11 21 11h168z" />
    <glyph glyph-name="uhungarumlaut" unicode="&#x171;" horiz-adv-x="1108" 
d="M436 -29q-116 0 -192 69t-76 185v547q0 10 -10 10l-148 17q-10 0 -10 10v47q0 10 8 10l246 41q3 1 10 2h60q10 0 10 -10v-602q0 -191 192 -191q99 0 203 64q10 6 10 12v590q0 10 -10 10l-147 17q-11 0 -11 10v47q0 10 9 10l245 41q4 1 13 2h57q10 0 10 -10v-801
q0 -10 10 -10l148 -16q10 0 10 -11v-47q0 -9 -8 -10l-305 -20q-9 -1 -10 10l-7 102q-146 -125 -307 -125zM475 1378h168q5 0 9 -6t0 -10l-267 -354q-4 -4 -8 -4h-55q-4 0 -8 5t-2 9l147 348q3 12 16 12zM764 1378h168q6 0 8 -6t0 -10l-266 -354q-4 -4 -8 -4h-55q-5 0 -9 5
t-2 9l148 348q6 12 16 12z" />
    <glyph glyph-name="Uogonek" unicode="&#x172;" horiz-adv-x="1470" 
d="M594 -252q0 136 154 219v4q-319 0 -422 143.5t-103 350.5v813q0 10 -10 10l-172 17q-10 0 -10 10v53q0 10 10 10h555q10 0 10 -10v-53q0 -10 -10 -10l-184 -17q-11 0 -11 -10v-739q0 -228 26 -277t44 -69q106 -123 303 -123q196 0 295 123q46 56 66 128t20 240v717
q0 10 -10 10l-174 17q-10 0 -10 10v53q0 10 10 10h475q10 0 10 -10v-53q0 -10 -10 -10l-168 -17q-10 0 -10 -10v-709q0 -185 -27 -270.5t-81 -172.5t-222 -134q-90 -33 -142.5 -90.5t-52.5 -125.5t35 -105.5t101 -37.5q13 0 37 6t28 -4l19 -45q2 -4 -10 -12
q-17 -11 -60.5 -21t-84.5 -10q-91 0 -152.5 53.5t-61.5 147.5z" />
    <glyph glyph-name="uogonek" unicode="&#x173;" horiz-adv-x="1108" 
d="M168 225v547q0 10 -10 10l-148 17q-10 0 -10 10v47q0 10 8 10l246 41q8 2 11 2h59q10 0 10 -10v-602q0 -92 49 -141.5t146 -49.5t200 64q10 6 10 12v590q0 10 -10 10l-147 17q-11 0 -11 10v47q0 10 9 10l245 41q9 2 13 2h48q19 0 19 -10v-801q0 -10 10 -10l148 -16
q10 0 10 -11v-47q0 -10 -8 -10l-61 -4q-125 -8 -202 -73.5t-77 -141.5q0 -152 135 -152q15 0 38 7t28 -5l18 -45q2 -5 -10 -12q-17 -11 -60 -21t-84 -10q-89 0 -152 51.5t-63 153.5t79 169t126 91l-37 84q-146 -125 -316 -125t-214.5 96.5t-44.5 157.5z" />
    <glyph glyph-name="Wcircumflex" unicode="&#x174;" horiz-adv-x="2122" 
d="M557 1378q10 0 10 -10v-53q0 -10 -10 -10l-156 -17q-13 0 -8 -14l369 -1014l260 715l-107 305q-4 6 -8 6l-168 19q-8 0 -8 10v53q0 10 10 10h527q10 0 10 -10v-53q0 -10 -10 -10l-156 -17q-13 0 -8 -14l348 -1016l365 1020q6 12 -11 14l-149 13q-10 1 -10 10v53
q0 10 10 10h446q11 0 11 -10v-53q0 -10 -11 -10l-172 -17q-6 0 -8 -6l-483 -1305q-2 -6 -8 -6h-56q-6 0 -8 6l-301 863l-322 -863q-4 -6 -8 -6h-51q-5 1 -8 6l-473 1303q-2 6 -8 6l-168 19q-9 0 -9 10v53q0 10 11 10h526zM1094 1772q14 0 20 -11l166 -272q7 -14 -6 -14h-62
q-6 0 -11 3t-9 5l-168 168l-168 -168q-8 -8 -20 -8h-62q-13 0 -6 14l166 272q8 11 20 11h140z" />
    <glyph glyph-name="wcircumflex" unicode="&#x175;" horiz-adv-x="1579" 
d="M578 827v52q0 10 10 10h411q11 0 11 -10v-52q0 -8 -9 -8l-106 -12q-14 0 -8 -14l227 -557l225 557q6 14 -8 14l-106 12q-8 0 -8 8v52q0 10 10 10h329q11 0 11 -10v-50q0 -10 -11 -10l-112 -12q-5 -1 -8 -6l-334 -815q-2 -6 -8 -6h-52q-6 0 -8 6l-237 579l-256 -579
q-2 -6 -9 -6h-47q-6 0 -8 6l-334 813q-4 6 -8 6l-119 14q-8 0 -8 8v52q0 10 10 10h426q-1 1 -1 2q12 0 12 -12v-52q0 -8 -9 -8l-106 -12q-14 0 -8 -14l229 -557l189 419q6 13 0 25l-48 119q-4 6 -8 6l-108 14q-8 0 -8 8zM979 1004q-2 0 -6 4l-182 219h-4l-182 -219
q-4 -4 -6 -4h-58q-6 0 -8 5t0 9l174 354q2 6 8 6h148q6 0 8 -6l174 -354q2 -4 0 -9t-8 -5h-58z" />
    <glyph glyph-name="Ycircumflex" unicode="&#x176;" horiz-adv-x="1382" 
d="M1092 1281q0 11 -11 11l-141 13q-10 0 -10 10v53q0 10 10 10h424q10 0 10 -10v-53q0 -10 -10 -10l-154 -15q-5 -1 -8 -4l-407 -698q-2 -3 -2 -10v-478q0 -10 10 -10l174 -16q10 0 10 -11v-53q0 -10 -10 -10h-547q-10 0 -10 10v53q0 11 10 11l174 16q10 0 10 10v467
q0 8 -2 13l-399 704q-4 4 -8 4l-174 17q-11 0 -11 10v53q0 10 11 10h544q11 0 11 -10v-53q0 -10 -11 -10l-147 -13q-6 0 -8 -6t0 -10l328 -594l342 594q2 2 2 5zM817 1772q14 0 20 -11l166 -272q7 -14 -6 -14h-62q-6 0 -11 3t-9 5l-168 168l-168 -168q-8 -8 -20 -8h-62
q-13 0 -6 14l166 272q8 11 20 11h140z" />
    <glyph glyph-name="ycircumflex" unicode="&#x177;" horiz-adv-x="1061" 
d="M444 889q11 0 11 -10v-52q0 -8 -9 -8l-106 -12q-14 0 -8 -14l241 -584l248 584q6 14 -8 14l-106 12q-9 0 -9 8v52q0 10 11 10h329q11 0 11 -10v-50q0 -10 -11 -10l-112 -12q-5 -1 -8 -6l-367 -864q-198 -465 -344 -465q-6 0 -14 4l-97 96q-7 7 -2 14l25 41q4 4 10 4
q97 1 151 41t100 116t97 194q4 9 0 26l-334 791q-4 6 -8 6l-119 14q-8 0 -8 8v52q0 10 10 10h426zM753 1004q-2 0 -6 4l-182 219h-4l-182 -219q-4 -4 -6 -4h-58q-6 0 -8 5t0 9l174 354q2 6 8 6h148q6 0 8 -6l174 -354q2 -4 0 -9t-8 -5h-58z" />
    <glyph glyph-name="Ydieresis" unicode="&#x178;" horiz-adv-x="1382" 
d="M1092 1281q0 11 -11 11l-141 13q-10 0 -10 10v53q0 10 10 10h424q10 0 10 -10v-53q0 -10 -10 -10l-154 -15q-5 -1 -8 -4l-407 -698q-2 -3 -2 -10v-478q0 -10 10 -10l174 -16q10 0 10 -11v-53q0 -10 -10 -10h-547q-10 0 -10 10v53q0 11 10 11l174 16q10 0 10 10v467
q0 8 -2 13l-399 704q-4 4 -8 4l-174 17q-11 0 -11 10v53q0 10 11 10h544q11 0 11 -10v-53q0 -10 -11 -10l-147 -13q-6 0 -8 -6t0 -10l328 -594l342 594q2 2 2 5zM602 1674q29 -30 29 -62q0 -51 -30 -81q-29 -30 -61 -30q-53 0 -84 29q-30 29 -30 61q0 31 8 51t22 32
q30 30 73 30q44 0 73 -30zM994 1674q30 -30 30 -61q0 -54 -30 -83t-63 -29q-52 0 -82 30q-30 31 -30 61q1 30 9 50t21 32q28 30 72 30q43 0 73 -30z" />
    <glyph glyph-name="Zacute" unicode="&#x179;" horiz-adv-x="1278" 
d="M264 1284q-10 0 -10 -8l-41 -232q0 -8 -10 -8h-76q-10 0 -10 11v321q0 10 10 10h1001q7 0 9 -6l32 -55q2 -2 -2 -10l-866 -1213h723q10 0 10 8l41 232q0 8 10 8h76q10 0 10 -10v-322q0 -10 -10 -10h-1052q-7 0 -9 6l-32 55q-3 6 2 11l860 1212h-666zM906 1772q6 0 9 -6
t-3 -11l-262 -272q-5 -2 -11 -5t-10 -3h-61q-6 0 -8 5t2 9l145 272q8 11 20 11h179z" />
    <glyph glyph-name="zacute" unicode="&#x17a;" horiz-adv-x="920" 
d="M700 86q7 0 11 8l37 172q4 8 10 8h59q10 0 10 -10v-254q0 -10 -10 -10h-735q-6 0 -10 8l-11 43v4q0 2 2 4l537 744h-379q-10 0 -10 -8l-35 -172q0 -9 -10 -9h-60q-10 0 -10 11v254q0 10 10 10h705q6 0 10 -6l13 -39v-4q0 -2 -3 -4l-546 -750h415zM567 1378h168q6 0 8 -6
t0 -10l-266 -354q-4 -4 -8 -4h-55q-4 0 -8 5t-3 9l148 348q6 12 16 12z" />
    <glyph glyph-name="Zdotaccent" unicode="&#x17b;" horiz-adv-x="1278" 
d="M264 1284q-10 0 -10 -8l-41 -232q0 -8 -10 -8h-76q-10 0 -10 11v321q0 10 10 10h1001q7 0 9 -6l32 -55q2 -2 -2 -10l-866 -1213h723q10 0 10 8l41 232q0 8 10 8h76q10 0 10 -10v-322q0 -10 -10 -10h-1052q-7 0 -9 6l-32 55q-3 6 2 11l860 1212h-666zM645 1707
q43 -1 73 -31t31 -62q0 -32 -8 -51q-9 -19 -23 -33t-32 -21q-18 -8 -41 -8q-42 0 -73 29t-31 61q0 31 8 51q9 20 23 34q30 30 73 31z" />
    <glyph glyph-name="zdotaccent" unicode="&#x17c;" horiz-adv-x="920" 
d="M700 86q7 0 11 8l37 172q4 8 10 8h59q10 0 10 -10v-254q0 -10 -10 -10h-735q-6 0 -10 8l-11 43v4q0 2 2 4l537 744h-379q-10 0 -10 -8l-35 -172q0 -9 -10 -9h-60q-10 0 -10 11v254q0 10 10 10h705q6 0 10 -6l13 -39v-4q0 -2 -3 -4l-546 -750h415zM471 1255q43 -1 73 -31
t31 -62q0 -32 -8 -51q-9 -19 -23 -33t-32 -21q-18 -8 -41 -8q-42 0 -73 29t-31 61q0 31 8 51q9 20 23 34q30 30 73 31z" />
    <glyph glyph-name="Zcaron" unicode="&#x17d;" horiz-adv-x="1278" 
d="M264 1284q-10 0 -10 -8l-41 -232q0 -8 -10 -8h-76q-10 0 -10 11v321q0 10 10 10h1001q7 0 9 -6l32 -55q2 -2 -2 -10l-866 -1213h723q10 0 10 8l41 232q0 8 10 8h76q10 0 10 -10v-322q0 -10 -10 -10h-1052q-7 0 -9 6l-32 55q-3 6 2 11l860 1212h-666zM581 1475
q-13 0 -20 10l-166 272q-8 15 6 15h61q5 0 11 -4t10 -5l168 -168l168 168q8 9 20 9h62q6 0 8 -6t-2 -9l-166 -272q-8 -10 -20 -10h-140z" />
    <glyph glyph-name="zcaron" unicode="&#x17e;" horiz-adv-x="920" 
d="M700 86q7 0 11 8l37 172q4 8 10 8h59q10 0 10 -10v-254q0 -10 -10 -10h-735q-6 0 -10 8l-11 43v4q0 2 2 4l537 744h-379q-10 0 -10 -8l-35 -172q0 -9 -10 -9h-60q-10 0 -10 11v254q0 10 10 10h705q6 0 10 -6l13 -39v-4q0 -2 -3 -4l-546 -750h415zM212 1378h58q2 0 6 -4
l182 -219h4l182 219q4 4 6 4h58q6 0 8 -5t0 -9l-174 -354q-2 -6 -8 -6h-148q-6 0 -8 6l-174 354q-2 4 0 9t8 5z" />
    <glyph glyph-name="longs" unicode="&#x17f;" horiz-adv-x="651" 
d="M713 1163q-11 0 -11 8l-26 140q-4 19 -45 30t-80 11q-168 0 -168 -285v-971q0 -10 10 -10l162 -14q10 0 10 -11v-51q0 -10 -10 -10h-508q-10 0 -10 10v51q0 11 10 11l160 14q10 0 10 10v680q0 10 -10 10h-152q-10 0 -10 11v51q0 10 10 10l152 19q10 0 10 10v92
q0 153 23.5 230t71.5 129q101 108 272 108q71 0 134 -16q62 -16 65 -19.5t3 -7.5v-232q0 -8 -10 -8h-63z" />
    <glyph glyph-name="florin" unicode="&#x192;" 
d="M842 881q8 0 8 -11v-73q0 -11 -8 -11h-262l-74 -720q-29 -280 -133 -424t-262 -144q-118 0 -158 123q-5 16 4 23l63 59q8 7 17 -2l43 -41q43 -41 102 -41q138 0 166 313l78 854h-170q-8 0 -8 11v51q0 10 8 10l180 25q14 74 53 215q49 120 150 216t217 95q46 1 92 -43
t60 -92q0 -17 -4 -21l-64 -57q-8 -4 -14 0l-45 41q-45 41 -87 41t-73 -23q-90 -63 -119 -270l-14 -104h254z" />
    <glyph glyph-name="Aringacute" unicode="&#x1fa;" horiz-adv-x="1409" 
d="M720 1604q86 0 147 -48t61 -125t-59.5 -111t-92.5 -40l432 -1182q2 -6 9 -6l163 -18q9 0 9 -11v-53q0 -10 -11 -10h-526q-10 0 -10 10v53q0 11 10 11l160 16q13 0 8 14l-141 371q-2 6 -9 6h-421q-7 0 -9 -6l-151 -375q-2 -6 2 -10t8 -4l154 -12q10 0 10 -11v-53
q0 -10 -10 -10h-443q-10 0 -10 10v53q0 11 10 11l168 16q4 0 8 6l473 1184q-95 18 -121 73.5t-26 87.5t16.5 62.5t61 65.5t130.5 35zM669 1047q-5 0 -10 -7l-180 -458q-6 -15 8 -15h347q16 0 10 15l-168 458q-2 7 -7 7zM719 1540q-45 0 -71.5 -29.5t-26.5 -72.5t26.5 -72
t71.5 -29t72.5 29t27.5 72t-27.5 72.5t-72.5 29.5zM985 1892q6 0 8 -6t-2 -10l-223 -231q-10 -9 -20 -9h-54q-6 0 -8 5.5t2 9.5l107 231q10 10 20 10h170z" />
    <glyph glyph-name="aringacute" unicode="&#x1fb;" horiz-adv-x="907" 
d="M877 31q0 -11 -9 -11l-270 -36q-10 0 -10 10l-17 96q-88 -81 -167.5 -100t-119.5 -19q-89 0 -156 59.5t-67 159.5q0 137 113 215.5t383 100.5v158q0 131 -64.5 145t-122.5 14t-124 -32q-6 -5 -10 -17l-29 -151q0 -9 -10 -9h-64q-10 0 -10 9v227q0 15 113.5 41.5
t203.5 26.5q289 0 289 -240v-553q0 -8 8 -12l129 -37q11 -2 11 -10v-35zM244 224q0 -56 33.5 -91t90.5 -35t111 22t63 30t12 10t3 6v260q-105 -6 -143.5 -18.5t-76.5 -25.5t-65.5 -57.5t-27.5 -100.5zM427 1317q132 0 171 -65.5t39 -115.5t-60.5 -99.5t-146.5 -49.5
q-87 0 -148 48t-61 116t62 117t144 49zM428 1253q-45 0 -71.5 -29.5t-26.5 -72.5t26.5 -71.5t71.5 -28.5t72.5 28.5t27.5 71.5t-27.5 72.5t-72.5 29.5zM532 1718h168q7 0 10 -6t-1 -10l-246 -322q-4 -4 -8 -4h-56q-6 0 -9 5t-1 10l127 315q3 12 16 12z" />
    <glyph glyph-name="AEacute" unicode="&#x1fc;" horiz-adv-x="1939" 
d="M12 0q-12 0 -12 10v53q0 11 8 11l168 16q4 0 8 6l785 1198l-109 11q-10 0 -10 10v53q0 10 10 10h948q11 0 11 -10v-321q0 -11 -11 -11h-75q-11 0 -11 8l-41 232q0 8 -10 8h-448q-11 0 -11 -10v-547q0 -10 11 -10h273q10 0 10 8l20 166q0 8 10 8h55q11 0 11 -10v-445
q0 -10 -11 -10h-55q-10 0 -10 8l-20 176q0 9 -10 9h-273q-11 0 -11 -11v-512q0 -10 11 -10h477q10 0 10 8l41 228q0 8 10 8h76q10 0 10 -10v-318q0 -10 -10 -10h-987q-10 0 -10 10v53q0 11 10 11l174 16q10 0 10 10v516q0 11 -10 11h-377q-4 0 -10 -6l-344 -521q-2 -6 2 -10
t8 -4l152 -12q12 0 12 -11v-53q0 -10 -10 -10h-445zM711 717h313q10 0 10 10v496q0 6 -5 7t-11 -9l-313 -490q-3 -6 -1 -10t7 -4zM1438 1772q6 0 9 -6t-3 -11l-262 -272q-5 -2 -11 -5t-10 -3h-61q-6 0 -8 5t2 9l145 272q8 11 20 11h179z" />
    <glyph glyph-name="aeacute" unicode="&#x1fd;" horiz-adv-x="1360" 
d="M629 115q-181 -144 -344 -144q-95 0 -160 59q-64 59 -64 160q0 142 102 214t257 96q51 8 125 16v148q0 159 -156 159q-77 0 -143 -32q-6 -5 -10 -17l-29 -151q0 -9 -10 -9h-64q-10 0 -10 9v227q-1 6 57 25q136 43 248 43q195 0 258 -115q119 115 265 115q145 0 234 -95
q45 -47 69 -117t24 -134q0 -63 -2 -85t-12 -22l-547 -19q8 -156 87 -258q78 -102 214 -102q104 0 209 66q8 6 12 -5l29 -49q4 -8 -6 -14q-171 -113 -324 -113q-88 0 -170 38t-139 106zM244 211q0 -43 34 -79t86 -36q53 0 105 20q76 30 76 44v274q-84 -5 -127 -20
q-44 -15 -68 -23q-24 -7 -44 -25t-34 -40t-21 -46q-7 -26 -7 -69zM774 741q-52 -86 -57 -215l377 19q4 122 -40 202t-136 80t-144 -86zM780 1378h168q6 0 8 -6t0 -10l-266 -354q-4 -4 -8 -4h-55q-5 0 -9 5t-2 9l148 348q6 12 16 12z" />
    <glyph glyph-name="Oslashacute" unicode="&#x1fe;" horiz-adv-x="1548" 
d="M1122 1133q-139 184 -362 184t-354 -167q-130 -167 -130 -415q0 -247 115 -428zM446 231q148 -168 368 -168q219 0 338 169q120 169 120 412t-96 411zM276 174q-198 202 -198 513t196 514q94 97 223 153q130 56 285 55q268 0 449 -156l108 125q8 8 15 2l55 -47
q6 -8 0 -14l-113 -129q174 -199 174 -502t-191 -510t-497 -207q-252 0 -438 144l-115 -131q-6 -7 -14 -2l-55 47q-6 8 0 14zM1055 1772q6 0 9 -6t-3 -11l-262 -272q-5 -2 -11 -5t-10 -3h-61q-7 0 -9 5t3 9l145 272q8 11 20 11h179z" />
    <glyph glyph-name="oslashacute" unicode="&#x1ff;" horiz-adv-x="1040" 
d="M885 760q90 -120 90 -322t-130 -335q-130 -132 -323 -132t-303 90l-88 -92q-6 -8 -14 0l-56 47q-4 2 -4 8t4 7l95 98q-90 118 -90 321t128 336q128 132 322 132t307 -93l90 97q9 8 15 2l51 -50q6 -8 0 -14zM305 720q-53 -88 -53 -222q0 -135 33 -234l430 449
q-72 116 -208 116t-202 -109zM736 167q52 88 52 221t-32 237l-428 -451q74 -115 209 -115t199 108zM616 1378h168q6 0 8 -6t0 -10l-266 -354q-4 -4 -8 -4h-55q-5 0 -9 5t-2 9l148 348q6 12 16 12z" />
    <glyph glyph-name="Scommaaccent" unicode="&#x218;" horiz-adv-x="985" 
d="M762 1030q-10 0 -10 8l-41 230q0 6 -9 10q-88 39 -192 39t-182 -59t-78 -160t73 -170q49 -46 160 -97l133 -61q156 -72 236 -156t80 -221q0 -206 -150 -314t-362 -108q-110 0 -222 25t-112 39v309q0 10 10 10h84q10 -3 10 -8l41 -231l9 -11q72 -36 199 -36t218 63t91 184
q0 168 -224 273l-135 63q-148 69 -220 141q-95 95 -95 224q0 130 78 228q131 166 372 165q155 0 318 -49q10 -2 10 -10v-310q0 -10 -10 -10h-80zM356 -119q51 41 115 17q101 -39 101 -149q0 -75 -61 -137t-146 -83q-7 0 -12 8l-19 37q-4 10 6 14q111 46 111 111q1 35 -21 57
t-71 23q-29 20 -29 51q0 30 26 51z" />
    <glyph glyph-name="scommaaccent" unicode="&#x219;" horiz-adv-x="735" 
d="M389 834q-108 0 -149 -73q-15 -27 -15 -59q0 -93 148 -153l86 -35q225 -92 225 -250q0 -137 -108 -215t-230 -78t-262 47q-10 2 -10 11v237q0 8 10 8h63q11 0 11 -8l32 -164q1 -4 9 -12q70 -33 145 -33q176 0 176 148q0 87 -90 130q-15 7 -55 25l-92 37q-217 87 -217 256
q0 121 100 193t219 72q118 0 231 -37q11 -2 11 -11v-231q0 -8 -11 -8h-63q-10 3 -10 8l-33 160q0 8 -8 12q-50 23 -113 23zM256 -118q44 42 108 17q101 -40 101 -146q0 -70 -58 -132t-143 -82q-7 0 -12 8l-19 35q-4 10 6 15q109 44 109 108q0 78 -90 78q-29 18 -29 46
q0 27 27 53z" />
    <glyph glyph-name="circumflex" unicode="&#x2c6;" 
d="M702 1004q-2 0 -6 4l-182 219h-4l-182 -219q-4 -4 -6 -4h-58q-6 0 -8 5t0 9l174 354q2 6 8 6h148q6 0 8 -6l174 -354q2 -4 0 -9t-8 -5h-58z" />
    <glyph glyph-name="caron" unicode="&#x2c7;" 
d="M264 1378h58q2 0 6 -4l182 -219h4l182 219q4 4 6 4h58q6 0 8 -5t0 -9l-174 -354q-2 -6 -8 -6h-148q-6 0 -8 6l-174 354q-2 4 0 9t8 5z" />
    <glyph glyph-name="breve" unicode="&#x2d8;" 
d="M801 1351v-10q-15 -157 -93 -245t-196 -88q-117 0 -193.5 84t-95.5 249v5q0 6 6 8l52 10q14 5 14 -6q25 -123 87 -166t130 -43t130 43t87 166q0 11 14 6l52 -10q6 -2 6 -3z" />
    <glyph glyph-name="dotaccent" unicode="&#x2d9;" 
d="M512 1255q43 0 73.5 -30.5t30.5 -62.5t-8 -51t-22.5 -32.5t-32.5 -21.5t-50.5 -8t-63.5 29t-31 61t8 51.5t30.5 42t65.5 22.5z" />
    <glyph glyph-name="ring" unicode="&#x2da;" 
d="M512 1366q43 0 81 -13.5t65.5 -36t45 -52t17.5 -64.5t-17.5 -64.5t-45 -52t-65.5 -35t-81 -12.5t-80 12.5t-65.5 35t-45 52t-16.5 64.5t16.5 64.5t45 52t65.5 36t80 13.5zM512 1303q-45 0 -71.5 -30t-26.5 -73t26.5 -71.5t71.5 -28.5t72.5 28.5t27.5 71.5t-27.5 73
t-72.5 30z" />
    <glyph glyph-name="ogonek" unicode="&#x2db;" 
d="M719 14q-262 -64 -262 -252q0 -54 34.5 -91.5t100.5 -37.5q20 0 40 7t25 -5l19 -45q6 -12 -26 -21t-59.5 -15.5t-69.5 -6.5q-90 0 -152 51.5t-62 147.5t92.5 174t245.5 117h74v-23z" />
    <glyph glyph-name="tilde" unicode="&#x2dc;" 
d="M496 1123q-75 46 -116 46q-42 0 -130 -73q-6 -6 -14 0l-35 41q-5 11 43.5 55.5t95 79.5t85.5 35q40 0 67.5 -14.5t80.5 -46.5t81 -32q52 0 141 74q8 6 14 0l35 -41q6 -12 -44 -57t-96 -79t-89 -34q-44 0 -119 46z" />
    <glyph glyph-name="hungarumlaut" unicode="&#x2dd;" 
d="M444 1378h168q6 0 9.5 -6t-0.5 -10l-267 -354q-4 -4 -8 -4h-55q-4 0 -8 5t-2 9l147 348q3 12 16 12zM733 1378h168q6 0 8 -6t0 -10l-266 -354q-4 -4 -8 -4h-55q-5 0 -9 5t-2 9l148 348q6 12 16 12z" />
    <glyph glyph-name="commaaccent" unicode="&#x326;" 
d="M428.5 -109.5q35.5 33.5 118 1t82.5 -138.5q0 -70 -58.5 -131.5t-142.5 -82.5q-7 0 -12 8l-19 35q-4 10 6 15q109 44 109 115t-90 71q-29 18 -29 46t35.5 61.5z" />
    <glyph glyph-name="tonos" unicode="&#x384;" horiz-adv-x="682" 
d="M367 1026h-58q-4 0 -8 4l-35 367q-1 16 8 16h109q17 0 16 -12l-22 -361q-1 -14 -10 -14z" />
    <glyph glyph-name="dieresistonos" unicode="&#x385;" horiz-adv-x="682" 
d="M568 1272q44 0 74 -30t30 -72t-30 -71.5t-74 -29.5t-72.5 29t-28.5 72t28.5 72.5t72.5 29.5zM112 1272q44 0 72.5 -29.5t28.5 -72.5t-28.5 -72t-72.5 -29t-74 29.5t-30 71.5t30 72t74 30zM365 1026h-58q-10 0 -10 12l-12 359q-1 16 8 16h88q17 0 16 -12l-22 -361
q-1 -14 -10 -14z" />
    <glyph glyph-name="Alphatonos" unicode="&#x386;" horiz-adv-x="1544" 
d="M750 1108q-6 0 -9 -6l-233 -522q-7 -15 8 -15h442q16 0 11 15l-211 522q-2 6 -8 6zM987 0q-11 0 -10 10v45q1 11 10 11l164 14q14 0 8 14l-145 381q-3 6 -8 6h-539q-4 0 -8 -12l-144 -374l6 -13l171 -16q10 -1 10 -11v-45q0 -10 -10 -10h-461q-11 0 -11 10v45q0 11 11 11
l174 26q2 0 8 14l555 1301q3 6 8 6h49q5 0 9 -6l514 -1317q3 -6 8 -6l164 -18q8 0 8 -11v-45q0 -10 -10 -10h-531zM391 1413h129q18 0 6 -16l-264 -367q-4 -4 -8 -4h-58q-17 0 -10 14l189 361q6 12 16 12z" />
    <glyph glyph-name="anoteleia" unicode="&#x387;" horiz-adv-x="444" 
d="M222 911q54 0 92 -37.5t38 -91.5t-37.5 -91.5t-92.5 -37.5q-54 1 -92 39t-38 92t38 90.5t92 36.5z" />
    <glyph glyph-name="Epsilontonos" unicode="&#x388;" horiz-adv-x="1537" 
d="M1406 1378q11 0 11 -10v-321q0 -11 -11 -11h-55q-10 0 -10 8l-62 232q0 8 -10 8h-489q-10 0 -10 -10v-506q0 -10 10 -10h295q10 0 10 8l41 166q0 8 10 8h43q10 0 10 -10v-445q0 -10 -10 -10h-43q-10 0 -10 8l-41 176q0 9 -10 9h-295q-10 0 -10 -11v-553q0 -10 10 -10h522
q10 0 10 8l56 228q0 8 10 8h57q10 0 10 -10v-318q0 -10 -10 -10h-1028q-10 0 -10 10v45q0 11 10 11l174 30q10 0 10 10v1176q-3 6 -10 6l-174 29q-10 0 -10 10v41l10 10h999zM201 1413h129q18 0 6 -16l-264 -367q-4 -4 -8 -4h-58q-17 0 -10 14l189 361q6 12 16 12z" />
    <glyph glyph-name="Etatonos" unicode="&#x389;" horiz-adv-x="2081" 
d="M576 1368q0 10 10 10h537q10 0 10 -10v-41q0 -10 -10 -10l-164 -29q-10 0 -10 -10v-496q0 -6 10 -6h661q10 0 10 6v496l-10 10l-162 29q-10 0 -10 10v41q0 10 10 10h537q10 0 10 -10v-41q0 -10 -10 -10l-174 -31q-10 0 -10 -10v-1174q0 -10 10 -10l174 -26q10 0 10 -11
v-45q0 -10 -10 -10h-537q-10 0 -10 10v45q0 11 10 11l162 28q10 0 10 10v568q0 10 -10 10h-661q-10 0 -10 -10v-570q0 -10 10 -10l164 -26q10 0 10 -11v-45q0 -10 -10 -10h-537q-10 0 -10 10v45q0 11 10 11l174 30q10 0 10 10v1170q0 10 -10 10l-174 31q-10 0 -10 10v41z
M291 1413h129q18 0 6 -16l-264 -367q-4 -4 -8 -4h-58q-17 0 -10 14l189 361q6 12 16 12z" />
    <glyph glyph-name="Iotatonos" unicode="&#x38a;" horiz-adv-x="1093" 
d="M459 1378h541q10 0 10 -10v-41q0 -10 -10 -10l-168 -27l-10 -10v-1175l10 -9l168 -30q10 0 10 -11v-45q0 -10 -10 -10h-541q-10 0 -10 10v45l10 11l174 30l7 10v1175l-7 9l-174 29l-10 10v39q0 10 10 10zM211 1413h129q18 0 6 -16l-264 -367q-4 -4 -8 -4h-58
q-17 0 -10 14l189 361q6 12 16 12z" />
    <glyph glyph-name="Omicrontonos" unicode="&#x38c;" horiz-adv-x="1749" 
d="M961 1316q-243 0 -375 -174t-131 -436q-1 -262 143 -452t373 -191q229 0 367 189q138 190 137 430q0 240 -125 421q-146 213 -389 213zM977 1409q308 0 503 -203q195 -202 195 -502q-1 -300 -203 -516t-510 -217q-308 0 -504 201t-196 508t204 518t511 211zM231 1413h129
q18 0 6 -16l-264 -367q-4 -4 -8 -4h-58q-17 0 -10 14l189 361q6 12 16 12z" />
    <glyph glyph-name="Upsilontonos" unicode="&#x38e;" horiz-adv-x="1635" 
d="M1247 10q0 -10 -8 -10h-559l-10 10v45l10 11l178 28l10 10v399q0 241 -72 457q-98 297 -286 297q-85 0 -148 -114l-12 -6l-31 16q21 98 83 176t159 78q217 0 307 -255q39 -111 84 -478l24 1q63 361 101 460q102 270 318 270q87 0 155 -75t64 -179l-31 -16l-12 6
q-65 119 -179 119t-200 -151q-144 -253 -144 -665v-335l11 -11l180 -32l8 -11v-45zM201 1413h129q18 0 6 -16l-264 -367q-4 -4 -8 -4h-58q-17 0 -10 14l189 361q6 12 16 12z" />
    <glyph glyph-name="Omegatonos" unicode="&#x38f;" horiz-adv-x="1756" 
d="M265 769q-1 283 189 465t476 182t472 -172t185 -472q0 -174 -125 -336t-293 -227l2 -56h356l11 8l41 169l10 8h55q10 0 10 -10v-318q0 -10 -10 -10h-574v256q152 68 236 208t84 325q0 240 -128 392t-334 152t-336 -150q-130 -151 -130 -373t81 -347t243 -207v-256h-574
q-10 0 -10 10v318q0 10 10 10h55l11 -8l43 -169l10 -8h354v56q-196 67 -308 215t-112 345zM201 1413h129q18 0 6 -16l-264 -367q-4 -4 -8 -4h-58q-17 0 -10 14l189 361q6 12 16 12z" />
    <glyph glyph-name="iotadieresistonos" unicode="&#x390;" horiz-adv-x="479" 
d="M283 281q0 -100 29 -144t116 -51l6 -8l15 -37l-9 -14l-208 -41q0 1 -19 6q-92 64 -92 256v338q0 40 -4 276l10 10l164 56l8 -15l-10 -137l-6 -135v-360zM450 1272q44 0 73 -30q30 -30 30 -72t-30 -72q-29 -30 -73 -29q-44 0 -73 29t-29 72q0 42 29 72t73 30zM-8 1272
q44 0 73 -30t29 -72q0 -43 -29 -72t-73 -29q-44 -1 -73 29q-30 30 -30 72t30 72q29 30 73 30zM246 1026h-58q-10 0 -10 12l-12 359q-1 16 8 16h88q17 0 16 -12l-22 -361q-1 -14 -10 -14zM232 -14h-1h1z" />
    <glyph glyph-name="Alpha" unicode="&#x391;" horiz-adv-x="1544" 
d="M750 1108q-6 0 -9 -6l-233 -522q-7 -15 8 -15h442q16 0 11 15l-211 522q-2 6 -8 6zM987 0q-11 0 -10 10v45q1 11 10 11l164 14q14 0 8 14l-145 381q-3 6 -8 6h-539q-4 0 -8 -12l-144 -374l6 -13l171 -16q10 -1 10 -11v-45q0 -10 -10 -10h-461q-11 0 -11 10v45q0 11 11 11
l174 26q2 0 8 14l555 1301q3 6 8 6h49q5 0 9 -6l514 -1317q3 -6 8 -6l164 -18q8 0 8 -11v-45q0 -10 -10 -10h-531z" />
    <glyph glyph-name="Beta" unicode="&#x392;" horiz-adv-x="1233" 
d="M522 776q365 0 365 264q0 162 -154 220q-65 24 -196 24h-78q-10 0 -10 -10v-488q0 -10 10 -10h63zM449 688v-584q0 -10 10 -10h129q368 0 368 277q0 171 -113 249t-294 78h-90q-10 0 -10 -10zM86 1378h477q251 0 359 -57q151 -81 151 -258q0 -208 -250 -305
q154 -33 246 -136q92 -102 92 -224t-65 -218q-124 -180 -486 -180h-524q-10 0 -10 10v45l10 11l174 26q10 0 10 10v1176q0 10 -10 10l-174 29l-10 10v41q0 10 10 10z" />
    <glyph glyph-name="Gamma" unicode="&#x393;" horiz-adv-x="1055" 
d="M1055 1047q0 -11 -11 -11h-55q-10 0 -10 8l-61 232q0 8 -11 8h-448q-10 0 -10 -10v-1168q0 -10 10 -10l174 -30q10 0 10 -11v-45q0 -10 -10 -10h-547q-10 0 -10 10v45q0 11 10 11l174 30q10 0 10 10v1176q-2 5 -6 6h-4l-174 29q-10 0 -10 10v41q0 10 8 10h960
q11 0 11 -10v-321z" />
    <glyph glyph-name="uni0394" unicode="&#x394;" horiz-adv-x="1225" 
d="M985 92q11 17 8 23q-160 408 -389 989h-24q-181 -423 -426 -993q-3 -6 10 -19h821zM616 1413h50q5 0 8 -6l543 -1395q-14 -12 -15 -12h-1182l-10 10l596 1397q3 6 10 6z" />
    <glyph glyph-name="Epsilon" unicode="&#x395;" horiz-adv-x="1217" 
d="M1085 1378q11 0 11 -10v-321q0 -11 -11 -11h-55q-10 0 -10 8l-62 232q0 8 -10 8h-489q-10 0 -10 -10v-506q0 -10 10 -10h295q10 0 10 8l41 166q0 8 10 8h43q10 0 10 -10v-445q0 -10 -10 -10h-43q-10 0 -10 8l-41 176q0 9 -10 9h-295q-10 0 -10 -11v-553q0 -10 10 -10h522
q10 0 10 8l56 228q0 8 10 8h57q10 0 10 -10v-318q0 -10 -10 -10h-1028q-10 0 -10 10v45q0 11 10 11l174 30q10 0 10 10v1176q-3 6 -10 6l-174 29q-10 0 -10 10v41l10 10h999z" />
    <glyph glyph-name="Zeta" unicode="&#x396;" horiz-adv-x="1249" 
d="M260 1284q-10 0 -10 -8l-57 -232q0 -8 -11 -8h-55q-10 0 -10 11v321q0 10 10 10h1001q5 0 9 -6l32 -55q2 -3 -2 -10l-866 -1213h727q10 0 10 8l58 232q0 8 10 8h55q10 0 10 -10v-322q0 -10 -10 -10h-1052q-6 0 -9 6l-26 55q-2 4 2 11l868 1212h-684z" />
    <glyph glyph-name="Eta" unicode="&#x397;" horiz-adv-x="1581" 
d="M76 1368q0 10 10 10h537q10 0 10 -10v-41q0 -10 -10 -10l-164 -29q-10 0 -10 -10v-496q0 -6 10 -6h661q10 0 10 6v496l-10 10l-162 29q-10 0 -10 10v41q0 10 10 10h537q10 0 10 -10v-41q0 -10 -10 -10l-174 -31q-10 0 -10 -10v-1174q0 -10 10 -10l174 -26q10 0 10 -11
v-45q0 -10 -10 -10h-537q-10 0 -10 10v45q0 11 10 11l162 28q10 0 10 10v568q0 10 -10 10h-661q-10 0 -10 -10v-570q0 -10 10 -10l164 -26q10 0 10 -11v-45q0 -10 -10 -10h-537q-10 0 -10 10v45q0 11 10 11l174 30q10 0 10 10v1170q0 10 -10 10l-174 31q-10 0 -10 10v41z
" />
    <glyph glyph-name="Theta" unicode="&#x398;" horiz-adv-x="1569" 
d="M1069 494l-8 -9h-43l-10 9l-33 141l-8 10h-371l-8 -8l-33 -143l-10 -9h-43l-8 9v432l8 8h43l10 -8l33 -129l8 -11h371l8 9l33 131l10 8h43l8 -8v-432zM784 1317q-246 0 -381 -175t-135 -438t143 -452t379 -189q236 1 372 189t136 430t-123 421q-145 214 -391 214z
M797.5 1409q307.5 0 502.5 -203q195 -202 195 -502q-1 -300 -203 -516t-510 -217q-308 0 -504 201t-196 508t204 518t511.5 211z" />
    <glyph glyph-name="Iota" unicode="&#x399;" horiz-adv-x="723" 
d="M86 1378h541q10 0 10 -10v-41q0 -10 -10 -10l-168 -27l-10 -10v-1175l10 -9l168 -30q10 0 10 -11v-45q0 -10 -10 -10h-541q-10 0 -10 10v45l10 11l174 30l7 10v1175l-7 9l-174 29l-10 10v39q0 10 10 10z" />
    <glyph glyph-name="Kappa" unicode="&#x39a;" horiz-adv-x="1436" 
d="M87 1368q0 10 10 10h498q10 0 10 -10v-43q0 -8 -8 -8l-140 -25l-8 -10v-571l548 576v8l-95 22q-10 0 -10 10v41q0 10 10 10h414q10 0 10 -10l1 -38l-11 -10l-210 -40l-417 -444q-5 -6 -2 -13l558 -729l181 -28q10 0 10 -11v-45q0 -10 -10 -10h-512q-8 0 -8 10v45
q0 10 8 11l98 8q20 1 9 16l-457 594q-6 8 -14 0l-99 -96q-2 -2 -2 -6v-486l8 -10l134 -20q8 0 8 -9v-47q0 -10 -10 -10h-492q-10 0 -10 10v45l10 11l162 30l9 10v1177l-9 9l-162 27l-10 10v39z" />
    <glyph glyph-name="Lambda" unicode="&#x39b;" horiz-adv-x="1544" 
d="M754 1108q-10 0 -13 -6q-264 -597 -428 -999l6 -12l173 -25q10 -2 10 -11v-45q0 -10 -10 -10h-461q-11 0 -11 10v45l11 11l168 26q5 0 8 6l561 1309q3 6 8 6h49q5 0 9 -6l509 -1307l9 -6l164 -28l8 -11v-45q0 -10 -11 -10h-526q-10 0 -10 10v45q0 11 10 11l160 22
q15 0 9 15q-213 542 -390 999q-2 6 -12 6z" />
    <glyph glyph-name="Mu" unicode="&#x39c;" horiz-adv-x="1849" 
d="M68 1378h413q6 0 8 -6l437 -1077l438 1077q2 6 8 6h408q10 0 10 -10v-41l-10 -10l-174 -31l-11 -10v-1178l11 -4l184 -28q10 0 10 -11v-45q0 -10 -10 -10h-576q-10 0 -10 10v45q0 9 10 11l193 31l10 10v1130h-8l-506 -1251q-1 -4 -10 -4h-21q-8 0 -10 4l-506 1237h-8
v-1120l10 -7l170 -30q11 0 11 -11v-45q0 -10 -11 -10h-469q-10 0 -10 10v45l10 11l183 30l10 10v1169l-10 14l-174 30l-11 10v39q0 10 11 10z" />
    <glyph glyph-name="Nu" unicode="&#x39d;" horiz-adv-x="1534" 
d="M49 1368q0 10 10 10h340q5 -1 9 -4l800 -1046v942l-10 10l-170 29l-10 10v49q0 10 10 10h447q10 0 10 -10v-49l-10 -10l-154 -25l-10 -10v-1280q0 -10 -13 -10h-38q-5 0 -11 6l-903 1169v-1048l8 -23l156 -22q10 0 10 -11v-45q0 -10 -10 -10h-432q-10 0 -10 10v45l10 11
l145 22l11 10v1173l-10 9l-165 29l-10 10v49z" />
    <glyph glyph-name="Xi" unicode="&#x39e;" horiz-adv-x="1202" 
d="M907 514q0 -8 -8 -8h-37q-10 0 -10 8l-33 129l-8 8h-421l-8 -8l-31 -129q0 -8 -10 -8h-37q-8 0 -8 8v403q0 9 8 9h41q10 0 10 -9l29 -116l8 -9h421l8 9l26 116q0 9 11 9h41q8 0 8 -9v-403zM1114 379q11 0 11 -10v-359q0 -10 -11 -10h-1030q-6 6 -6 10v359q0 10 10 10h55
l10 -8l50 -207l10 -8h776l11 8l49 207l10 8h55zM115 1001q-10 0 -10 11v358q0 2 6 8h977q10 0 10 -8v-358q0 -11 -10 -11h-51l-11 9l-51 209l-10 8h-727l-10 -8l-51 -209l-10 -9h-52z" />
    <glyph glyph-name="Omicron" unicode="&#x39f;" horiz-adv-x="1569" 
d="M781 1316q-243 0 -375 -174t-131 -436q-1 -262 143 -452t373 -191q229 0 367 189q138 190 137 430q0 240 -125 421q-146 213 -389 213zM797.5 1409q307.5 0 502.5 -203q195 -202 195 -502q-1 -300 -203 -516t-510 -217q-308 0 -504 201t-196 508t204 518t511.5 211z" />
    <glyph glyph-name="Pi" unicode="&#x3a0;" horiz-adv-x="1556" 
d="M1469 10q0 -10 -11 -10h-536q-10 0 -10 10v45l10 11l164 30l10 10v1178l-14 10h-635q-6 0 -10 -12v-1163l10 -23l164 -30l10 -11v-45q0 -10 -10 -10h-537q-10 0 -10 10v45l10 11l174 32l10 11v1166l-10 8l-174 34q-10 0 -10 10v41q0 10 10 10h1384q11 0 11 -10v-41
q0 -10 -11 -10l-173 -35l-10 -10v-1153l9 -21l174 -32l11 -11v-45z" />
    <glyph glyph-name="Rho" unicode="&#x3a1;" horiz-adv-x="1208" 
d="M598 1378q196 0 296 -34q253 -86 253 -357q0 -181 -153 -289t-343 -112l-198 35v-519q0 -9 10 -10l194 -26q11 -1 11 -11v-45q0 -10 -11 -10h-571q-10 0 -10 10v45q0 11 10 11l174 26q10 0 10 10v1174q0 10 -10 10l-174 31q-10 0 -10 10v41q0 10 10 10h512zM944 999
q0 285 -381 285h-100q-10 0 -10 -10v-582q0 -10 10 -10h119q362 0 362 317z" />
    <glyph glyph-name="Sigma" unicode="&#x3a3;" horiz-adv-x="1151" 
d="M1099 10q0 -10 -10 -10h-1038q-10 0 -10 10v27l2 6l495 638l-487 658v29q0 10 10 10h990q10 0 10 -10v-321q0 -11 -10 -11h-56q-10 0 -10 8l-61 232q0 8 -11 8h-579q-16 0 -8 -10l374 -525l-448 -581q-4 -5 14 -12h694q12 0 12 8l47 207q0 8 10 8h60q10 0 10 -10v-359z
" />
    <glyph glyph-name="Tau" unicode="&#x3a4;" horiz-adv-x="1235" 
d="M51 1378h1133q10 0 10 -10v-321q0 -11 -10 -11h-56l-10 8l-61 232q0 8 -10 8h-332q-8 0 -8 -10v-1157l10 -17l194 -34l11 -11v-45q0 -10 -11 -10h-587q-11 0 -11 10v45l11 11l194 34l10 11v1163q0 10 -8 10h-332q-10 0 -10 -8l-59 -232l-10 -8h-58q-10 0 -10 11v321
q0 10 10 10z" />
    <glyph glyph-name="Upsilon" unicode="&#x3a5;" horiz-adv-x="1333" 
d="M946 10q0 -10 -8 -10h-559l-10 10v45l10 11l178 28l10 10v399q0 241 -72 457q-98 297 -286 297q-85 0 -148 -114l-12 -6l-31 16q20 98 82 176t160 78q217 0 307 -255q39 -111 84 -478l24 1q63 361 101 460q102 270 318 270q87 0 155 -75t64 -179l-31 -16l-12 6
q-65 119 -179 119t-200 -151q-144 -253 -144 -665v-335l11 -11l180 -32l8 -11v-45z" />
    <glyph glyph-name="Phi" unicode="&#x3a6;" horiz-adv-x="1536" 
d="M684 1135q-174 0 -289.5 -114.5t-115.5 -304.5q1 -190 117 -307q116 -118 288 -118v844zM842 291q171 1 288 121t117 316t-116 301q-116 106 -289 106v-844zM1444 730q0 -240 -215 -385q-181 -122 -387 -122v-141l10 -10l209 -27q10 0 10 -10v-45q0 -10 -10 -10h-596
q-10 0 -10 10v45q0 10 10 10l209 25l10 10v143q-234 0 -407 121q-195 136 -195 368t197 369q171 119 407 119v109l-12 10l-209 29q-10 0 -10 10v41q0 10 10 10h596q10 0 10 -10v-41q0 -10 -10 -10l-209 -29l-10 -10v-109q246 0 408 -104q194 -126 194 -366z" />
    <glyph glyph-name="Chi" unicode="&#x3a7;" horiz-adv-x="1335" 
d="M584 1378q10 0 10 -10v-39q0 -10 -10 -10l-148 -27q-6 0 -8 -6t0 -10l274 -447l312 447q2 2 2 5q0 11 -10 11l-142 27q-10 0 -10 10v39q0 10 10 10h436q11 0 11 -10v-39q0 -10 -11 -10l-153 -29q-5 -1 -8 -4l-381 -547l397 -645q4 -4 8 -4l174 -24q11 0 11 -11v-45
q0 -10 -11 -10h-553q-10 0 -10 10v45q0 10 10 11l148 20q13 0 8 16l-301 486l-336 -486q-4 -6 -1 -11t9 -5l142 -20q10 -1 10 -11v-45q0 -10 -10 -10h-437q-10 0 -10 10v45q0 11 10 11l154 22q5 1 8 4l406 586l-371 606q-4 4 -8 4l-174 31q-11 0 -11 10v39q0 10 11 10h553z
" />
    <glyph glyph-name="Psi" unicode="&#x3a8;" horiz-adv-x="1786" 
d="M1592 1210q0 -200 -30 -397t-209 -300q-150 -87 -368 -87v-320q0 -10 10 -10l174 -30q11 0 11 -11v-45q0 -10 -11 -10h-551q-10 0 -10 10v45q0 11 10 11l175 30q10 0 10 10v320q-216 0 -368 87q-181 105 -211 301t-30 396q0 20 -1 66l-10 11l-134 28q-10 0 -10 2v51
q0 10 10 10h294l24 -24q-2 -99 9 -375q21 -481 427 -481v776q0 10 -10 10l-175 29q-10 0 -10 10v45q0 10 10 10h551q11 0 11 -10v-43q0 -10 -11 -10l-176 -27l-10 -10v-780q406 0 427 481l9 245q2 42 0 130l21 24h297q10 0 10 -10v-45l-10 -10l-133 -24l-10 -10
q-2 -49 -2 -69z" />
    <glyph glyph-name="uni03A9" unicode="&#x3a9;" horiz-adv-x="1679" 
d="M165 769q-1 283 189 465t476 182t472 -172t185 -472q0 -174 -125 -336t-293 -227l2 -56h356l11 8l41 169l10 8h55q10 0 10 -10v-318q0 -10 -10 -10h-574v256q153 69 236.5 208.5t83.5 324.5q0 240 -128.5 392t-333.5 152t-335.5 -150.5t-130.5 -372.5t81 -347t243 -207
v-256h-574q-10 0 -10 10v318q0 10 10 10h55l11 -8l43 -169l10 -8h354v56q-196 67 -308 214.5t-112 345.5z" />
    <glyph glyph-name="Iotadieresis" unicode="&#x3aa;" horiz-adv-x="723" 
d="M86 1378h541q10 0 10 -10v-41q0 -10 -10 -10l-168 -27l-10 -10v-1175l10 -9l168 -30q10 0 10 -11v-45q0 -10 -10 -10h-541q-10 0 -10 10v45l10 11l174 30l7 10v1175l-7 9l-174 29l-10 10v39q0 10 10 10zM121 1683q43 -1 73 -31t31 -62q0 -32 -8 -51q-9 -19 -23 -33
t-32 -21q-18 -8 -41 -8q-42 0 -73 29t-31 61q0 31 8 51q9 20 23 34q30 30 73 31zM595 1683q43 -1 73 -31t31 -62q0 -32 -8 -51q-9 -19 -23 -33t-32 -21q-18 -8 -41 -8q-42 0 -73 29t-31 61q0 31 8 51q9 20 23 34q30 30 73 31z" />
    <glyph glyph-name="Upsilondieresis" unicode="&#x3ab;" horiz-adv-x="1333" 
d="M946 10q0 -10 -8 -10h-559l-10 10v45l10 11l178 28l10 10v399q0 241 -72 457q-98 297 -286 297q-85 0 -148 -114l-12 -6l-31 16q20 98 82 176t160 78q217 0 307 -255q39 -111 84 -478l24 1q63 361 101 460q102 270 318 270q87 0 155 -75t64 -179l-31 -16l-12 6
q-65 119 -179 119t-200 -151q-144 -253 -144 -665v-335l11 -11l180 -32l8 -11v-45zM432 1683q44 -1 74 -31t30 -62t-8 -51t-22 -33t-33 -21q-18 -8 -41 -8q-42 0 -73 29t-31 61q0 31 8 51t22 34q30 30 74 31zM882 1683q44 -1 74 -31t30 -62t-8 -51t-22 -33t-33 -21
q-18 -8 -41 -8q-42 0 -73 29t-31 61q0 31 8 51t22 34q30 30 74 31z" />
    <glyph glyph-name="alphatonos" unicode="&#x3ac;" horiz-adv-x="1247" 
d="M520 836q-118 0 -192 -120t-74 -290t74 -272t172 -101q98 -1 180 83t129 245q-25 154 -85 278q-86 177 -204 177zM492 -31q-172 -1 -294 127t-122 338t130 347t312 137q105 0 199 -53q131 -72 186 -226q1 -3 8 0l90 254l10 10l126 8l9 -14l-184 -446l41 -129
q22 -71 68 -179q51 -75 156 -86q7 0 10 -4l20 -43q6 -12 -4 -14l-205 -35h-8q-103 11 -182 264q-3 2 -8 0q-62 -125 -158 -191t-200 -65zM692 1413h129q18 0 6 -16l-264 -367q-4 -4 -8 -4h-58q-17 0 -10 14l189 361q6 12 16 12z" />
    <glyph glyph-name="epsilontonos" unicode="&#x3ad;" horiz-adv-x="824" 
d="M457 442q-200 0 -200 -194q-1 -81 53 -140t168 -59t261 80l15 -8l14 -51q-1 -5 -6 -13q-128 -88 -305 -88q-177 1 -282 65t-105 195q0 206 262 252q-122 32 -136 39q-98 52 -98 170t127 181q95 47 207 47q169 0 297 -74l8 -15q-12 -32 -30 -161q-4 -1 -9 -4l-45 4
q-1 3 -4 10q0 158 -217 158q-86 0 -133 -44t-47 -107q0 -155 203 -155l149 2l12 -12q-3 -29 -12 -74l-10 -10q-98 6 -137 6zM540 1413h129q18 0 6 -16l-264 -367q-4 -4 -8 -4h-58q-17 0 -10 14l189 361q6 12 16 12z" />
    <glyph glyph-name="etatonos" unicode="&#x3ae;" horiz-adv-x="1081" 
d="M193 616q0 98 -22 136q-30 55 -120 55l-6 8l-14 39l8 14l205 41q4 -1 30 -13t68 -112q34 28 140 104q74 30 184 30t192 -78t82 -219v-1059l-10 -11l-168 -55l-10 15q20 290 20 272v778q0 246 -172 246q-132 0 -247 -120l-1 -413l4 -127q4 -51 9 -137l-11 -10h-164l-10 14
q8 117 8 136l5 137v329zM713 1413h129q18 0 6 -16l-264 -367q-4 -4 -8 -4h-58q-17 0 -10 14l189 361q6 12 16 12z" />
    <glyph glyph-name="iotatonos" unicode="&#x3af;" horiz-adv-x="479" 
d="M283 281q0 -100 29 -144t116 -51l6 -8l15 -37l-9 -14l-208 -41q0 1 -19 6q-92 64 -92 256v338q0 40 -4 276l10 10l164 56l8 -15l-10 -137l-6 -135v-360zM367 1413h129q18 0 6 -16l-264 -367q-4 -4 -8 -4h-58q-17 0 -10 14l189 361q6 12 16 12zM232 -14h-1h1z" />
    <glyph glyph-name="upsilondieresistonos" unicode="&#x3b0;" horiz-adv-x="1092" 
d="M834 932q79 0 127 -123q36 -95 36 -188q0 -237 -153 -445t-367 -207q-115 1 -190 69t-74 187l2 391q1 100 -29 144t-116 51l-7 8l-14 37l8 14l209 41q4 -1 19 -6q92 -64 92 -223v-385q0 -195 192 -195q140 0 220 122t80 304q0 181 -114 280q-20 18 -69 52v21
q111 51 148 51zM778 1272q44 0 73 -30q30 -30 30 -72t-30 -72q-29 -30 -73 -29q-44 0 -73 29t-29 72q0 42 29 72t73 30zM320 1272q44 0 73 -30t29 -72q0 -43 -29 -72t-73 -29q-44 -1 -73 29q-30 30 -30 72t30 72q29 30 73 30zM574 1026h-58q-10 0 -10 12l-12 359q-1 16 8 16
h88q17 0 16 -12l-22 -361q-1 -14 -10 -14z" />
    <glyph glyph-name="alpha" unicode="&#x3b1;" horiz-adv-x="1247" 
d="M520 836q-118 0 -192 -120t-74 -290t74 -272t172 -101q98 -1 180 83t129 245q-25 154 -85 278q-86 177 -204 177zM492 -31q-172 -1 -294 127t-122 338t130 347t312 137q105 0 199 -53q131 -72 186 -226q1 -3 8 0l90 254l10 10l126 8l9 -14l-184 -446l41 -129
q22 -71 68 -179q51 -75 156 -86q7 0 10 -4l20 -43q6 -12 -4 -14l-205 -35h-8q-103 11 -182 264q-3 2 -8 0q-62 -125 -158 -191t-200 -65z" />
    <glyph glyph-name="beta" unicode="&#x3b2;" horiz-adv-x="993" 
d="M545 1423q137 -1 223 -85t86 -208t-80.5 -208.5t-204.5 -102.5q149 0 259 -108t110 -292t-126 -317t-289 -133q-162 0 -257 82v-405q2 -26 4 -86l-10 -11l-172 -53l-8 15l8 104l8 168l2 1010q0 286 101 448q113 182 346 182zM522 53q114 -1 176 103t62 250
q0 350 -281 350q-52 0 -106 -6l-11 10l3 69l14 17l78 4q89 0 157 69t68 185t-39 176.5t-108 60.5q-168 0 -230 -199q-39 -122 -39 -351v-594q30 -61 104.5 -102.5t151.5 -41.5z" />
    <glyph glyph-name="gamma" unicode="&#x3b3;" horiz-adv-x="999" 
d="M431 14q0 115 -48 224q-145 394 -217 499q-55 79 -133 72q-6 -1 -8 4l-15 45q-4 13 4 14l207 37q7 1 10 0q67 -16 158 -231q129 -302 178 -514q3 1 6 0l197 471q65 156 96 258l111 18l12 -22q-59 -122 -170 -365q-75 -177 -150 -348t-84 -197l-89 -466l-13 -13l-179 -44
l-8 12q135 478 135 546z" />
    <glyph glyph-name="delta" unicode="&#x3b4;" horiz-adv-x="1059" 
d="M784 418q0 96 -62 202t-167 166q-143 -12 -217 -119t-74 -252t72 -253t192 -109q120 0 188 101t68 264zM965 424q0 -189 -130 -322t-328 -133t-312 128t-114 299q-1 170 109 304t294 156q-120 78 -170 131q-80 86 -80 191t94 175t222 70q130 0 261 -78q7 -6 3 -28
t-28 -138l-11 -10l-41 5q0 5 -2 14q-42 151 -192 151q-72 0 -115 -40t-43 -97q0 -84 151 -201q238 -185 280 -229q152 -159 152 -348z" />
    <glyph glyph-name="epsilon" unicode="&#x3b5;" horiz-adv-x="824" 
d="M457 442q-200 0 -200 -194q-1 -81 53 -140t168 -59t261 80l15 -8l14 -51q-1 -5 -6 -13q-128 -88 -305 -88q-177 1 -282 65t-105 195q0 206 262 252q-122 32 -136 39q-98 52 -98 170t127 181q95 47 207 47q169 0 297 -74l8 -15q-12 -32 -30 -161q-4 -1 -9 -4l-45 4
q-1 3 -4 10q0 158 -217 158q-86 0 -133 -44t-47 -107q0 -155 203 -155l149 2l12 -12q-3 -29 -12 -74l-10 -10q-98 6 -137 6z" />
    <glyph glyph-name="zeta" unicode="&#x3b6;" horiz-adv-x="981" 
d="M664 1321q-214 3 -517 -12q-11 66 -30 121l12 16q155 -27 431 -27t368 4q13 -79 18 -86l-10 -18q-94 0 -162 -32t-147 -107q-157 -148 -243 -358t-85 -431q0 -329 294 -329q145 0 186 -9q60 -15 60 -67q0 -78 -122 -195t-196 -136l-142 73l20 48q147 -21 271 79
q64 51 64 86t-66 38q40 -2 -149 -2q-402 0 -402 412q0 275 151 513t396 419z" />
    <glyph glyph-name="eta" unicode="&#x3b7;" horiz-adv-x="1081" 
d="M193 616q0 98 -22 136q-30 55 -120 55l-6 8l-14 39l8 14l205 41q4 -1 30 -13t68 -112q34 28 140 104q74 30 184 30t192 -78t82 -219v-1059l-10 -11l-168 -55l-10 15q20 290 20 272v778q0 246 -172 246q-132 0 -247 -120l-1 -413l4 -127q4 -51 9 -137l-11 -10h-164l-10 14
q8 117 8 136l5 137v329z" />
    <glyph glyph-name="theta" unicode="&#x3b8;" horiz-adv-x="1020" 
d="M776 692h-532q0 -228 24 -348q60 -293 238 -293q192 0 244 283q26 145 26 358zM776 774q0 232 -29 349q-54 218 -212 218q-291 0 -291 -567h532zM954 742q0 -272 -97 -490q-127 -283 -361 -283t-346 236q-84 179 -84 453t95 485q126 280 382 280q226 0 332 -235
q79 -174 79 -446z" />
    <glyph glyph-name="iota" unicode="&#x3b9;" horiz-adv-x="479" 
d="M283 281q0 -100 29 -144t116 -51l6 -8l15 -37l-9 -14l-208 -41q0 1 -19 6q-92 64 -92 256v338q0 40 -4 276l10 10l164 56l8 -15l-10 -137l-6 -135v-360zM232 -14h-1h1z" />
    <glyph glyph-name="kappa" unicode="&#x3ba;" horiz-adv-x="1087" 
d="M197 285v328q0 194 -146 194l-6 8l-14 37l8 14l213 43q4 -1 18 -6q40 -29 64 -93t24 -122v-170l18 1l179 171q77 72 183 150t156 78t87 -34l-16 -181h-38q-21 85 -78 85t-163 -101l-142 -136q-3 -3 7 -14q97 -138 299 -381q65 -66 162 -66q6 0 10 -4l25 -41q7 -12 0 -14
l-201 -56h-10q-48 0 -154 125q-105 139 -285 361q-3 3 -39 0v-187l4 -129q3 -51 7 -137l-11 -8h-168l-10 12q5 54 11 174t6 99z" />
    <glyph glyph-name="lambda" unicode="&#x3bb;" horiz-adv-x="988" 
d="M176 1292q-22 0 -129 -24q-7 -2 -12 4l-23 41q-5 9 2 12l195 94q8 4 41 4q84 0 146 -72t93 -153l330 -883q41 -108 170 -306q3 0 -10 -9l-166 -1q-5 1 -16 5q-45 33 -121 234l-203 528q-200 -479 -309 -766l-115 -10l-18 26q93 152 201 407t199 480l-79 195
q-79 194 -176 194z" />
    <glyph glyph-name="uni03BC" unicode="&#x3bc;" horiz-adv-x="1098" 
d="M930 281q0 -100 30 -144t117 -51l6 -8l15 -37l-8 -14l-208 -41q0 1 -20 6q-66 46 -87 131q-101 -146 -261 -146t-231 131q-8 -6 -11 -2q0 -466 35 -620l-14 -23q-55 -8 -133 -12l-19 14q19 774 19 734v417q0 206 -51 270l9 14q187 2 184 0q10 0 16 -13l5 -230l-1 -307
q-1 -246 217 -246q132 0 229 107v467l-8 217l10 10l166 2l8 -12l-8 -90l-6 -135v-389zM882 -14h-1h1z" />
    <glyph glyph-name="nu" unicode="&#x3bd;" horiz-adv-x="999" 
d="M500 -23q-12 48 -219 541q-52 128 -111 212t-137 77q-6 -1 -8 4l-15 45q-4 13 4 14l207 37q7 1 10 0q66 -16 146 -207q134 -322 194 -536l197 469l94 260l111 18l12 -22q-48 -97 -147 -316l-242 -563q-4 -9 -16 -33h-80z" />
    <glyph glyph-name="xi" unicode="&#x3be;" horiz-adv-x="968" 
d="M755 -63q0 44 -138 37q-83 -5 -69 -5q-201 0 -316.5 111.5t-115.5 312.5q0 317 334 423q-100 12 -172 72t-72 162t55.5 172t145.5 92q-5 6 -2 12q-248 -14 -342 -21q-12 70 -31 123l13 16q154 -27 565 -27h252q10 -63 25 -105l-10 -19q-113 24 -237 24q-273 0 -273 -225
q0 -102 59 -168t181 -65l129 -1l16 -16l-2 -85l-10 -10q-51 12 -95 12q-158 -1 -249 -83t-91 -239q0 -379 313 -379q143 0 184 -10q58 -15 58 -67q0 -78 -122 -195t-196 -136l-142 73l20 48q147 -21 271 79q64 51 64 87z" />
    <glyph glyph-name="omicron" unicode="&#x3bf;" horiz-adv-x="1123" 
d="M541 834q-132 0 -207 -114t-75 -274t71 -268q84 -129 252 -129q132 0 208 116t75 274q0 159 -80 277t-244 118zM568 918q222 0 350.5 -120t128.5 -330t-143.5 -354.5t-355.5 -144.5q-212 -1 -342 133t-130 324t135 340q135 152 357 152z" />
    <glyph glyph-name="uni03C0" unicode="&#x3c0;" horiz-adv-x="1233" 
d="M873 342q0 -153 45 -209q32 -39 118 -39l9 -8l4 -43l-6 -11l-200 -47q-2 0 -15 2q-42 24 -72 87t-30 141q0 200 79 570q-104 0 -342 -2q-27 -342 -33 -773l-131 -49l-29 21q32 154 57 376t48 423h-31q-23 1 -30 1q-176 0 -200 -104l-5 -3l-49 1q1 31 10 102q16 73 44 102
t89 29h330q268 -1 280 -1q252 0 371 21l10 -19q-17 -47 -31 -129q-127 9 -260 4q-30 -290 -30 -443z" />
    <glyph glyph-name="rho" unicode="&#x3c1;" horiz-adv-x="1069" 
d="M512 833q-252 0 -252 -362v-238q32 -80 109 -129.5t179 -49.5t182 96q82 96 82 276q0 178 -82 292t-218 115zM96 438q0 224 124 352t334 128q208 0 324 -127t115 -345q0 -218 -138 -350t-311 -132t-284 114v-324l2 -108q5 -29 10 -92l-10 -11l-174 -47l-8 15l10 137
l6 125v665z" />
    <glyph glyph-name="sigma1" unicode="&#x3c2;" horiz-adv-x="936" 
d="M698 -63q0 44 -140 37q-82 -5 -68 -5q-196 0 -316 117t-119 326q1 210 135 360t340 150t326 -72q9 -5 8 -10l-41 -224q-2 -10 -12 -8l-39 8q-10 2 -8 11q-1 97 -67.5 154t-172.5 57q-134 0 -212 -118t-78 -279t71 -262q85 -121 242 -121t198 -10q58 -15 58 -67
q0 -78 -122 -195t-196 -136l-142 73l20 48q147 -21 271 79q64 51 64 87z" />
    <glyph glyph-name="sigma" unicode="&#x3c3;" horiz-adv-x="1196" 
d="M817 406q0 299 -111 391h-180q-288 0 -288 -330q0 -172 80 -294t223 -122q142 1 209 105t67 250zM1006 464q0 -225 -138 -360t-350 -135t-336 129t-125 340q-1 145 83 269t222 169.5t370 43.5t446 34l10 -18q-11 -29 -30 -148q-338 24 -350 13q198 -112 198 -337z" />
    <glyph glyph-name="tau" unicode="&#x3c4;" horiz-adv-x="869" 
d="M184 909q62 1 134 -1q71 -2 120 -3q245 -3 451 33l10 -18q-15 -41 -31 -138q-162 12 -342 2q-30 -281 -30 -440t38 -206t125 -47l9 -8l4 -43l-6 -11l-206 -42q-5 1 -16 2q-94 55 -94 237t79 558q-82 -2 -134 -2q-177 -1 -201 -104l-5 -3l-49 1q6 60 10 102q16 73 44 102
t90 29z" />
    <glyph glyph-name="upsilon" unicode="&#x3c5;" horiz-adv-x="1092" 
d="M834 932q79 0 127 -123q36 -95 36 -188q0 -237 -153 -445t-367 -207q-115 1 -190 69t-74 187l2 391q1 100 -29 144t-116 51l-7 8l-14 37l8 14l209 41q4 -1 19 -6q92 -64 92 -223v-385q0 -195 192 -195q140 0 220 122t80 304q0 181 -114 280q-20 18 -69 52v21
q111 51 148 51z" />
    <glyph glyph-name="phi" unicode="&#x3c6;" horiz-adv-x="1340" 
d="M55 385q0 173 109 319t316 212q10 3 16 -4l34 -37l-6 -12q-140 -57 -216 -187t-76 -272q0 -144 91 -248t246 -103v387q0 478 321 478q158 0 276 -111t118 -321t-133 -353q-152 -164 -430 -164v-143l12 -281l-10 -10l-160 -39l-8 15q11 161 12 241l2 217q-250 -1 -382 121
t-132 295zM1096 477q0 177 -59 269t-153 91.5t-129 -88.5t-35 -272l1 -424q375 0 375 424z" />
    <glyph glyph-name="chi" unicode="&#x3c7;" horiz-adv-x="1067" 
d="M950 -266q6 0 8 -4l15 -45q4 -13 -4 -15l-207 -37h-10q-95 24 -156 205l-94 287q-244 -382 -312 -498l-116 6l-13 29q277 359 410 559q-160 474 -204 532t-138 58q-6 0 -8 4l-15 45q-4 13 5 14l206 37q7 1 11 0q78 -19 145 -206q31 -81 111 -310q98 154 296 536l99 -16
l12 -23q-154 -247 -377 -593q40 -128 134 -389q41 -100 83 -138t119 -38z" />
    <glyph glyph-name="psi" unicode="&#x3c8;" horiz-adv-x="1221" 
d="M1151 650q0 -194 -100 -364q-118 -200 -335 -281v-37q0 -68 23 -484l-121 -57l-28 18q28 213 28 524v10q-65 -12 -115 -12q-305 0 -304 266v395q0 98 -28 137t-116 46l-7 9l-14 36l8 15l208 41q0 -1 20 -6q92 -66 92 -254v-347q0 -113 60 -159t196 -51v917q0 142 -28 374
l112 41l23 -16q-8 -279 -8 -399l-1 -907q132 39 224 182t92 296q0 194 -151 273v21q126 58 143 53q59 -17 93 -94t34 -186zM250 912h1h-1z" />
    <glyph glyph-name="omega" unicode="&#x3c9;" horiz-adv-x="1532" 
d="M1040 51q100 1 166 95t65 220q0 243 -105 368q-88 106 -226 106l-11 4l-6 63l10 11q249 0 392 -162q126 -142 126 -338q-1 -196 -103 -322t-280 -127q-178 0 -298 170q-16 2 -17 2q-116 -172 -292 -172q-176 1 -278 121t-102 312t130 343q146 173 388 173l10 -11l-6 -63
l-10 -4q-130 0 -220 -101q-112 -124 -112 -363q-1 -127 65 -226t166 -99q67 0 118.5 48.5t65.5 108.5t15 98q0 38 -11 183l10 15h148l11 -15l-11 -137q0 -83 14 -143t67.5 -109t120.5 -49z" />
    <glyph glyph-name="iotadieresis" unicode="&#x3ca;" horiz-adv-x="479" 
d="M283 281q0 -100 29 -144t116 -51l6 -8l15 -37l-9 -14l-208 -41q0 1 -19 6q-92 64 -92 256v338q0 40 -4 276l10 10l164 56l8 -15l-10 -137l-6 -135v-360zM116 1240q29 -31 29 -62q1 -50 -29 -80t-63 -29q-55 0 -84 30t-29 60q0 31 8 49t22 32q27 30 72 31q45 0 74 -31z
M473 1239q29 -32 29 -61q0 -48 -29 -79q-29 -30 -62 -30q-55 -1 -85 29t-29 60q0 30 8 50q7 18 21 32q28 30 74 31q44 0 73 -32zM232 -14h-1h1z" />
    <glyph glyph-name="upsilondieresis" unicode="&#x3cb;" horiz-adv-x="1092" 
d="M834 932q79 0 127 -123q36 -95 36 -188q0 -237 -153 -445t-367 -207q-115 1 -190 69t-74 187l2 391q1 100 -29 144t-116 51l-7 8l-14 37l8 14l209 41q4 -1 19 -6q92 -64 92 -223v-385q0 -195 192 -195q140 0 220 122t80 304q0 181 -114 280q-20 18 -69 52v21
q111 51 148 51zM309 1275q43 -1 73 -31t31 -62q0 -32 -8 -51q-9 -19 -23 -33t-32 -21q-18 -8 -41 -8q-42 0 -73 29t-31 61q0 31 8 51q9 20 23 34q30 30 73 31zM768 1275q44 -1 74 -31t30 -62t-8 -51t-22 -33t-33 -21q-18 -8 -41 -8q-42 0 -73 29t-31 61q0 31 8 51t22 34
q30 30 74 31z" />
    <glyph glyph-name="omicrontonos" unicode="&#x3cc;" horiz-adv-x="1123" 
d="M541 834q-132 0 -207 -114t-75 -274t71 -268q84 -129 252 -129q132 0 208 116t75 274q0 159 -80 277t-244 118zM568 918q222 0 350 -120t129 -330q0 -210 -143 -354q-144 -144 -356 -145t-342 133t-130 324t135 340q135 152 357 152zM680 1413h129q18 0 6 -16l-264 -367
q-4 -4 -8 -4h-58q-17 0 -10 14l189 361q6 12 16 12z" />
    <glyph glyph-name="upsilontonos" unicode="&#x3cd;" horiz-adv-x="1092" 
d="M834 932q79 0 127 -123q36 -95 36 -188q0 -237 -153 -445t-367 -207q-115 1 -190 69t-74 187l2 391q1 100 -29 144t-116 51l-7 8l-14 37l8 14l209 41q4 -1 19 -6q92 -64 92 -223v-385q0 -195 192 -195q140 0 220 122t80 304q0 181 -114 280q-20 18 -69 52v21
q111 51 148 51zM650 1413h129q18 0 6 -16l-264 -367q-4 -4 -8 -4h-58q-17 0 -10 14l189 361q6 12 16 12z" />
    <glyph glyph-name="omegatonos" unicode="&#x3ce;" horiz-adv-x="1532" 
d="M1040 51q100 1 166 95t65 220q0 243 -105 368q-88 106 -226 106l-11 4l-6 63l10 11q249 0 392 -162q126 -142 126 -338q-1 -196 -103 -322t-280 -127q-178 0 -298 170q-16 2 -17 2q-116 -172 -292 -172q-176 1 -278 121t-102 312t130 343q146 173 388 173l10 -11l-6 -63
l-10 -4q-130 0 -220 -101q-112 -124 -112 -363q-1 -127 65 -226t166 -99q66 1 118 49t66 108t15 98q0 38 -11 183l10 15h148l11 -15l-11 -137q0 -83 14 -143t68 -109q53 -49 120 -49zM910 1413h129q18 0 6 -16l-264 -367q-4 -4 -8 -4h-58q-17 0 -10 14l189 361q6 12 16 12z
" />
    <glyph glyph-name="afii10023" unicode="&#x401;" horiz-adv-x="1196" 
d="M1065 1378q10 0 10 -10v-321q0 -11 -10 -11h-76q-10 0 -10 8l-41 232q0 8 -10 8h-469q-10 0 -10 -10v-506q0 -10 10 -10h282q11 0 11 8l20 166q0 8 10 8h56q10 0 10 -10v-445q0 -10 -10 -10h-56q-10 0 -10 8l-20 176q0 9 -11 9h-282q-10 0 -10 -11v-553q0 -10 10 -10h497
q11 0 11 8l41 228q0 8 10 8h76q10 0 10 -10v-318q0 -10 -10 -10h-1008q-10 0 -10 10v53q0 11 10 11l174 16q10 0 10 10v1182q-4 6 -10 6l-174 17q-10 0 -10 10v53q0 10 10 10h979zM512 1674q29 -30 29 -62q0 -51 -30 -81q-29 -30 -61 -30q-53 0 -84 29q-30 29 -30 61
q0 31 8 51t22 32q30 30 73 30q44 0 73 -30zM904 1674q30 -30 30 -61q0 -54 -30 -83t-63 -29q-52 0 -82 30q-30 31 -30 61q1 30 9 50t21 32q28 30 72 30q43 0 73 -30z" />
    <glyph glyph-name="afii10051" unicode="&#x402;" horiz-adv-x="1516" 
d="M127 1036h-76q-10 0 -10 11v321q0 10 10 10h1123q10 0 10 -10v-321q0 -11 -10 -11h-76q-11 0 -11 8l-40 232q0 8 -11 8h-331q-9 0 -9 -10v-549q196 76 307 76q205 0 318 -117t113 -307q0 -276 -177.5 -464t-461.5 -269q-13 -4 -23 31t-4 38q236 95 354.5 239.5
t118.5 385.5q0 154 -90 244t-258 90q-52 0 -122 -10q-71 -10 -75 -15v-547q0 -10 11 -10l153 -16q10 0 10 -11v-53q0 -10 -10 -10h-547q-10 0 -10 10v53q0 11 10 11l195 16q10 0 10 10v1174q0 10 -8 10h-322q-10 0 -10 -8l-41 -232q0 -8 -10 -8z" />
    </font>
</defs>
</svg>
