<?xml version="1.0" standalone="no"?>
<!DOCTYPE svg PUBLIC "-//W3C//DTD SVG 1.1//EN" "http://www.w3.org/Graphics/SVG/1.1/DTD/svg11.dtd" >
<svg xmlns="http://www.w3.org/2000/svg">
<metadata>
Created by FontPrep 20130207 at Tue Apr  7 11:39:04 2015
 By caleb
(URW)++, Copyright (c) 2000 by (URW)++ Design &#38; Development
</metadata>
<defs>
<font id="4fa1e3eb33e14866af0c564de28c193b" horiz-adv-x='1024' >
  <font-face 
    font-family="NeuzeitGroteskTOT-Bla"
    font-weight="900"
    font-stretch="normal"
    units-per-em="2048"
    panose-1="2 0 0 0 0 0 0 0 0 0"
    ascent="1638"
    descent="-410"
    x-height="948"
    cap-height="1366"
    bbox="-354 -512 2118 1841"
    underline-thickness="198"
    underline-position="-12"
    unicode-range="U+0020-FB02"
  />
<missing-glyph horiz-adv-x="614" 
 />
    <glyph glyph-name="fi" unicode="fi" horiz-adv-x="1114" 
d="M678 1223q0 72 47 119t120 47q73 1 119 -47t46 -120t-47 -118q-47 -47 -119 -47t-119 47t-47 119zM999 948v-948h-311v948h311zM449 690v-690h-312v690h-94v258h94v17q0 291 195 366q86 35 227 35v-289q-111 -14 -110 -112v-17h110v-258h-110z" />
    <glyph glyph-name="fl" unicode="fl" horiz-adv-x="1114" 
d="M999 0h-311v1366h311v-1366zM449 690v-690h-312v690h-94v258h94v17q0 291 195 366q86 35 227 35v-289q-111 -14 -110 -112v-17h110v-258h-110z" />
    <glyph glyph-name=".notdef" horiz-adv-x="614" 
 />
    <glyph glyph-name=".null" horiz-adv-x="0" 
 />
    <glyph glyph-name="nonmarkingreturn" horiz-adv-x="681" 
 />
    <glyph glyph-name="space" unicode=" " horiz-adv-x="614" 
 />
    <glyph glyph-name="space" unicode="&#xa0;" horiz-adv-x="614" 
 />
    <glyph glyph-name="exclam" unicode="!" horiz-adv-x="618" 
d="M311 315q76 0 124 -49t48 -124t-49 -124t-124 -49t-124 49t-49 125t49 124t125 48zM461 1366v-895h-303v895h303z" />
    <glyph glyph-name="quotedbl" unicode="&#x22;" horiz-adv-x="921" 
d="M807 819h-242l-61 547h366zM354 819h-241l-64 547h369z" />
    <glyph glyph-name="numbersign" unicode="#" 
d="M625 784h-183l-24 -178h178zM924 606v-155h-191l-59 -396h-158l57 396h-178l-59 -396h-156l60 396h-189v155h211l29 178h-187v156h209l56 371h151l-53 -371h180l53 371h158l-55 -371h168v-156h-191l-24 -178h168z" />
    <glyph glyph-name="dollar" unicode="$" 
d="M672 391q0 49 -26 76t-91 45v-258q117 23 117 137zM334 981q0 -61 45 -98q21 -14 74 -37v266q-119 -16 -119 -131zM555 -174h-102v176q-168 8 -276 118t-111 271h278q-2 -106 109 -137v295q-213 72 -303 167t-90 257q0 161 111 275q112 114 282 118v145h102v-145
q371 -57 385 -367h-272q2 45 -29 75t-84 38v-301q143 -47 233 -100q172 -102 173 -299q-1 -113 -59 -212t-152 -147q-68 -35 -195 -51v-176z" />
    <glyph glyph-name="percent" unicode="%" horiz-adv-x="1458" 
d="M1214 1339l-882 -1366l-88 56l882 1364zM1030 442v-184q0 -61 13 -90t65 -29t71 28q17 28 17 99v176q0 70 -17 95t-65 25t-66 -26q-18 -24 -18 -94zM840 442q0 289 259 289q126 0 204 -65q79 -72 79 -209v-215q0 -131 -68 -200t-202 -69q-133 0 -207 68q-66 66 -65 240
v161zM266 1104v-182q0 -63 13 -92t65 -29t71 27q17 28 17 102v174q0 70 -17 94t-65 25q-48 -1 -66 -25t-18 -94zM618 1120v-217q0 -131 -68 -200t-202 -69q-133 0 -207 68q-66 66 -65 242v160q0 150 61 213q70 76 197 76t205 -66q79 -72 79 -207z" />
    <glyph glyph-name="ampersand" unicode="&#x26;" horiz-adv-x="1345" 
d="M373 383q0 -59 43 -102t102 -43q96 0 170 86l-184 229q-131 -80 -131 -170zM698 1051q0 35 -22 59t-56 25q-34 0 -61 -26q-66 -63 35 -189q104 61 104 131zM478 -41q-179 0 -295 111t-115 286q0 128 62 220t220 198q-61 88 -85 150t-23 131q0 137 104 224t265 87t265 -87
t103 -211q0 -124 -78 -224q-43 -59 -149 -131l157 -205q106 92 205 205l205 -181q-127 -143 -236 -239l236 -293h-363l-88 106q-211 -147 -390 -147z" />
    <glyph glyph-name="quotesingle" unicode="'" horiz-adv-x="479" 
d="M365 819h-252l-64 547h379z" />
    <glyph glyph-name="parenleft" unicode="(" horiz-adv-x="694" 
d="M344 480q0 -418 268 -769l-213 -176q-332 451 -331 948q0 309 131 615q80 193 217 342l196 -180q-268 -362 -268 -780z" />
    <glyph glyph-name="parenright" unicode=")" horiz-adv-x="694" 
d="M627 492q0 -307 -131 -613q-46 -113 -92 -183t-125 -161l-197 182q268 363 268 779t-268 770l213 174q332 -453 332 -948z" />
    <glyph glyph-name="asterisk" unicode="*" horiz-adv-x="839" 
d="M330 1366h168v-178l172 67l61 -155l-190 -76l129 -147l-129 -101l-127 148l-101 -148l-145 101l104 147l-163 55l59 158l162 -49v178z" />
    <glyph glyph-name="plus" unicode="+" 
d="M16 819h414v412h164v-412h416v-157h-416v-412h-164v412h-414v157z" />
    <glyph glyph-name="comma" unicode="," horiz-adv-x="563" 
d="M465 248l-172 -492l-207 45l92 512z" />
    <glyph glyph-name="hyphen" unicode="-" horiz-adv-x="468" 
d="M469 637v-272h-469v272h469z" />
    <glyph glyph-name="hyphen" unicode="&#xad;" horiz-adv-x="468" 
d="M469 637v-272h-469v272h469z" />
    <glyph glyph-name="period" unicode="." horiz-adv-x="563" 
d="M283 315q76 0 124 -49t48 -124t-49 -124t-124 -49t-124 49t-49 125t49 124t125 48z" />
    <glyph glyph-name="slash" unicode="/" horiz-adv-x="802" 
d="M762 1366l-676 -1784h-203l676 1784h203z" />
    <glyph glyph-name="zero" unicode="0" 
d="M385 915v-471q0 -100 18 -131q31 -57 109 -57t109 59q23 37 22 146v454q0 105 -31 147q-30 42 -100 42t-98 -42t-29 -147zM950 940v-524q0 -228 -118 -336t-326 -108t-326 112q-57 57 -82 147t-24 254v430q0 248 98 353q115 127 321 127q205 0 331 -113t126 -342z" />
    <glyph glyph-name="one" unicode="1" 
d="M770 0h-313v969l-221 -99v285l534 248v-1403z" />
    <glyph glyph-name="two" unicode="2" 
d="M901 270v-270h-860l477 750q104 164 104 228t-35 99q-36 35 -95 35q-102 0 -132 -88q-16 -45 -18 -127h-283v35q0 207 125 335q124 128 318 128q194 -1 314 -107t120 -272q0 -96 -38 -192t-136 -246l-203 -308h342z" />
    <glyph glyph-name="three" unicode="3" 
d="M106 1104v262h859l-367 -510q162 -20 254 -132t92 -300t-129 -320q-129 -133 -328 -133q-121 1 -221 53t-153 144q-53 86 -64 233h279q8 -71 48 -111t108 -40t117 49q48 49 48 124t-47 125q-48 50 -114 50t-113 -31l-187 158l271 379h-353z" />
    <glyph glyph-name="four" unicode="4" 
d="M549 528v467l-240 -467h240zM549 266h-481v262l417 838h361v-838h108v-262h-108v-266h-297v266z" />
    <glyph glyph-name="five" unicode="5" 
d="M412 1090v-263q82 37 157 37q162 0 273 -122q110 -122 110 -316t-125 -324q-125 -131 -323 -131t-322 133q-59 63 -110 193l266 100q43 -133 158 -133q66 0 110 48t45 118q0 70 -46 121q-47 51 -121 51t-126 -80h-227v844h748v-276h-467z" />
    <glyph glyph-name="six" unicode="6" 
d="M515 580q-67 0 -114 -48t-47 -114q0 -68 44 -112t111 -44t114 46t47 114t-44 113t-111 45zM961 420q-1 -178 -135 -314q-134 -135 -323 -135t-315 125q-125 125 -125 317t173 459l315 494h348l-348 -537q31 6 45 7q150 0 258 -119t107 -297z" />
    <glyph glyph-name="seven" unicode="7" 
d="M131 1087v279h830l-535 -1366h-320l426 1087h-401z" />
    <glyph glyph-name="eight" unicode="8" 
d="M510 559q-66 0 -110 -44q-44 -45 -44 -111t43 -109t111 -43t112 44t44 108t-45 110q-45 45 -111 45zM518 1128q-61 0 -103 -42t-42 -105t42 -109t101 -45q59 0 106 45q46 46 46 106t-44 105q-45 45 -106 45zM963 409q0 -198 -128 -318t-327 -120t-323 114t-124 296
q0 231 175 324q-140 82 -140 270t118 304t303 116t303 -114t118 -302t-141 -274q166 -98 166 -296z" />
    <glyph glyph-name="nine" unicode="9" 
d="M516 1108q-64 0 -110 -46t-48 -112q0 -66 44 -110t111 -45q67 0 113 45q46 44 46 110t-45 112q-47 46 -111 46zM461 530q-170 0 -284 117t-114 301q1 184 133 315q132 132 324 132t318 -127q125 -127 125 -323t-172 -462l-310 -483h-346l346 532q-8 -2 -20 -2z" />
    <glyph glyph-name="colon" unicode=":" horiz-adv-x="563" 
d="M283 1028q76 0 124 -49t48 -124t-49 -124t-124 -49t-124 49t-49 125t49 124t125 48zM283 315q76 0 124 -49t48 -124t-49 -124t-124 -49t-124 49t-49 125t49 124t125 48z" />
    <glyph glyph-name="semicolon" unicode=";" horiz-adv-x="563" 
d="M315 987q76 0 124 -49t48 -124t-49 -124t-124 -49t-124 49t-49 125t49 124t125 48zM465 248l-172 -492l-207 45l92 512z" />
    <glyph glyph-name="less" unicode="&#x3c;" 
d="M954 1309v-336l-528 -283l528 -282v-334l-886 477v283z" />
    <glyph glyph-name="equal" unicode="=" 
d="M16 662h994v-154h-994v154zM16 973h994v-154h-994v154z" />
    <glyph glyph-name="greater" unicode="&#x3e;" 
d="M68 74v338l528 280l-528 283v334l886 -475v-285z" />
    <glyph glyph-name="question" unicode="?" horiz-adv-x="935" 
d="M430 315q76 0 124 -49t48 -124t-49 -124t-124 -49t-124 49t-49 125t49 124t125 48zM584 496h-314q-2 34 -2 110t31 126t162 153q92 72 92 124q0 53 -30 79t-79 26q-109 0 -114 -127h-287q4 193 113 299t295 106t302 -104q115 -104 115 -279t-172 -300q-76 -55 -94 -81
t-18 -71v-61z" />
    <glyph glyph-name="at" unicode="@" horiz-adv-x="1572" 
d="M952 901q0 96 -80 96q-55 0 -108 -57q-86 -90 -152 -234t-66 -240t79 -95q57 1 115 63t102 166l100 246q10 25 10 55zM829 1389q261 0 447 -171q186 -172 186 -394t-150 -387t-337 -165q-133 0 -144 113q-75 -61 -125 -85t-108 -24q-100 0 -161 69q-60 69 -60 183
q0 190 121 367q131 199 331 199q98 0 177 -80l18 43h184l-221 -576q-23 -57 -22 -80q0 -39 52 -39t132 52t137 158t57 223q0 197 -151 337q-152 140 -382 140t-404 -176t-174 -423t176 -412q178 -165 395 -165t383 131q67 52 145 158h105q-43 -92 -80 -142t-96 -102
q-190 -161 -465 -161t-481 206t-206 495q0 290 213 499q212 209 508 209z" />
    <glyph glyph-name="A" unicode="A" horiz-adv-x="1320" 
d="M815 465l-160 510l-159 -510h319zM897 197h-483l-60 -197h-354l451 1366h421l449 -1366h-365z" />
    <glyph glyph-name="B" unicode="B" horiz-adv-x="1191" 
d="M461 559v-321h121q104 0 151 38t47 128q0 91 -73 131q-45 25 -170 24h-76zM461 1118v-317h82q111 0 163 39t52 121q0 81 -52 119t-167 38h-78zM1116 362q0 -205 -139 -299q-96 -63 -289 -63h-559v1366h467q246 0 348 -66q70 -42 111 -124t41 -181q0 -145 -92 -237
q-49 -51 -144 -80q256 -56 256 -316z" />
    <glyph glyph-name="C" unicode="C" horiz-adv-x="1304" 
d="M754 -27q-312 0 -498 205t-186 502q0 166 63 313t178 246q180 154 453 154q160 0 278 -47t240 -160l-213 -223q-141 123 -299 123t-261 -112q-103 -110 -103 -288t110 -292t279 -114q170 0 274 117l197 -229q-123 -104 -242 -150t-270 -45z" />
    <glyph glyph-name="D" unicode="D" horiz-adv-x="1327" 
d="M461 1100v-828h51q182 0 296 115t114 299q0 90 -34 177t-91 138q-109 98 -273 99h-63zM129 0v1366h399q176 0 294 -35t212 -114q223 -188 223 -521q0 -160 -57 -302q-158 -394 -635 -394h-436z" />
    <glyph glyph-name="E" unicode="E" horiz-adv-x="940" 
d="M399 1098v-279h451v-268h-451v-283h451v-268h-782v1366h782v-268h-451z" />
    <glyph glyph-name="F" unicode="F" horiz-adv-x="966" 
d="M461 1098v-279h454v-268h-454v-551h-332v1366h786v-268h-454z" />
    <glyph glyph-name="G" unicode="G" horiz-adv-x="1560" 
d="M811 778h698q2 -27 2 -71q0 -334 -219 -534t-516 -200t-502 203q-204 203 -204 505t203 507q204 205 507 205q172 0 322 -71t254 -200l-252 -194q-127 158 -302 158t-286 -118q-110 -116 -110 -288t116 -289t283 -117q119 0 210 64t132 172h-336v268z" />
    <glyph glyph-name="H" unicode="H" horiz-adv-x="1372" 
d="M461 539v-539h-332v1366h332v-559h448v559h332v-1366h-332v539h-448z" />
    <glyph glyph-name="I" unicode="I" horiz-adv-x="591" 
d="M461 1366v-1366h-332v1366h332z" />
    <glyph glyph-name="J" unicode="J" horiz-adv-x="796" 
d="M686 1366v-852q0 -246 -78 -352q-104 -145 -329 -178q-80 -10 -211 -11v295q23 -2 47 -2q192 0 225 131q14 55 14 174v527h-286v268h618z" />
    <glyph glyph-name="K" unicode="K" horiz-adv-x="1175" 
d="M461 0h-332v1366h332v-578l319 578h381l-381 -649l381 -717h-381l-319 598v-598z" />
    <glyph glyph-name="L" unicode="L" horiz-adv-x="946" 
d="M461 268h444v-268h-776v1366h332v-1098z" />
    <glyph glyph-name="M" unicode="M" horiz-adv-x="1757" 
d="M461 0h-332v1366h387l363 -735l358 735h389v-1366h-332v780l-415 -835l-418 835v-780z" />
    <glyph glyph-name="N" unicode="N" horiz-adv-x="1421" 
d="M461 0h-332v1366h332l497 -768v768h332v-1366h-332l-497 778v-778z" />
    <glyph glyph-name="O" unicode="O" horiz-adv-x="1585" 
d="M795 1085q-166 -1 -277 -115q-110 -114 -110 -285t112 -288t273 -117q163 0 275 116t112 286t-110 286t-275 117zM807 1393q305 0 507 -204t202 -509q0 -148 -66 -290t-180 -243q-194 -174 -484 -174t-503 205t-213 506t229 518q203 191 508 191z" />
    <glyph glyph-name="P" unicode="P" horiz-adv-x="1148" 
d="M461 717h92q104 0 162 49q57 49 57 136t-54 139t-143 53h-114v-377zM461 444v-444h-332v1366h469q244 0 377 -118t133 -332t-133 -342q-133 -130 -357 -130h-157z" />
    <glyph glyph-name="Q" unicode="Q" horiz-adv-x="1583" 
d="M1178 692q0 164 -112 278t-274 114t-273 -116t-111 -285t110 -285t275 -115q63 0 94 10l-90 108l237 197l99 -113q45 100 45 207zM793 -27q-299 0 -511 207t-212 503t211 503t517 207t511 -201q205 -200 205 -486t-162 -477l118 -129l-237 -196l-113 141
q-158 -72 -327 -72z" />
    <glyph glyph-name="R" unicode="R" horiz-adv-x="1220" 
d="M461 715h106q102 0 160 49q57 49 57 137t-54 140t-142 53h-127v-379zM461 0h-332v1366h442q269 0 409 -108t140 -340q0 -311 -264 -416l301 -502h-397l-299 528v-528z" />
    <glyph glyph-name="S" unicode="S" horiz-adv-x="1097" 
d="M55 414h326q-2 -8 -2 -23q0 -51 48 -88q49 -37 111 -37t103 32t41 79t-39 76t-158 71q-225 82 -321 184t-96 257q0 193 130 311t343 117q137 1 247 -55t166 -148q55 -92 76 -227h-338q-14 137 -153 137q-59 0 -97 -30t-39 -85q0 -55 64 -92q33 -23 198 -83t250 -138
q115 -109 115 -287t-135 -295t-356 -117t-353 119q-131 119 -131 322z" />
    <glyph glyph-name="T" unicode="T" horiz-adv-x="960" 
d="M647 1098v-1098h-332v1098h-315v268h961v-268h-314z" />
    <glyph glyph-name="U" unicode="U" horiz-adv-x="1310" 
d="M440 571q0 -292 215 -290q129 0 185 101q29 52 28 189v795h332v-780q0 -301 -143 -457t-405 -156t-416 170q-127 141 -127 443v780h331v-795z" />
    <glyph glyph-name="V" unicode="V" horiz-adv-x="1163" 
d="M573 532l248 834h342l-411 -1366h-361l-391 1366h342z" />
    <glyph glyph-name="W" unicode="W" horiz-adv-x="1751" 
d="M1219 571l186 795h346l-365 -1366h-344l-174 809l-174 -809h-342l-352 1366h352l176 -776l183 776h331z" />
    <glyph glyph-name="X" unicode="X" horiz-adv-x="1218" 
d="M610 440l-223 -440h-381l418 733l-354 633h379l161 -328l174 328h377l-362 -633l411 -733h-376z" />
    <glyph glyph-name="Y" unicode="Y" horiz-adv-x="1169" 
d="M754 0h-332v602l-449 764h396l221 -420l217 420h389l-442 -764v-602z" />
    <glyph glyph-name="Z" unicode="Z" horiz-adv-x="1138" 
d="M1059 268v-268h-1032l571 1098h-506v268h1020l-571 -1098h518z" />
    <glyph glyph-name="bracketleft" unicode="[" horiz-adv-x="694" 
d="M123 1366h491v-178h-231v-1428h231v-178h-491v1784z" />
    <glyph glyph-name="backslash" unicode="\" horiz-adv-x="802" 
d="M41 1366h203l676 -1784h-203z" />
    <glyph glyph-name="bracketright" unicode="]" horiz-adv-x="694" 
d="M571 1366v-1784h-491v178h231v1428h-231v178h491z" />
    <glyph glyph-name="asciicircum" unicode="^" 
d="M324 707h-299l301 667h374l301 -667h-299l-188 440z" />
    <glyph glyph-name="underscore" unicode="_" 
d="M0 -111h1024v-198h-1024v198z" />
    <glyph glyph-name="grave" unicode="`" 
d="M481 1386l170 -290h-182l-287 290h299z" />
    <glyph glyph-name="a" unicode="a" horiz-adv-x="1273" 
d="M850 474q0 110 -65 182t-166 71q-101 0 -164 -73q-63 -72 -63 -184t65 -186q67 -74 161 -75q94 0 163 77q69 78 69 188zM846 948h311v-948h-311v106q-125 -143 -325 -143t-331 140q-131 141 -131 363q-1 222 139 370t353 149q168 0 295 -139v102z" />
    <glyph glyph-name="b" unicode="b" horiz-adv-x="1271" 
d="M881 466q0 112 -65 186t-160 75q-96 0 -164 -79q-68 -78 -68 -186t64 -180t163 -73q98 0 164 73q66 72 66 184zM428 0h-311v1366h311v-512q123 131 295 131q211 0 350 -143q139 -144 139 -372t-132 -368t-347 -139q-104 -1 -175 31t-130 108v-102z" />
    <glyph glyph-name="c" unicode="c" horiz-adv-x="968" 
d="M574 -37q-216 0 -371 150q-143 133 -143 357t146 370t362 145q216 0 405 -164l-207 -186q-76 76 -171 76t-159 -68t-63 -167q-1 -99 67 -169t155 -70t171 68l186 -201q-162 -141 -378 -141z" />
    <glyph glyph-name="d" unicode="d" horiz-adv-x="1275" 
d="M389 466q0 -112 67 -184t165 -73q99 0 163 74q64 73 64 183t-64 186t-163 75q-98 0 -165 -75q-67 -74 -67 -186zM848 1366h311v-1366h-311v106q-55 -76 -126 -110t-181 -33q-217 0 -351 138q-133 138 -133 372q-1 234 151 373t332 139t308 -123v504z" />
    <glyph glyph-name="e" unicode="e" horiz-adv-x="1153" 
d="M580 727q-168 0 -201 -154h403q-34 154 -202 154zM1100 408h-719q17 -80 75 -125t142 -45q133 0 186 104l287 -74q-59 -121 -153 -192q-143 -113 -326 -113q-231 -1 -382 145t-151 371q-1 225 143 365t376 141q232 0 377 -148q144 -148 145 -391v-38z" />
    <glyph glyph-name="f" unicode="f" horiz-adv-x="610" 
d="M449 690v-690h-312v690h-94v258h94v17q0 291 195 366q86 35 227 35v-289q-111 -14 -110 -112v-17h110v-258h-110z" />
    <glyph glyph-name="g" unicode="g" horiz-adv-x="1224" 
d="M801 465q-1 107 -59 177t-160 69q-102 0 -164 -65t-64 -169q0 -104 65 -172q65 -67 169 -67t172 73q41 47 41 154zM805 948h303v-844q0 -158 -29 -252t-98 -165q-151 -152 -423 -152t-480 195l188 192q117 -129 285 -129q119 0 187 70t67 194v47q-125 -141 -332 -141
t-342 162q-109 131 -109 352t136 365q135 144 354 143q180 0 293 -133v96z" />
    <glyph glyph-name="h" unicode="h" horiz-adv-x="1103" 
d="M428 1366v-506q109 127 245 127t232 -90q49 -45 69 -107t21 -169v-621h-311v569q0 72 -34 116t-93 44t-94 -42t-35 -118v-569h-311v1366h311z" />
    <glyph glyph-name="i" unicode="i" horiz-adv-x="542" 
d="M273 1389q73 1 119 -47t46 -120t-47 -118q-47 -47 -119 -47t-118 47t-48 119q0 72 47 119t120 47zM428 948v-948h-311v948h311z" />
    <glyph glyph-name="j" unicode="j" horiz-adv-x="542" 
d="M271 1389q73 1 119 -47t46 -120t-47 -118q-47 -47 -119 -47t-118 47t-48 119q0 72 47 119t120 47zM426 948v-948q0 -218 -95 -322t-298 -104q-14 0 -84 4v283q16 -2 45 -2q121 0 121 141v948h311z" />
    <glyph glyph-name="k" unicode="k" horiz-adv-x="999" 
d="M428 0h-311v1366h311v-756l211 338h352l-276 -450l276 -498h-352l-211 379v-379z" />
    <glyph glyph-name="l" unicode="l" horiz-adv-x="542" 
d="M428 0h-311v1366h311v-1366z" />
    <glyph glyph-name="m" unicode="m" horiz-adv-x="1642" 
d="M545 727q-117 0 -117 -166v-561h-311v948h311v-114q80 152 256 151q88 0 168 -45q61 -37 92 -106q92 154 279 153q137 0 225 -84q47 -47 65 -108t19 -168v-627h-311v571q0 74 -32 116t-89 42t-89 -42t-32 -116v-571h-311v561q0 78 -33 122t-90 44z" />
    <glyph glyph-name="n" unicode="n" horiz-adv-x="1110" 
d="M117 948h311v-106q47 78 101 110t141 33q147 0 243 -92q47 -47 67 -117t19 -194v-582h-311v580q0 70 -35 108t-94 39q-59 0 -95 -41t-36 -111v-575h-311v948z" />
    <glyph glyph-name="o" unicode="o" horiz-adv-x="1183" 
d="M594 709q-100 0 -162 -65t-61 -170q0 -105 61 -171q60 -65 158 -65t160 64q61 66 61 172q-1 106 -59 170t-158 65zM59 474q-1 224 149 368t382 143q232 0 384 -148q150 -149 150 -367t-154 -362t-383 -144q-228 0 -378 142q-150 144 -150 368z" />
    <glyph glyph-name="p" unicode="p" horiz-adv-x="1280" 
d="M889 464q-1 112 -65 188t-164 75q-100 0 -166 -74q-66 -73 -66 -189t61 -186t163 -69q102 0 169 72q68 71 68 183zM117 948h311v-90q106 127 295 127q139 0 254 -65q244 -141 244 -453q0 -231 -131 -367q-130 -136 -340 -137q-210 0 -322 119v-500h-311v1366z" />
    <glyph glyph-name="q" unicode="q" horiz-adv-x="1275" 
d="M621 727q-100 0 -165 -73q-65 -72 -65 -184t66 -186q65 -74 161 -75q96 0 165 76q69 75 69 185t-66 184t-165 73zM848 948h311v-1366h-311v494q-125 -113 -324 -113q-200 0 -332 139q-132 138 -132 364t140 372t359 147q180 0 289 -121v84z" />
    <glyph glyph-name="r" unicode="r" horiz-adv-x="698" 
d="M117 948h311v-129q33 90 86 128t133 38h31v-319q-45 4 -57 4q-109 0 -162 -76q-31 -41 -31 -148v-446h-311v948z" />
    <glyph glyph-name="s" unicode="s" horiz-adv-x="866" 
d="M508 668v18q0 32 -27 54t-61 22t-55 -18q-20 -18 -21 -46q0 -53 109 -84q199 -57 281 -131q82 -75 81 -209q0 -134 -105 -222q-106 -88 -280 -89q-174 0 -276 85t-107 235h295q10 -53 30 -75t54 -22q35 0 55 20q21 20 21 50t-31 52t-156 62t-197 114q-72 75 -71 202
q-1 127 105 213t277 86q171 1 269 -83t99 -234h-289z" />
    <glyph glyph-name="t" unicode="t" horiz-adv-x="604" 
d="M440 696v-377q0 -61 76 -61h33v-258h-240q-96 0 -138 46t-42 153v497h-96v258h96v234h311v-234h109v-258h-109z" />
    <glyph glyph-name="u" unicode="u" horiz-adv-x="1083" 
d="M981 352q1 -389 -445 -389q-212 1 -322 99t-112 290v596h312v-573q0 -154 131 -154q59 0 92 35t33 96v596h311v-596z" />
    <glyph glyph-name="v" unicode="v" horiz-adv-x="976" 
d="M672 948h317l-340 -948h-319l-340 948h321l183 -489z" />
    <glyph glyph-name="w" unicode="w" horiz-adv-x="1525" 
d="M1223 948h315l-299 -948h-330l-143 514l-141 -514h-338l-297 948h315l166 -518l139 518h299l148 -518z" />
    <glyph glyph-name="x" unicode="x" horiz-adv-x="1015" 
d="M520 217l-137 -217h-363l322 469l-348 479h389l137 -207l127 207h377l-330 -479l330 -469h-377z" />
    <glyph glyph-name="y" unicode="y" horiz-adv-x="991" 
d="M483 451l191 497h327l-518 -1370h-333l169 440l-329 930h329z" />
    <glyph glyph-name="z" unicode="z" horiz-adv-x="880" 
d="M838 258v-258h-813l352 690h-324v258h803l-352 -690h334z" />
    <glyph glyph-name="braceleft" unicode="{" 
d="M629 913v-168q0 -100 -25 -152t-94 -99q68 -42 94 -96t25 -156v-181q0 -104 34 -131t164 -26v-295q-109 -4 -209 -4t-160 16t-112 74t-53 209v280q0 86 -26 127t-89 56v272q115 27 115 166v291q0 235 176 275q57 13 161 13t197 -2v-313q-135 -2 -167 -27t-31 -129z" />
    <glyph glyph-name="bar" unicode="|" 
d="M342 1366h342v-1708h-342v1708z" />
    <glyph glyph-name="braceright" unicode="}" 
d="M395 76v168q0 100 25 152t94 100q-68 43 -93 97q-26 54 -26 155v180q-2 74 -9 98t-36 42q-29 20 -127 19h-28v295q87 2 199 2t172 -16t112 -74t53 -207v-282q0 -86 26 -127t87 -55v-273q-113 -23 -113 -164v-290q0 -238 -176 -278q-57 -13 -155 -13t-205 4v311h28
q104 0 138 27t34 129z" />
    <glyph glyph-name="asciitilde" unicode="~" horiz-adv-x="1366" 
d="M500 1544q68 0 206 -57t173 -57q76 0 139 120l162 -137q-62 -155 -136 -221t-184 -66q-43 0 -83 12t-144 55q-104 44 -148 44q-67 0 -133 -119l-164 137q115 289 312 289z" />
    <glyph glyph-name="exclamdown" unicode="&#xa1;" horiz-adv-x="618" 
d="M311 981q74 0 123 -49t49 -125t-49 -124t-125 -48t-124 49t-48 124t50 124t124 49zM158 -418v895h303v-895h-303z" />
    <glyph glyph-name="cent" unicode="&#xa2;" 
d="M389 659q0 -196 156 -245v483q-68 -16 -112 -76t-44 -162zM647 -63h-102v213q-139 18 -238 83q-211 137 -211 422q0 143 58 257q57 114 153 174t238 75v146h102v-146q174 -14 324 -155l-201 -177q-53 56 -123 68v-483q68 8 123 53l184 -186q-125 -113 -307 -131v-213z
" />
    <glyph glyph-name="sterling" unicode="&#xa3;" 
d="M823 770v-137h-200q48 -112 10 -192q-18 -38 -74 -109q2 0 10 -4l37 -13q18 -4 100 -50t139 -46q58 0 120 53v-227q-90 -66 -201 -65q-51 0 -102 20q-50 20 -140 74t-138 53q-48 0 -78 -35t-32 -92h-231q8 158 85 256t202 106q43 86 43 132q0 84 -68 139h-239v137h131
q-45 60 -63 108t-17 115q0 172 119 283t301 110q215 0 356 -157q66 -74 72 -234h-275q0 72 -38 116t-95 44t-96 -41t-39 -99q0 -57 26 -105t111 -140h264z" />
    <glyph glyph-name="currency" unicode="&#xa4;" horiz-adv-x="1472" 
d="M737 926q-94 0 -162 -68q-67 -68 -67 -163t66 -163t161 -68q94 0 162 68t68 163t-67 163t-161 68zM213 687q0 130 80 278l-215 213l174 176l219 -219q143 75 264 75t262 -73l215 215l174 -174l-210 -211q84 -135 84 -267t-74 -270l207 -209l-170 -174l-209 207
q-134 -82 -272 -82t-283 82l-209 -207l-172 172l209 209q-74 129 -74 259z" />
    <glyph glyph-name="yen" unicode="&#xa5;" 
d="M977 922v-150h-229l-76 -172v-14h264v-150h-264v-436h-314v436h-272v150h272v14l-77 172h-236v150h166l-207 444h326l188 -485l189 485h311l-201 -444h160z" />
    <glyph glyph-name="brokenbar" unicode="&#xa6;" 
d="M342 313h342v-655h-342v655zM342 1366h342v-729h-342v729z" />
    <glyph glyph-name="section" unicode="&#xa7;" 
d="M510 672q-76 0 -129 -49t-53 -120t53 -121t128 -50t128 49t53 120t-52 121t-128 50zM385 1067q0 -49 43 -83t165 -83t174 -79q185 -107 185 -296q0 -219 -221 -325q166 -88 166 -264q0 -152 -112 -250t-285 -99q-227 0 -336 156q-57 84 -64 215h267q-1 -72 37 -115
t98 -43t96 37q37 38 37 102t-62 101q-39 25 -149 65t-164 68q-188 103 -188 320q0 124 61 208t170 113q-180 78 -180 262q0 141 104 229t275 87q119 0 215 -43t141 -113t51 -195h-262q-10 137 -137 138q-51 0 -88 -32t-37 -81z" />
    <glyph glyph-name="dieresis" unicode="&#xa8;" 
d="M735 1096q-65 0 -111 46t-46 112t46 111q46 46 112 46q67 0 112 -46t45 -113q0 -68 -46 -112t-112 -44zM288 1411q68 0 112 -46t44 -113q0 -68 -46 -112t-112 -44t-111 46q-46 46 -46 112t46 111q46 46 113 46z" />
    <glyph glyph-name="copyright" unicode="&#xa9;" horiz-adv-x="1570" 
d="M786 1251q-230 0 -392 -165q-163 -165 -163 -401t163 -403t391 -167t391 167q162 167 161 400q0 233 -160 401q-161 168 -391 168zM788 1395q294 0 500 -211t205 -503q0 -292 -208 -501t-500 -209q-293 0 -501 209t-208 505t209 503t503 207zM778 1100q158 0 256 -84
t109 -211h-152q-16 57 -68 90t-135 33q-82 0 -136 -65t-54 -175t52 -176q52 -64 140 -64t143 42q54 40 64 116h154q-13 -152 -111 -240t-263 -90q-165 0 -271 114t-106 297t109 298q111 115 269 115z" />
    <glyph glyph-name="ordfeminine" unicode="&#xaa;" horiz-adv-x="825" 
d="M402 975q-58 0 -96 -41q-38 -40 -38 -104t38 -106t94 -42t97 43q40 43 40 106t-38 104q-39 40 -97 40zM535 1120h208v-573h-208v49q-76 -72 -198 -72t-206 85t-84 218t89 225t208 91q119 0 191 -72v49z" />
    <glyph glyph-name="guillemotleft" unicode="&#xab;" horiz-adv-x="872" 
d="M598 492l193 -334h-193l-188 334l188 342h193zM256 492l193 -334h-193l-188 334l188 342h193z" />
    <glyph glyph-name="logicalnot" unicode="&#xac;" 
d="M625 0v303h-557v297h886v-600h-329z" />
    <glyph glyph-name="registered" unicode="&#xae;" horiz-adv-x="1570" 
d="M786 1251q-230 0 -392 -165q-163 -165 -163 -401t163 -403t391 -167t391 166q162 166 162 400t-161 402t-391 168zM788 1395q294 0 500 -211t205 -503q0 -292 -208 -501t-500 -209q-293 0 -501 209t-208 505t209 503t503 207zM684 963v-234h92q135 0 135 117t-125 117
h-102zM485 1083h334q121 0 182 -36q107 -59 107 -187t-129 -188q67 -29 91 -80t26 -176q6 -84 20 -119h-188q-12 23 -20 134t-41 147q-32 36 -107 36h-76v-317h-199v786z" />
    <glyph glyph-name="macron" unicode="&#xaf;" 
d="M180 1153v176h662v-176h-662z" />
    <glyph glyph-name="macron" unicode="&#x2c9;" 
d="M180 1153v176h662v-176h-662z" />
    <glyph glyph-name="degree" unicode="&#xb0;" 
d="M513 1251q-81 0 -139 -59t-58 -141q0 -83 56 -141q58 -58 138 -58t139 58t59 140t-56 142q-58 59 -139 59zM513 1380q136 0 231 -96q96 -96 96 -232t-96 -232t-232 -97q-135 0 -231 96q-97 97 -97 233t96 232t233 96z" />
    <glyph glyph-name="plusminus" unicode="&#xb1;" 
d="M16 190h994v-157h-994v157zM16 827h414v410h164v-410h416v-157h-416v-396h-164v396h-414v157z" />
    <glyph glyph-name="twosuperior" unicode="&#xb2;" horiz-adv-x="679" 
d="M592 719v-174h-561l307 454q66 95 66 131q-1 72 -76 72q-47 0 -67 -27q-19 -28 -21 -100h-191q-2 12 -2 27q0 125 81 203q81 77 206 77t203 -64q169 -140 -33 -427l-121 -172h209z" />
    <glyph glyph-name="threesuperior" unicode="&#xb3;" horiz-adv-x="679" 
d="M78 1198v168h561l-231 -303q96 -14 153 -82q57 -67 57 -179t-84 -193t-210 -81q-166 0 -242 119q-33 55 -41 150h188q10 -90 90 -90q41 -1 70 27t29 69t-28 69t-68 27q-40 0 -68 -18l-127 98l166 219h-215z" />
    <glyph glyph-name="acute" unicode="&#xb4;" 
d="M543 1386h299l-285 -290h-184z" />
    <glyph glyph-name="mu" unicode="&#xb5;" 
d="M55 -350v1333h287v-506q0 -119 29 -170q51 -86 143 -86q168 0 168 262v500h287v-983h-287v127q-54 -145 -166 -145t-174 116v-448h-287z" />
    <glyph glyph-name="mu" unicode="&#x3bc;" 
d="M55 -350v1333h287v-506q0 -119 29 -170q51 -86 143 -86q168 0 168 262v500h287v-983h-287v127q-54 -145 -166 -145t-174 116v-448h-287z" />
    <glyph glyph-name="paragraph" unicode="&#xb6;" 
d="M442 -215v846h-30q-156 0 -256 102t-101 260q0 99 45 185t123 133q98 55 250 55h428v-1581h-147v1485h-162v-1485h-150z" />
    <glyph glyph-name="periodcentered" unicode="&#xb7;" horiz-adv-x="563" 
d="M283 682q76 0 124 -49t48 -124t-49 -124t-124 -49t-124 49t-49 125t49 124t125 48z" />
    <glyph glyph-name="periodcentered" unicode="&#x2219;" horiz-adv-x="563" 
d="M283 682q76 0 124 -49t48 -124t-49 -124t-124 -49t-124 49t-49 125t49 124t125 48z" />
    <glyph glyph-name="cedilla" unicode="&#xb8;" 
d="M440 -420l-125 103q59 27 103 68q43 42 90 122l203 -88q-111 -137 -271 -205z" />
    <glyph glyph-name="onesuperior" unicode="&#xb9;" horiz-adv-x="679" 
d="M508 547h-211v567l-139 -57v182l350 154v-846z" />
    <glyph glyph-name="ordmasculine" unicode="&#xba;" horiz-adv-x="770" 
d="M386 965q-58 0 -94 -37q-36 -36 -36 -96t36 -97t92 -37t92 36t36 98t-34 97q-34 36 -92 36zM47 831q0 135 94 223q95 88 243 87q148 0 244 -89q96 -90 95 -222q0 -132 -98 -220q-99 -88 -243 -88t-240 87q-95 87 -95 222z" />
    <glyph glyph-name="guillemotright" unicode="&#xbb;" horiz-adv-x="872" 
d="M274 500l-192 334h192l189 -334l-189 -342h-192zM616 500l-192 334h190l191 -334l-191 -342h-190z" />
    <glyph glyph-name="onequarter" unicode="&#xbc;" horiz-adv-x="1619" 
d="M1307 319v269l-148 -269h148zM1296 158h-303v164l267 497h237v-493h70v-168h-70v-158h-201v158zM1296 1339l-884 -1366l-88 56l882 1364zM508 547h-211v567l-139 -57v182l350 154v-846z" />
    <glyph glyph-name="onehalf" unicode="&#xbd;" horiz-adv-x="1619" 
d="M1532 174v-174h-561l307 455q66 96 66 131q-1 71 -76 71q-47 0 -67 -27q-19 -28 -21 -100h-191q-2 12 -2 27q0 125 81 203t206 78t203 -65q77 -65 77 -166t-110 -261l-121 -172h209zM1296 1339l-884 -1366l-88 56l882 1364zM508 547h-211v567l-139 -57v182l350 154v-846z
" />
    <glyph glyph-name="threequarters" unicode="&#xbe;" horiz-adv-x="1619" 
d="M1309 319v269l-148 -269h148zM1298 158h-303v164l267 497h237v-493h68v-168h-68v-158h-201v158zM1296 1339l-882 -1366l-88 56l882 1364zM78 1198v168h561l-231 -303q96 -14 153 -82q57 -67 57 -179t-84 -193t-210 -81q-166 0 -242 119q-33 55 -41 150h188q10 -90 90 -90
q41 -1 70 27t29 69t-28 69t-68 27q-40 0 -68 -18l-127 98l166 219h-215z" />
    <glyph glyph-name="questiondown" unicode="&#xbf;" horiz-adv-x="935" 
d="M508 981q74 0 123 -49t49 -125t-49 -124t-125 -48t-124 49t-48 124t50 124t124 49zM350 453h316l2 -78q0 -107 -31 -157t-164 -152q-92 -72 -92 -124t31 -80q31 -26 77 -26q111 0 115 127h287q-4 -195 -112 -301t-295 -106t-303 104t-115 270q0 98 40 171q42 73 126 133
t102 86q18 24 18 71v29q-2 8 -2 33z" />
    <glyph glyph-name="Agrave" unicode="&#xc0;" horiz-adv-x="1320" 
d="M569 1769l199 -274h-205l-301 274h307zM815 465l-160 510l-159 -510h319zM897 197h-483l-60 -197h-354l451 1366h421l449 -1366h-365z" />
    <glyph glyph-name="Aacute" unicode="&#xc1;" horiz-adv-x="1320" 
d="M752 1769h307l-301 -274h-205zM815 465l-160 510l-159 -510h319zM897 197h-483l-60 -197h-354l451 1366h421l449 -1366h-365z" />
    <glyph glyph-name="Acircumflex" unicode="&#xc2;" horiz-adv-x="1320" 
d="M664 1620l-166 -125h-205l235 274h283l217 -274h-205zM815 465l-160 510l-159 -510h319zM897 197h-483l-60 -197h-354l451 1366h421l449 -1366h-365z" />
    <glyph glyph-name="Atilde" unicode="&#xc3;" horiz-adv-x="1320" 
d="M555 1567q-47 0 -51 -64h-199q12 125 79 192t148 66q41 1 136 -33t112 -34q46 -1 66 69h198q-18 -131 -80 -195t-145 -65q-49 0 -147 32t-117 32zM815 465l-160 510l-159 -510h319zM897 197h-483l-60 -197h-354l451 1366h421l449 -1366h-365z" />
    <glyph glyph-name="Adieresis" unicode="&#xc4;" horiz-adv-x="1320" 
d="M721 1655q0 66 47 113t114 47q66 1 112 -47t46 -113t-47 -113t-113 -47q-66 0 -112 47q-47 47 -47 113zM437 1815q67 1 113 -47t46 -113t-47 -113t-113 -47q-66 0 -112 47t-48 113q0 66 47 113t114 47zM815 465l-160 510l-159 -510h319zM897 197h-483l-60 -197h-354
l451 1366h421l449 -1366h-365z" />
    <glyph glyph-name="Aring" unicode="&#xc5;" horiz-adv-x="1320" 
d="M662 1735q-39 0 -66 -27q-27 -28 -27 -64t28 -63t65 -27q36 0 64 27t28 63t-26 64q-26 27 -66 27zM663 1841q85 0 143 -57q58 -56 58 -140t-59 -140t-143 -56t-144 57q-59 57 -59 139t59 140q60 57 145 57zM815 465l-160 510l-159 -510h319zM897 197h-483l-60 -197h-354
l451 1366h421l449 -1366h-365z" />
    <glyph glyph-name="AE" unicode="&#xc6;" horiz-adv-x="1779" 
d="M920 498v612l-320 -612h320zM1251 551v-283h439v-268h-770v240h-455l-125 -240h-354l729 1366h975v-268h-439v-279h439v-268h-439z" />
    <glyph glyph-name="Ccedilla" unicode="&#xc7;" horiz-adv-x="1304" 
d="M569 -438l-143 108q182 80 211 203l289 -80q-119 -168 -357 -231zM754 -27q-312 0 -498 205t-186 502q0 166 63 313t178 246q180 154 453 154q160 0 278 -47t240 -160l-213 -223q-141 123 -299 123t-261 -112q-103 -110 -103 -288t110 -292t279 -114q170 0 274 117
l197 -229q-123 -104 -242 -150t-270 -45z" />
    <glyph glyph-name="Egrave" unicode="&#xc8;" horiz-adv-x="940" 
d="M416 1769l198 -274h-204l-301 274h307zM399 1098v-279h451v-268h-451v-283h451v-268h-782v1366h782v-268h-451z" />
    <glyph glyph-name="Eacute" unicode="&#xc9;" horiz-adv-x="940" 
d="M535 1769h307l-301 -274h-205zM399 1098v-279h451v-268h-451v-283h451v-268h-782v1366h782v-268h-451z" />
    <glyph glyph-name="Ecircumflex" unicode="&#xca;" horiz-adv-x="940" 
d="M471 1620l-166 -125h-205l236 274h282l218 -274h-205zM399 1098v-279h451v-268h-451v-283h451v-268h-782v1366h782v-268h-451z" />
    <glyph glyph-name="Edieresis" unicode="&#xcb;" horiz-adv-x="940" 
d="M691 1815q67 1 113 -47t46 -113t-47 -113t-113 -47q-66 0 -112 47t-48 113q0 66 47 113t114 47zM86 1655q0 66 47 113t114 47q67 1 113 -47t46 -113t-48 -113t-112 -47q-66 0 -113 47t-47 113zM399 1098v-279h451v-268h-451v-283h451v-268h-782v1366h782v-268h-451z" />
    <glyph glyph-name="Igrave" unicode="&#xcc;" horiz-adv-x="591" 
d="M215 1769l199 -274h-205l-301 274h307zM461 1366v-1366h-332v1366h332z" />
    <glyph glyph-name="Iacute" unicode="&#xcd;" horiz-adv-x="591" 
d="M379 1769h307l-301 -274h-205zM461 1366v-1366h-332v1366h332z" />
    <glyph glyph-name="Icircumflex" unicode="&#xce;" horiz-adv-x="591" 
d="M299 1620l-166 -125h-205l236 274h282l218 -274h-205zM463 1366v-1366h-332v1366h332z" />
    <glyph glyph-name="Idieresis" unicode="&#xcf;" horiz-adv-x="591" 
d="M330 1655q0 66 47 113t114 47q67 1 113 -47t45 -113q0 -65 -47 -113t-113 -47q-67 0 -113 47t-46 113zM-59 1655q1 66 47 113t113 47q67 1 113 -47t46 -113t-47 -113t-113 -47q-66 0 -112 47t-47 113zM463 1366v-1366h-332v1366h332z" />
    <glyph glyph-name="Eth" unicode="&#xd0;" horiz-adv-x="1327" 
d="M461 819h198v-258h-198v-289h51q182 0 296 115t114 297q0 92 -34 179t-91 138q-109 98 -273 99h-63v-281zM129 819v547h399q176 0 294 -35t212 -114q223 -193 223 -521q0 -162 -57 -303q-159 -393 -635 -393h-436v561h-123v258h123z" />
    <glyph glyph-name="Ntilde" unicode="&#xd1;" horiz-adv-x="1421" 
d="M604 1567q-47 0 -51 -64h-199q12 125 79 192t149 66q41 1 136 -33t111 -34q46 -1 66 69h199q-18 -131 -84 -196q-59 -63 -142 -64q-49 0 -147 32t-117 32zM461 0h-332v1366h332l497 -768v768h332v-1366h-332l-497 778v-778z" />
    <glyph glyph-name="Ograve" unicode="&#xd2;" horiz-adv-x="1585" 
d="M752 1769l198 -274h-205l-301 274h308zM795 1085q-166 -1 -277 -115q-110 -114 -110 -285t112 -288t273 -117q163 0 275 116t112 286t-110 286t-275 117zM807 1393q305 0 507 -204t202 -509q0 -148 -66 -290t-180 -243q-194 -174 -484 -174t-503 205t-213 506t229 518
q203 191 508 191z" />
    <glyph glyph-name="Oacute" unicode="&#xd3;" horiz-adv-x="1585" 
d="M877 1769h307l-301 -274h-205zM795 1085q-166 -1 -277 -115q-110 -114 -110 -285t112 -288t273 -117q163 0 275 116t112 286t-110 286t-275 117zM807 1393q305 0 507 -204t202 -509q0 -148 -66 -290t-180 -243q-194 -174 -484 -174t-503 205t-213 506t229 518
q203 191 508 191z" />
    <glyph glyph-name="Ocircumflex" unicode="&#xd4;" horiz-adv-x="1585" 
d="M795 1620l-166 -125h-205l235 274h283l217 -274h-205zM795 1085q-166 -1 -277 -115q-110 -114 -110 -285t112 -288t273 -117q163 0 275 116t112 286t-110 286t-275 117zM807 1393q305 0 507 -204t202 -509q0 -148 -66 -290t-180 -243q-194 -174 -484 -174t-503 205
t-213 506t229 518q203 191 508 191z" />
    <glyph glyph-name="Otilde" unicode="&#xd5;" horiz-adv-x="1585" 
d="M686 1567q-47 0 -51 -64h-199q12 125 79 192t149 66q41 1 136 -33t111 -34q46 -1 66 69h199q-18 -131 -84 -196q-59 -63 -142 -64q-49 0 -147 32t-117 32zM795 1085q-166 -1 -277 -115q-110 -114 -110 -285t112 -288t273 -117q163 0 275 116t112 286t-110 286t-275 117z
M807 1393q305 0 507 -204t202 -509q0 -148 -66 -290t-180 -243q-194 -174 -484 -174t-503 205t-213 506t229 518q203 191 508 191z" />
    <glyph glyph-name="Odieresis" unicode="&#xd6;" horiz-adv-x="1585" 
d="M854 1655q0 66 47 113t114 47q67 1 113 -47t46 -113t-48 -113t-112 -47q-66 0 -113 47t-47 113zM410 1655q0 66 46 113t114 47q67 1 113 -47t46 -113t-47 -113t-113 -47q-67 0 -113 47t-46 113zM795 1085q-166 -1 -277 -115q-110 -114 -110 -285t112 -288t273 -117
q163 0 275 116t112 286t-110 286t-275 117zM807 1393q305 0 507 -204t202 -509q0 -148 -66 -290t-180 -243q-194 -174 -484 -174t-503 205t-213 506t229 518q203 191 508 191z" />
    <glyph glyph-name="multiply" unicode="&#xd7;" 
d="M211 1155l299 -303l305 307l115 -117l-307 -303l305 -301l-111 -112l-303 305l-305 -307l-115 114l307 305l-303 299z" />
    <glyph glyph-name="Oslash" unicode="&#xd8;" horiz-adv-x="1581" 
d="M780 1085q-150 1 -262 -117q-113 -118 -112 -286q0 -133 59 -221l567 528q-102 96 -252 96zM794 281q154 -1 268 115t114 284q0 123 -66 223l-573 -532q103 -90 257 -90zM778 1393q303 0 494 -185l151 140l74 -88l-143 -132q86 -123 122 -226t35 -224q0 -297 -214 -501
t-523 -204q-274 1 -473 183l-143 -131l-74 84l139 129q-84 112 -120 210t-35 224q0 309 203 515q204 206 507 206z" />
    <glyph glyph-name="Ugrave" unicode="&#xd9;" horiz-adv-x="1310" 
d="M612 1769l199 -274h-205l-301 274h307zM440 571q0 -292 215 -290q129 0 185 101q29 52 28 189v795h332v-780q0 -301 -143 -457t-405 -156t-416 170q-127 141 -127 443v780h331v-795z" />
    <glyph glyph-name="Uacute" unicode="&#xda;" horiz-adv-x="1310" 
d="M748 1769h307l-301 -274h-205zM440 571q0 -292 215 -290q129 0 185 101q29 52 28 189v795h332v-780q0 -301 -143 -457t-405 -156t-416 170q-127 141 -127 443v780h331v-795z" />
    <glyph glyph-name="Ucircumflex" unicode="&#xdb;" horiz-adv-x="1310" 
d="M657 1620l-165 -125h-205l235 274h283l217 -274h-205zM440 571q0 -292 215 -290q129 0 185 101q29 52 28 189v795h332v-780q0 -301 -143 -457t-405 -156t-416 170q-127 141 -127 443v780h331v-795z" />
    <glyph glyph-name="Udieresis" unicode="&#xdc;" horiz-adv-x="1310" 
d="M715 1655q0 66 47 113t114 47q66 1 112 -47t46 -113t-47 -113t-113 -47q-66 0 -112 47t-47 113zM270 1655q0 66 47 113t114 47q67 1 113 -47t46 -113t-47 -113t-113 -47q-66 0 -113 47t-47 113zM440 571q0 -292 215 -290q129 0 185 101q29 52 28 189v795h332v-780
q0 -301 -143 -457t-405 -156t-416 170q-127 141 -127 443v780h331v-795z" />
    <glyph glyph-name="Yacute" unicode="&#xdd;" horiz-adv-x="1169" 
d="M682 1769h307l-301 -274h-205zM754 0h-332v602l-449 764h396l221 -420l217 420h389l-442 -764v-602z" />
    <glyph glyph-name="Thorn" unicode="&#xde;" horiz-adv-x="1159" 
d="M461 580h92q104 0 162 49q57 49 57 136t-54 139t-143 52h-114v-376zM461 307v-307h-332v1366h332v-137h137q244 0 377 -118t133 -332t-133 -343t-357 -129h-157z" />
    <glyph glyph-name="germandbls" unicode="&#xdf;" horiz-adv-x="1124" 
d="M813 799q254 -85 254 -399q0 -162 -94 -290t-281 -128q-92 0 -178 36l47 254q31 -6 47 -6q70 0 114 47t44 130t-70 137q-45 31 -135 38v279q55 6 86 29t31 75q0 51 -34 85t-90 34t-89 -55q-16 -29 -16 -117v-948h-312v690h-86v258h86v101q0 153 116 247q117 94 303 94
t304 -92t119 -241q0 -188 -166 -258z" />
    <glyph glyph-name="agrave" unicode="&#xe0;" horiz-adv-x="1273" 
d="M604 1386l170 -290h-182l-287 290h299zM850 474q0 110 -65 182t-166 71q-101 0 -164 -73q-63 -72 -63 -184t65 -186q67 -74 161 -75q94 0 163 77q69 78 69 188zM846 948h311v-948h-311v106q-125 -143 -325 -143t-331 140q-131 141 -131 363q-1 222 139 370t353 149
q168 0 295 -139v102z" />
    <glyph glyph-name="aacute" unicode="&#xe1;" horiz-adv-x="1273" 
d="M702 1386h299l-284 -290h-185zM850 474q0 110 -65 182t-166 71q-101 0 -164 -73q-63 -72 -63 -184t65 -186q67 -74 161 -75q94 0 163 77q69 78 69 188zM846 948h311v-948h-311v106q-125 -143 -325 -143t-331 140q-131 141 -131 363q-1 222 139 370t353 149
q168 0 295 -139v102z" />
    <glyph glyph-name="acircumflex" unicode="&#xe2;" horiz-adv-x="1273" 
d="M657 1237l-139 -141h-205l207 290h287l190 -290h-204zM850 474q0 110 -65 182t-166 71q-101 0 -164 -73q-63 -72 -63 -184t65 -186q67 -74 161 -75q94 0 163 77q69 78 69 188zM846 948h311v-948h-311v106q-125 -143 -325 -143t-331 140q-131 141 -131 363q-1 222 139 370
t353 149q168 0 295 -139v102z" />
    <glyph glyph-name="atilde" unicode="&#xe3;" horiz-adv-x="1273" 
d="M772 1106q-45 0 -130 32t-93 31q-33 0 -45 -67h-199q35 260 221 260q53 0 134 -30t94 -32q35 0 41 66h198q-14 -120 -73 -190t-148 -70zM850 474q0 110 -65 182t-166 71q-101 0 -164 -73q-63 -72 -63 -184t65 -186q67 -74 161 -75q94 0 163 77q69 78 69 188zM846 948h311
v-948h-311v106q-125 -143 -325 -143t-331 140q-131 141 -131 363q-1 222 139 370t353 149q168 0 295 -139v102z" />
    <glyph glyph-name="adieresis" unicode="&#xe4;" horiz-adv-x="1273" 
d="M868 1096q-66 0 -112 46t-45 112q-1 66 45 111q46 46 113 46t112 -46t45 -113q0 -68 -46 -112t-112 -44zM421 1411q67 0 111 -46t46 -113q0 -68 -46 -112t-112 -44t-112 46t-46 112t46 111q46 46 113 46zM850 474q0 110 -65 182t-166 71q-101 0 -164 -73
q-63 -72 -63 -184t65 -186q67 -74 161 -75q94 0 163 77q69 78 69 188zM846 948h311v-948h-311v106q-125 -143 -325 -143t-331 140q-131 141 -131 363q-1 222 139 370t353 149q168 0 295 -139v102z" />
    <glyph glyph-name="aring" unicode="&#xe5;" horiz-adv-x="1273" 
d="M666 1339q-39 -1 -66 -27t-27 -63t28 -63t65 -27q36 0 64 27q28 28 28 64t-26 62t-66 27zM667 1446q85 0 143 -57t58 -141t-59 -139q-59 -56 -143 -56t-144 57q-59 57 -59 139t59 140q60 57 145 57zM850 474q0 110 -65 182t-166 71q-101 0 -164 -73q-63 -72 -63 -184
t65 -186q67 -74 161 -75q94 0 163 77q69 78 69 188zM846 948h311v-948h-311v106q-125 -143 -325 -143t-331 140q-131 141 -131 363q-1 222 139 370t353 149q168 0 295 -139v102z" />
    <glyph glyph-name="ae" unicode="&#xe6;" horiz-adv-x="1953" 
d="M631 729q-102 0 -172 -74q-70 -73 -70 -183t72 -188t172 -77q100 0 166 71q65 70 65 184t-66 190t-167 77zM1382 727q-80 0 -130 -37t-83 -121h414q-39 158 -201 158zM1440 -37q-92 0 -154 29t-117 96v-88h-297v88q-114 -127 -328 -127t-350 137q-136 138 -136 364
t136 376q138 150 343 150t335 -128v88h297v-88q59 70 117 98t146 27q200 1 334 -149t135 -367q0 -39 -3 -66h-729q19 -77 81 -121t138 -44t117 24t82 82l287 -84q-160 -297 -434 -297z" />
    <glyph glyph-name="ccedilla" unicode="&#xe7;" horiz-adv-x="968" 
d="M444 -420l-125 103q59 27 103 68q43 42 90 122l203 -88q-111 -137 -271 -205zM574 -37q-216 0 -371 150q-143 133 -143 357t146 370t362 145q216 0 405 -164l-207 -186q-76 76 -171 76t-159 -68t-63 -167q-1 -99 67 -169t155 -70t171 68l186 -201q-162 -141 -378 -141z
" />
    <glyph glyph-name="egrave" unicode="&#xe8;" horiz-adv-x="1153" 
d="M528 1386l170 -290h-182l-287 290h299zM580 727q-168 0 -201 -154h403q-34 154 -202 154zM1100 408h-719q17 -80 75 -125t142 -45q133 0 186 104l287 -74q-59 -121 -153 -192q-143 -113 -326 -113q-231 -1 -382 145t-151 371q-1 225 143 365t376 141q232 0 377 -148
q144 -148 145 -391v-38z" />
    <glyph glyph-name="eacute" unicode="&#xe9;" horiz-adv-x="1153" 
d="M631 1386h299l-285 -290h-184zM580 727q-168 0 -201 -154h403q-34 154 -202 154zM1100 408h-719q17 -80 75 -125t142 -45q133 0 186 104l287 -74q-59 -121 -153 -192q-143 -113 -326 -113q-231 -1 -382 145t-151 371q-1 225 143 365t376 141q232 0 377 -148
q144 -148 145 -391v-38z" />
    <glyph glyph-name="ecircumflex" unicode="&#xea;" horiz-adv-x="1153" 
d="M578 1237l-140 -141h-205l207 290h287l191 -290h-205zM580 727q-168 0 -201 -154h403q-34 154 -202 154zM1100 408h-719q17 -80 75 -125t142 -45q133 0 186 104l287 -74q-59 -121 -153 -192q-143 -113 -326 -113q-231 -1 -382 145t-151 371q-1 225 143 365t376 141
q232 0 377 -148q144 -148 145 -391v-38z" />
    <glyph glyph-name="edieresis" unicode="&#xeb;" horiz-adv-x="1153" 
d="M800 1411q68 0 112 -46t44 -113q0 -68 -46 -112t-112 -44t-111 46q-46 46 -46 112t46 111q46 46 113 46zM350 1096q-66 0 -112 46t-45 112q-1 66 45 111q46 46 113 46t112 -46t45 -113q0 -68 -46 -112t-112 -44zM580 727q-168 0 -201 -154h403q-34 154 -202 154z
M1100 408h-719q17 -80 75 -125t142 -45q133 0 186 104l287 -74q-59 -121 -153 -192q-143 -113 -326 -113q-231 -1 -382 145t-151 371q-1 225 143 365t376 141q232 0 377 -148q144 -148 145 -391v-38z" />
    <glyph glyph-name="igrave" unicode="&#xec;" horiz-adv-x="542" 
d="M205 1386l170 -290h-182l-287 290h299zM428 948v-948h-311v948h311z" />
    <glyph glyph-name="iacute" unicode="&#xed;" horiz-adv-x="542" 
d="M342 1386h299l-285 -290h-184zM428 948v-948h-311v948h311z" />
    <glyph glyph-name="icircumflex" unicode="&#xee;" horiz-adv-x="542" 
d="M272 1237l-139 -141h-205l207 290h287l190 -290h-204zM426 948v-948h-311v948h311z" />
    <glyph glyph-name="idieresis" unicode="&#xef;" horiz-adv-x="542" 
d="M470 1411q67 0 112 -46t45 -113q0 -68 -46 -112t-112 -44t-112 46t-46 112t46 111q46 46 113 46zM75 1411q67 0 111 -46t45 -113q0 -68 -46 -112q-45 -44 -111 -44t-112 46t-46 112t46 111q46 46 113 46zM428 948v-948h-311v948h311z" />
    <glyph glyph-name="eth" unicode="&#xf0;" horiz-adv-x="1185" 
d="M811 473q-1 111 -59 173t-158 63q-100 0 -160 -65t-61 -170q0 -105 60 -172q61 -66 161 -66t159 63q58 63 58 174zM580 -39q-220 0 -371 143q-150 144 -150 368t150 368t383 145q72 0 156 -20q-27 73 -56 117t-86 102l-196 -105l-62 117l144 76q-25 24 -96 56t-117 44
l53 88q158 -25 307 -108l213 114l68 -116l-148 -74q127 -94 199 -211q155 -254 155 -546t-176 -437q-150 -121 -370 -121z" />
    <glyph glyph-name="ntilde" unicode="&#xf1;" horiz-adv-x="1110" 
d="M692 1106q-45 0 -130 32t-93 31q-33 0 -45 -67h-199q35 260 221 260q53 0 134 -30t94 -32q35 0 41 66h198q-14 -120 -73 -190t-148 -70zM117 948h311v-106q47 78 101 110t141 33q147 0 243 -92q47 -47 67 -117t19 -194v-582h-311v580q0 70 -35 108t-94 39q-59 0 -95 -41
t-36 -111v-575h-311v948z" />
    <glyph glyph-name="ograve" unicode="&#xf2;" horiz-adv-x="1183" 
d="M561 1386l170 -290h-182l-287 290h299zM594 709q-100 0 -162 -65t-61 -170q0 -105 61 -171q60 -65 158 -65t160 64q61 66 61 172q-1 106 -59 170t-158 65zM59 474q-1 224 149 368t382 143q232 0 384 -148q150 -149 150 -367t-154 -362t-383 -144q-228 0 -378 142
q-150 144 -150 368z" />
    <glyph glyph-name="oacute" unicode="&#xf3;" horiz-adv-x="1183" 
d="M623 1386h299l-285 -290h-184zM594 709q-100 0 -162 -65t-61 -170q0 -105 61 -171q60 -65 158 -65t160 64q61 66 61 172q-1 106 -59 170t-158 65zM59 474q-1 224 149 368t382 143q232 0 384 -148q150 -149 150 -367t-154 -362t-383 -144q-228 0 -378 142
q-150 144 -150 368z" />
    <glyph glyph-name="ocircumflex" unicode="&#xf4;" horiz-adv-x="1183" 
d="M594 1237l-139 -141h-205l207 290h286l191 -290h-205zM594 709q-100 0 -162 -65t-61 -170q0 -105 61 -171q60 -65 158 -65t160 64q61 66 61 172q-1 106 -59 170t-158 65zM59 474q-1 224 149 368t382 143q232 0 384 -148q150 -149 150 -367t-154 -362t-383 -144
q-228 0 -378 142q-150 144 -150 368z" />
    <glyph glyph-name="otilde" unicode="&#xf5;" horiz-adv-x="1183" 
d="M729 1106q-45 0 -130 32t-93 31q-33 0 -45 -67h-199q35 260 221 260q53 0 134 -30t94 -32q35 0 41 66h198q-14 -120 -73 -190t-148 -70zM594 709q-100 0 -162 -65t-61 -170q0 -105 61 -171q60 -65 158 -65t160 64q61 66 61 172q-1 106 -59 170t-158 65zM59 474
q-1 224 149 368t382 143q232 0 384 -148q150 -149 150 -367t-154 -362t-383 -144q-228 0 -378 142q-150 144 -150 368z" />
    <glyph glyph-name="odieresis" unicode="&#xf6;" horiz-adv-x="1183" 
d="M814 1411q67 0 112 -46t45 -113q0 -68 -46 -112t-112 -44t-112 46t-46 112t46 111q46 46 113 46zM366 1411q68 0 112 -46t44 -113q0 -68 -46 -112t-112 -44t-111 46q-46 46 -46 112t46 111q46 46 113 46zM594 709q-100 0 -162 -65t-61 -170q0 -105 61 -171
q60 -65 158 -65t160 64q61 66 61 172q-1 106 -59 170t-158 65zM59 474q-1 224 149 368t382 143q232 0 384 -148q150 -149 150 -367t-154 -362t-383 -144q-228 0 -378 142q-150 144 -150 368z" />
    <glyph glyph-name="divide" unicode="&#xf7;" 
d="M512 510q49 0 85 -36t36 -85t-36 -85t-85 -36t-85 36t-36 86t36 85t85 35zM393 1091q0 51 36 85t85 34t85 -36t36 -84q0 -49 -36 -85t-85 -36t-85 36t-36 86zM16 819h994v-157h-994v157z" />
    <glyph glyph-name="oslash" unicode="&#xf8;" horiz-adv-x="1185" 
d="M596 711q-109 0 -172 -66t-64 -180q0 -54 25 -111l342 318q-59 39 -131 39zM795 600l-340 -324q67 -38 153 -38t150 65q63 66 63 170q1 68 -26 127zM59 488q1 206 149 352t360 147q212 0 372 -117l107 99l65 -72l-100 -96q113 -160 112 -334q0 -213 -154 -358t-360 -145
q-208 0 -368 114l-111 -98l-68 73l105 97q-109 132 -109 338z" />
    <glyph glyph-name="ugrave" unicode="&#xf9;" horiz-adv-x="1083" 
d="M522 1386l170 -290h-182l-287 290h299zM981 352q1 -389 -445 -389q-212 1 -322 99t-112 290v596h312v-573q0 -154 131 -154q59 0 92 35t33 96v596h311v-596z" />
    <glyph glyph-name="uacute" unicode="&#xfa;" horiz-adv-x="1083" 
d="M596 1386h299l-285 -290h-184zM981 352q1 -389 -445 -389q-212 1 -322 99t-112 290v596h312v-573q0 -154 131 -154q59 0 92 35t33 96v596h311v-596z" />
    <glyph glyph-name="ucircumflex" unicode="&#xfb;" horiz-adv-x="1083" 
d="M543 1237l-140 -141h-204l207 290h286l191 -290h-205zM981 352q1 -389 -445 -389q-212 1 -322 99t-112 290v596h312v-573q0 -154 131 -154q59 0 92 35t33 96v596h311v-596z" />
    <glyph glyph-name="udieresis" unicode="&#xfc;" horiz-adv-x="1083" 
d="M765 1411q67 0 112 -46t45 -113q0 -68 -46 -112t-112 -44t-112 46t-46 112t46 111q46 46 113 46zM315 1096q-65 0 -111 46t-46 112t46 111q46 46 112 46q67 0 112 -46t45 -113q0 -68 -46 -112t-112 -44zM981 352q1 -389 -445 -389q-212 1 -322 99t-112 290v596h312v-573
q0 -154 131 -154q59 0 92 35t33 96v596h311v-596z" />
    <glyph glyph-name="yacute" unicode="&#xfd;" horiz-adv-x="991" 
d="M586 1386h299l-285 -290h-184zM483 451l191 497h327l-518 -1370h-333l169 440l-329 930h329z" />
    <glyph glyph-name="thorn" unicode="&#xfe;" horiz-adv-x="1280" 
d="M889 466q-1 112 -65 188t-164 75q-100 0 -166 -74q-66 -73 -66 -189t61 -186t163 -71q102 0 169 72q68 73 68 185zM117 1366h311v-508q109 129 295 129q139 0 254 -67q244 -137 244 -453q0 -231 -131 -367q-130 -136 -340 -137q-210 0 -322 119v-500h-311v1784z" />
    <glyph glyph-name="ydieresis" unicode="&#xff;" horiz-adv-x="991" 
d="M720 1411q68 0 112 -46t44 -113q0 -68 -46 -112t-112 -44t-111 46q-46 46 -46 112t46 111q46 46 113 46zM270 1096q-66 0 -112 46t-45 112q-1 66 45 111q46 46 113 46t112 -46t45 -113q0 -68 -46 -112t-112 -44zM483 451l191 497h327l-518 -1370h-333l169 440l-329 930
h329z" />
    <glyph glyph-name="Amacron" unicode="&#x100;" horiz-adv-x="1320" 
d="M305 1554v177h711v-177h-711zM815 465l-160 510l-159 -510h319zM897 197h-483l-60 -197h-354l451 1366h421l449 -1366h-365z" />
    <glyph glyph-name="amacron" unicode="&#x101;" horiz-adv-x="1273" 
d="M305 1153v176h662v-176h-662zM850 474q0 110 -65 182t-166 71q-101 0 -164 -73q-63 -72 -63 -184t65 -186q67 -74 161 -75q94 0 163 77q69 78 69 188zM846 948h311v-948h-311v106q-125 -143 -325 -143t-331 140q-131 141 -131 363q-1 222 139 370t353 149q168 0 295 -139
v102z" />
    <glyph glyph-name="Abreve" unicode="&#x102;" horiz-adv-x="1320" 
d="M662 1669q58 0 94 23q37 23 71 75h205q-88 -272 -372 -272t-369 272h205q36 -53 72 -75t94 -23zM815 465l-160 510l-159 -510h319zM897 197h-483l-60 -197h-354l451 1366h421l449 -1366h-365z" />
    <glyph glyph-name="abreve" unicode="&#x103;" horiz-adv-x="1273" 
d="M803 1380h205q-23 -135 -112 -210q-89 -74 -231 -74t-234 74q-91 75 -112 210h205q16 -59 48 -84q32 -24 92 -24t91 24q32 24 48 84zM850 474q0 110 -65 182t-166 71q-101 0 -164 -73q-63 -72 -63 -184t65 -186q67 -74 161 -75q94 0 163 77q69 78 69 188zM846 948h311
v-948h-311v106q-125 -143 -325 -143t-331 140q-131 141 -131 363q-1 222 139 370t353 149q168 0 295 -139v102z" />
    <glyph glyph-name="Aogonek" unicode="&#x104;" horiz-adv-x="1355" 
d="M846 487l-92 250q-55 172 -74 271q-25 -111 -82 -275l-92 -246h340zM1245 -133q0 -39 30 -67t66 -28t101 25v-147q-92 -33 -169 -33t-141 52t-65 126q0 115 160 205h-215l-90 246h-490l-90 -246h-348l516 1366h338l512 -1366q-115 -63 -115 -133z" />
    <glyph glyph-name="aogonek" unicode="&#x105;" horiz-adv-x="1146" 
d="M729 393v84q-39 -27 -73 -37t-138 -24q-150 -20 -149 -133q0 -57 39 -91t104 -34q102 0 160 61q57 61 57 174zM1026 256q0 -109 9 -157t38 -99q-104 -63 -104 -133q1 -39 31 -67t67 -28t92 23v-135q-83 -29 -163 -29t-139 48q-58 48 -58 126q0 100 141 195h-184l-6 18
l-9 15q-6 18 -6 90q-63 -80 -141 -115t-191 -35q-166 0 -259 79t-93 220q0 209 203 271q90 25 247 44t191 39t35 74q0 125 -160 125q-82 1 -123 -31t-53 -108h-291q14 330 469 330q240 0 361 -90q102 -74 100 -222q-2 -243 -4 -344v-104z" />
    <glyph glyph-name="Cacute" unicode="&#x106;" horiz-adv-x="1304" 
d="M815 1769h307l-301 -274h-205zM754 -27q-312 0 -498 205t-186 502q0 166 63 313t178 246q180 154 453 154q160 0 278 -47t240 -160l-213 -223q-141 123 -299 123t-261 -112q-103 -110 -103 -288t110 -292t279 -114q170 0 274 117l197 -229q-123 -104 -242 -150t-270 -45z
" />
    <glyph glyph-name="cacute" unicode="&#x107;" horiz-adv-x="968" 
d="M633 1386h299l-285 -290h-184zM574 -37q-216 0 -371 150q-143 133 -143 357t146 370t362 145q216 0 405 -164l-207 -186q-76 76 -171 76t-159 -68t-63 -167q-1 -99 67 -169t155 -70t171 68l186 -201q-162 -141 -378 -141z" />
    <glyph glyph-name="Ccaron" unicode="&#x10c;" horiz-adv-x="1304" 
d="M770 1645l166 124h205l-236 -274h-280l-219 274h204zM754 -27q-312 0 -498 205t-186 502q0 166 63 313t178 246q180 154 453 154q160 0 278 -47t240 -160l-213 -223q-141 123 -299 123t-261 -112q-103 -110 -103 -288t110 -292t279 -114q170 0 274 117l197 -229
q-123 -104 -242 -150t-270 -45z" />
    <glyph glyph-name="ccaron" unicode="&#x10d;" horiz-adv-x="968" 
d="M584 1247l139 139h205l-207 -290h-285l-192 290h205zM574 -37q-216 0 -371 150q-143 133 -143 357t146 370t362 145q216 0 405 -164l-207 -186q-76 76 -171 76t-159 -68t-63 -167q-1 -99 67 -169t155 -70t171 68l186 -201q-162 -141 -378 -141z" />
    <glyph glyph-name="Dcaron" unicode="&#x10e;" horiz-adv-x="1327" 
d="M557 1645l166 124h205l-236 -274h-280l-219 274h204zM461 1100v-828h51q182 0 296 115t114 299q0 90 -34 177t-91 138q-109 98 -273 99h-63zM129 0v1366h399q176 0 294 -35t212 -114q223 -188 223 -521q0 -160 -57 -302q-158 -394 -635 -394h-436z" />
    <glyph glyph-name="dcaron" unicode="&#x10f;" horiz-adv-x="1638" 
d="M1573 1329l-150 -432l-204 51l90 445zM389 466q0 -112 67 -184t165 -73q99 0 163 74q64 73 64 183t-64 186t-163 75q-98 0 -165 -75q-67 -74 -67 -186zM848 1366h311v-1366h-311v106q-55 -76 -126 -110t-181 -33q-217 0 -351 138q-133 138 -133 372q-1 234 151 373
t332 139t308 -123v504z" />
    <glyph glyph-name="Dcroat" unicode="&#x110;" horiz-adv-x="1327" 
d="M461 819h198v-258h-198v-289h51q182 0 296 115t114 297q0 92 -34 179t-91 138q-109 98 -273 99h-63v-281zM129 819v547h399q176 0 294 -35t212 -114q223 -193 223 -521q0 -162 -57 -303q-159 -393 -635 -393h-436v561h-123v258h123z" />
    <glyph glyph-name="dcroat" unicode="&#x111;" horiz-adv-x="1275" 
d="M391 466q0 -112 67 -184t164 -73q98 0 162 74q64 73 64 183t-64 186t-163 75q-98 0 -164 -75q-66 -74 -66 -186zM848 1268v98h311v-98h111v-228h-111v-1040h-311v106q-55 -76 -126 -110t-181 -33q-217 0 -350 138q-132 138 -132 372t156 379q150 133 327 133t306 -123
v178h-191v228h191z" />
    <glyph glyph-name="Emacron" unicode="&#x112;" horiz-adv-x="940" 
d="M104 1554v177h711v-177h-711zM399 1098v-279h451v-268h-451v-283h451v-268h-782v1366h782v-268h-451z" />
    <glyph glyph-name="emacron" unicode="&#x113;" horiz-adv-x="1153" 
d="M246 1153v176h661v-176h-661zM580 727q-168 0 -201 -154h403q-34 154 -202 154zM1100 408h-719q17 -80 75 -125t142 -45q133 0 186 104l287 -74q-59 -121 -153 -192q-143 -113 -326 -113q-231 -1 -382 145t-151 371q-1 225 143 365t376 141q232 0 377 -148
q144 -148 145 -391v-38z" />
    <glyph glyph-name="Edotaccent" unicode="&#x116;" horiz-adv-x="940" 
d="M307 1655q0 66 47 113t114 47q67 1 113 -47t46 -113t-47 -113t-113 -47q-66 0 -113 47t-47 113zM399 1098v-279h451v-268h-451v-283h451v-268h-782v1366h782v-268h-451z" />
    <glyph glyph-name="edotaccent" unicode="&#x117;" horiz-adv-x="1153" 
d="M595 1411q67 0 112 -46t45 -113q0 -68 -46 -112t-112 -44t-112 46t-46 112t46 111q46 46 113 46zM580 727q-168 0 -201 -154h403q-34 154 -202 154zM1100 408h-719q17 -80 75 -125t142 -45q133 0 186 104l287 -74q-59 -121 -153 -192q-143 -113 -326 -113
q-231 -1 -382 145t-151 371q-1 225 143 365t376 141q232 0 377 -148q144 -148 145 -391v-38z" />
    <glyph glyph-name="Eogonek" unicode="&#x118;" horiz-adv-x="1296" 
d="M1110 -136q0 -36 30 -64t66 -28t101 25l-17 -147q-92 -33 -168 -33t-142 52q-65 52 -65 126q0 113 160 205h-954v1366h1087v-272h-745v-256h682v-263h-682v-290h762v-285l-19 -12q-52 -35 -74 -62q-22 -26 -22 -62z" />
    <glyph glyph-name="eogonek" unicode="&#x119;" horiz-adv-x="1155" 
d="M582 815q-197 0 -228 -225h443q-7 106 -63 166t-152 59zM567 -137q0 -37 31 -65t68 -28t92 23v-135q-86 -29 -165 -29t-137 48t-58 132t112 168q-209 25 -332 163t-123 358q-1 220 147 368t382 150q234 0 376 -152t142 -405q0 -16 -2 -29h-746q4 -120 68 -188t152 -68
q90 0 136 30t81 103h290q-41 -145 -163 -236t-283 -96q-68 -51 -68 -112z" />
    <glyph glyph-name="Ecaron" unicode="&#x11a;" horiz-adv-x="940" 
d="M465 1645l166 124h205l-236 -274h-281l-219 274h205zM399 1098v-279h451v-268h-451v-283h451v-268h-782v1366h782v-268h-451z" />
    <glyph glyph-name="ecaron" unicode="&#x11b;" horiz-adv-x="1153" 
d="M594 1247l139 139h205l-207 -290h-285l-192 290h205zM580 727q-168 0 -201 -154h403q-34 154 -202 154zM1100 408h-719q17 -80 75 -125t142 -45q133 0 186 104l287 -74q-59 -121 -153 -192q-143 -113 -326 -113q-231 -1 -382 145t-151 371q-1 225 143 365t376 141
q232 0 377 -148q144 -148 145 -391v-38z" />
    <glyph glyph-name="Gbreve" unicode="&#x11e;" horiz-adv-x="1560" 
d="M780 1669q57 0 94 23t72 75h205q-89 -272 -373 -272t-368 272h204q35 -53 72 -75t94 -23zM811 778h698q2 -27 2 -71q0 -334 -219 -534t-516 -200t-502 203q-204 203 -204 505t203 507q204 205 507 205q172 0 322 -71t254 -200l-252 -194q-127 158 -302 158t-286 -118
q-110 -116 -110 -288t116 -289t283 -117q119 0 210 64t132 172h-336v268z" />
    <glyph glyph-name="gbreve" unicode="&#x11f;" horiz-adv-x="1224" 
d="M752 1380h204q-24 -135 -112 -210q-88 -74 -230 -74t-234 74q-91 74 -112 210h205q16 -59 48 -84q32 -24 91 -24q60 0 92 24t48 84zM801 465q-1 107 -59 177t-160 69q-102 0 -164 -65t-64 -169q0 -104 65 -172q65 -67 169 -67t172 73q41 47 41 154zM805 948h303v-844
q0 -158 -29 -252t-98 -165q-151 -152 -423 -152t-480 195l188 192q117 -129 285 -129q119 0 187 70t67 194v47q-125 -141 -332 -141t-342 162q-109 131 -109 352t136 365q135 144 354 143q180 0 293 -133v96z" />
    <glyph glyph-name="Gcommaaccent" unicode="&#x122;" horiz-adv-x="1560" 
d="M918 -86v-131q0 -135 -62 -191t-221 -59v94q92 4 127 26t37 77h-158v184h277zM811 778h698q2 -27 2 -71q0 -334 -219 -534t-516 -200t-502 203q-204 203 -204 505t203 507q204 205 507 205q172 0 322 -71t254 -200l-252 -194q-127 158 -302 158t-286 -118
q-110 -116 -110 -288t116 -289t283 -117q119 0 210 64t132 172h-336v268z" />
    <glyph glyph-name="gcommaaccent" unicode="&#x123;" horiz-adv-x="1224" 
d="M432 1188l150 430l204 -49l-90 -447zM801 465q-1 107 -59 177t-160 69q-102 0 -164 -65t-64 -169q0 -104 65 -172q65 -67 169 -67t172 73q41 47 41 154zM805 948h303v-844q0 -158 -29 -252t-98 -165q-151 -152 -423 -152t-480 195l188 192q117 -129 285 -129
q119 0 187 70t67 194v47q-125 -141 -332 -141t-342 162q-109 131 -109 352t136 365q135 144 354 143q180 0 293 -133v96z" />
    <glyph glyph-name="Imacron" unicode="&#x12a;" horiz-adv-x="591" 
d="M8 1554v177h574v-177h-574zM461 1366v-1366h-332v1366h332z" />
    <glyph glyph-name="imacron" unicode="&#x12b;" horiz-adv-x="542" 
d="M8 1153v176h527v-176h-527zM426 948v-948h-311v948h311z" />
    <glyph glyph-name="Iogonek" unicode="&#x12e;" horiz-adv-x="591" 
d="M463 0h-39q-82 -63 -114 -103t-31 -79q0 -61 92 -62q31 0 78 13l18 -170q-83 -25 -175 -25t-160 51t-69 133q0 135 160 242h-92v1366h332v-1366z" />
    <glyph glyph-name="iogonek" unicode="&#x12f;" horiz-adv-x="542" 
d="M273 1389q73 1 119 -47t46 -120t-47 -118q-47 -47 -119 -47t-118 47t-48 119q0 72 47 119t120 47zM428 0h-63q-86 -86 -86 -135q0 -57 79 -58q31 0 62 11l14 -135q-181 -44 -269 25q-54 42 -54 112q0 98 110 180h-104v948h311v-948z" />
    <glyph glyph-name="Idotaccent" unicode="&#x130;" horiz-adv-x="591" 
d="M133 1655q0 66 47 113t114 47q67 1 113 -47t46 -113t-47 -113t-113 -47q-66 0 -113 47t-47 113zM461 1366v-1366h-332v1366h332z" />
    <glyph glyph-name="dotlessi" unicode="&#x131;" horiz-adv-x="542" 
d="M428 948v-948h-311v948h311z" />
    <glyph glyph-name="Kcommaaccent" unicode="&#x136;" horiz-adv-x="1175" 
d="M725 -86v-131q0 -135 -62 -191t-221 -59v94q92 4 127 26t37 77h-157v184h276zM461 0h-332v1366h332v-578l319 578h381l-381 -649l381 -717h-381l-319 598v-598z" />
    <glyph glyph-name="kcommaaccent" unicode="&#x137;" horiz-adv-x="999" 
d="M633 -119v-119q0 -133 -55 -184t-220 -65v96l88 12q61 12 68 88h-147v172h266zM428 0h-311v1366h311v-756l211 338h352l-276 -450l276 -498h-352l-211 379v-379z" />
    <glyph glyph-name="Lacute" unicode="&#x139;" horiz-adv-x="946" 
d="M397 1769h308l-302 -274h-204zM461 268h444v-268h-776v1366h332v-1098z" />
    <glyph glyph-name="lacute" unicode="&#x13a;" horiz-adv-x="542" 
d="M362 1769h310l-301 -274h-205zM428 0h-311v1366h311v-1366z" />
    <glyph glyph-name="Lcommaaccent" unicode="&#x13b;" horiz-adv-x="946" 
d="M610 -86v-131q0 -135 -62 -191t-220 -59v94q92 4 127 26t37 77h-158v184h276zM461 268h444v-268h-776v1366h332v-1098z" />
    <glyph glyph-name="lcommaaccent" unicode="&#x13c;" horiz-adv-x="542" 
d="M406 -119v-119q0 -133 -56 -184t-219 -65v96l88 12q61 12 68 88h-148v172h267zM428 0h-311v1366h311v-1366z" />
    <glyph glyph-name="Lcaron" unicode="&#x13d;" horiz-adv-x="946" 
d="M946 1329l-149 -432l-205 51l90 445zM461 268h444v-268h-776v1366h332v-1098z" />
    <glyph glyph-name="lcaron" unicode="&#x13e;" horiz-adv-x="835" 
d="M891 1329l-150 -432l-204 51l90 445zM428 0h-311v1366h311v-1366z" />
    <glyph glyph-name="Lslash" unicode="&#x141;" horiz-adv-x="946" 
d="M129 1366h332v-465l178 119v-283l-178 -114v-355h444v-268h-776v465l-109 -78v283l109 73v623z" />
    <glyph glyph-name="lslash" unicode="&#x142;" horiz-adv-x="569" 
d="M131 1366h311v-461l101 72v-256l-101 -66v-655h-311v492l-102 -72v254l102 67v625z" />
    <glyph glyph-name="Nacute" unicode="&#x143;" horiz-adv-x="1421" 
d="M770 1769h307l-301 -274h-205zM461 0h-332v1366h332l497 -768v768h332v-1366h-332l-497 778v-778z" />
    <glyph glyph-name="nacute" unicode="&#x144;" horiz-adv-x="1110" 
d="M586 1386h299l-285 -290h-184zM117 948h311v-106q47 78 101 110t141 33q147 0 243 -92q47 -47 67 -117t19 -194v-582h-311v580q0 70 -35 108t-94 39q-59 0 -95 -41t-36 -111v-575h-311v948z" />
    <glyph glyph-name="Ncommaaccent" unicode="&#x145;" horiz-adv-x="1421" 
d="M848 -86v-131q0 -135 -62 -191t-221 -59v94q92 4 127 26t37 77h-158v184h277zM461 0h-332v1366h332l497 -768v768h332v-1366h-332l-497 778v-778z" />
    <glyph glyph-name="ncommaaccent" unicode="&#x146;" horiz-adv-x="1110" 
d="M688 -119v-119q0 -133 -55 -184t-219 -65v96l88 12q61 12 67 88h-147v172h266zM117 948h311v-106q47 78 101 110t141 33q147 0 243 -92q47 -47 67 -117t19 -194v-582h-311v580q0 70 -35 108t-94 39q-59 0 -95 -41t-36 -111v-575h-311v948z" />
    <glyph glyph-name="Ncaron" unicode="&#x147;" horiz-adv-x="1421" 
d="M707 1645l165 124h205l-235 -274h-281l-219 274h205zM461 0h-332v1366h332l497 -768v768h332v-1366h-332l-497 778v-778z" />
    <glyph glyph-name="ncaron" unicode="&#x148;" horiz-adv-x="1110" 
d="M553 1247l139 139h205l-207 -290h-284l-193 290h205zM117 948h311v-106q47 78 101 110t141 33q147 0 243 -92q47 -47 67 -117t19 -194v-582h-311v580q0 70 -35 108t-94 39q-59 0 -95 -41t-36 -111v-575h-311v948z" />
    <glyph glyph-name="Omacron" unicode="&#x14c;" horiz-adv-x="1585" 
d="M438 1554v177h711v-177h-711zM795 1085q-166 -1 -277 -115q-110 -114 -110 -285t112 -288t273 -117q163 0 275 116t112 286t-110 286t-275 117zM807 1393q305 0 507 -204t202 -509q0 -148 -66 -290t-180 -243q-194 -174 -484 -174t-503 205t-213 506t229 518
q203 191 508 191z" />
    <glyph glyph-name="omacron" unicode="&#x14d;" horiz-adv-x="1183" 
d="M260 1153v176h662v-176h-662zM594 709q-100 0 -162 -65t-61 -170q0 -105 61 -171q60 -65 158 -65t160 64q61 66 61 172q-1 106 -59 170t-158 65zM59 474q-1 224 149 368t382 143q232 0 384 -148q150 -149 150 -367t-154 -362t-383 -144q-228 0 -378 142
q-150 144 -150 368z" />
    <glyph glyph-name="Ohungarumlaut" unicode="&#x150;" horiz-adv-x="1585" 
d="M1063 1765h266l-266 -270h-174zM682 1765h268l-268 -270h-174zM795 1085q-166 -1 -277 -115q-110 -114 -110 -285t112 -288t273 -117q163 0 275 116t112 286t-110 286t-275 117zM807 1393q305 0 507 -204t202 -509q0 -148 -66 -290t-180 -243q-194 -174 -484 -174
t-503 205t-213 506t229 518q203 191 508 191z" />
    <glyph glyph-name="ohungarumlaut" unicode="&#x151;" horiz-adv-x="1183" 
d="M827 1380h260l-249 -284h-158zM446 1380h261l-250 -284h-158zM594 709q-100 0 -162 -65t-61 -170q0 -105 61 -171q60 -65 158 -65t160 64q61 66 61 172q-1 106 -59 170t-158 65zM59 474q-1 224 149 368t382 143q232 0 384 -148q150 -149 150 -367t-154 -362t-383 -144
q-228 0 -378 142q-150 144 -150 368z" />
    <glyph glyph-name="OE" unicode="&#x152;" horiz-adv-x="2058" 
d="M820 1085q-171 -1 -290 -117q-118 -116 -118 -287t114 -286t283 -114q201 0 317 151q92 118 92 272t-113 268q-114 114 -285 113zM1532 551v-283h438v-268h-764v125q-152 -152 -438 -152t-490 205q-202 205 -202 507t203 505t501 203q248 0 426 -148v121h764v-268h-438
v-279h438v-268h-438z" />
    <glyph glyph-name="oe" unicode="&#x153;" horiz-adv-x="1843" 
d="M593 711q-93 0 -157 -67t-63 -166t65 -170q64 -70 155 -70t153 64t62 166q0 100 -60 172q-62 72 -155 71zM1319 727q-166 0 -215 -162h422q-41 162 -207 162zM1310 -37q-204 0 -362 143q-154 -143 -374 -143t-368 143q-146 142 -146 368t146 368t380 143q234 0 362 -139
q145 139 365 139q161 0 285 -78t176 -206t51 -302h-709q8 -66 51 -104q68 -57 162 -57q139 0 215 98l256 -80q-55 -109 -135 -172q-151 -121 -355 -121z" />
    <glyph glyph-name="Racute" unicode="&#x154;" horiz-adv-x="1220" 
d="M600 1769h307l-301 -274h-205zM461 715h106q102 0 160 49q57 49 57 137t-54 140t-142 53h-127v-379zM461 0h-332v1366h442q269 0 409 -108t140 -340q0 -311 -264 -416l301 -502h-397l-299 528v-528z" />
    <glyph glyph-name="racute" unicode="&#x155;" horiz-adv-x="698" 
d="M459 1386h299l-285 -290h-184zM117 948h311v-129q33 90 86 128t133 38h31v-319q-45 4 -57 4q-109 0 -162 -76q-31 -41 -31 -148v-446h-311v948z" />
    <glyph glyph-name="Rcommaaccent" unicode="&#x156;" horiz-adv-x="1220" 
d="M748 -86v-131q0 -135 -62 -191t-221 -59v94q92 4 127 26t37 77h-158v184h277zM461 715h106q102 0 160 49q57 49 57 137t-54 140t-142 53h-127v-379zM461 0h-332v1366h442q269 0 409 -108t140 -340q0 -311 -264 -416l301 -502h-397l-299 528v-528z" />
    <glyph glyph-name="rcommaaccent" unicode="&#x157;" horiz-adv-x="698" 
d="M410 -119v-119q0 -133 -56 -184t-219 -65v96l88 12q61 12 68 88h-148v172h267zM117 948h311v-129q33 90 86 128t133 38h31v-319q-45 4 -57 4q-109 0 -162 -76q-31 -41 -31 -148v-446h-311v948z" />
    <glyph glyph-name="Rcaron" unicode="&#x158;" horiz-adv-x="1220" 
d="M547 1645l166 124h205l-236 -274h-281l-219 274h205zM461 715h106q102 0 160 49q57 49 57 137t-54 140t-142 53h-127v-379zM461 0h-332v1366h442q269 0 409 -108t140 -340q0 -311 -264 -416l301 -502h-397l-299 528v-528z" />
    <glyph glyph-name="rcaron" unicode="&#x159;" horiz-adv-x="698" 
d="M389 1247l139 139h205l-207 -290h-284l-193 290h205zM117 948h311v-129q33 90 86 128t133 38h31v-319q-45 4 -57 4q-109 0 -162 -76q-31 -41 -31 -148v-446h-311v948z" />
    <glyph glyph-name="Sacute" unicode="&#x15a;" horiz-adv-x="1097" 
d="M618 1769h308l-301 -274h-205zM55 414h326q-2 -8 -2 -23q0 -51 48 -88q49 -37 111 -37t103 32t41 79t-39 76t-158 71q-225 82 -321 184t-96 257q0 193 130 311t343 117q137 1 247 -55t166 -148q55 -92 76 -227h-338q-14 137 -153 137q-59 0 -97 -30t-39 -85q0 -55 64 -92
q33 -23 198 -83t250 -138q115 -109 115 -287t-135 -295t-356 -117t-353 119q-131 119 -131 322z" />
    <glyph glyph-name="sacute" unicode="&#x15b;" horiz-adv-x="866" 
d="M500 1386h299l-285 -290h-184zM508 668v18q0 32 -27 54t-61 22t-55 -18q-20 -18 -21 -46q0 -53 109 -84q199 -57 281 -131q82 -75 81 -209q0 -134 -105 -222q-106 -88 -280 -89q-174 0 -276 85t-107 235h295q10 -53 30 -75t54 -22q35 0 55 20q21 20 21 50t-31 52t-156 62
t-197 114q-72 75 -71 202q-1 127 105 213t277 86q171 1 269 -83t99 -234h-289z" />
    <glyph glyph-name="Scedilla" unicode="&#x15e;" horiz-adv-x="1269" 
d="M903 -274q0 -80 -73 -134q-72 -54 -198 -55q-126 0 -274 60l43 92q119 -47 185 -47t95 24q30 24 30 59t-27 57q-48 38 -168 3l-51 47l90 141q-244 19 -377 147t-135 339h344q6 -109 55 -162q74 -70 194 -70t183 44q61 43 61 111t-50 99q-52 31 -242 86t-262 85
q-70 30 -123 73q-109 90 -109 267t146 291t395 114q248 0 389 -115t145 -324h-323q-4 86 -64 134t-158 47q-98 0 -149 -35t-51 -96t53 -90q33 -18 260 -78t312 -115q170 -104 170 -307q1 -203 -145 -321t-408 -128l-54 -84q68 10 95 11q88 0 142 -46q54 -44 54 -124z" />
    <glyph glyph-name="Scedilla" unicode="&#xf6c1;" horiz-adv-x="1269" 
d="M903 -274q0 -80 -73 -134q-72 -54 -198 -55q-126 0 -274 60l43 92q119 -47 185 -47t95 24q30 24 30 59t-27 57q-48 38 -168 3l-51 47l90 141q-244 19 -377 147t-135 339h344q6 -109 55 -162q74 -70 194 -70t183 44q61 43 61 111t-50 99q-52 31 -242 86t-262 85
q-70 30 -123 73q-109 90 -109 267t146 291t395 114q248 0 389 -115t145 -324h-323q-4 86 -64 134t-158 47q-98 0 -149 -35t-51 -96t53 -90q33 -18 260 -78t312 -115q170 -104 170 -307q1 -203 -145 -321t-408 -128l-54 -84q68 10 95 11q88 0 142 -46q54 -44 54 -124z" />
    <glyph glyph-name="scedilla" unicode="&#x15f;" horiz-adv-x="1032" 
d="M326 332q12 -160 181 -160q83 0 126 31t43 81t-40 72t-212 59q-172 36 -248 81q-121 70 -121 216t117 225t334 79q264 0 379 -127q61 -68 69 -191h-282q-10 72 -49 102t-121 29q-141 0 -142 -92q0 -47 44 -69t226 -58t267 -104q84 -68 84 -210q1 -142 -115 -228
q-116 -87 -327 -95l-52 -82q53 13 112 13t109 -41t50 -115t-68 -126t-186 -52t-250 53l39 86q105 -43 169 -43q118 0 118 80q0 35 -25 55q-51 41 -152 2l-49 41l84 131q-190 13 -296 107t-111 250h295z" />
    <glyph glyph-name="scedilla" unicode="&#xf6c2;" horiz-adv-x="1032" 
d="M326 332q12 -160 181 -160q83 0 126 31t43 81t-40 72t-212 59q-172 36 -248 81q-121 70 -121 216t117 225t334 79q264 0 379 -127q61 -68 69 -191h-282q-10 72 -49 102t-121 29q-141 0 -142 -92q0 -47 44 -69t226 -58t267 -104q84 -68 84 -210q1 -142 -115 -228
q-116 -87 -327 -95l-52 -82q53 13 112 13t109 -41t50 -115t-68 -126t-186 -52t-250 53l39 86q105 -43 169 -43q118 0 118 80q0 35 -25 55q-51 41 -152 2l-49 41l84 131q-190 13 -296 107t-111 250h295z" />
    <glyph glyph-name="Scaron" unicode="&#x160;" horiz-adv-x="1097" 
d="M547 1645l166 124h205l-236 -274h-281l-219 274h205zM55 414h326q-2 -8 -2 -23q0 -51 48 -88q49 -37 111 -37t103 32t41 79t-39 76t-158 71q-225 82 -321 184t-96 257q0 193 130 311t343 117q137 1 247 -55t166 -148q55 -92 76 -227h-338q-14 137 -153 137q-59 0 -97 -30
t-39 -85q0 -55 64 -92q33 -23 198 -83t250 -138q115 -109 115 -287t-135 -295t-356 -117t-353 119q-131 119 -131 322z" />
    <glyph glyph-name="scaron" unicode="&#x161;" horiz-adv-x="866" 
d="M432 1247l139 139h205l-207 -290h-284l-193 290h205zM508 668v18q0 32 -27 54t-61 22t-55 -18q-20 -18 -21 -46q0 -53 109 -84q199 -57 281 -131q82 -75 81 -209q0 -134 -105 -222q-106 -88 -280 -89q-174 0 -276 85t-107 235h295q10 -53 30 -75t54 -22q35 0 55 20
q21 20 21 50t-31 52t-156 62t-197 114q-72 75 -71 202q-1 127 105 213t277 86q171 1 269 -83t99 -234h-289z" />
    <glyph glyph-name="Tcommaaccent" unicode="&#x162;" horiz-adv-x="960" 
d="M618 -86v-131q0 -135 -62 -191t-220 -59v94q92 4 127 26t37 77h-158v184h276zM647 1098v-1098h-332v1098h-315v268h961v-268h-314z" />
    <glyph glyph-name="Tcommaaccent" unicode="&#x21a;" horiz-adv-x="960" 
d="M618 -86v-131q0 -135 -62 -191t-220 -59v94q92 4 127 26t37 77h-158v184h276zM647 1098v-1098h-332v1098h-315v268h961v-268h-314z" />
    <glyph glyph-name="tcommaaccent" unicode="&#x163;" horiz-adv-x="604" 
d="M467 -119v-119q0 -133 -55 -184t-219 -65v96l88 12q61 12 67 88h-147v172h266zM440 696v-377q0 -61 76 -61h33v-258h-240q-96 0 -138 46t-42 153v497h-96v258h96v234h311v-234h109v-258h-109z" />
    <glyph glyph-name="tcommaaccent" unicode="&#x21b;" horiz-adv-x="604" 
d="M467 -119v-119q0 -133 -55 -184t-219 -65v96l88 12q61 12 67 88h-147v172h266zM440 696v-377q0 -61 76 -61h33v-258h-240q-96 0 -138 46t-42 153v497h-96v258h96v234h311v-234h109v-258h-109z" />
    <glyph glyph-name="Tcaron" unicode="&#x164;" horiz-adv-x="960" 
d="M477 1645l166 124h205l-236 -274h-280l-219 274h204zM647 1098v-1098h-332v1098h-315v268h961v-268h-314z" />
    <glyph glyph-name="tcaron" unicode="&#x165;" horiz-adv-x="843" 
d="M897 1532l-149 -432l-205 51l90 444zM440 696v-377q0 -61 76 -61h33v-258h-240q-96 0 -138 46t-42 153v497h-96v258h96v234h311v-234h109v-258h-109z" />
    <glyph glyph-name="Umacron" unicode="&#x16a;" horiz-adv-x="1310" 
d="M299 1554v177h711v-177h-711zM440 571q0 -292 215 -290q129 0 185 101q29 52 28 189v795h332v-780q0 -301 -143 -457t-405 -156t-416 170q-127 141 -127 443v780h331v-795z" />
    <glyph glyph-name="umacron" unicode="&#x16b;" horiz-adv-x="1083" 
d="M211 1153v176h661v-176h-661zM981 352q1 -389 -445 -389q-212 1 -322 99t-112 290v596h312v-573q0 -154 131 -154q59 0 92 35t33 96v596h311v-596z" />
    <glyph glyph-name="Uring" unicode="&#x16e;" horiz-adv-x="1310" 
d="M655 1735q-39 0 -65 -27q-26 -28 -27 -64q0 -36 28 -63q29 -27 65 -27t64 27t28 63t-27 64q-27 27 -66 27zM656 1841q86 0 144 -57q58 -56 58 -140t-59 -140t-143 -56t-144 57q-59 57 -59 139t59 140q59 57 144 57zM440 571q0 -292 215 -290q129 0 185 101q29 52 28 189
v795h332v-780q0 -301 -143 -457t-405 -156t-416 170q-127 141 -127 443v780h331v-795z" />
    <glyph glyph-name="uring" unicode="&#x16f;" horiz-adv-x="1083" 
d="M541 1339q-39 -1 -66 -27t-27 -63t28 -63t65 -27q37 0 65 27q28 28 27 64t-27 62t-65 27zM542 1446q85 0 143 -57t58 -141t-59 -139q-59 -56 -143 -56t-144 57q-59 57 -59 139t59 140q60 57 145 57zM981 352q1 -389 -445 -389q-212 1 -322 99t-112 290v596h312v-573
q0 -154 131 -154q59 0 92 35t33 96v596h311v-596z" />
    <glyph glyph-name="Uhungarumlaut" unicode="&#x170;" horiz-adv-x="1310" 
d="M922 1765h266l-266 -270h-174zM541 1765h268l-268 -270h-174zM440 571q0 -292 215 -290q129 0 185 101q29 52 28 189v795h332v-780q0 -301 -143 -457t-405 -156t-416 170q-127 141 -127 443v780h331v-795z" />
    <glyph glyph-name="uhungarumlaut" unicode="&#x171;" horiz-adv-x="1083" 
d="M778 1380h260l-250 -284h-157zM397 1380h260l-249 -284h-158zM981 352q1 -389 -445 -389q-212 1 -322 99t-112 290v596h312v-573q0 -154 131 -154q59 0 92 35t33 96v596h311v-596z" />
    <glyph glyph-name="Uogonek" unicode="&#x172;" horiz-adv-x="1310" 
d="M440 569q0 -292 215 -290q127 0 185 102q29 51 28 188v797h332v-782q0 -375 -221 -523q-65 -53 -94 -75q-127 -100 -127 -168q0 -61 92 -62q31 0 76 13l18 -170q-84 -25 -176 -25t-160 50t-67 134q0 119 121 213q-209 0 -359 111q-102 76 -148 194t-46 308v782h331v-797z
" />
    <glyph glyph-name="uogonek" unicode="&#x173;" horiz-adv-x="1083" 
d="M981 948v-596q0 -108 -26 -174t-85 -117q-98 -100 -120 -132t-23 -64q0 -57 80 -58q31 0 59 11l15 -135q-177 -45 -268 25q-54 42 -54 114t72 145q-78 -4 -92 -4q-211 -1 -323 97t-114 292v596h312v-573q0 -154 131 -154q59 0 92 35t33 96v596h311z" />
    <glyph glyph-name="Ydieresis" unicode="&#x178;" horiz-adv-x="1169" 
d="M645 1655q0 66 47 113t114 47q67 1 113 -47t46 -113t-47 -113t-113 -47q-66 0 -113 47t-47 113zM201 1655q1 66 47 113t113 47q67 1 113 -47t46 -113t-47 -113t-113 -47q-66 0 -112 47t-47 113zM754 0h-332v602l-449 764h396l221 -420l217 420h389l-442 -764v-602z" />
    <glyph glyph-name="Zacute" unicode="&#x179;" horiz-adv-x="1138" 
d="M666 1769h307l-301 -274h-205zM1059 268v-268h-1032l571 1098h-506v268h1020l-571 -1098h518z" />
    <glyph glyph-name="zacute" unicode="&#x17a;" horiz-adv-x="880" 
d="M510 1386h299l-285 -290h-184zM838 258v-258h-813l352 690h-324v258h803l-352 -690h334z" />
    <glyph glyph-name="Zdotaccent" unicode="&#x17b;" horiz-adv-x="1138" 
d="M438 1655q0 66 47 113t114 47q67 1 113 -47t46 -113t-47 -113t-113 -47q-66 0 -113 47t-47 113zM1059 268v-268h-1032l571 1098h-506v268h1020l-571 -1098h518z" />
    <glyph glyph-name="zdotaccent" unicode="&#x17c;" horiz-adv-x="880" 
d="M460 1411q68 0 112 -46t44 -113q0 -68 -46 -112t-112 -44t-111 46q-46 46 -46 112t46 111q46 46 113 46zM838 258v-258h-813l352 690h-324v258h803l-352 -690h334z" />
    <glyph glyph-name="Zcaron" unicode="&#x17d;" horiz-adv-x="1138" 
d="M600 1645l166 124h205l-236 -274h-280l-219 274h204zM1059 268v-268h-1032l571 1098h-506v268h1020l-571 -1098h518z" />
    <glyph glyph-name="zcaron" unicode="&#x17e;" horiz-adv-x="880" 
d="M457 1247l139 139h205l-207 -290h-285l-192 290h205zM838 258v-258h-813l352 690h-324v258h803l-352 -690h334z" />
    <glyph glyph-name="florin" unicode="&#x192;" 
d="M125 -274h-31l51 288q113 12 131 113l121 684h-94l25 137h92l29 154q35 209 155 307q121 98 336 92l-51 -289q-113 -12 -131 -110l-27 -154h111l-23 -137h-112l-121 -684q-70 -401 -461 -401z" />
    <glyph glyph-name="Scommaaccent" unicode="&#x218;" horiz-adv-x="1097" 
d="M680 -86v-131q0 -135 -62 -191t-221 -59v94q92 4 127 26t37 77h-158v184h277zM55 414h326q-2 -8 -2 -23q0 -51 48 -88q49 -37 111 -37t103 32t41 79t-39 76t-158 71q-225 82 -321 184t-96 257q0 193 130 311t343 117q137 1 247 -55t166 -148q55 -92 76 -227h-338
q-14 137 -153 137q-59 0 -97 -30t-39 -85q0 -55 64 -92q33 -23 198 -83t250 -138q115 -109 115 -287t-135 -295t-356 -117t-353 119q-131 119 -131 322z" />
    <glyph glyph-name="scommaaccent" unicode="&#x219;" horiz-adv-x="866" 
d="M567 -119v-119q0 -133 -55 -184t-219 -65v96l88 12q61 12 68 88h-148v172h266zM508 668v18q0 32 -27 54t-61 22t-55 -18q-20 -18 -21 -46q0 -53 109 -84q199 -57 281 -131q82 -75 81 -209q0 -134 -105 -222q-106 -88 -280 -89q-174 0 -276 85t-107 235h295q10 -53 30 -75
t54 -22q35 0 55 20q21 20 21 50t-31 52t-156 62t-197 114q-72 75 -71 202q-1 127 105 213t277 86q171 1 269 -83t99 -234h-289z" />
    <glyph glyph-name="circumflex" unicode="&#x2c6;" 
d="M514 1237l-139 -141h-205l207 290h287l190 -290h-205z" />
    <glyph glyph-name="caron" unicode="&#x2c7;" 
d="M510 1247l139 139h205l-207 -290h-285l-192 290h205z" />
    <glyph glyph-name="breve" unicode="&#x2d8;" 
d="M651 1380h205q-23 -135 -112 -210q-89 -74 -231 -74t-233 74t-112 210h205q16 -59 48 -84q32 -24 91 -24t91 24t48 84z" />
    <glyph glyph-name="dotaccent" unicode="&#x2d9;" 
d="M511 1411q67 0 112 -46t45 -113q0 -68 -46 -112t-112 -44t-112 46t-46 112t46 111q46 46 113 46z" />
    <glyph glyph-name="ring" unicode="&#x2da;" 
d="M512 1339q-39 -1 -66 -27q-26 -26 -26 -63t28 -63t64 -27q37 0 65 27q27 28 27 64t-26 63q-27 26 -66 26zM513 1446q85 0 143 -57t58 -141t-58 -139q-60 -56 -144 -56t-143 57t-60 139q-1 81 59 139t145 58z" />
    <glyph glyph-name="ogonek" unicode="&#x2db;" 
d="M520 -135q0 -57 80 -58q31 0 59 11l15 -135q-177 -45 -267 25q-54 42 -55 112q0 98 109 180h143q-84 -84 -84 -135z" />
    <glyph glyph-name="tilde" unicode="&#x2dc;" 
d="M649 1106q-45 0 -130 32t-93 31q-33 0 -45 -67h-199q35 260 221 260q53 0 134 -30t94 -32q35 0 41 66h198q-14 -120 -73 -190t-148 -70z" />
    <glyph glyph-name="hungarumlaut" unicode="&#x2dd;" 
d="M748 1380h260l-250 -284h-158zM367 1380h260l-250 -284h-158z" />
    <glyph glyph-name="Delta" unicode="&#x394;" horiz-adv-x="1337" 
d="M428 279h477l-235 749zM18 0l484 1366h332l487 -1366h-1303z" />
    <glyph glyph-name="Delta" unicode="&#x2206;" horiz-adv-x="1337" 
d="M428 279h477l-235 749zM18 0l484 1366h332l487 -1366h-1303z" />
    <glyph glyph-name="endash" unicode="&#x2013;" 
d="M952 616v-258h-880v258h880z" />
    <glyph glyph-name="emdash" unicode="&#x2014;" horiz-adv-x="1415" 
d="M1415 616v-231h-1415v231h1415z" />
    <glyph glyph-name="quoteleft" unicode="&#x2018;" horiz-adv-x="497" 
d="M63 963l150 430l205 -50l-90 -446z" />
    <glyph glyph-name="quoteright" unicode="&#x2019;" horiz-adv-x="497" 
d="M434 1329l-149 -432l-205 51l90 445z" />
    <glyph glyph-name="quotesinglbase" unicode="&#x201a;" horiz-adv-x="516" 
d="M453 244l-158 -467l-215 49l96 487z" />
    <glyph glyph-name="quotedblleft" unicode="&#x201c;" horiz-adv-x="919" 
d="M63 926l160 467l213 -50l-96 -487zM467 926l158 467l215 -50l-97 -487z" />
    <glyph glyph-name="quotedblright" unicode="&#x201d;" horiz-adv-x="919" 
d="M856 1323l-160 -467l-213 49l97 488zM453 1323l-158 -467l-215 49l96 488z" />
    <glyph glyph-name="quotedblbase" unicode="&#x201e;" horiz-adv-x="919" 
d="M856 244l-160 -467l-213 49l97 487zM453 244l-158 -467l-215 49l96 487z" />
    <glyph glyph-name="dagger" unicode="&#x2020;" 
d="M383 1366h260v-342h299v-219h-299v-1188h-260v1188h-301v219h301v342z" />
    <glyph glyph-name="daggerdbl" unicode="&#x2021;" 
d="M383 1366h260v-356h299v-219h-299v-578h299v-219h-299v-377h-260v377h-301v219h301v578h-301v219h301v356z" />
    <glyph glyph-name="bullet" unicode="&#x2022;" horiz-adv-x="1366" 
d="M686 977q117 0 200 -84t83 -201q0 -118 -83 -200t-200 -82t-201 83t-84 201t84 200q84 83 201 83z" />
    <glyph glyph-name="ellipsis" unicode="&#x2026;" horiz-adv-x="1689" 
d="M1409 315q76 0 124 -49t48 -124t-49 -124t-124 -49t-124 49t-49 125t49 124t125 48zM846 315q76 0 124 -49t48 -124t-49 -124t-124 -49t-124 49t-49 125t49 124t125 48zM283 315q76 0 124 -49t48 -124t-49 -124t-124 -49t-124 49t-49 125t49 124t125 48z" />
    <glyph glyph-name="perthousand" unicode="&#x2030;" horiz-adv-x="2191" 
d="M1765 442v-184q-1 -61 13 -90t66 -29t70 28q17 28 17 99v176q0 70 -17 95q-18 25 -66 25t-66 -26q-18 -24 -17 -94zM1575 442q0 289 259 289q126 0 204 -65q80 -72 80 -209v-215q0 -131 -69 -200t-202 -69t-207 68q-66 66 -65 240v161zM1243 1339l-885 -1366l-88 56
l883 1364zM1085 442v-184q-1 -61 13 -90t66 -29t70 28q17 28 17 99v176q0 70 -17 95q-18 25 -66 25t-66 -26q-18 -24 -17 -94zM895 442q0 289 259 289q126 0 204 -65q80 -72 80 -209v-215q0 -131 -69 -200t-202 -69t-206 68q-66 66 -66 240v161zM266 1104v-182q0 -63 13 -92
t65 -29t71 27q17 28 17 102v174q0 70 -17 94t-65 25q-48 -1 -66 -25t-18 -94zM618 1120v-217q0 -131 -68 -200t-202 -69q-133 0 -207 68q-66 66 -65 242v160q0 150 61 213q70 76 197 76t205 -66q79 -72 79 -207z" />
    <glyph glyph-name="guilsinglleft" unicode="&#x2039;" horiz-adv-x="530" 
d="M256 492l193 -334h-193l-188 334l188 342h193z" />
    <glyph glyph-name="guilsinglright" unicode="&#x203a;" horiz-adv-x="530" 
d="M274 500l-192 334h192l189 -334l-189 -342h-192z" />
    <glyph glyph-name="fraction" unicode="&#x2044;" horiz-adv-x="262" 
d="M618 1339l-884 -1366l-88 56l882 1364z" />
    <glyph glyph-name="fraction" unicode="&#x2215;" horiz-adv-x="262" 
d="M618 1339l-884 -1366l-88 56l882 1364z" />
    <glyph glyph-name="trademark" unicode="&#x2122;" horiz-adv-x="1767" 
d="M952 547h-223v819h256l217 -424l217 424h256v-819h-223v434l-250 -477l-250 477v-434zM430 1194v-647h-223v647h-195v172h613v-172h-195z" />
    <glyph glyph-name="partialdiff" unicode="&#x2202;" 
d="M700 444q0 86 -54 146t-134 59q-80 0 -137 -60q-57 -61 -57 -145t56 -145t135 -61t135 60t56 146zM991 543q0 -307 -182 -457q-125 -102 -317 -102t-326 133q-133 133 -133 327t118 317q118 124 275 124t258 -82q-49 88 -86 128t-106 81q-176 86 -377 100l37 248
q203 -20 340 -72t247 -147q252 -221 252 -598z" />
    <glyph glyph-name="summation" unicode="&#x2211;" horiz-adv-x="1366" 
d="M1282 1536v-532h-289l-35 237h-528l494 -698l-492 -760h545l18 248h305v-543h-1230v340l473 713l-473 655v340h1212z" />
    <glyph glyph-name="minus" unicode="&#x2212;" 
d="M16 819h994v-157h-994v157z" />
    <glyph glyph-name="radical" unicode="&#x221a;" horiz-adv-x="1366" 
d="M1366 1694v-267h-336l-356 -1427h-375l-115 510h-184v266h367l51 -207q18 -70 41 -293h16q49 350 123 635l197 783h571z" />
    <glyph glyph-name="notequal" unicode="&#x2260;" 
d="M954 995v-282h-280l-80 -150h360v-282h-465l-122 -228l-209 115l65 113h-155v282h258l82 150h-338v282h452l144 269l208 -115l-86 -154h166z" />
    <glyph glyph-name="lessequal" unicode="&#x2264;" 
d="M954 344v-297h-886v297h886zM954 1341v-315l-518 -158l518 -153v-318l-886 332v283z" />
    <glyph glyph-name="greaterequal" unicode="&#x2265;" 
d="M68 47v297h886v-297h-886zM68 397v318l518 153l-518 158v315l886 -329v-283z" />
    <glyph glyph-name="lozenge" unicode="&#x25ca;" horiz-adv-x="1366" 
d="M684 1237l-403 -553l403 -555l403 555zM684 1419l530 -735l-530 -737l-532 737z" />
    <glyph glyph-name="middot" unicode="&#xe000;" horiz-adv-x="563" 
d="M283 682q76 0 124 -49t48 -124t-49 -124t-124 -49t-124 49t-49 125t49 124t125 48z" />
    <glyph glyph-name="nbspace" unicode="&#xe001;" horiz-adv-x="614" 
 />
    <glyph glyph-name="commaaccent" unicode="&#xf6c3;" 
d="M645 -119v-119q0 -133 -55 -184t-219 -65v96l88 12q61 12 67 88h-147v172h266z" />
    </font>
</defs>
</svg>
